<svg width="402" height="874" viewBox="0 0 402 874" fill="none" xmlns="http://www.w3.org/2000/svg">
<g clip-path="url(#clip0_6_119)">
<rect width="402" height="874" fill="#91BF5C"/>
<path d="M-76.5 648.667C-94.9 650.667 -94 651 -96 638.167C-46.8545 614.593 19.3532 601.695 57.872 594.192L58 594.167C70.7277 591.687 91.5 617.667 91.5 617.667C-19.5 675.167 -58.1 646.667 -76.5 648.667Z" fill="#C3DB88"/>
<path d="M37 602C34.6667 608 30 623.1 30 635.5C30 638.167 27.8 646.3 19 657.5C10.2 668.7 -4 633.5 -10 614.5C-3.5 621.5 9.5 633.5 9.5 625.5V581L19 614.5L37 602Z" fill="#7D985E"/>
<path d="M153 641.5C124.2 634.7 44.6667 632.333 8.5 632C26.5 639.6 287.333 761.167 415.5 821V780.5C415 772.167 410.7 754.1 397.5 748.5C381 741.5 230.5 661 208.5 661C186.5 661 189 650 153 641.5Z" fill="#7D985E"/>
<path d="M229.5 691.5C182.3 668.3 48.8333 644.5 -12 635.5L-25.5 898H426.5V784C380.5 762.833 276.7 714.7 229.5 691.5Z" fill="#D1220D"/>
<path d="M146 665C127 685.833 104.6 734.5 167 762.5L243 803.5V896C224.5 898.5 190 902 200 896C212.5 888.5 229 845.5 233 834C236.2 824.8 190.333 782.5 167 762.5L73.5 744.5V718L146 665Z" fill="#7B2121"/>
<path d="M-6.00003 732.5C-0.40003 718.9 31.6666 708.5 47 705L12.5 677.5L-18 691.5C-16.3333 710.833 -11.6 746.1 -6.00003 732.5Z" fill="#7B2121"/>
<path d="M33.5 878.5C16.3 862.5 12.3333 811.5 12.5 788H-18V883.5C6.33333 888.5 50.7 894.5 33.5 878.5Z" fill="#7B2121"/>
<path d="M306.5 816C316.5 814.8 331 767.833 337 744.5L389 769.5L344.5 844L442 896L329.5 883.5L344.5 844C327.667 835.167 296.5 817.2 306.5 816Z" fill="#7B2121"/>
<path d="M63 809C55 799.8 24.3333 791.167 10 788L79.5 724.5C43.1 704.5 4.66667 693.167 -10 690L49 635L148 664L79.5 724.5C100.7 726.1 147 751.5 167.5 764C167.5 757.6 208.5 714.667 229 694L297.5 718.5L242 805.5C223.667 791.667 183.1 764 167.5 764L104 838.5C120 842.1 143 865 152.5 876H79.5L104 838.5C93.6667 832.5 71 818.2 63 809Z" fill="#EFEDFC"/>
<path d="M342.5 844.5L387 768C393.4 771.2 406 786.667 411.5 794C407.167 824 398.1 882.4 396.5 876C394.9 869.6 359.833 852.333 342.5 844.5Z" fill="#EFEDFC"/>
<path d="M404 872.5C400.8 864.9 392.667 800 389 768.5C387.4 764.9 356.667 818 341.5 845C363.667 857.333 407.2 880.1 404 872.5Z" fill="#DEDEDE"/>
<path d="M56.5 804C44.1 784.8 67 744.333 80 726.5C77.2 728.9 31.1666 768.833 8.49997 788.5L56.5 804Z" fill="#DEDEDE"/>
<path d="M49.5 708.5C35.8333 703.167 6.39998 692.5 -2 692.5C-2 670.5 60.5 622.5 49.5 634.5C40.7 644.1 45.8333 687.833 49.5 708.5Z" fill="#DEDEDE"/>
<path d="M242 804C190 755.2 212.667 709.333 230.5 692.5C225.7 692.5 184.833 739.5 165 763C175 763 230.5 799 242 804Z" fill="#DEDEDE"/>
<path d="M240.649 878.5C235.676 887.3 260.517 882.167 273.559 878.5L275.387 797.5L251.768 778C248.185 825.54 243.832 872.866 240.649 878.5Z" fill="#FBFBFB"/>
<path d="M273.559 878.5L316.887 885L310.887 800.75L275.387 797.5L273.559 878.5Z" fill="#FBFBFB"/>
<path d="M316.887 885L358.5 878.5L347.157 781L310.887 800.75L316.887 885Z" fill="#FBFBFB"/>
<path d="M310.887 800.75L347.157 781C343.283 769.8 319.523 763.667 308.127 762L310.887 800.75Z" fill="#CFD4EA"/>
<path d="M275.387 797.5L310.887 800.75L308.127 762H304.887C297.487 762.333 281.419 763.7 276.344 766.5L275.387 797.5Z" fill="#CFD4EA"/>
<path d="M251.768 778L275.387 797.5L276.344 766.5L251.768 778Z" fill="#CFD4EA"/>
<path d="M330 879.5C348 872.7 349 811.5 346.5 782L359.5 881.5C342.167 883.667 312 886.3 330 879.5Z" fill="#D9D9D9"/>
<path d="M292.537 880.5C310.537 873.7 311.537 812.5 309.037 783L322.037 882.5C304.704 884.667 274.537 887.3 292.537 880.5Z" fill="#D9D9D9"/>
<path d="M272 790.5C280 791.7 313.667 775.667 329.5 767.5C338.7 769.5 345 778 347 782L310 800L276 796.5C271.333 794 264 789.3 272 790.5Z" fill="#C0C0C0"/>
<path d="M95.5 489.5C77.1 491.5 78 491.833 76 479C125.146 455.426 191.353 442.529 229.872 435.025L230 435C242.728 432.521 263.5 458.5 263.5 458.5C152.5 516 113.9 487.5 95.5 489.5Z" fill="#C3DB88"/>
<path d="M343 416C324.6 418 316 392.833 314 380C363.2 356.4 452.5 335.5 491 328L501.5 359.5C456.333 377.5 361.4 414 343 416Z" fill="#C3DB88"/>
<path d="M273 794C273.161 795.897 273.274 797.876 273.341 799.919L278.037 881.5C260.704 883.667 230.537 886.3 248.537 879.5C265.379 873.137 274.31 829.653 273.341 799.919L273 794Z" fill="#D9D9D9"/>
<path d="M247 881.5C248.6 888.7 240.333 884.5 236 881.5L257 714C255.635 732.025 253.852 756.408 252.157 781C252.342 781.118 252.532 781.24 252.727 781.366C259.883 785.916 273.996 793.394 277.5 789.5C278.167 768 280.3 724.3 283.5 721.5C283 742.5 281.1 785.5 277.5 789.5V884.5H273.5C273.833 857 274.3 801.2 273.5 798C272.722 794.887 259.679 785.845 252.727 781.366C252.532 781.241 252.342 781.119 252.157 781C248.885 828.49 245.946 876.756 247 881.5Z" fill="#6D6D6D"/>
<path d="M311.5 798C309.5 792.4 307.667 744.667 307 721.5C311.113 725.613 313.555 791.964 312.036 798L347 781C345 774.2 342.5 733.5 341.5 714C346.747 718.77 349.264 783.15 347.314 781.686C348.619 785.043 349.447 793.732 349.942 804.988L360 887L350 884.5C350.551 863.875 350.986 828.725 349.942 804.988L347 781C336.6 790.2 322.232 796.167 316.349 798L324 891L317 887C313.667 888.833 308.007 890.3 312.036 881.5C317.072 870.5 311.5 805.5 311.5 802.5C311.5 800.1 292.833 798.5 283.5 798H311.5Z" fill="#6D6D6D"/>
<path d="M295.042 660.054C325.442 661.254 345.709 674.554 352.042 681.054C355.203 686.56 355.507 695.772 343.542 702.919C349 707.5 347.3 717 346.5 717C345.5 717 346.542 726.054 343.542 728.054C340.542 730.054 318.042 734.054 303.542 735.554C289.042 737.054 261.042 728.054 255.542 726.054C251.142 724.454 250.709 721.388 251.042 720.054C252.876 718.888 255.942 715.754 253.542 712.554C251.142 709.354 252.542 706.35 253.542 705.248C244.25 699.758 241.622 692.518 242.042 687.554C247.042 677.888 264.642 658.854 295.042 660.054Z" fill="#9CABC2"/>
<path d="M314.5 722C316.5 720.4 323 715 326 712.5C332 709.333 344.3 703.6 345.5 706C347 709 347.5 725 344 727C341.2 728.6 317.833 733 306.5 735L317 727C315.333 726 312.5 723.6 314.5 722Z" fill="#8F8F8F"/>
<path d="M285.144 722.572C283.144 720.972 276.644 715.572 273.644 713.072C267.644 709.905 255.344 704.172 254.144 706.572C252.644 709.572 252.144 725.572 255.644 727.572C258.444 729.172 281.811 733.572 293.144 735.572L282.644 727.572C284.311 726.572 287.144 724.172 285.144 722.572Z" fill="#D9D9D9"/>
<path d="M276.835 663.529C276.897 663.51 276.952 663.5 277 663.5C276.945 663.51 276.89 663.519 276.835 663.529C273.67 664.508 252.711 690.153 263.5 698C272.3 704.4 290.167 711.667 298 714.5C284 714 254.9 711.3 250.5 704.5C246.1 697.7 243.333 693.333 242.5 692C242.5 684.515 249.373 668.364 276.835 663.529Z" fill="#D9D9D9"/>
<path d="M303 714C331 713.2 339.333 686.667 340 673.5C352.5 680 359 689 349 701C341 710.6 315 713.667 303 714Z" fill="#8F8F8F"/>
<path d="M242.5 687.5C243.5 694.667 253.2 707.931 286 711.531C327 716.031 350.5 704.031 353 689.031C354.5 693.698 353.9 703.6 345.5 706C349 708.333 359.1 714.2 345.5 719C348 721.667 349 727.7 339 730.5C329 733.3 320 733.698 318.5 733.531C325.833 731.698 345.5 726.2 345.5 719C331.9 723.8 320.167 724.031 318.5 723.531C328 721.531 347 716.931 347 714.531C347 712.131 345.5 707.833 345.5 706C334.5 712.5 291 724 252.5 707.5L257 714L283 725.031C277.247 723.556 261.46 719.687 255.5 717C255.279 717.074 255.034 717.154 254.773 717.242C252.733 718.29 256.5 721.159 256.5 722.531C256.5 723.731 277.167 730.864 283 733.531C278 732.531 254.6 727.531 251 723.531C247.718 719.885 252.082 718.151 254.773 717.242C254.963 717.145 255.202 717.063 255.5 717C250.7 714.2 248.5 707.5 252.5 707.5C247.333 704.333 242.5 699.5 242.5 687.5C242.5 685.5 251.5 659 298 660C288.459 661.167 267.4 665.531 259.5 669.531C251.6 673.531 245.041 683.833 242.5 687.5Z" fill="#5B5252"/>
<ellipse cx="266.5" cy="687.5" rx="3.5" ry="2.5" fill="#3C3A3A"/>
<ellipse cx="279.049" cy="679.36" rx="3.5" ry="2.5" transform="rotate(15.8235 279.049 679.36)" fill="#3C3A3A"/>
<path d="M250.488 396C250.488 392.8 239.821 388 234.488 386C232.369 388.031 229.07 391.166 226.318 393.725C226.596 394.396 226.803 395.081 226.948 395.774L236.488 392C241.155 394.667 250.488 399.2 250.488 396Z" fill="#5D4439"/>
<path fill-rule="evenodd" clip-rule="evenodd" d="M102.488 460C86.4879 458 98.1546 445.833 105.988 440L134.988 425L196.488 404.5C197.488 396.333 202.988 381.2 216.988 386C217.627 386.219 218.23 386.453 218.799 386.702C222.876 388.484 225.185 390.986 226.318 393.725C226.596 394.396 226.803 395.081 226.948 395.774C228.388 402.652 223.719 410.225 221.488 411.5C218.84 413.013 207.038 412.26 200.549 411.61L203.488 423L227.988 418.5L233.488 452L236.488 457.5C232.321 458.333 224.388 458 225.988 450C227.588 442 224.321 428.667 222.488 423L202.453 428.125L212.988 429.5C212.988 432.667 213.488 439.2 215.488 440C217.488 440.8 218.988 444 219.488 445.5H206.488L208.488 433L186.222 428.456C185.286 429.308 184.299 430.165 183.26 431.018C184.482 437.856 186.488 449.258 186.488 450V454L176.488 452L178.204 434.84C177.644 435.23 177.072 435.616 176.488 436C172.903 438.356 169.197 439.975 165.564 441.044L155.488 454L167.488 472V486C170.688 487.6 171.488 490 171.488 491C167.488 492.167 159.488 494.2 159.488 493C159.488 492.637 159.547 491.893 159.621 490.945C159.855 487.978 160.246 483.016 159.488 481.5C158.918 480.36 156.399 472.398 154.152 465.298L154.152 465.297C152.457 459.94 150.918 455.075 150.488 454C149.804 452.29 153.212 446.562 155.777 442.749C149.2 443.158 143.607 442.096 140.488 441C138.294 444.134 131.777 451.788 122.292 456.447C121.147 463.271 115.752 483.172 112.988 493C111.821 493 109.488 492.2 109.488 489C109.488 485.98 113.05 468.77 115.132 459.138C113.323 459.613 111.439 459.955 109.488 460.128C103.888 471.03 97.4879 478.919 94.9879 481.5C91.3879 479.9 98.4879 466.5 102.488 460Z" fill="#AE5D39"/>
<path d="M227.988 367L216.988 386C217.627 386.219 218.23 386.453 218.799 386.702L229.988 372.5C234.321 374.5 242.988 378.1 242.988 376.5C242.988 374.9 232.988 369.5 227.988 367Z" fill="#5D4439"/>
<path d="M226.5 394.5C219.3 413.7 206.833 406.833 201.5 401L188 407.5C194.333 410 209.3 414.5 218.5 412.5C227.7 410.5 227.667 399.667 226.5 394.5Z" fill="#985233"/>
<path d="M124 429.5L115.5 457L117.5 458.5L126.5 436.5L131 444.5L138 440.5L124 429.5Z" fill="#AE5D39"/>
<path d="M201 428.5C197.833 427.333 191.3 424.7 190.5 423.5C192 423.5 198.5 427 200.5 426.5C202.5 426 222.5 422 224 422.5C225.2 422.9 229.833 446 232 457.5C229.833 456.833 225.6 455.1 226 453.5C226.4 451.9 223.833 432.833 222.5 423.5L201 428.5Z" fill="#985233"/>
<path d="M208 433.5C208 432.5 187 428.5 186.5 428.5C190.5 427.3 203.167 430.667 209 432.5L210 445.5C209 445.667 206.8 446 206 446C205 446 208 434.5 208 433.5Z" fill="#985233"/>
<path d="M164.5 439C166.1 438.2 182.833 427.667 191 422.5C191 428.5 174.5 437.5 166 441C165 440.833 162.9 439.8 164.5 439Z" fill="#985233"/>
<path d="M176.5 452L178.5 435C180.5 438 182 452 182 453C182 453.8 178.333 452.667 176.5 452Z" fill="#985233"/>
<path d="M109 489C108.6 485 118.5 447.667 123.5 429.5C127.5 431.5 134.833 438 138 441L136 441.5L124.5 431.5L112 492.5C111.167 493 109.4 493 109 489Z" fill="#985233"/>
<path d="M96.0001 458C90.0001 454.4 98.8334 445.833 104 442C102.333 444.5 99.2001 450.2 100 453C100.8 455.8 110.333 458.167 115 459C112.669 459.71 108.365 460.518 104 460.232C101.5 468.655 96.1001 484.6 94.5001 481C92.9001 477.4 98.8334 465.514 102 460.02C99.8685 459.702 97.7929 459.076 96.0001 458Z" fill="#985233"/>
<path d="M127 437C127.154 437.077 127.348 437.341 127.566 437.736L132 443.5L130.5 445.5C129.827 443.347 128.481 439.391 127.566 437.736L127 437Z" fill="#985233"/>
<path d="M125 441L124.917 441.499C124.857 444.03 129.507 448.474 132 450.5L122.5 456L124.917 441.499C124.921 441.323 124.948 441.156 125 441Z" fill="#985233"/>
<path d="M150 453L156 442C155 446 153 454.4 153 456C153 457.6 161.667 480.667 166 492C162.8 493.6 160.333 492.667 159.5 492L160 484.5L150 453Z" fill="#985233"/>
<path d="M91.5006 553C91.5006 549.8 80.834 545 75.5006 543C73.3813 545.031 70.0828 548.166 67.3307 550.725C67.6083 551.396 67.8152 552.081 67.9602 552.774L77.5006 549C82.1673 551.667 91.5006 556.2 91.5006 553Z" fill="#5D4439"/>
<path fill-rule="evenodd" clip-rule="evenodd" d="M-56.4994 617C-72.4994 615 -60.8327 602.833 -52.9994 597L-23.9994 582L37.5006 561.5C38.5006 553.333 44.0006 538.2 58.0006 543C58.6396 543.219 59.2426 543.453 59.8112 543.702C63.889 545.484 66.198 547.986 67.3307 550.725C67.6083 551.396 67.8152 552.081 67.9602 552.774C69.401 559.652 64.7317 567.225 62.5006 568.5C59.8524 570.013 48.0503 569.26 41.5614 568.61L44.5006 580L69.0006 575.5L74.5006 609L77.5006 614.5C73.334 615.333 65.4006 615 67.0006 607C68.6006 599 65.334 585.667 63.5006 580L43.4656 585.125L54.0006 586.5C54.0006 589.667 54.5006 596.2 56.5006 597C58.5006 597.8 60.0006 601 60.5006 602.5H47.5006L49.5006 590L27.2346 585.456C26.2989 586.308 25.3119 587.165 24.2726 588.018C25.4946 594.856 27.5006 606.258 27.5006 607V611L17.5006 609L19.2166 591.84C18.6564 592.23 18.0845 592.616 17.5006 593C13.9153 595.356 10.2098 596.975 6.57719 598.044L-3.49937 611L8.50063 629V643C11.7006 644.6 12.5006 647 12.5006 648C8.50063 649.167 0.500633 651.2 0.500633 650C0.500633 649.637 0.559265 648.893 0.633934 647.945C0.867645 644.978 1.2585 640.016 0.500633 638.5C-0.0693436 637.36 -2.58858 629.398 -4.835 622.298L-4.83531 622.297C-6.53001 616.94 -8.06937 612.075 -8.49937 611C-9.18318 609.29 -5.77548 603.562 -3.20995 599.749C-9.78751 600.158 -15.3801 599.096 -18.4994 598C-20.6935 601.134 -27.2104 608.788 -36.6953 613.447C-37.8398 620.271 -43.2353 640.172 -45.9994 650C-47.166 650 -49.4994 649.2 -49.4994 646C-49.4994 642.98 -45.937 625.77 -43.8551 616.138C-45.6643 616.613 -47.5479 616.955 -49.4994 617.128C-55.0994 628.03 -61.4994 635.919 -63.9994 638.5C-67.5994 636.9 -60.4994 623.5 -56.4994 617Z" fill="#AE5D39"/>
<path d="M69.0006 524L58.0006 543C58.6396 543.219 59.2426 543.453 59.8112 543.702L71.0006 529.5C75.334 531.5 84.0006 535.1 84.0006 533.5C84.0006 531.9 74.0006 526.5 69.0006 524Z" fill="#5D4439"/>
<path d="M67.5127 551.5C60.3127 570.7 47.846 563.833 42.5127 558L29.0127 564.5C35.346 567 50.3127 571.5 59.5127 569.5C68.7127 567.5 68.6794 556.667 67.5127 551.5Z" fill="#985233"/>
<path d="M42.0127 585.5C38.846 584.333 32.3127 581.7 31.5127 580.5C33.0127 580.5 39.5127 584 41.5127 583.5C43.5127 583 63.5127 579 65.0127 579.5C66.2127 579.9 70.846 603 73.0127 614.5C70.846 613.833 66.6127 612.1 67.0127 610.5C67.4127 608.9 64.846 589.833 63.5127 580.5L42.0127 585.5Z" fill="#985233"/>
<path d="M49.0127 590.5C49.0127 589.5 28.0127 585.5 27.5127 585.5C31.5127 584.3 44.1794 587.667 50.0127 589.5L51.0127 602.5C50.0127 602.667 47.8127 603 47.0127 603C46.0127 603 49.0127 591.5 49.0127 590.5Z" fill="#985233"/>
<path d="M5.51267 596C7.11267 595.2 23.846 584.667 32.0127 579.5C32.0127 585.5 15.5127 594.5 7.0127 598C6.0127 597.833 3.91267 596.8 5.51267 596Z" fill="#985233"/>
<path d="M17.5127 609L19.5127 592C21.5127 595 23.0127 609 23.0127 610C23.0127 610.8 19.346 609.667 17.5127 609Z" fill="#985233"/>
<path d="M-62.9872 615C-68.9872 611.4 -60.1539 602.833 -54.9872 599C-56.6539 601.5 -59.7872 607.2 -58.9872 610C-58.1872 612.8 -48.6539 615.167 -43.9872 616C-46.3186 616.71 -50.6226 617.518 -54.9872 617.232C-57.4872 625.655 -62.8872 641.6 -64.4872 638C-66.0872 634.4 -60.1539 622.514 -56.9872 617.02C-59.1188 616.702 -61.1944 616.076 -62.9872 615Z" fill="#985233"/>
<path d="M-31.9872 594C-31.8331 594.077 -31.6393 594.341 -31.4209 594.736L-26.9872 600.5L-28.4872 602.5C-29.16 600.347 -30.5062 596.391 -31.4209 594.736L-31.9872 594Z" fill="#985233"/>
<path d="M-33.9872 598L-34.0703 598.499C-34.1304 601.03 -29.4806 605.474 -26.9872 607.5L-36.4872 613L-34.0703 598.499C-34.0662 598.323 -34.0392 598.156 -33.9872 598Z" fill="#985233"/>
<path d="M-8.98724 610L-2.98724 599C-3.98724 603 -5.98724 611.4 -5.98724 613C-5.98724 614.6 2.67942 637.667 7.01276 649C3.81276 650.6 1.34609 649.667 0.512756 649L1.01276 641.5L-8.98724 610Z" fill="#985233"/>
<ellipse cx="295.049" cy="677.36" rx="3.5" ry="2.5" transform="rotate(15.8235 295.049 677.36)" fill="#3C3A3A"/>
<ellipse cx="3.5" cy="2.5" rx="3.5" ry="2.5" transform="matrix(-0.962106 0.272675 0.272675 0.962106 315.735 674)" fill="#3C3A3A"/>
<ellipse cx="3.5" cy="2.5" rx="3.5" ry="2.5" transform="matrix(-0.962106 0.272675 0.272675 0.962106 330.735 683)" fill="#3C3A3A"/>
<ellipse cx="3.5" cy="2.5" rx="3.5" ry="2.5" transform="matrix(-1 -0.000277743 -0.000277743 1 319.55 691.861)" fill="#3C3A3A"/>
<ellipse cx="3.5" cy="2.5" rx="3.5" ry="2.5" transform="matrix(-1 -0.000277743 -0.000277743 1 301.001 692.002)" fill="#3C3A3A"/>
<ellipse cx="3.5" cy="2.5" rx="3.5" ry="2.5" transform="matrix(-1 -0.000277743 -0.000277743 1 285.001 692.002)" fill="#3C3A3A"/>
<path fill-rule="evenodd" clip-rule="evenodd" d="M210.25 333C216.45 348.6 212.333 372.833 209.5 383C208.7 390.2 199.167 402.667 194.5 408C189.5 413.24 176.2 425.176 163 431C146.5 438.28 129.5 441 117.5 440.5C105.5 440 83.5 436 70.5 429.5C60.1 424.3 46.8333 408.833 41.5 401.75L43 400.5C74.646 438.286 108.077 436.362 113.788 436.033C114.122 436.014 114.362 436 114.5 436C114.801 436.054 115.103 436.105 115.404 436.154C141.95 440.446 170.459 424.904 181.5 416.5C213.1 391.3 212.333 350.333 208 333H210.25Z" fill="#9EA65D"/>
<path d="M40 403C47.3333 417.333 74.2 445.3 123 442.5C184 439 229.5 390.5 212.5 333H210.25C216.45 348.6 212.333 372.833 209.5 383C208.7 390.2 199.167 402.667 194.5 408C189.5 413.24 176.2 425.176 163 431C146.5 438.28 129.5 441 117.5 440.5C105.5 440 83.5 436 70.5 429.5C60.1 424.3 46.8333 408.833 41.5 401.75L40 403Z" fill="#4C6340"/>
<path fill-rule="evenodd" clip-rule="evenodd" d="M115.404 436.154C175.299 439.989 202.078 369.198 208 333C201.5 348.5 166.5 378 144 395.5C126 409.5 69.1667 404.667 43 400.5C74.646 438.286 108.077 436.362 113.788 436.033C114.122 436.014 114.362 436 114.5 436C114.801 436.054 115.103 436.105 115.404 436.154Z" fill="#DF1B41"/>
<path d="M181.5 416.5C213.1 391.3 212.333 350.333 208 333C202.078 369.198 175.299 439.989 115.404 436.154C141.95 440.446 170.459 424.904 181.5 416.5Z" fill="#AC223C"/>
<ellipse cx="78.5" cy="412" rx="2.5" ry="2" fill="#6C3636"/>
<ellipse cx="95.5001" cy="422" rx="2.5" ry="2" transform="rotate(-49.385 95.5001 422)" fill="#6C3636"/>
<ellipse cx="106.146" cy="414.2" rx="2.5" ry="2" transform="rotate(-49.385 106.146 414.2)" fill="#6C3636"/>
<ellipse cx="122.146" cy="422.2" rx="2.5" ry="2" transform="rotate(-49.385 122.146 422.2)" fill="#6C3636"/>
<ellipse cx="128.721" cy="409.284" rx="2.5" ry="2" transform="rotate(-6.85 128.721 409.284)" fill="#6C3636"/>
<ellipse cx="142.721" cy="416.284" rx="2.5" ry="2" transform="rotate(-6.85 142.721 416.284)" fill="#6C3636"/>
<ellipse cx="150.721" cy="404.284" rx="2.5" ry="2" transform="rotate(-6.85 150.721 404.284)" fill="#6C3636"/>
<ellipse cx="167.721" cy="409.284" rx="2.5" ry="2" transform="rotate(-6.85 167.721 409.284)" fill="#6C3636"/>
<ellipse cx="171.721" cy="386.284" rx="2.5" ry="2" transform="rotate(-6.85 171.721 386.284)" fill="#6C3636"/>
<ellipse cx="188.721" cy="371.284" rx="2.5" ry="2" transform="rotate(-6.85 188.721 371.284)" fill="#6C3636"/>
<ellipse cx="198.721" cy="381.284" rx="2.5" ry="2" transform="rotate(-6.85 198.721 381.284)" fill="#6C3636"/>
<path d="M132 400C108.4 408.8 62.1667 403.667 42 400C65 409.5 115 410.5 137 405C154.6 400.6 191 356.833 207 335.5C191.833 353.333 155.6 391.2 132 400Z" fill="#FF7979"/>
<path d="M228 473.5C198 469.1 161.833 496.667 147.5 511C170 511 196 503 203 494.5C208.6 487.7 243.333 484.333 260 483.5C274.333 480.167 305.5 473.5 315.5 473.5C325.5 473.5 385.333 455.167 414 446H358.5H315.5C298.833 457 258 477.9 228 473.5Z" fill="#7D985E"/>
<path d="M340.5 505.5C342.833 511.5 347.5 526.6 347.5 539C347.5 541.667 349.7 549.8 358.5 561C367.3 572.2 381.5 537 387.5 518C381 525 368 537 368 529V484.5L358.5 518L340.5 505.5Z" fill="#7D985E"/>
<path fill-rule="evenodd" clip-rule="evenodd" d="M-59 624.298C-27.0868 610.832 37.1933 583.419 39.0082 581.496C24.3372 597.847 -15.8038 635.84 -59 657V624.298Z" fill="#CD7E34"/>
<path d="M42.6382 608.908C44.0901 606.984 40.8232 589.832 39.0082 581.496C24.3372 597.847 -15.8038 635.84 -59 657C-25.7256 641.771 41.1862 610.832 42.6382 608.908Z" fill="#B1651E"/>
<path fill-rule="evenodd" clip-rule="evenodd" d="M-7.27343 541.099C8.91003 553.763 40.8232 579.572 39.0082 581.496C37.1933 583.419 -27.0868 610.832 -59 624.298L-56.5955 615.16L26.7572 578.61C16.7749 570.274 -4.36948 552.833 -9.0884 549.755L-42.6746 562.259L-40.3966 553.603C-29.9605 548.96 -8.72541 539.96 -7.27343 541.099Z" fill="#E7C5A4"/>
<path d="M26.7572 578.61C16.7749 570.274 -4.36948 552.833 -9.0884 549.755L-42.6746 562.259L-56.5955 615.16L26.7572 578.61Z" fill="#D6B18F"/>
<path d="M460.501 305C460.501 301.8 449.834 297 444.501 295C442.381 297.031 439.083 300.166 436.331 302.725C436.608 303.396 436.815 304.081 436.96 304.774L446.501 301C451.167 303.667 460.501 308.2 460.501 305Z" fill="#5D4439"/>
<path fill-rule="evenodd" clip-rule="evenodd" d="M312.501 369C296.501 367 308.167 354.833 316.001 349L345.001 334L406.501 313.5C407.501 305.333 413.001 290.2 427.001 295C427.64 295.219 428.243 295.453 428.811 295.702C432.889 297.484 435.198 299.986 436.331 302.725C436.608 303.396 436.815 304.081 436.96 304.774C438.401 311.652 433.732 319.225 431.501 320.5C428.852 322.013 417.05 321.26 410.561 320.61L413.501 332L438.001 327.5L443.501 361L446.501 366.5C442.334 367.333 434.401 367 436.001 359C437.601 351 434.334 337.667 432.501 332L412.466 337.125L423.001 338.5C423.001 341.667 423.501 348.2 425.501 349C427.501 349.8 429.001 353 429.501 354.5H416.501L418.501 342L396.235 337.456C395.299 338.308 394.312 339.165 393.273 340.018C394.495 346.856 396.501 358.258 396.501 359V363L386.501 361L388.217 343.84C387.656 344.23 387.084 344.616 386.501 345C382.915 347.356 379.21 348.975 375.577 350.044L365.501 363L377.501 381V395C380.701 396.6 381.501 399 381.501 400C377.501 401.167 369.501 403.2 369.501 402C369.501 401.637 369.559 400.893 369.634 399.945C369.868 396.978 370.258 392.016 369.501 390.5C368.931 389.36 366.411 381.398 364.165 374.298L364.165 374.297C362.47 368.94 360.931 364.075 360.501 363C359.817 361.29 363.225 355.562 365.79 351.749C359.212 352.158 353.62 351.096 350.501 350C348.307 353.134 341.79 360.788 332.305 365.447C331.16 372.271 325.765 392.172 323.001 402C321.834 402 319.501 401.2 319.501 398C319.501 394.98 323.063 377.77 325.145 368.138C323.336 368.613 321.452 368.955 319.501 369.128C313.901 380.03 307.501 387.919 305.001 390.5C301.401 388.9 308.501 375.5 312.501 369Z" fill="#AE5D39"/>
<path d="M438.001 276L427.001 295C427.64 295.219 428.243 295.453 428.811 295.702L440.001 281.5C444.334 283.5 453.001 287.1 453.001 285.5C453.001 283.9 443.001 278.5 438.001 276Z" fill="#5D4439"/>
<path d="M436.513 303.5C429.313 322.7 416.846 315.833 411.513 310L398.013 316.5C404.346 319 419.313 323.5 428.513 321.5C437.713 319.5 437.679 308.667 436.513 303.5Z" fill="#985233"/>
<path d="M334.013 338.5L325.513 366L327.513 367.5L336.513 345.5L341.013 353.5L348.013 349.5L334.013 338.5Z" fill="#AE5D39"/>
<path d="M411.013 337.5C407.846 336.333 401.313 333.7 400.513 332.5C402.013 332.5 408.513 336 410.513 335.5C412.513 335 432.513 331 434.013 331.5C435.213 331.9 439.846 355 442.013 366.5C439.846 365.833 435.613 364.1 436.013 362.5C436.413 360.9 433.846 341.833 432.513 332.5L411.013 337.5Z" fill="#985233"/>
<path d="M418.013 342.5C418.013 341.5 397.013 337.5 396.513 337.5C400.513 336.3 413.179 339.667 419.013 341.5L420.013 354.5C419.013 354.667 416.813 355 416.013 355C415.013 355 418.013 343.5 418.013 342.5Z" fill="#985233"/>
<path d="M374.513 348C376.113 347.2 392.846 336.667 401.013 331.5C401.013 337.5 384.513 346.5 376.013 350C375.013 349.833 372.913 348.8 374.513 348Z" fill="#985233"/>
<path d="M386.513 361L388.513 344C390.513 347 392.013 361 392.013 362C392.013 362.8 388.346 361.667 386.513 361Z" fill="#985233"/>
<path d="M319.013 398C318.613 394 328.513 356.667 333.513 338.5C337.513 340.5 344.846 347 348.013 350L346.013 350.5L334.513 340.5L322.013 401.5C321.179 402 319.413 402 319.013 398Z" fill="#985233"/>
<path d="M306.013 367C300.013 363.4 308.846 354.833 314.013 351C312.346 353.5 309.213 359.2 310.013 362C310.813 364.8 320.346 367.167 325.013 368C322.681 368.71 318.377 369.518 314.013 369.232C311.513 377.655 306.113 393.6 304.513 390C302.913 386.4 308.846 374.514 312.013 369.02C309.881 368.702 307.806 368.076 306.013 367Z" fill="#985233"/>
<path d="M337.013 346C337.167 346.077 337.361 346.341 337.579 346.736L342.013 352.5L340.513 354.5C339.84 352.347 338.494 348.391 337.579 346.736L337.013 346Z" fill="#985233"/>
<path d="M335.013 350L334.93 350.499C334.87 353.03 339.519 357.474 342.013 359.5L332.513 365L334.93 350.499C334.934 350.323 334.961 350.156 335.013 350Z" fill="#985233"/>
<path d="M360.013 362L366.013 351C365.013 355 363.013 363.4 363.013 365C363.013 366.6 371.679 389.667 376.013 401C372.813 402.6 370.346 401.667 369.513 401L370.013 393.5L360.013 362Z" fill="#985233"/>
<g filter="url(#filter0_d_6_119)">
<path d="M-40 -103H417V267.5C417 267.5 314.136 292.436 247.5 289C184.152 285.734 150.858 264.443 87.5 267.5C35.3103 270.018 -40 289 -40 289V-103Z" fill="#E3F4FF"/>
</g>
<path d="M354.5 344.042C394 335.042 403.5 280.042 379 266.542C382.5 271.347 389.1 282.966 387.5 291C387.217 292.419 386.945 294.165 386.637 296.136C384.767 308.119 381.598 328.418 367 334C353.4 339.2 341 343.786 336.5 345.429C341.674 345.947 347.634 345.606 354.5 344.042Z" fill="#865736"/>
<path d="M358 296.136C342.833 304.591 316.7 322.2 333.5 325C354.5 328.5 373 301.023 367 296.136C362.2 292.227 346 308.417 338.5 317L361 301.042C361.962 304.826 360.308 313.314 346 317C331.442 320.75 332.633 319.72 333.849 318.668C334.128 318.428 334.407 318.186 334.5 318C334.9 317.2 350.333 303.091 358 296.136Z" fill="#865736"/>
<path d="M371 264.014C358.944 263.446 353.698 280.026 350.146 291.25C349.188 294.277 348.353 296.914 347.541 298.721C355.829 286.262 366.477 270.62 371 264.014Z" fill="#E5BC53"/>
<path fill-rule="evenodd" clip-rule="evenodd" d="M346 301.042C346.522 300.677 347.027 299.866 347.541 298.721C355.829 286.262 366.477 270.62 371 264.014C373.387 264.127 376.04 264.911 379 266.542C382.5 271.347 389.1 282.966 387.5 291C387.217 292.419 386.945 294.165 386.637 296.136C384.767 308.119 381.598 328.418 367 334C353.4 339.2 341 343.786 336.5 345.429C320.659 343.843 312.183 334.208 307.604 327C308.062 320.184 330.771 308.077 343.88 302.009C344.772 301.714 345.49 301.399 346 301.042ZM333.5 325C316.7 322.2 342.833 304.591 358 296.136C350.333 303.091 334.9 317.2 334.5 318C334.407 318.186 334.128 318.428 333.849 318.668C332.633 319.72 331.442 320.75 346 317C360.308 313.314 361.962 304.826 361 301.042L338.5 317C346 308.417 362.2 292.227 367 296.136C373 301.023 354.5 328.5 333.5 325Z" fill="#BF921D"/>
<path d="M336.552 303.722C326.667 305.719 311.974 308.687 303 319.042C303.35 319.392 303.837 320.311 304.525 321.607C305.281 323.033 306.28 324.915 307.604 327C308.062 320.184 330.771 308.077 343.88 302.009C342.063 302.608 339.525 303.121 336.552 303.722Z" fill="#E5BC53"/>
<ellipse cx="280.846" cy="92.4555" rx="27.8462" ry="29.7621" fill="white"/>
<ellipse cx="286.067" cy="56.3506" rx="22.625" ry="23.9073" fill="white"/>
<ellipse cx="321.745" cy="85.1368" rx="40.899" ry="45.8629" fill="white"/>
<ellipse cx="316.524" cy="45.129" rx="30.4567" ry="35.129" fill="white"/>
<ellipse cx="375.697" cy="62.6935" rx="43.5096" ry="35.129" fill="white"/>
<path d="M434 91.9679C434 111.369 414.52 127.097 390.49 127.097C366.461 127.097 315.219 135.764 315.219 116.363C315.219 96.9618 366.461 56.8389 390.49 56.8389C414.52 56.8389 434 72.5667 434 91.9679Z" fill="white"/>
<ellipse cx="-31.2548" cy="194.137" rx="40.899" ry="45.8629" fill="white"/>
<ellipse cx="22.6971" cy="171.694" rx="43.5096" ry="35.129" fill="white"/>
<path d="M81 200.968C81 220.369 61.5201 236.097 37.4904 236.097C13.4607 236.097 -37.7812 244.764 -37.7812 225.363C-37.7812 205.962 13.4607 165.839 37.4904 165.839C61.5201 165.839 81 181.566 81 200.968Z" fill="white"/>
<path d="M123 310C90.6 306.8 44.1667 347 25 367.5C34 367.5 57 363.7 77 348.5C102 329.5 123 327.5 123 333C123 337.4 184.667 319.5 215.5 310C198.167 311.333 155.4 313.2 123 310Z" fill="#C3DB88"/>
<path d="M339.5 538.5V575.5C493.5 594.7 439.333 558.833 393 538.5L378.5 551.5C365.5 549 339.5 542.9 339.5 538.5Z" fill="#C3DB88"/>
</g>
<defs>
<filter id="filter0_d_6_119" x="-59" y="-118" width="495" height="430.325" filterUnits="userSpaceOnUse" color-interpolation-filters="sRGB">
<feFlood flood-opacity="0" result="BackgroundImageFix"/>
<feColorMatrix in="SourceAlpha" type="matrix" values="0 0 0 0 0 0 0 0 0 0 0 0 0 0 0 0 0 0 127 0" result="hardAlpha"/>
<feOffset dy="4"/>
<feGaussianBlur stdDeviation="9.5"/>
<feComposite in2="hardAlpha" operator="out"/>
<feColorMatrix type="matrix" values="0 0 0 0 0 0 0 0 0 0 0 0 0 0 0 0 0 0 0.25 0"/>
<feBlend mode="normal" in2="BackgroundImageFix" result="effect1_dropShadow_6_119"/>
<feBlend mode="normal" in="SourceGraphic" in2="effect1_dropShadow_6_119" result="shape"/>
</filter>
<clipPath id="clip0_6_119">
<rect width="402" height="874" fill="white"/>
</clipPath>
</defs>
</svg>
