<svg width="133" height="80" viewBox="0 0 133 80" fill="none" xmlns="http://www.w3.org/2000/svg">
<g filter="url(#filter0_d_6_122)">
<ellipse cx="23.2308" cy="49.0647" rx="19.2308" ry="17.7097" fill="white"/>
<ellipse cx="26.8364" cy="27.5808" rx="15.625" ry="14.2258" fill="white"/>
<ellipse cx="51.4759" cy="44.7098" rx="28.2452" ry="27.2903" fill="white"/>
<ellipse cx="47.8701" cy="20.9032" rx="21.0337" ry="20.9032" fill="white"/>
<ellipse cx="88.7356" cy="31.3549" rx="30.0481" ry="20.9032" fill="white"/>
<path d="M129 48.7743C129 60.3189 115.547 69.6775 98.9519 69.6775C82.3568 69.6775 46.9688 74.835 46.9688 63.2905C46.9688 51.7459 82.3568 27.8711 98.9519 27.8711C115.547 27.8711 129 37.2298 129 48.7743Z" fill="white"/>
<path d="M32.6128 53.5601C32.5195 53.5601 32.4402 53.5321 32.3748 53.4761C32.3188 53.4107 32.2908 53.3314 32.2908 53.2381V52.7481C32.2908 52.6547 32.3188 52.5801 32.3748 52.5241C32.4402 52.4587 32.5195 52.4261 32.6128 52.4261H36.4068L32.0248 46.1121C31.9968 46.0561 31.9735 46.0094 31.9548 45.9721C31.9362 45.9254 31.9268 45.8834 31.9268 45.8461C31.9268 45.7714 31.9548 45.7061 32.0108 45.6501C32.0762 45.5941 32.1462 45.5661 32.2208 45.5661H32.8928C32.9862 45.5661 33.0608 45.5941 33.1168 45.6501C33.1822 45.6967 33.2335 45.7481 33.2708 45.8041L37.8348 52.3421C37.8815 52.4074 37.9188 52.4774 37.9468 52.5521C37.9842 52.6174 38.0028 52.6921 38.0028 52.7761V53.2381C38.0028 53.3314 37.9702 53.4107 37.9048 53.4761C37.8488 53.5321 37.7742 53.5601 37.6808 53.5601H32.6128ZM36.1548 50.3681L35.5388 49.4581C36.0242 49.2807 36.3742 48.9914 36.5888 48.5901C36.8128 48.1794 36.9248 47.6801 36.9248 47.0921V45.8881C36.9248 45.7947 36.9528 45.7201 37.0088 45.6641C37.0742 45.5987 37.1535 45.5661 37.2468 45.5661H37.8208C37.9235 45.5661 38.0028 45.5987 38.0588 45.6641C38.1148 45.7201 38.1428 45.7947 38.1428 45.8881V47.2601C38.1428 48.0161 37.9748 48.6601 37.6388 49.1921C37.3028 49.7241 36.8082 50.1161 36.1548 50.3681ZM42.2337 46.3221C42.1497 46.3221 42.089 46.2941 42.0517 46.2381C42.0143 46.1821 42.0003 46.1121 42.0097 46.0281L42.3177 44.0261C42.3363 43.9141 42.3737 43.8207 42.4297 43.7461C42.495 43.6621 42.593 43.6201 42.7237 43.6201H43.6477C43.7223 43.6201 43.7783 43.6481 43.8157 43.7041C43.8623 43.7507 43.8857 43.8021 43.8857 43.8581C43.8857 43.9327 43.867 44.0074 43.8297 44.0821L43.1017 46.0001C43.0643 46.0934 43.013 46.1727 42.9477 46.2381C42.8917 46.2941 42.803 46.3221 42.6817 46.3221H42.2337ZM39.9937 46.3221C39.919 46.3221 39.8583 46.2941 39.8117 46.2381C39.7743 46.1821 39.7603 46.1121 39.7697 46.0281L40.0917 44.0261C40.1103 43.9141 40.1477 43.8207 40.2037 43.7461C40.269 43.6621 40.3623 43.6201 40.4837 43.6201H41.4217C41.487 43.6201 41.5383 43.6481 41.5757 43.7041C41.6223 43.7507 41.6457 43.8021 41.6457 43.8581C41.6457 43.9327 41.627 44.0074 41.5897 44.0821L40.8617 46.0001C40.8243 46.0934 40.773 46.1727 40.7077 46.2381C40.6517 46.2941 40.563 46.3221 40.4417 46.3221H39.9937ZM49.9994 53.5601C49.9061 53.5601 49.8267 53.5321 49.7614 53.4761C49.7054 53.4107 49.6774 53.3314 49.6774 53.2381V49.0521C49.6774 48.3054 49.4907 47.7267 49.1174 47.3161C48.7441 46.8961 48.1421 46.6861 47.3114 46.6861H45.4774C45.3841 46.6861 45.3047 46.6581 45.2394 46.6021C45.1834 46.5367 45.1554 46.4574 45.1554 46.3641V45.8881C45.1554 45.7947 45.1834 45.7201 45.2394 45.6641C45.3047 45.5987 45.3841 45.5661 45.4774 45.5661H47.3814C48.1841 45.5661 48.8467 45.6921 49.3694 45.9441C49.9014 46.1961 50.2981 46.5787 50.5594 47.0921C50.8207 47.5961 50.9514 48.2261 50.9514 48.9821V53.2381C50.9514 53.3314 50.9187 53.4107 50.8534 53.4761C50.7974 53.5321 50.7227 53.5601 50.6294 53.5601H49.9994ZM58.6663 53.5601C58.573 53.5601 58.4936 53.5321 58.4283 53.4761C58.3723 53.4107 58.3443 53.3314 58.3443 53.2381V49.0521C58.3443 48.3054 58.1576 47.7267 57.7843 47.3161C57.411 46.8961 56.809 46.6861 55.9783 46.6861H53.3463C53.253 46.6861 53.1736 46.6581 53.1083 46.6021C53.0523 46.5367 53.0243 46.4574 53.0243 46.3641V45.8881C53.0243 45.7947 53.0523 45.7201 53.1083 45.6641C53.1736 45.5987 53.253 45.5661 53.3463 45.5661H56.0483C57.2616 45.5661 58.1576 45.8601 58.7363 46.4481C59.3243 47.0361 59.6183 47.8901 59.6183 49.0101V53.2381C59.6183 53.3314 59.5856 53.4107 59.5203 53.4761C59.4643 53.5321 59.3896 53.5601 59.2963 53.5601H58.6663ZM53.3463 53.5601C53.253 53.5601 53.1736 53.5321 53.1083 53.4761C53.0523 53.4107 53.0243 53.3314 53.0243 53.2381V48.5621C53.0243 48.4687 53.0523 48.3941 53.1083 48.3381C53.1736 48.2727 53.253 48.2401 53.3463 48.2401H53.9763C54.079 48.2401 54.1583 48.2727 54.2143 48.3381C54.2703 48.3941 54.2983 48.4687 54.2983 48.5621V53.2381C54.2983 53.3314 54.2703 53.4107 54.2143 53.4761C54.1583 53.5321 54.079 53.5601 53.9763 53.5601H53.3463ZM61.6783 53.5601C61.5849 53.5601 61.5056 53.5321 61.4403 53.4761C61.3843 53.4107 61.3563 53.3314 61.3563 53.2381V52.7621C61.3563 52.6687 61.3843 52.5941 61.4403 52.5381C61.5056 52.4727 61.5849 52.4401 61.6783 52.4401H65.6963V49.0521C65.6963 48.3054 65.5096 47.7267 65.1363 47.3161C64.7629 46.8961 64.1609 46.6861 63.3303 46.6861H61.8183C61.7249 46.6861 61.6456 46.6581 61.5803 46.6021C61.5243 46.5367 61.4963 46.4574 61.4963 46.3641V45.8881C61.4963 45.7947 61.5243 45.7201 61.5803 45.6641C61.6456 45.5987 61.7249 45.5661 61.8183 45.5661H63.4003C64.2029 45.5661 64.8703 45.6967 65.4023 45.9581C65.9343 46.2194 66.3309 46.6067 66.5923 47.1201C66.8629 47.6241 66.9983 48.2541 66.9983 49.0101V52.4401H67.5163C67.6096 52.4401 67.6843 52.4727 67.7403 52.5381C67.8056 52.5941 67.8383 52.6687 67.8383 52.7621V53.2381C67.8383 53.3314 67.8056 53.4107 67.7403 53.4761C67.6843 53.5321 67.6096 53.5601 67.5163 53.5601H61.6783ZM72.8834 53.5601C72.7901 53.5601 72.7107 53.5321 72.6454 53.4761C72.5894 53.4107 72.5614 53.3314 72.5614 53.2381V45.8881C72.5614 45.7947 72.5894 45.7201 72.6454 45.6641C72.7107 45.5987 72.7901 45.5661 72.8834 45.5661H75.5574C76.3601 45.5661 77.0227 45.6967 77.5454 45.9581C78.0681 46.2101 78.4554 46.5881 78.7074 47.0921C78.9687 47.5961 79.0994 48.2261 79.0994 48.9821V53.2381C79.0994 53.3314 79.0714 53.4107 79.0154 53.4761C78.9594 53.5321 78.8801 53.5601 78.7774 53.5601H72.8834ZM73.7654 52.4401H77.8534V49.0521C77.8534 48.3054 77.6667 47.7267 77.2934 47.3161C76.9201 46.8961 76.3181 46.6861 75.4874 46.6861H73.7654V52.4401ZM81.4967 53.5601C81.4033 53.5601 81.324 53.5321 81.2587 53.4761C81.2027 53.4107 81.1747 53.3314 81.1747 53.2381V45.8881C81.1747 45.7947 81.2027 45.7201 81.2587 45.6641C81.324 45.5987 81.4033 45.5661 81.4967 45.5661H82.1547C82.2573 45.5661 82.3367 45.5987 82.3927 45.6641C82.4487 45.7201 82.4767 45.7947 82.4767 45.8881V53.2381C82.4767 53.3314 82.4487 53.4107 82.3927 53.4761C82.3367 53.5321 82.2573 53.5601 82.1547 53.5601H81.4967ZM84.9557 53.5601C84.8623 53.5601 84.783 53.5321 84.7177 53.4761C84.6617 53.4107 84.6337 53.3314 84.6337 53.2381V45.8881C84.6337 45.7947 84.6617 45.7201 84.7177 45.6641C84.783 45.5987 84.8623 45.5661 84.9557 45.5661H87.6717C88.4837 45.5661 89.151 45.6967 89.6737 45.9581C90.2057 46.2101 90.6023 46.5927 90.8637 47.1061C91.125 47.6101 91.2557 48.2447 91.2557 49.0101V53.2381C91.2557 53.3314 91.223 53.4107 91.1577 53.4761C91.1017 53.5321 91.027 53.5601 90.9337 53.5601H90.3037C90.201 53.5601 90.1217 53.5321 90.0657 53.4761C90.0097 53.4107 89.9817 53.3314 89.9817 53.2381V49.0521C89.9817 48.3054 89.795 47.7267 89.4217 47.3161C89.0483 46.8961 88.4417 46.6861 87.6017 46.6861H85.9077V53.2381C85.9077 53.3314 85.8797 53.4107 85.8237 53.4761C85.7677 53.5321 85.6883 53.5601 85.5857 53.5601H84.9557ZM93.889 46.6861C93.7956 46.6861 93.7163 46.6581 93.651 46.6021C93.595 46.5367 93.567 46.4574 93.567 46.3641V45.8881C93.567 45.7947 93.595 45.7201 93.651 45.6641C93.7163 45.5987 93.7956 45.5661 93.889 45.5661H96.927C97.7296 45.5661 98.3923 45.6967 98.915 45.9581C99.447 46.2101 99.8436 46.5927 100.105 47.1061C100.366 47.6101 100.497 48.2354 100.497 48.9821V53.2381C100.497 53.3314 100.464 53.4107 100.399 53.4761C100.343 53.5321 100.268 53.5601 100.175 53.5601H99.545C99.4423 53.5601 99.363 53.5321 99.307 53.4761C99.251 53.4107 99.223 53.3314 99.223 53.2381V49.0521C99.223 48.3054 99.0316 47.7267 98.649 47.3161C98.2756 46.8961 97.6736 46.6861 96.843 46.6861H93.889ZM95.149 46.0001H95.499C95.639 46.0001 95.7416 46.0374 95.807 46.1121C95.8816 46.1774 95.9143 46.2614 95.905 46.3641C95.8303 46.7561 95.765 47.1107 95.709 47.4281C95.6623 47.7454 95.6296 48.0627 95.611 48.3801C95.5923 48.6881 95.583 49.0381 95.583 49.4301L95.611 53.2381C95.611 53.3314 95.583 53.4107 95.527 53.4761C95.471 53.5321 95.3963 53.5601 95.303 53.5601L93.315 53.5321C93.2216 53.5321 93.1423 53.5041 93.077 53.4481C93.021 53.3921 92.993 53.3127 92.993 53.2101V52.7621C92.993 52.6687 93.021 52.5941 93.077 52.5381C93.1423 52.4727 93.2216 52.4401 93.315 52.4401L94.393 52.4541V49.4861C94.393 49.1034 94.3976 48.7534 94.407 48.4361C94.4163 48.1094 94.4443 47.7827 94.491 47.4561C94.5376 47.1294 94.6123 46.7607 94.715 46.3501C94.743 46.2474 94.785 46.1634 94.841 46.0981C94.9063 46.0327 95.009 46.0001 95.149 46.0001Z" fill="#4E88EC"/>
<path d="M35.0652 37.7202C34.9698 37.7202 34.8875 37.6899 34.8182 37.6292C34.7575 37.5685 34.7272 37.4949 34.7272 37.4082V33.5472C34.7272 33.0445 34.6058 32.6632 34.3632 32.4032C34.1205 32.1345 33.7305 32.0002 33.1932 32.0002H30.2812C30.1858 32.0002 30.1078 31.9699 30.0472 31.9092C29.9865 31.8485 29.9562 31.7705 29.9562 31.6752V30.6222C29.9562 30.5269 29.9865 30.4489 30.0472 30.3882C30.1078 30.3275 30.1858 30.2972 30.2812 30.2972H33.2582C34.4282 30.2972 35.3165 30.5615 35.9232 31.0902C36.5385 31.6102 36.8462 32.4292 36.8462 33.5472V37.3952C36.8462 37.4905 36.8115 37.5685 36.7422 37.6292C36.6815 37.6899 36.6035 37.7202 36.5082 37.7202H35.0652ZM30.2812 37.7202C30.1858 37.7202 30.1078 37.6899 30.0472 37.6292C29.9865 37.5685 29.9562 37.4905 29.9562 37.3952V33.5472C29.9562 33.4605 29.9865 33.3869 30.0472 33.3262C30.1078 33.2569 30.1858 33.2222 30.2812 33.2222H31.7372C31.8325 33.2222 31.9105 33.2569 31.9712 33.3262C32.0318 33.3869 32.0622 33.4605 32.0622 33.5472V37.3952C32.0622 37.4905 32.0318 37.5685 31.9712 37.6292C31.9105 37.6899 31.8325 37.7202 31.7372 37.7202H30.2812ZM38.3611 37.7202C38.2744 37.7202 38.1964 37.6899 38.1271 37.6292C38.0664 37.5685 38.0361 37.4905 38.0361 37.3952V36.3422C38.0361 36.2469 38.0664 36.1689 38.1271 36.1082C38.1964 36.0475 38.2744 36.0172 38.3611 36.0172H42.5341V37.4212C42.5341 37.5079 42.5037 37.5815 42.4431 37.6422C42.3824 37.6942 42.3044 37.7202 42.2091 37.7202H38.3611ZM40.9481 37.7202C40.8527 37.7202 40.7747 37.6899 40.7141 37.6292C40.6534 37.5685 40.6231 37.4905 40.6231 37.3952L40.4281 33.3912C40.4194 33.0705 40.3847 32.8019 40.3241 32.5852C40.2634 32.3599 40.1594 32.1909 40.0121 32.0782C39.8647 31.9655 39.6437 31.9092 39.3491 31.9092H38.6991C38.6124 31.9092 38.5344 31.8789 38.4651 31.8182C38.4044 31.7489 38.3741 31.6665 38.3741 31.5712V30.5442C38.3741 30.4489 38.4044 30.3709 38.4651 30.3102C38.5344 30.2495 38.6124 30.2192 38.6991 30.2192H39.4011C39.9644 30.2192 40.4454 30.2842 40.8441 30.4142C41.2427 30.5355 41.5677 30.7305 41.8191 30.9992C42.0791 31.2592 42.2697 31.5929 42.3911 32.0002C42.5211 32.3989 42.5991 32.8712 42.6251 33.4172L42.8071 37.3952C42.8157 37.4905 42.7854 37.5685 42.7161 37.6292C42.6467 37.6899 42.5687 37.7202 42.4821 37.7202H40.9481ZM44.3857 37.7202C44.2903 37.7202 44.2123 37.6899 44.1517 37.6292C44.091 37.5685 44.0607 37.4905 44.0607 37.3952V30.6222C44.0607 30.5269 44.091 30.4489 44.1517 30.3882C44.2123 30.3275 44.2903 30.2972 44.3857 30.2972H45.9197C46.015 30.2972 46.093 30.3275 46.1537 30.3882C46.2143 30.4489 46.2447 30.5269 46.2447 30.6222V37.3952C46.2447 37.4905 46.2143 37.5685 46.1537 37.6292C46.093 37.6899 46.015 37.7202 45.9197 37.7202H44.3857ZM48.8712 37.7202C48.6805 37.7202 48.5852 37.6249 48.5852 37.4342V33.4432C48.5852 32.8885 48.6415 32.4639 48.7542 32.1692C48.8755 31.8745 49.0618 31.7272 49.3132 31.7272H51.3932C51.1765 31.7272 50.9988 31.9092 50.8602 32.2732C50.7302 32.6285 50.6652 33.0662 50.6652 33.5862V37.4342C50.6652 37.5209 50.6262 37.5902 50.5482 37.6422C50.4702 37.6942 50.3878 37.7202 50.3012 37.7202H48.8712ZM47.8572 32.0002C47.7705 32.0002 47.6925 31.9699 47.6232 31.9092C47.5625 31.8485 47.5322 31.7705 47.5322 31.6752V30.6222C47.5322 30.5269 47.5625 30.4489 47.6232 30.3882C47.6925 30.3275 47.7705 30.2972 47.8572 30.2972H51.6142C51.7095 30.2972 51.7875 30.3275 51.8482 30.3882C51.9088 30.4489 51.9392 30.5269 51.9392 30.6222V31.6752C51.9392 31.7619 51.9088 31.8399 51.8482 31.9092C51.7962 31.9699 51.7182 32.0002 51.6142 32.0002H47.8572ZM53.8117 32.0002C53.7163 32.0002 53.6383 31.9699 53.5777 31.9092C53.517 31.8485 53.4867 31.7705 53.4867 31.6752V30.6222C53.4867 30.5269 53.517 30.4489 53.5777 30.3882C53.6383 30.3275 53.7163 30.2972 53.8117 30.2972H57.3737C58.1537 30.2972 58.808 30.4099 59.3367 30.6352C59.8653 30.8519 60.264 31.1942 60.5327 31.6622C60.8013 32.1302 60.9357 32.7369 60.9357 33.4822V37.3952C60.9357 37.4905 60.9053 37.5685 60.8447 37.6292C60.784 37.6899 60.706 37.7202 60.6107 37.7202H59.1547C59.0593 37.7202 58.9813 37.6899 58.9207 37.6292C58.86 37.5685 58.8297 37.4949 58.8297 37.4082V33.5472C58.8297 33.0445 58.704 32.6632 58.4527 32.4032C58.21 32.1345 57.8243 32.0002 57.2957 32.0002H53.8117ZM55.4237 31.1032H56.0087C56.2427 31.1032 56.403 31.1509 56.4897 31.2462C56.585 31.3415 56.611 31.4412 56.5677 31.5452C56.4897 31.8225 56.4247 32.0869 56.3727 32.3382C56.3207 32.5809 56.2817 32.8322 56.2557 33.0922C56.2383 33.3522 56.2297 33.6425 56.2297 33.9632L56.3337 37.3952C56.3337 37.4905 56.299 37.5685 56.2297 37.6292C56.169 37.6899 56.0953 37.7202 56.0087 37.7202L53.3177 37.7072C53.231 37.7072 53.153 37.6769 53.0837 37.6162C53.023 37.5555 52.9927 37.4775 52.9927 37.3822V36.4202C52.9927 36.3249 53.023 36.2469 53.0837 36.1862C53.153 36.1169 53.231 36.0822 53.3177 36.0822L54.3707 36.0952V33.9892C54.3707 33.7032 54.3793 33.4345 54.3967 33.1832C54.414 32.9232 54.4443 32.6589 54.4877 32.3902C54.5397 32.1215 54.6133 31.8399 54.7087 31.5452C54.752 31.4239 54.8213 31.3199 54.9167 31.2332C55.0207 31.1465 55.1897 31.1032 55.4237 31.1032ZM67.5525 37.7202C67.4571 37.7202 67.3748 37.6899 67.3055 37.6292C67.2448 37.5685 67.2145 37.4949 67.2145 37.4082V33.5472C67.2145 33.0445 67.0931 32.6632 66.8505 32.4032C66.6078 32.1345 66.2178 32.0002 65.6805 32.0002H62.7685C62.6731 32.0002 62.5951 31.9699 62.5345 31.9092C62.4738 31.8485 62.4435 31.7705 62.4435 31.6752V30.6222C62.4435 30.5269 62.4738 30.4489 62.5345 30.3882C62.5951 30.3275 62.6731 30.2972 62.7685 30.2972H65.7455C66.9155 30.2972 67.8038 30.5615 68.4105 31.0902C69.0258 31.6102 69.3335 32.4292 69.3335 33.5472V37.3952C69.3335 37.4905 69.2988 37.5685 69.2295 37.6292C69.1688 37.6899 69.0908 37.7202 68.9955 37.7202H67.5525ZM62.7685 37.7202C62.6731 37.7202 62.5951 37.6899 62.5345 37.6292C62.4738 37.5685 62.4435 37.4905 62.4435 37.3952V33.5472C62.4435 33.4605 62.4738 33.3869 62.5345 33.3262C62.5951 33.2569 62.6731 33.2222 62.7685 33.2222H64.2245C64.3198 33.2222 64.3978 33.2569 64.4585 33.3262C64.5191 33.3869 64.5495 33.4605 64.5495 33.5472V37.3952C64.5495 37.4905 64.5191 37.5685 64.4585 37.6292C64.3978 37.6899 64.3198 37.7202 64.2245 37.7202H62.7685ZM76.8987 33.5472C76.8987 33.0445 76.773 32.6632 76.5217 32.4032C76.2703 32.1345 75.8803 32.0002 75.3517 32.0002H73.3107C73.2153 32.0002 73.1373 31.9699 73.0767 31.9092C73.016 31.8485 72.9857 31.7705 72.9857 31.6752V30.6222C72.9857 30.5269 73.016 30.4489 73.0767 30.3882C73.1373 30.3275 73.2153 30.2972 73.3107 30.2972H75.4297C76.2097 30.2972 76.864 30.4012 77.3927 30.6092C77.93 30.8172 78.333 31.1509 78.6017 31.6102C78.8703 32.0695 79.0047 32.6892 79.0047 33.4692V39.0072C79.0047 39.1025 78.97 39.1805 78.9007 39.2412C78.84 39.3019 78.7663 39.3322 78.6797 39.3322H77.2237C77.1283 39.3322 77.0503 39.3019 76.9897 39.2412C76.929 39.1805 76.8987 39.1069 76.8987 39.0202V33.5472ZM84.3959 37.7202C84.3006 37.7202 84.2182 37.6899 84.1489 37.6292C84.0882 37.5685 84.0579 37.4949 84.0579 37.4082V33.5472C84.0579 33.0445 83.9366 32.6632 83.6939 32.4032C83.4512 32.1345 83.0612 32.0002 82.5239 32.0002H80.5739C80.4872 32.0002 80.4092 31.9699 80.3399 31.9092C80.2792 31.8485 80.2489 31.7705 80.2489 31.6752V30.6222C80.2489 30.5269 80.2792 30.4489 80.3399 30.3882C80.4092 30.3275 80.4872 30.2972 80.5739 30.2972H82.6019C83.3819 30.2972 84.0362 30.4012 84.5649 30.6092C85.0936 30.8172 85.4922 31.1552 85.7609 31.6232C86.0382 32.0825 86.1769 32.6979 86.1769 33.4692V37.3952C86.1769 37.4905 86.1422 37.5685 86.0729 37.6292C86.0122 37.6899 85.9342 37.7202 85.8389 37.7202H84.3959ZM87.708 38.4482C87.6127 38.4655 87.526 38.4439 87.448 38.3832C87.3787 38.3225 87.344 38.2489 87.344 38.1622V37.0832C87.344 36.9965 87.37 36.9229 87.422 36.8622C87.4827 36.7929 87.552 36.7495 87.63 36.7322L90.49 36.0172C90.9667 35.8959 91.3307 35.7399 91.582 35.5492C91.842 35.3585 92.0154 35.1202 92.102 34.8342C92.1974 34.5482 92.245 34.2102 92.245 33.8202V30.6092C92.245 30.5225 92.2754 30.4489 92.336 30.3882C92.4054 30.3275 92.4834 30.2972 92.57 30.2972H94.026C94.1214 30.2972 94.1994 30.3275 94.26 30.3882C94.3207 30.4489 94.351 30.5269 94.351 30.6222V34.4442C94.351 35.0162 94.2167 35.5232 93.948 35.9652C93.688 36.4072 93.3067 36.7799 92.804 37.0832C92.3014 37.3779 91.699 37.5945 90.997 37.7332L87.708 38.4482ZM89.385 37.4082L87.552 30.8172C87.5347 30.7479 87.5174 30.6959 87.5 30.6612C87.4914 30.6265 87.487 30.5919 87.487 30.5572C87.487 30.4879 87.513 30.4272 87.565 30.3752C87.617 30.3232 87.6777 30.2972 87.747 30.2972H89.346C89.5107 30.2972 89.6104 30.3622 89.645 30.4922L91.27 37.1092L89.385 37.4082ZM99.7965 32.0782H96.0135C95.9182 32.0782 95.8402 32.0479 95.7795 31.9872C95.7189 31.9265 95.6885 31.8485 95.6885 31.7532V30.6222C95.6885 30.5269 95.7189 30.4489 95.7795 30.3882C95.8402 30.3275 95.9182 30.2972 96.0135 30.2972H100.109C100.689 30.2972 101.205 30.4099 101.656 30.6352C102.115 30.8605 102.475 31.2072 102.735 31.6752C102.995 32.1432 103.125 32.7412 103.125 33.4692V37.3952C103.125 37.4905 103.094 37.5685 103.034 37.6292C102.973 37.6899 102.895 37.7202 102.8 37.7202H99.2765C99.1899 37.7202 99.1119 37.6899 99.0425 37.6292C98.9819 37.5685 98.9515 37.4905 98.9515 37.3952V36.3422C98.9515 36.2469 98.9819 36.1689 99.0425 36.1082C99.1119 36.0475 99.1899 36.0172 99.2765 36.0172H101.019V33.5732C101.019 33.2525 100.967 32.9795 100.863 32.7542C100.759 32.5289 100.611 32.3599 100.421 32.2472C100.239 32.1345 100.031 32.0782 99.7965 32.0782ZM95.9095 37.7202C95.8229 37.7202 95.7449 37.6899 95.6755 37.6292C95.6062 37.5599 95.5802 37.4819 95.5975 37.3952L96.9755 31.5972C96.9929 31.5105 97.0319 31.4369 97.0925 31.3762C97.1532 31.3155 97.2269 31.2895 97.3135 31.2982L98.5355 31.3112C98.6309 31.3112 98.7132 31.3502 98.7825 31.4282C98.8519 31.5062 98.8735 31.5929 98.8475 31.6882L97.6645 37.3952C97.6559 37.4819 97.6169 37.5599 97.5475 37.6292C97.4869 37.6899 97.4089 37.7202 97.3135 37.7202H95.9095Z" fill="#4E88EC"/>
</g>
<defs>
<filter id="filter0_d_6_122" x="0" y="0" width="133" height="80" filterUnits="userSpaceOnUse" color-interpolation-filters="sRGB">
<feFlood flood-opacity="0" result="BackgroundImageFix"/>
<feColorMatrix in="SourceAlpha" type="matrix" values="0 0 0 0 0 0 0 0 0 0 0 0 0 0 0 0 0 0 127 0" result="hardAlpha"/>
<feOffset dy="4"/>
<feGaussianBlur stdDeviation="2"/>
<feComposite in2="hardAlpha" operator="out"/>
<feColorMatrix type="matrix" values="0 0 0 0 0 0 0 0 0 0 0 0 0 0 0 0 0 0 0.25 0"/>
<feBlend mode="normal" in2="BackgroundImageFix" result="effect1_dropShadow_6_122"/>
<feBlend mode="normal" in="SourceGraphic" in2="effect1_dropShadow_6_122" result="shape"/>
</filter>
</defs>
</svg>
