<svg width="140" height="162" viewBox="0 0 140 162" fill="none" xmlns="http://www.w3.org/2000/svg">
<path d="M59.4546 160.52C-0.737184 152.143 8.57821 116.757 20.7599 100.111C32.225 88.8344 25.7758 88.8344 27.9256 77.558C30.0753 66.2816 78.0853 19.565 110.331 71.9198C142.576 124.275 134.694 170.991 59.4546 160.52Z" fill="#BD6A3B"/>
<path d="M51.895 158.739C111.514 162.605 123.074 115.781 121.402 91.8857C129.284 103.968 140.32 132.32 121.402 149.073C102.485 165.827 67.1818 162.498 51.895 158.739Z" fill="#AA5A39"/>
<path d="M71.9593 66.9166C65.6535 62.4061 38.7583 68.796 26.0989 72.5548C39.7137 74.9712 55.4782 72.5548 59.7776 70.1384C64.077 67.722 94.1729 77.3875 98.4723 82.2203C102.772 87.053 130.718 105.579 131.434 101.551C132.008 98.3294 117.82 84.0997 110.654 77.3875C100.383 75.7766 78.2651 71.4272 71.9593 66.9166Z" fill="#4C2018"/>
<path d="M119.253 92.6907C80.2714 58.5392 40.908 65.5736 26.0989 73.3597C40.4302 16.1722 80.5581 19.3939 119.253 37.114C150.209 51.29 139.794 85.9784 130.718 101.551L119.253 92.6907Z" fill="#9D923A"/>
<path d="M30.3133 24.503C35.8594 29.2664 46.9816 41.5316 47.1014 52.4851C48.5432 53.2724 51.9948 54.3568 54.2666 52.3951C57.1062 49.9429 46.7668 21.8798 46.7404 19.4635C46.714 17.0473 33.0561 13.1913 24.4931 16.5209C15.9301 19.8506 3.39368 53.0341 1.24412 53.0611C-0.905434 53.0881 2.85323 69.1511 3.49932 62.6989C4.01619 57.5371 21.5907 35.0842 30.3133 24.503Z" fill="#4C2018"/>
<path d="M91.0766 10.8514C95.3845 11.6028 91.5872 57.5648 91.6312 61.5919C93.7925 62.6388 98.5379 64.0828 100.229 61.4839C101.921 58.8849 103.431 26.538 103.974 10.6894C99.6455 8.05876 89.8369 2.32864 85.23 0.453277C80.6231 -1.42209 64.7925 10.1076 57.453 16.1069C59.8707 18.7616 65.1256 23.0991 66.803 19.2115C68.8997 14.3521 86.7687 10.1 91.0766 10.8514Z" fill="#4C2018"/>
<path d="M78.3988 87.7856C83.9825 91.304 85.8016 99.5849 82.4619 106.282C79.1222 112.978 78.3988 110.182 69.022 110.182C59.9517 108.503 58.9018 100.237 62.2415 93.5407C65.5813 86.8439 72.8151 84.2673 78.3988 87.7856Z" fill="white"/>
<path d="M74.8251 86.2478C69.6658 84.9591 64.5542 88.3957 62.6434 90.2751C60.2548 92.9599 56.1943 97.6853 59.0605 95.1078C62.6434 91.886 71.9588 90.2751 74.8251 90.2751C77.6913 90.2751 79.841 93.4969 81.9907 93.4969C83.7105 93.4969 85.5736 86.5163 86.2901 83.026C84.857 84.9054 81.9907 88.1809 81.9907 86.2478V81.415C81.7519 83.5629 79.9843 87.5365 74.8251 86.2478Z" fill="black"/>
<path d="M79.1246 103.162C79.1246 108.055 79.1246 111.44 68.6441 110.181C64.2909 110.181 63.3601 108.055 63.3601 103.162C63.3601 98.2685 66.8891 94.3018 71.2424 94.3018C75.5956 94.3018 79.1246 98.2685 79.1246 103.162Z" fill="black"/>
<ellipse cx="74.1085" cy="101.552" rx="3.58284" ry="4.02729" fill="white"/>
<path d="M31.2728 83.298C25.7495 84.5523 22.4257 90.6831 23.8488 96.9915C25.2719 103.3 26.4876 101.26 34.5005 103.892C42.6102 105.092 45.2734 98.7574 43.8503 92.4491C42.4272 86.1407 36.796 82.0436 31.2728 83.298Z" fill="white"/>
<path d="M34.6552 83.0665C39.3394 83.4812 42.9731 87.6723 44.2045 89.7159C45.672 92.5397 48.1323 97.4693 46.2336 94.5976C43.8603 91.0079 36.2441 87.101 33.7947 86.2965C31.3453 85.4919 28.8199 87.4723 26.9829 86.8689C25.5133 86.3862 25.4127 80.2646 25.5461 77.2642C26.3692 79.1738 28.1187 82.6054 28.5317 81.0551L29.5643 77.1791C29.3095 78.9688 29.971 82.6519 34.6552 83.0665Z" fill="black"/>
<path d="M27.3671 95.4247C26.3216 99.3492 27.0717 103.047 34.8235 103.996C38.7876 103.996 39.7931 103.774 40.8386 99.85C41.8841 95.9255 39.716 91.7535 35.9959 90.5315C32.2759 89.3095 28.4126 91.5003 27.3671 95.4247Z" fill="black"/>
<ellipse cx="3.22266" cy="3.34258" rx="3.22266" ry="3.34258" transform="matrix(-0.950055 -0.312082 -0.257429 0.966297 40.2075 93.3086)" fill="white"/>
<path d="M44.7297 134.574C29.8251 133.285 27.0543 127.325 28.2486 129.742C37.564 138.602 59.7776 147.462 73.3924 145.851C84.2843 144.562 79.758 130.044 73.3924 128.131C69.4225 126.937 59.6343 135.863 44.7297 134.574Z" fill="#1D1D1D"/>
<ellipse cx="89.1566" cy="120.881" rx="5.73255" ry="4.02729" fill="#FF9C9C"/>
<ellipse cx="17.4999" cy="116.049" rx="5.73255" ry="4.02729" fill="#FF9C9C"/>
<path d="M33.2646 116.853C35.1755 115.242 40.0004 112.988 44.0132 116.853" stroke="black"/>
<path d="M64.7932 81.4144C70.7646 79.8039 83.5673 77.0661 87.0068 78.9987" stroke="black"/>
<path d="M49.7451 79.6615C43.7737 78.051 30.971 75.3132 27.5315 77.2458" stroke="black"/>
</svg>
