<svg width="294" height="258" viewBox="0 0 294 258" fill="none" xmlns="http://www.w3.org/2000/svg">
<rect width="294" height="139" rx="13" fill="#E3F4FF"/>
<path d="M34.6059 137.579C33.5459 133.63 43.2117 124.685 48.177 120.706C51.0862 122.613 55.6053 125.548 59.3569 127.926C59.2863 128.833 59.295 129.737 59.3713 130.633L48.054 128.678C44.0129 133.29 35.6658 141.528 34.6059 137.579Z" fill="#5D4439"/>
<path fill-rule="evenodd" clip-rule="evenodd" d="M211.978 174.647C228.199 167.647 216.698 149.445 206.5 144.465L169.5 127.926L122.506 125.965L94.4033 132.775C90.643 122.98 79.8266 105.861 66.6434 115.75C66.0417 116.201 65.4831 116.662 64.9653 117.129C61.2525 120.483 59.645 124.225 59.3569 127.926C59.2863 128.833 59.295 129.737 59.3713 130.633C60.1292 139.529 67.5648 147.553 70.3414 148.495C73.6371 149.612 85.8416 145.341 92.4735 142.7L93.1446 157.589L65.8011 158.974L71.0938 201.875L69.7499 209.513C74.4227 209.361 82.6837 206.703 78.3455 197.283C74.0072 187.863 73.0378 170.483 73.0954 162.97L95.9345 163.621L85.273 168.302C86.322 172.21 87.9584 180.414 86.113 181.968C84.2675 183.522 83.7446 187.896 83.7139 189.888L97.4317 186.207L91.1809 171.346L113.171 159.432C114.441 160.219 115.766 160.997 117.146 161.756C118.121 170.54 119.781 185.18 120.027 186.096L121.352 191.032L131.241 185.732L123.747 165.041C124.467 165.362 125.198 165.678 125.942 165.986C130.505 167.878 134.952 168.827 139.139 169.118L154.064 182.252L147.363 207.865L152 225.143C149.154 228.024 149.104 231.212 149.436 232.446C154.043 232.753 163.158 232.997 162.761 231.516C162.641 231.068 162.332 230.166 161.939 229.017C160.71 225.422 158.654 219.409 158.952 217.324C159.175 215.755 159.196 205.215 159.215 195.817L159.215 195.815C159.229 188.725 159.242 182.285 159.34 180.836C159.495 178.533 154.002 172.429 150.031 168.449C157.108 167.091 162.657 164.197 165.586 161.961C168.939 165.207 178.351 172.807 189.903 175.871C193.371 183.969 205.657 207.001 211.829 218.346C213.06 218.016 215.257 216.368 214.197 212.419C213.197 208.692 203.737 188.462 198.35 177.164C200.416 177.238 202.517 177.126 204.633 176.787C214.154 188.655 223.52 196.578 227.013 199.056C230.282 196.062 218.352 181.535 211.978 174.647Z" fill="#AE5D39"/>
<path d="M48.7425 95.4172L66.6434 115.75C66.0417 116.201 65.4831 116.662 64.9653 117.129L48.4538 102.771C44.5437 106.467 36.5909 113.364 36.0609 111.39C35.5309 109.415 44.2945 99.9186 48.7425 95.4172Z" fill="#5D4439"/>
<path d="M59.4218 128.934C73.3792 150.59 84.2598 138.585 87.9554 129.876L104.354 134.074C98.4989 138.953 84.1964 148.745 73.8259 148.883C63.4554 149.02 59.9021 135.641 59.4218 128.934Z" fill="#985233"/>
<path d="M179.175 143.099L197.254 174.63L195.64 177.047L178.856 152.446L176.757 163.593L168.046 160.639L179.175 143.099Z" fill="#AE5D39"/>
<path d="M97.5921 163.672C100.547 161.335 106.569 156.235 107.016 154.528C105.433 154.952 99.7333 161.113 97.4572 161.062C95.1811 161.012 72.7518 161.739 71.3346 162.781C70.2008 163.615 72.9631 193.435 74.486 208.241C76.5515 206.805 80.4445 203.467 79.4924 201.606C78.5404 199.744 74.9332 175.487 73.2486 163.591L97.5921 163.672Z" fill="#985233"/>
<path d="M91.8615 171.825C91.5303 170.591 112.365 159.707 112.893 159.566C108.274 159.218 96.0233 166.96 90.4751 170.875L93.7259 187.201C94.8364 187.124 97.2683 186.912 98.1124 186.685C99.1677 186.402 92.1928 173.06 91.8615 171.825Z" fill="#985233"/>
<path d="M139.586 166.294C137.632 165.76 116.486 157.5 106.157 153.437C108.144 160.841 128.537 167.275 138.665 169.188C139.665 168.699 141.539 166.829 139.586 166.294Z" fill="#985233"/>
<path d="M131.229 185.736L123.488 165.322C122.371 169.591 125.425 187.294 125.757 188.528C126.022 189.515 129.515 187.078 131.229 185.736Z" fill="#985233"/>
<path d="M214.712 212.281C213.809 207.231 190.996 163.961 179.703 142.958C176.144 146.559 170.559 156.658 168.211 161.257L170.487 161.307L179.31 145.709L212.706 217.45C213.751 217.831 215.615 217.331 214.712 212.281Z" fill="#985233"/>
<path d="M218.162 170.34C223.301 164.198 211.142 156.127 204.42 152.86C207.007 155.473 212.201 161.62 212.285 165.302C212.368 168.985 203.092 174.605 198.444 176.955C201.139 177.171 205.948 176.949 210.459 175.361C215.887 185.047 226.867 203.196 227.363 198.3C227.859 193.404 217.661 180.415 212.5 174.533C214.643 173.536 216.626 172.175 218.162 170.34Z" fill="#985233"/>
<path d="M178.494 153.203C178.357 153.342 178.24 153.723 178.14 154.272L175.371 162.641L177.616 164.685C177.613 161.837 177.723 156.574 178.14 154.272L178.494 153.203Z" fill="#985233"/>
<path d="M181.929 157.573L182.182 158.165C183.084 161.272 179.649 168.074 177.689 171.28L189.536 175.377L182.182 158.165C182.119 157.949 182.036 157.751 181.929 157.573Z" fill="#985233"/>
<path d="M159.524 179.463L149.549 167.587C151.929 172.241 156.822 182.041 157.352 184.015C157.882 185.99 156.377 216.912 155.558 232.126C159.465 233.194 161.759 231.343 162.417 230.285L159.405 221.17L159.524 179.463Z" fill="#985233"/>
<path d="M96 139L94 131L184.105 99L201 139H96Z" fill="#E3F4FF"/>
</svg>
