<svg width="402" height="874" viewBox="0 0 402 874" fill="none" xmlns="http://www.w3.org/2000/svg">
<g opacity="0.52">
<rect y="402" width="435" height="169" fill="#DAEE6F"/>
<path d="M6.5 558H32.5H46.5C54 558 49.5 565.5 63 558C76.5 550.5 80 548 82.5 549.5C90 549.5 87 545.5 95.5 549.5C102.3 552.7 110.333 552.833 113.5 552.5C124.667 547.167 148.2 537 153 539C159 541.5 176.5 539 183 539C189.5 539 197.5 532.5 203 532.5C208.5 532.5 230 537.5 233 532.5C236 527.5 246 520 239.5 520C233 520 202 528 194 528C186 528 173 520 178 520C183 520 224 520 213.5 515C205.1 511 189.667 509 183 508.5C187.5 507.667 197.8 506 203 506C209.5 506 229.5 513.5 237 511C244.5 508.5 251 508.5 260 508.5C267.2 508.5 285.667 504.833 294 503C296.5 504 302.8 506.5 308 508.5C314.5 511 328 513.5 336 511C344 508.5 360.5 503 364.5 503C368.5 503 393 506 396.5 506C399.3 506 411.667 512 417.5 515C416.667 524.333 414.2 543 411 543C407 543 373.5 531 359 535C344.5 539 350.5 546 331.5 546.5C312.5 547 299.5 539 294 539C288.613 539 287.063 539.959 277.134 546.107L276.5 546.5C275.481 547.131 274.646 547.743 273.957 548.33C281.865 547.226 291.248 546.5 297 546.5C310.5 546.5 299.5 542.5 315.5 546.5C331.5 550.5 343 547 348.5 543C354 539 383.5 548.5 386 549C388.5 549.5 387.5 541.5 408.5 549C425.3 555 433.167 638.5 435 679.5L-95 739L6.5 558Z" fill="#25944D"/>
<path d="M89.7611 612.424C61.0503 619.592 -10.7092 653.968 -43 670.26C-23.5192 668.758 264.018 657.147 405.352 651.529L386.775 615.54C382.509 608.365 370.401 594.283 356.103 595.361C338.23 596.709 167.572 594.205 148.023 604.296C128.473 614.387 125.65 603.466 89.7611 612.424Z" fill="#165216"/>
<path d="M155.167 324.896C139.734 335.113 120.548 316.694 112.885 306.208C145.78 262.67 215.546 203.139 246.318 178.816L270.096 201.991C238.217 238.703 170.6 314.68 155.167 324.896Z" fill="#C3DB88"/>
<path d="M79.3504 428.738C50.674 438.589 31.18 479.673 25.0176 498.984C45.0112 488.664 64.4457 469.63 66.7672 458.866C68.6245 450.255 97.9446 431.332 112.372 422.947C123.58 413.411 148.217 393.191 157.103 388.605C165.99 384.018 210.749 340.283 232.018 318.989L182.7 344.445L144.49 364.168C134.725 381.587 108.027 418.888 79.3504 428.738Z" fill="#7D985E"/>
<path d="M193.996 405.574C198.821 409.835 209.894 421.112 215.582 432.131C216.805 434.501 222.49 440.719 235.447 446.635C248.404 452.551 244.877 414.759 241.494 395.124C238.929 404.325 232.881 420.951 229.211 413.842L208.801 374.299L215.724 408.425L193.996 405.574Z" fill="#7D985E"/>
<path d="M208.244 435.356L225.214 468.235C370.866 414.661 306.283 407.634 255.784 410.817L248.862 429.02C236.163 432.761 210.262 439.266 208.244 435.356Z" fill="#C3DB88"/>
<path d="M71 630C56 630 -8.5 661 -13 661L-1 896L408 812L458 661C400.667 650.667 280.7 630 259.5 630C238.3 630 220.667 619.333 214.5 614C181 619.333 111.8 630 103 630H71Z" fill="#D1220D"/>
<path d="M43 739.5C48.1999 739.5 98.5 768.5 123 783C123 795.8 94 816.333 79.5 825C65.9001 803 15.1667 787.833 -8.5 783C6.5 768.5 37.8 739.5 43 739.5Z" fill="#FFF9F9"/>
<path fill-rule="evenodd" clip-rule="evenodd" d="M160 623C163.5 623.5 204.5 633 205 644.5C191.395 651.302 165.451 664.11 160.742 665.837C160.265 665.84 160 665.895 160 666C149.167 655.5 121.3 633.7 96.4999 630.5C84.8333 634.667 60.9999 644 58.9999 648L34 639.5L8.49996 653L20.5 669C19.3333 671.667 15.3 678.4 8.49996 684L-8.5 666L-14.5 684L-8 705L7.43569 685.355C6.36653 688.067 10.8917 691.29 17.0628 695.686C26.7263 702.569 40.4258 712.326 43 727.5C46.6 748.721 80.1666 724.009 96.4999 709C111.785 712.613 124.135 727.192 133.121 737.801C140.302 746.278 145.335 752.22 148 748L126.5 786.5C145.667 792 186.1 805.9 194.5 817.5L169 849.5L247 853.5L254 830.5L309.5 849.5L322 835.5L264 790.5C263 800.5 259.6 822.5 254 830.5C238.833 826.167 205.7 817.5 194.5 817.5C202.667 812 218.1 795.7 214.5 774.5C212.446 762.405 204.143 763.226 193.107 764.316C179.965 765.615 162.948 767.297 148 748C152.8 740.4 171.667 729.167 180.5 724.5C180.878 715.417 148.46 692.785 129.581 680.916C136.096 680.328 151.377 671.534 160 666C160 666.074 160.26 666.014 160.742 665.837C164.807 665.813 184.263 669.604 186.5 679C188.5 687.4 199.667 693.5 205 695.5C205 701.732 197.218 709.726 191.361 715.742C186.41 720.828 182.835 724.5 186.5 724.5C192.9 724.5 220.833 740.167 234 748C229 759.667 220 782 224 778C226.366 775.634 235.452 779.539 244.208 783.302C253.953 787.491 263.29 791.504 262.5 786.5C261.3 778.9 270.667 761.684 275.5 754.027C276.181 757.223 289.11 760.124 302.695 763.173C317.807 766.564 333.73 770.137 334.5 774.5C335.7 781.3 342.667 754 346 739.5C334.667 733.333 306.9 721.7 286.5 724.5C290 723 303 690.5 300 684C306.187 684 312.058 685.575 318.241 687.234C325.549 689.194 333.291 691.271 342.5 691C345.998 698.652 344.907 708.215 343.952 716.598C342.722 727.387 341.715 736.219 351 736.5C364.2 736.9 381.167 740.333 388 742C388.333 753.833 387.4 778.6 381 783C364 780 332.5 775.8 342.5 783C352.5 790.2 333 824.333 322 840.5H361.5C367.519 825.839 379.111 795.888 380.794 785.181C384.495 786.081 397.182 784.344 405 783L412.5 742H388C395 729.5 408.2 703.5 405 699.5C401.266 694.833 354.406 690.375 344.115 690.827C357.472 688.396 374.114 661.612 381 648L342.5 644.5C346.1 661.7 315.667 678 300 684C297.744 679.113 277.647 678.554 266.105 678.919C274.052 676.097 297.562 652.334 309.5 639.5C295.167 633 266.7 622.1 267.5 630.5C268.3 638.9 247.5 655.333 237 662.5C244.167 666.833 259.6 676.2 264 679C258 691 248.4 715.3 258 716.5C264.14 717.267 270.541 719.737 275.798 721.764C280.816 723.699 284.791 725.233 286.5 724.5C283.333 731.833 276.7 747.9 275.5 753.5C262.778 753.5 252.704 750.534 245.633 748.453C239.202 746.559 235.256 745.397 234.061 747.864C239.659 735.499 247.679 721.814 251 716.5C247.4 706.1 218.833 698.167 205 695.5C217.167 686 240 666.1 234 662.5C228.899 659.44 216.692 651.826 208.744 646.848C214.866 645.009 227.022 633.722 234 626.5L214.5 614L160 623ZM96.4999 709C95.3333 703.333 99.6999 689.4 126.5 679C126.5 674.359 105.633 667.035 87.0917 660.528C71.6741 655.117 57.8649 650.27 58.9999 648L20.5 669C36.5 671.4 77.8333 696.667 96.4999 709Z" fill="#FFF9F9"/>
<path d="M-22 13H435V383.5C435 383.5 332.136 408.436 265.5 405C202.152 401.734 168.858 380.443 105.5 383.5C53.3103 386.018 -22 405 -22 405V13Z" fill="#E3F4FF"/>
<path d="M12.5 351L1.5 342.5L-13 39.5L416.5 25L422 219.5L394.5 200L387 201.5C384.333 204.667 378.5 210.7 376.5 209.5C374 208 376 195.5 375 197.5C374 199.5 368 205.5 366.5 203C365 200.5 370 190 366.5 190C363 190 358 201.5 355 201.5C352 201.5 360.5 205 355 207C350.6 208.6 349.833 210.333 350 211L366.5 230L350 233C356.333 243.667 369.8 265.6 373 268C377 271 398.5 286 396 295.5C393.5 305 382 291.5 377.5 291.5C373 291.5 385 306.5 387 313.5C388.6 319.1 381.333 314.167 377.5 311L373 291.5C371 296.5 365.7 307.4 360.5 311C355.3 314.6 354.667 317.5 355 318.5V337C351.667 335.833 344.4 333.1 342 331.5C340.635 330.59 340.512 328.749 340.784 326.589L329.5 313.5C329.833 317.5 330.9 326 332.5 328C334.5 330.5 326.5 335.5 323 328C322 325.857 321.863 323.48 322.207 321.165C316.099 323.763 305.926 327.105 304 325.5C301.6 323.5 310.811 312 315.716 306.5C307.977 312 292.5 322.1 292.5 318.5C292.5 314.9 307.977 299 315.716 291.5C314.977 290.667 313.5 288.4 313.5 286C313.5 283.6 307.167 288.667 304 291.5L298 306.5C293.167 308 283.5 310.1 283.5 306.5C283.5 302 288 301.5 288 291.5C284.4 288.3 293.167 282.5 298 280C296.167 280 292.5 278.9 292.5 274.5C292.5 269 302 274.5 307 271C312 267.5 312 265 313.5 261C314.7 257.8 309.667 258.333 307 259C304 255.5 296.9 248 292.5 246C287 243.5 281 265 281 261C281 257 288 241 288 238.5C288 236 281 245 276 238.5C274.5 231.5 266 243.5 263 241C260 238.5 265 238.5 269 236.5C272.2 234.9 272.667 229.167 272.5 226.5L258 236.5C258 234.333 258.5 228.6 260.5 223C263 216 278.5 219.5 281 219.5C283 219.5 262.5 199.833 252 190L232.5 201.5C229.833 204.333 223.2 210.2 218 211C212.8 211.8 211.5 217 211.5 219.5C214.333 225.167 220.4 236.9 222 238.5C223.6 240.1 215.667 240.833 211.5 241C209.167 242.167 205.3 245.3 208.5 248.5C211.7 251.7 223.5 244.833 229 241L224.5 255.5C226.167 256.667 229.4 260.2 229 265C228.6 269.8 217.167 273.333 211.5 274.5C212.167 278.333 213.1 287.1 211.5 291.5C209.9 295.9 206.167 298 204.5 298.5C202.833 298.5 199.5 297.9 199.5 295.5C199.5 292.5 201 291.5 199.5 286C198.3 281.6 193.333 290.5 191 295.5C189 296.5 184 300.1 180 306.5C176 312.9 178.333 301.833 180 295.5C176.5 296.5 168.8 297.9 166 295.5C163.2 293.1 159.167 284.167 157.5 280L148 298.5C145.167 301.167 138.1 308.9 132.5 318.5C131.5 330.5 131 323 128.5 328C126 333 138 335.5 139.5 342.5C141 349.5 121.5 333 118 328C114.5 323 121.5 317 118 306.5C114.5 302 118 295.5 118 291.5C118 287.5 119.5 273.5 118 268C116.5 262.5 119.5 254.5 121.5 251.5C123.5 248.5 119.5 241 115 241H103C99 241 102.5 261 95 268C87.5 275 88.5 261.5 84.5 261C80.5 260.5 78.5 277.5 78 277.5C77.5 277.5 71 281.5 67.5 277.5C64.7 274.3 70.6667 271.833 74 271L82.5 248.5C81.3333 242.833 78 231.2 74 230C69 228.5 65.5 241 63 241C60.5 241 60 234.5 55.5 236.5C51.9 238.1 51.3333 245.167 51.5 248.5L46.5 241V248.5L40 241L35 248.5C36 250.667 39.7 255.8 46.5 259C53.3 262.2 49.3333 266.333 46.5 268C45.3333 270.5 43.7 275.9 46.5 277.5C50 279.5 55.5 281.5 60 286C62.8592 288.859 58.5485 288.123 54.4823 286.947C58.3874 288.491 62.5189 291.407 60 295.5C56.8 300.7 47.3333 299.667 43 298.5L35 306.5C33.6667 309.167 30.2 313.8 27 311C23 307.5 17 307 17 311V323L12.5 328L22.5 342.5L12.5 351Z" fill="#95BE23"/>
<path d="M385.5 303L396.5 294.5L411 -8.5L-18.5 -23L-24 171.5L3.5 152L11 153.5C13.6667 156.667 19.5 162.7 21.5 161.5C24 160 22 147.5 23 149.5C24 151.5 30 157.5 31.5 155C33 152.5 28 142 31.5 142C35 142 40 153.5 43 153.5C46 153.5 37.5 157 43 159C47.4 160.6 48.1667 162.333 48 163L31.5 182L48 185C41.6667 195.667 28.2 217.6 25 220C21 223 -0.5 238 2 247.5C4.5 257 16 243.5 20.5 243.5C25 243.5 13 258.5 11 265.5C9.39999 271.1 16.6667 266.167 20.5 263L25 243.5C27 248.5 32.3 259.4 37.5 263C42.7 266.6 43.3333 269.5 43 270.5V289C46.3333 287.833 53.6 285.1 56 283.5C57.3647 282.59 57.4878 280.749 57.2165 278.589L68.5 265.5C68.1667 269.5 67.1 278 65.5 280C63.5 282.5 71.5 287.5 75 280C76.0002 277.857 76.1369 275.48 75.7932 273.165C81.901 275.763 92.0736 279.105 94 277.5C96.4 275.5 87.1895 264 82.2842 258.5C90.0228 264 105.5 274.1 105.5 270.5C105.5 266.9 90.0228 251 82.2842 243.5C83.0228 242.667 84.5 240.4 84.5 238C84.5 235.6 90.8333 240.667 94 243.5L100 258.5C104.833 260 114.5 262.1 114.5 258.5C114.5 254 110 253.5 110 243.5C113.6 240.3 104.833 234.5 100 232C101.833 232 105.5 230.9 105.5 226.5C105.5 221 96 226.5 91 223C86 219.5 86 217 84.5 213C83.3 209.8 88.3333 210.333 91 211C94 207.5 101.1 200 105.5 198C111 195.5 117 217 117 213C117 209 110 193 110 190.5C110 188 117 197 122 190.5C123.5 183.5 132 195.5 135 193C138 190.5 133 190.5 129 188.5C125.8 186.9 125.333 181.167 125.5 178.5L140 188.5C140 186.333 139.5 180.6 137.5 175C135 168 119.5 171.5 117 171.5C115 171.5 135.5 151.833 146 142L165.5 153.5C168.167 156.333 174.8 162.2 180 163C185.2 163.8 186.5 169 186.5 171.5C183.667 177.167 177.6 188.9 176 190.5C174.4 192.1 182.333 192.833 186.5 193C188.833 194.167 192.7 197.3 189.5 200.5C186.3 203.7 174.5 196.833 169 193L173.5 207.5C171.833 208.667 168.6 212.2 169 217C169.4 221.8 180.833 225.333 186.5 226.5C185.833 230.333 184.9 239.1 186.5 243.5C188.1 247.9 191.833 250 193.5 250.5C195.167 250.5 198.5 249.9 198.5 247.5C198.5 244.5 197 243.5 198.5 238C199.7 233.6 204.667 242.5 207 247.5C209 248.5 214 252.1 218 258.5C222 264.9 219.667 253.833 218 247.5C221.5 248.5 229.2 249.9 232 247.5C234.8 245.1 238.833 236.167 240.5 232L250 250.5C252.833 253.167 259.9 260.9 265.5 270.5C266.5 282.5 267 275 269.5 280C272 285 260 287.5 258.5 294.5C257 301.5 276.5 285 280 280C283.5 275 276.5 269 280 258.5C283.5 254 280 247.5 280 243.5C280 239.5 278.5 225.5 280 220C281.5 214.5 278.5 206.5 276.5 203.5C274.5 200.5 278.5 193 283 193H295C299 193 295.5 213 303 220C310.5 227 309.5 213.5 313.5 213C317.5 212.5 319.5 229.5 320 229.5C320.5 229.5 327 233.5 330.5 229.5C333.3 226.3 327.333 223.833 324 223L315.5 200.5C316.667 194.833 320 183.2 324 182C329 180.5 332.5 193 335 193C337.5 193 338 186.5 342.5 188.5C346.1 190.1 346.667 197.167 346.5 200.5L351.5 193V200.5L358 193L363 200.5C362 202.667 358.3 207.8 351.5 211C344.7 214.2 348.667 218.333 351.5 220C352.667 222.5 354.3 227.9 351.5 229.5C348 231.5 342.5 233.5 338 238C335.141 240.859 339.452 240.123 343.518 238.947C339.613 240.491 335.481 243.407 338 247.5C341.2 252.7 350.667 251.667 355 250.5L363 258.5C364.333 261.167 367.8 265.8 371 263C375 259.5 381 259 381 263V275L385.5 280L375.5 294.5L385.5 303Z" fill="#366C34"/>
<path d="M129 362.5C105.8 361.3 31.6667 383 -2.5 394L-26.5 413.5L401.5 404.5L419.5 341C390.333 348.167 321.1 362.5 277.5 362.5H182C174 363 152.2 363.7 129 362.5Z" fill="#A9E4F6"/>
<path d="M208.5 345.5C231.7 344.3 305.833 366 340 377L364 396.5L-64 387.5L-82 324C-52.8333 331.167 16.4 345.5 60 345.5H155.5C163.5 346 185.3 346.7 208.5 345.5Z" fill="#9DD3E7"/>
<path d="M77.4528 -9.91241L73.9528 -1.41241C59.2861 12.9209 28.6528 41.5876 23.4528 41.5876C18.2528 41.5876 18.9528 7.25425 19.9528 -9.91241C11.7861 -12.4124 -5.94723 -15.3124 -11.5472 -6.91241C-15.5041 -0.977167 -10.7074 45.9133 -5.20003 88.5L5 86.3501L19.9528 61.3369L23.4528 48.0139C29.2107 45.8718 41.554 41.5876 44.8633 41.5876C48.1727 41.5876 57.6667 31.5292 62 26.5L76.9526 19L87.0399 -11.2617C83.6176 -10.8721 80.3648 -10.4052 77.4528 -9.91241Z" fill="#130901"/>
<path d="M113.953 -11.8497C106.453 1.10547 90.0528 27.6302 84.4528 30.0876C81.9472 38.2051 74.7393 53.1549 65.9526 48.0139C57.166 42.8728 50.9898 47.8625 49 51L44.8633 59.0876L36.4528 63.4021L23.4528 73.0876V91.5876L31 78.0876C33.662 71.7542 42.1826 59.0876 54.9693 59.0876C67.756 59.0876 34.9842 90.0876 17 105.588L5 114.503V123L63.5 63.4021L128.029 -7.02207C125.217 -9.6824 120.102 -11.1647 113.953 -11.8497Z" fill="#130901"/>
<path d="M397.453 73.0876C409.853 75.4876 414.286 70.0876 414.953 67.0876C410.115 65.0876 355.635 55.9209 329 51.5876L305.285 55.0876C301.674 55.0876 294.453 55.8876 294.453 59.0876C294.453 62.2876 287.151 64.6959 283.5 65.5L266 75.2331L241.453 78.8508L229.5 86.3501H212.5L189.5 92.5L180.953 91.5876L199.953 78.0876C199.43 78.0876 212.171 62.7725 224.446 48.0175L224.447 48.016L224.448 48.0151L224.449 48.0139C235.645 34.5557 246.453 21.5646 246.453 21.0876C246.453 20.3825 244.961 14.4575 241.453 11.5498C245.453 22.0996 216 44.5 212.5 46.5C209.7 48.1 203.302 57.058 200.453 61.3369C196.802 66.6451 188.769 78.2273 185.843 82.0904C183.271 85.4859 182.393 85.5448 179.333 85.7501C178.041 85.8367 176.361 85.9494 174 86.3501C167.638 87.4303 164.651 94.9001 163.953 98.5L131.5 108C128.833 109.333 123.2 112.2 122 113C120.5 114 95.9526 123 94 123C92.0474 123 86 125.5 82.5 127.974C79.7 129.954 77.3333 134.208 76.5 136.088L59 145.5C58.1667 143.833 56.3 140.5 55.5 140.5C54.6723 140.5 54.1871 140.843 51.2088 142.946C50.589 143.383 49.8613 143.897 49 144.5C45.7565 146.77 47.1419 147.394 48.652 148.075C49.4699 148.443 50.3243 148.828 50.5 149.5C50.7107 150.306 51.0101 151.054 51.3235 151.837C51.7539 152.912 52.2107 154.053 52.5 155.5C52.7832 156.916 52.4248 156.728 51.6065 156.299C50.98 155.97 50.084 155.5 49 155.5C48.8333 155.333 48.8333 154.944 48.8333 154.407C48.8333 153.333 48.8333 151.667 47.5 150C45.9739 148.092 45.3212 149.096 44.6532 150.123C44.4458 150.442 44.2369 150.763 44 151C43.2 151.8 42.6667 155.667 42.5 157.5C41.3333 156.833 38.5 155.5 36.5 155.5C34.5588 155.5 34.4264 156.404 34.2301 157.745C34.1736 158.131 34.1118 158.553 34 159C33.6 160.6 34.1667 162 34.5 162.5C31.6667 163.667 25.8 166 25 166C24.2 166 22.6667 161.667 22 159.5C21.1667 160.333 19.2 162.1 18 162.5C17.25 162.75 16.75 163.125 16.25 163.5C15.75 163.875 15.25 164.25 14.5 164.5C13.5394 164.82 13.399 164.935 13.0284 165.239C12.8202 165.41 12.5394 165.64 12 166C10.5 167 15.5 173 16 173C16.4 173 9.37982 177.333 5.81973 179.5L7.95277 195.088C24.3272 184.994 48.4901 170.412 70.9526 157.473C71.7885 156.991 72.622 156.512 73.4526 156.035C81.3497 151.504 88.9897 147.207 95.9526 143.415C97.4557 142.597 98.9272 141.802 100.363 141.033C101.413 140.471 102.443 139.923 103.453 139.391C116.22 132.654 125.666 128.334 128.453 128.588C130.119 128.739 131.799 128.499 133.453 127.974C134.655 127.593 135.842 127.061 137 126.421C138.737 125.461 140.406 124.256 141.953 122.947C145.447 119.989 148.32 116.498 149.953 114.088C164.227 111.137 185.833 106.775 205.453 103.027C209.747 102.207 213.946 101.416 217.953 100.676C233.897 97.7303 246.785 95.5876 250.453 95.5876C256.896 95.5876 272.262 84.95 286.298 75.2331C296.222 68.3622 305.482 61.9515 310.453 60.0876C320.246 56.415 361.678 65.3976 385.008 70.4559C390.265 71.5955 394.603 72.536 397.453 73.0876Z" fill="#130901"/>
<path d="M65.9526 71.7829C86.4527 73.3844 127.653 76.5876 128.453 76.5876C129.253 76.5876 137.786 84.3607 141.953 88.2473C143.045 87.6417 144.206 87.0081 145.453 86.3501C141.786 83.096 134.053 75.8876 132.453 73.0876C130.853 70.2876 138.119 69.5876 141.953 69.5876L161.953 78.8508C162.605 78.5976 163.271 78.3432 163.953 78.0876C164.624 77.8359 165.291 77.5599 165.953 77.2616L146.953 66.5876L179.453 67.9133C180.303 67.1273 181.137 66.3205 181.953 65.4989C171.286 64.8 149.353 63.4021 146.953 63.4021C143.952 63.4021 126 66.5876 121 68C117 69.1299 85.3043 68.4708 69.9565 68C68.6039 69.2812 67.2677 70.5434 65.9526 71.7829Z" fill="#130901"/>
<path d="M65.9526 114.503C75.8681 109.518 83.0735 106.001 84.4528 105.588C71.7246 108.641 47.1494 103.193 36.4528 100.088L65.9526 114.503Z" fill="#130901"/>
<path d="M146.453 203.588C145.619 200.754 143.953 194.288 143.953 191.088C143.953 187.088 143.953 179.588 139.453 179.088C137.671 178.89 133.147 172.596 127.741 165.076C119.493 153.601 109.192 139.272 103.453 139.391C102.443 139.923 101.413 140.471 100.363 141.033C113.157 154.747 138.886 182.658 139.453 184.588C139.543 184.897 139.678 185.339 139.841 185.878C140.954 189.542 143.436 197.712 143 199.5C142.5 201.551 142.905 203.588 146.453 203.588Z" fill="#130901"/>
<path d="M179.953 140.588L141.953 122.947C140.406 124.256 138.737 125.461 137 126.421C145.667 129.559 164.1 136.547 168.5 139.391C172.9 142.235 176.333 144.649 177.5 145.5L179.953 140.588Z" fill="#130901"/>
<path d="M306.953 40.0876C306.329 39.9315 305.899 37.146 305.285 33.1593C303.93 24.3713 301.676 9.74702 294.453 4.58758C295.635 17.0001 298.5 41.8253 300.5 41.8253C302.5 41.8253 305.635 40.6668 306.953 40.0876Z" fill="#130901"/>
<path d="M346.453 44.0876L380.453 3.58759C373.469 6.72506 358.7 14.2 355.5 19C353.452 22.0718 348.521 28.5739 344.263 34.1888C340.204 39.5413 336.756 44.0876 337 44.0876C337.087 44.0876 337.231 44.2533 337.444 44.4984C338.46 45.6656 341.042 48.6329 346.453 44.0876Z" fill="#130901"/>
<path fill-rule="evenodd" clip-rule="evenodd" d="M205.453 103.027C209.747 102.207 213.946 101.416 217.953 100.676C221.153 104.747 259.619 128.647 278.453 140.088C293.619 147.588 325.453 163.788 331.453 168.588C337.453 173.388 339.619 194.254 339.953 204.088C342.619 206.421 351.953 212.688 367.953 219.088C387.953 227.088 391.953 237.088 390.953 235.588C390.153 234.388 372.619 225.754 363.953 221.588C368.953 230.754 378.953 249.388 378.953 250.588V275.088C378.953 270.455 377.236 264.868 375.805 260.213C374.92 257.332 374.144 254.808 373.953 253.088C373.453 248.588 361.453 222.588 360.953 221.588C360.553 220.788 344.119 212.588 335.953 208.588V243.088C335.953 245.51 338.561 251.265 340.735 256.063C342.6 260.177 344.145 263.588 343.453 263.588C342.253 263.588 336.953 255.921 334.453 252.088C333.786 254.254 332.453 259.588 332.453 263.588C332.453 267.588 330.453 267.588 329.453 267.088C330.453 246.088 332.453 203.788 332.453 202.588C332.453 201.762 330.634 199.724 329 197.892C327.665 196.396 326.453 195.037 326.453 194.588C326.453 194.419 326.481 193.911 326.523 193.152C326.733 189.397 327.284 179.494 326.453 174.088C325.653 168.888 293.453 152.588 277.453 145.088C270.453 141.754 255.753 135.288 252.953 136.088C249.453 137.088 240.453 135.088 237.453 131.088C235.053 127.888 215.119 111.048 205.453 103.027ZM133.453 127.974C134.655 127.593 135.842 127.061 137 126.421C145.667 129.559 164.1 136.547 168.5 139.391C172.9 142.235 176.333 144.649 177.5 145.5L179.953 140.588C178.953 148.421 176.753 164.388 175.953 165.588C174.953 167.088 179.453 180.588 181.953 184.088C183.953 186.888 190.786 185.588 193.953 184.588C204.353 192.988 202.619 202.088 200.453 205.588C200.049 204.679 199.675 203.243 199.235 201.551C198.222 197.657 196.856 192.405 193.953 189.088C192.012 186.87 189.457 187.726 186.883 188.589C184.815 189.282 182.735 189.979 180.953 189.088C177.88 187.551 175.102 182.474 172.619 177.936C171.87 176.567 171.148 175.247 170.453 174.088C168.778 171.296 169.441 165.388 170.092 159.582C170.607 154.988 171.115 150.459 170.453 147.588C169.253 142.388 145.286 132.345 133.453 127.974ZM95.9526 143.415C97.4557 142.597 98.9272 141.802 100.363 141.033C113.157 154.747 138.886 182.658 139.453 184.588C139.543 184.897 139.678 185.339 139.841 185.878C140.954 189.542 143.436 197.712 143 199.5C142.5 201.551 142.905 203.588 146.453 203.588C145.286 205.588 143.153 211.188 143.953 217.588C144.621 222.937 141.713 230.968 140.161 235.255L140.16 235.259C140.029 235.62 139.908 235.954 139.8 236.258C140.119 231.289 139.324 217.394 138.679 206.12C138.288 199.294 137.953 193.429 137.953 191.088C137.953 185.488 109.953 156.973 95.9526 143.415ZM139.8 236.258C139.734 237.275 139.622 237.918 139.453 238.088C139.04 238.5 139.27 237.741 139.8 236.258ZM70.9526 157.473C71.7885 156.991 72.622 156.512 73.4526 156.035C77.1193 158.053 85.1527 162.788 87.9526 165.588C90.7525 168.388 91.1193 187.421 90.9526 196.588L87.9526 195.088V170.088C87.9526 167.288 76.6193 160.511 70.9526 157.473ZM16 173C16.4 173 9.37982 177.333 5.81973 179.5L1.45277 147.588C18.4875 138.743 47.1124 123.974 65.9526 114.503C75.8681 109.518 83.0735 106.001 84.4528 105.588C86.4591 104.986 92.8931 103.498 100.363 101.771C111.509 99.1945 124.962 96.0844 129.453 94.5876C132.479 93.5787 135.425 91.9184 139.176 89.8038L139.179 89.8018L139.183 89.7999L139.186 89.798L139.187 89.7974C140.061 89.3046 140.98 88.787 141.953 88.2473C143.045 87.6417 144.206 87.0081 145.453 86.3501C149.734 84.0903 155.02 81.543 161.953 78.8508C162.605 78.5976 163.271 78.3432 163.953 78.0876C164.624 77.8359 165.291 77.5599 165.953 77.2616C170.754 75.0971 175.3 71.7524 179.453 67.9133C180.303 67.1273 181.137 66.3205 181.953 65.4989C171.286 64.8 149.353 63.4021 146.953 63.4021C143.952 63.4021 126 66.5876 121 68C117 69.1299 85.3043 68.4708 69.9565 68C68.6039 69.2812 67.2677 70.5434 65.9526 71.7829C62.0628 75.4493 58.3587 78.9172 54.9693 82.0904C51.1358 85.6795 47.7049 88.8916 44.8633 91.5876L84.4528 105.588C71.7246 108.641 47.1494 103.193 36.4528 100.088C33.6528 104.488 11.9528 125.921 1.45277 136.088C-0.503384 123.128 -2.91298 106.185 -5.20003 88.5L5 86.3501L19.9528 61.3369L23.4528 48.0139C29.2107 45.8718 41.554 41.5876 44.8633 41.5876C48.1727 41.5876 57.6667 31.5292 62 26.5L76.9526 19L87.0399 -11.2617C95.864 -12.2661 105.814 -12.7563 113.953 -11.8497C106.453 1.10547 90.0528 27.6302 84.4528 30.0876C81.9472 38.2051 74.7393 53.1549 65.9526 48.0139C57.166 42.8728 50.9898 47.8625 49 51L44.8633 59.0876L36.4528 63.4021L23.4528 73.0876V91.5876L31 78.0876C33.662 71.7542 42.1826 59.0876 54.9693 59.0876C67.756 59.0876 34.9842 90.0876 17 105.588L5 114.503V123L63.5 63.4021L128.029 -7.02207C130.792 -4.40896 131.333 -0.659313 128.453 4.58758C121.277 17.6572 98.2089 40.9719 76.9526 61.3369C87.9526 63.504 110.753 67.1881 113.953 64.5876C117.953 61.3369 119.953 60.0863 124.453 61.3369C126.669 61.953 128.037 62.751 129.153 63.4021C130.302 64.0727 131.184 64.5876 132.453 64.5876C134.453 64.5876 139.619 60.9209 141.953 59.0876L185.843 61.3369C192.366 53.949 197.425 46.1776 200.258 41.8253C201.309 40.211 202.053 39.0671 202.453 38.5876C204.64 35.9626 214.484 32.1891 218.586 30.6169C219.172 30.3923 219.64 30.2126 219.953 30.0876C221.953 29.2876 231.453 16.4209 235.953 10.0876C238.165 9.6452 239.985 10.3335 241.453 11.5498C245.453 22.0996 216 44.5 212.5 46.5C209.7 48.1 203.302 57.058 200.453 61.3369C196.802 66.6451 188.769 78.2273 185.843 82.0904C183.271 85.4859 182.393 85.5448 179.333 85.7501C178.041 85.8367 176.361 85.9494 174 86.3501C167.638 87.4303 164.651 94.9001 163.953 98.5L131.5 108C128.833 109.333 123.2 112.2 122 113C120.5 114 95.9526 123 94 123C92.0474 123 86 125.5 82.5 127.974C79.7 129.954 77.3333 134.208 76.5 136.088L59 145.5C58.1667 143.833 56.3 140.5 55.5 140.5C54.6723 140.5 54.1871 140.843 51.2088 142.946C50.589 143.383 49.8613 143.897 49 144.5C45.7565 146.77 47.1419 147.394 48.652 148.075C49.4699 148.443 50.3243 148.828 50.5 149.5C50.7107 150.306 51.0101 151.054 51.3235 151.837C51.7539 152.912 52.2107 154.053 52.5 155.5C52.7832 156.916 52.4248 156.728 51.6065 156.299C50.98 155.97 50.084 155.5 49 155.5C48.8333 155.333 48.8333 154.944 48.8333 154.407C48.8333 153.333 48.8333 151.667 47.5 150C45.9739 148.092 45.3212 149.096 44.6532 150.123C44.4458 150.442 44.2369 150.763 44 151C43.2 151.8 42.6667 155.667 42.5 157.5C41.3333 156.833 38.5 155.5 36.5 155.5C34.5588 155.5 34.4264 156.404 34.2301 157.745C34.1736 158.131 34.1118 158.553 34 159C33.6 160.6 34.1667 162 34.5 162.5C31.6667 163.667 25.8 166 25 166C24.2 166 22.6667 161.667 22 159.5C21.1667 160.333 19.2 162.1 18 162.5C17.25 162.75 16.75 163.125 16.25 163.5C15.75 163.875 15.25 164.25 14.5 164.5C13.5394 164.82 13.399 164.935 13.0284 165.239C12.8202 165.41 12.5394 165.64 12 166C10.5 167 15.5 173 16 173ZM180.953 91.5876L199.953 78.0876C200.953 78.0876 239.453 76.0876 241.453 73.0876C243.053 70.6876 278.119 51.0876 295.453 41.5876C291.619 26.7543 286.053 -1.41242 294.453 4.58758C295.635 17.0001 298.5 41.8253 300.5 41.8253C302.5 41.8253 305.635 40.6668 306.953 40.0876C308.553 40.4876 325.953 35.9209 334.453 33.5876L361.453 3.58759H380.453C373.469 6.72506 358.7 14.2 355.5 19C353.452 22.0718 348.521 28.5739 344.263 34.1888C340.204 39.5413 336.756 44.0876 337 44.0876C337.087 44.0876 337.231 44.2533 337.444 44.4984C338.46 45.6656 341.042 48.6329 346.453 44.0876C369.653 43.6876 385.119 48.9209 389.953 51.5876L408.953 29.0876L402.453 -1.41241L414.953 33.5876C407.969 40.2834 393.9 53.9577 393.5 55.0876C393.1 56.2175 395.969 55.5584 397.453 55.0876L414.953 51.5876V67.0876C410.115 65.0876 355.635 55.9209 329 51.5876L305.285 55.0876C301.674 55.0876 294.453 55.8876 294.453 59.0876C294.453 62.2876 287.151 64.6959 283.5 65.5L266 75.2331L241.453 78.8508L229.5 86.3501H212.5L189.5 92.5L180.953 91.5876Z" fill="#5F4822"/>
<path d="M397.453 55.0876L414.953 33.5876C407.969 40.2834 393.9 53.9577 393.5 55.0876C393.1 56.2175 395.969 55.5584 397.453 55.0876Z" fill="#130901"/>
<path d="M396.5 436.53C352.5 424.03 -5 415.03 -17 413.53C-17 400.53 -16.5 374.63 -14.5 375.03C-12 375.53 -9.5 376.53 -6.5 377.53C-3.5 378.53 0.5 383.03 2 387.03C3.5 391.03 3 389.53 4.5 391.53C5.7 393.13 12.3333 393.53 15.5 393.53C19.3333 389.197 27.1 380.33 27.5 379.53C28 378.53 32.5 373.53 35.5 372.03C38.5 370.53 38 372.53 40.5 373.53C43 374.53 42 381.03 52 385.53C62 390.03 64.5 399.03 65.5 399.03C66.5 399.03 73 402.03 73.5 401.53C74 401.03 74.5 395.03 78 395.03C81.5 395.03 80.5 403.03 81.5 403.53C82.5 404.03 84 403.53 86.5 403.03C89 402.53 89 399.03 93 397.03C97 395.03 103 403.53 104 403.53C105 403.53 104.5 403.03 109.5 403.03C113.5 403.03 116.833 406.03 118 407.53C119 407.197 121 406.33 121 405.53C121 404.53 124.5 401.53 128 397.03C131.5 392.53 128.5 395.53 137.5 394.03C146.5 392.53 140 393.03 143.5 394.03C147 395.03 147.5 398.03 150 399.03C152.5 400.03 153 404.03 155.5 401.53C158 399.03 171.5 391.03 173.5 391.03C175.5 391.03 179 396.03 180 398.03C181 400.03 181 403.03 190 405.53C196 407.53 196.5 404.53 196 401.53C195.5 398.53 201.5 400.53 204.5 399.03C207.5 397.53 206 396.03 206.5 395.53C207 395.03 210 389.03 211 388.53C212 388.03 217.5 388.03 222 388.53C226.5 389.03 228.5 391.03 229 392.03C229.5 393.03 227.5 396.53 231 399.03C234 399.03 235.5 402.03 236 402.53C236.5 403.03 234.5 407.53 235.5 409.03C236.3 410.23 241.5 408.53 244 407.53C244.833 407.53 247.2 407.83 250 409.03C253.5 410.53 259.5 422.03 259.5 420.53C259.5 419.03 263.5 414.53 264.5 414.53C265.3 414.53 267.833 409.53 269 407.03C269.167 405.697 269.7 402.53 270.5 400.53L270.564 400.371C271.524 397.966 272.118 396.477 277.5 394.03C283 391.53 280 394.03 280.5 394.03C281 394.03 288 392.03 290 392.03C292 392.03 296.5 398.53 298.5 400.53C300.5 402.53 302.5 401.53 304.5 402.03C306.5 402.53 306.5 396.53 308 395.03C309.5 393.53 316.5 396.53 317.5 396.53H325C326.5 396.53 329 401.53 330 403.03C331 404.53 333.5 406.53 336 407.53C338.5 408.53 337 408.53 339 407.53C341 406.53 339.5 405.53 339 403.03C338.5 400.53 335.5 399.03 335.5 396.53C335.5 394.03 339 397.53 341 398.03C343 398.53 341.5 395.53 342 394.03C342.5 392.53 343 392.03 344 391.03C345 390.03 349.5 392.53 351 392.03C352.2 391.63 353.5 388.864 354 387.53C354.667 386.53 355.7 383.93 354.5 381.53C353 378.53 353.5 377.53 354 375.03C354.5 372.53 355 374.03 359.5 369.03C364 364.03 361.5 369.53 363 372.03C364.5 374.53 364.5 375.03 366 375.03C367.5 375.03 368 374.03 370 374.03C372 374.03 373 369.53 375.5 369.53H380.5C382.5 369.53 381.5 375.03 381.5 377.53C381.5 379.53 382.833 378.364 383.5 377.53C385 377.864 388 379.03 388 381.03C388 383.03 389.333 384.864 390 385.53L406.5 392.53C417.833 411.364 431.7 446.53 396.5 436.53Z" fill="#5F9B34"/>
<path d="M28.6096 53.5C25.0096 53.5 24.7763 48.8333 25.1096 46.5C27.9098 46.5 35.6095 48.1667 39.1094 49C37.1095 50.5 32.2096 53.5 28.6096 53.5Z" fill="#EADBA4"/>
<path d="M30.1094 41C27.1094 40 31.1094 35.5 33.1094 34.5C35.5094 34.5 42.776 28.5 46.1094 25.5C48.276 26.3333 52.7094 28.6 53.1094 31C53.6094 34 51.1094 38.5 49.6094 38C52.4094 39.2 45.776 43.1667 42.1094 45C37.6094 45 44.6094 39 37.1094 41C37.1094 38 33.1094 42 30.1094 41Z" fill="#EADBA4"/>
<path d="M75.6094 124.5C73.6094 124.5 74.1094 118 73.6094 116.5L83.1094 111.5C84.1094 113.833 85.5094 118.9 83.1094 120.5C80.1094 122.5 80.6094 118.5 79.1094 118.5C77.6094 118.5 77.6094 124.5 75.6094 124.5Z" fill="#EADBA4"/>
<path d="M100.109 124.5C97.3094 124.5 97.6094 121.833 98.1094 120.5L102.609 118.5C102.943 120.5 102.909 124.5 100.109 124.5Z" fill="#EADBA4"/>
<path d="M129.609 107C124.109 106.5 125.609 104 124.109 103C133.109 97.3333 152.409 85.5 157.609 83.5C162.809 81.5 190.109 54.3333 203.109 41L159.609 87.5C157.943 89.3333 153.409 93.8 148.609 97C142.609 101 139.109 99 137.609 100C136.409 100.8 136.109 102.333 136.109 103C135.776 104.5 134.009 107.4 129.609 107Z" fill="#EADBA4"/>
<path d="M195.109 89C194.609 87 185.609 87.5 183.109 86C192.609 86.5 211.309 87.8 210.109 89C208.609 90.5 206.109 92 205.609 93.5C205.109 95 200.609 97 198.109 97C195.609 97 195.609 91 195.109 89Z" fill="#EADBA4"/>
<path d="M222.109 86C220.109 87.8333 215.809 91.4 214.609 91C213.245 90.5453 214.776 86.782 215.816 84.2238L215.845 84.1537L222.109 86Z" fill="#EADBA4"/>
<path d="M235.109 81C235.609 79.5 274.109 51 279.109 51C284.109 51 236.609 80 235.109 81Z" fill="#EADBA4"/>
<path d="M234.609 141C233.109 142 223.609 134 223.109 133.5L227.109 132.5C228.443 132.667 231.509 133.1 233.109 133.5C234.709 133.9 234.109 129.333 233.609 127C237.943 130.167 246.709 136.5 247.109 136.5C247.609 136.5 236.109 137 235.609 136.5C235.109 136 236.109 140 234.609 141Z" fill="#EADBA4"/>
<path d="M304.609 47.5C302.109 48 294.609 48.5 294.109 47.5C297.309 48.7 316.443 40.6667 325.609 36.5C322.276 39.1667 314.909 44.8 312.109 46C308.609 47.5 307.109 47 304.609 47.5Z" fill="#EADBA4"/>
<path d="M152.5 575.5C152.9 572.7 148 572 145.5 572C142 570.667 133.9 568 129.5 568C125.1 568 112.667 594.333 107 607.5L173.5 616C172 610.667 168.4 599.7 166 598.5C163 597 165 590 163 586C161 582 160.5 584 160 577.5C159.5 571 152 579 152.5 575.5Z" fill="#30254F"/>
<path d="M153 581C149.4 580.6 151.5 577.833 153 576.5C155.333 576.333 160.1 576.1 160.5 576.5C161 577 157.5 581.5 153 581Z" fill="#5E51C1"/>
<path d="M153.5 586.5C150.3 586.9 150.5 585 151 584C150.167 584 148.3 583.9 147.5 583.5C146.5 583 150 586.5 150.5 587.5C150.9 588.3 148.333 590.833 147 592L151 588.5L153 592C153 591 152.9 588.8 152.5 588C152.1 587.2 157 586.667 159.5 586.5C158.833 586.333 156.7 586.1 153.5 586.5Z" fill="#5E51C1"/>
<path d="M135 579.5C139.4 578.3 139.833 573.333 139.5 571C141 572 140 579 140 579.5C140 579.9 141.333 582.333 142 583.5L139.5 581L129.5 583C129.5 582.333 130.6 580.7 135 579.5Z" fill="#5E51C1"/>
<path d="M137.5 588L129.5 597.5C130.333 598.167 132 599.3 132 598.5C132 597.7 135.667 591.167 137.5 588Z" fill="#5E51C1"/>
<path d="M17.2797 83.5C14.7797 89.5 -2.22025 109 -3.22025 110.5V121C14.6131 103.167 50.5797 67.5 51.7797 67.5C53.2797 67.5 53.2797 61.5 50.2797 61.5C47.8797 61.5 43.2797 67.8333 41.2797 71L32.2797 67.5C30.9464 71.5 27.9797 80.3 26.7797 83.5C25.5797 86.7 12.2797 100.5 5.77975 107C11.1131 100.333 21.7797 86.6 21.7797 85C21.7797 83.4 22.7797 65.3333 23.2797 56.5C22.1131 63.5 19.2797 78.7 17.2797 83.5Z" fill="#DEA37B"/>
<path d="M41.2797 79.5C27.4464 95.1667 -0.420253 126.8 -1.22025 128C-4.2275 128.41 -2.47327 131.171 -1.22025 132.5C1.11308 129.333 6.17975 122.6 7.77975 121C9.77975 119 50.2797 74 54.2797 70C58.2797 66 79.7797 43.5 84.2797 39.5C87.8797 36.3 104.446 14.8333 112.28 4.5L41.2797 79.5Z" fill="#DEA37B"/>
<path d="M17.2797 177.5L-1.22025 186C-3.55359 187.5 -7.22025 190.5 -3.22025 190.5C1.77975 190.5 34.5297 166.5 51.7797 158.5C69.0297 150.5 84.2797 138 89.2797 137.5C93.2797 137.1 110.28 128.333 118.28 124C116.28 124.5 111.18 125.2 106.78 124C101.28 122.5 67.7797 149 63.7797 151.5C60.5798 153.5 54.4464 155 51.7797 155.5L17.2797 177.5Z" fill="#DEA37B"/>
<path d="M167.35 103.177C155.675 105.851 144.99 108.493 137.28 110.5C141.172 108.338 152.672 105.764 167.35 103.177C192.523 97.4114 222.297 91.5 236.78 91.5C240.28 91.6667 247.98 91.3 250.78 88.5C254.28 85 280.28 56.5 288.28 56.5L250.78 91.5C229.46 93.9518 193.4 98.5853 167.35 103.177Z" fill="#DEA37B"/>
<path d="M20 406.511C18.5 405.511 4.5 400.011 3 399.511V411.511C30.5 412.677 84.6 414.611 81 413.011C76.5 411.011 77 411.011 73 408.511C69 406.011 72.5 403.011 69.5 398.511C66.5 394.011 61 394.511 57.5 393.011C54 391.511 49.5 385.511 46 385.011C42.5 384.511 40 401.511 40.5 403.011C41 404.511 34.5 405.511 32 406.511C29.5 407.511 21.5 407.511 20 406.511Z" fill="#257348"/>
<path d="M94.5 405.011C90.5 403.511 96 411.011 96 413.011C100 413.011 112.5 415.511 112.5 413.011C112.5 410.511 113.5 411.511 112.5 410.511C111.5 409.511 105 405.011 103 405.011C101 405.011 98.5 406.511 94.5 405.011Z" fill="#257348"/>
<path d="M136 408.511C132 401.511 146 396.511 149 396.011L145.5 403.011C145.667 403.677 147.5 405.711 153.5 408.511C155.5 408.511 156.667 411.511 157 413.011C157.833 413.511 160.1 415.111 162.5 417.511C163.433 418.444 164.548 419.055 165.65 419.443C167.239 419.652 168.714 419.844 170 420.011C169.083 420.113 167.382 420.053 165.65 419.443C156.12 418.19 142.529 416.354 141.5 416.011C140 415.511 140 415.511 136 408.511Z" fill="#257348"/>
<path d="M178 405.511C178.8 405.511 179 403.177 179 402.011C180.5 403.177 183.7 406.111 184.5 408.511C185.5 411.511 186.5 410.511 186.5 411.511C186.5 412.511 188.5 414.011 191.5 416.011C194.5 418.011 195 416.011 197.5 416.011C199.5 416.011 203 418.677 204.5 420.011L170 418.511C170.833 417.677 172.5 415.811 172.5 415.011V408.511C172.5 407.511 177 405.511 178 405.511Z" fill="#257348"/>
<path d="M224.5 396.011C225.7 395.611 227 395.844 227.5 396.011L226 398.511H232C234 398.511 231.5 406.511 231 407.011C230.5 407.511 227.5 411.511 228 412.011C228.5 412.511 230 413.011 234.5 416.011C239 419.011 237 416.511 241.5 416.011C246 415.511 249.5 416.011 252.5 416.511C254.9 416.911 257.833 422.677 259 425.511C247.5 424.511 223.4 422.311 219 421.511C213.5 420.511 214 416.511 214.5 416.011C215 415.511 215.5 408.511 214.5 405.511C213.5 402.511 214.5 403.511 215.5 403.511C216.5 403.511 217 400.011 217.5 399.011C218 398.011 219 398.511 221 398.511C223 398.511 223 396.511 224.5 396.011Z" fill="#257348"/>
<path d="M286 407.011C285.6 407.011 287.167 404.344 288 403.011L290.5 405.511C291.667 406.511 294 409.111 294 411.511C294 414.511 296 413.511 297.5 413.511C299 413.511 305.5 416.011 308.5 416.011C311.5 416.011 313 416.511 313 418.511C313 420.511 316.5 420.011 319.5 421.511C322.5 423.011 321.5 423.011 325 424.011C327.8 424.811 325.5 426.344 324 427.011C324.5 427.511 325.7 428.811 326.5 430.011C327.3 431.211 293.833 428.511 277 427.011V421.511C277 419.511 278.5 418.511 281.5 416.511C284.5 414.511 283.5 416.511 284.5 416.011C285.5 415.511 287 413.511 288 412.011C289 410.511 286.5 407.011 286 407.011Z" fill="#257348"/>
<path d="M359 392.511C362.5 393.011 370 388.011 371 386.511L374.5 394.011L377.5 396.011C377 396.844 375.9 399.011 375.5 401.011C375 403.511 380.5 405.511 382 408.511C383.5 411.511 390 413.511 396.5 420.011C403 426.511 390.5 424.011 388 424.011C385.5 424.011 381.5 421.511 363.5 413.511C345.5 405.511 359 409.511 357.5 407.011C356 404.511 351.5 399.511 351 394.011C350.5 388.511 353 392.511 353.5 392.511C354 392.511 355.5 392.011 359 392.511Z" fill="#257348"/>
<path d="M335 431.511C332.2 430.311 341.833 422.344 347 418.511C349.167 417.677 353.8 416.111 355 416.511C356.5 417.011 357.5 418.511 357.5 421.511C357.5 424.511 361 421.511 366.5 423.011C370.9 424.211 374.333 429.177 375.5 431.511C363.167 432.011 337.8 432.711 335 431.511Z" fill="#257348"/>
<path d="M122 472C107.6 482 27.6667 467.833 -10.5 459.5L-66.5 522.5H50.5C111.5 513.5 122 510 140 493.5C154.4 480.3 245.333 454.667 289 443.5C265.667 444.667 211.4 449.5 181 459.5C143 472 140 459.5 122 472Z" fill="#7DBC90"/>
<path d="M54.5 746C41.3 753.2 0.666666 743 -18 737C-10.3333 725.5 11.1 702.5 35.5 702.5H156.62C159.543 701.876 161.87 701.747 163 702.5L320 691C326.5 691.833 343.4 694.8 359 700C378.5 706.5 343.5 733 301 742.5C258.5 752 167.5 705.5 163 702.5H156.62C147.898 704.361 133.87 710.626 130.5 711C126 711.5 71 737 54.5 746Z" fill="#C2C2C2"/>
<path fill-rule="evenodd" clip-rule="evenodd" d="M52.482 684.649C38.9611 688.913 -39.1193 713.542 -32.6161 720.045H-9.5C-0.461311 723.03 21.2929 729.1 36 729.5C50.7071 729.9 104.461 709.515 129.5 699.272C104.129 692.26 56.6533 683.288 54.3839 684.045C54.171 684.116 53.5149 684.323 52.482 684.649Z" fill="#F8F9E7"/>
<path d="M32.3839 739.045C67.0506 727.711 138.084 705.045 144.884 705.045C143.545 703.584 137.668 701.529 129.5 699.272C104.461 709.515 50.7071 729.9 36 729.5C21.2929 729.1 -0.461311 723.03 -9.5 720.045H-32.6161C-27.0161 725.645 13.0506 735.045 32.3839 739.045Z" fill="#D6D99E"/>
<path d="M330.884 696.045C283.051 697.878 183.684 702.245 168.884 705.045C154.084 707.845 164.717 706.211 171.884 705.045C172.587 705.396 181.621 709.389 194 714.421C200.562 717.088 208.063 720.047 215.762 722.911C277.435 742.315 317.594 714.399 330.884 696.045Z" fill="#F8F9E7"/>
<path fill-rule="evenodd" clip-rule="evenodd" d="M194 714.421C200.562 717.088 208.063 720.047 215.762 722.911C208.781 720.715 201.524 717.912 194 714.421Z" fill="#F8F9E7"/>
<path d="M265.384 736.545C282.984 736.545 341.051 719.878 367.884 711.545L330.884 696.045C317.594 714.399 277.435 742.315 215.762 722.911C234.879 730.022 255.21 736.545 265.384 736.545Z" fill="#D6D99E"/>
<path d="M92.3581 694.705C98.1603 701.37 93.3656 709.738 86.2843 715.903C79.203 722.068 72.5167 723.695 66.7145 717.03C60.9122 710.365 61.9491 699.965 69.0304 693.8C76.1117 687.635 86.5559 688.04 92.3581 694.705Z" fill="#FE8310"/>
<path d="M88.3593 688.201C86.1985 696.769 76.5904 697.609 67.4866 695.313C58.3828 693.017 53.2307 688.455 55.3915 679.887C57.5522 671.319 66.684 666.234 75.7878 668.53C84.8916 670.826 90.5201 679.633 88.3593 688.201Z" fill="#FE8310"/>
<path d="M61.805 664.899C68.0378 671.163 63.8106 679.832 57.1552 686.454C50.4998 693.077 43.9365 695.145 37.7037 688.881C31.4708 682.617 31.8134 672.171 38.4687 665.548C45.1241 658.926 55.5721 658.635 61.805 664.899Z" fill="#FE8310"/>
<path d="M50.0472 696.931C56.8679 703.786 53.1369 712.382 46.7761 718.711C40.4153 725.041 33.8333 726.706 27.0126 719.852C20.1919 712.997 19.8191 702.31 26.18 695.98C32.5408 689.651 43.2265 690.077 50.0472 696.931Z" fill="#FE8310"/>
<path d="M72.8171 699.903C79.6378 706.758 75.9069 715.354 69.546 721.683C63.1852 728.013 56.6032 729.678 49.7825 722.824C42.9618 715.969 42.5891 705.281 48.9499 698.952C55.3107 692.623 65.9965 693.049 72.8171 699.903Z" fill="#FE8310"/>
<path d="M69.7682 688.146C76.5889 695.001 72.8579 703.597 66.4971 709.927C60.1362 716.256 53.5542 717.922 46.7336 711.067C39.9129 704.212 39.5401 693.525 45.901 687.195C52.2618 680.866 62.9475 681.292 69.7682 688.146Z" fill="#FE8310"/>
<path d="M71.6335 720.151C94.8707 712.119 91.6175 697.671 87.0863 691.451C97.2727 695.841 95.3176 703.952 93.0668 707.458C86.4864 720.612 76.0361 721.401 71.6335 720.151Z" fill="#C56D32"/>
<path d="M68.0221 716.003C67.945 715.634 67.8648 715.23 67.7835 714.798C67.1741 712.167 65.6895 707.972 63.062 705.737C60.9916 703.975 58.8281 704.889 57.2497 706.279C56.597 707.247 55.9111 707.985 55.4355 708.399C55.8483 707.749 56.4793 706.958 57.2497 706.279C58.1497 704.945 58.9865 703.174 59.1223 701.211C59.4151 696.979 45.5507 692.476 47.9953 692.999C49.951 693.418 54.9327 690.053 57.1791 688.319C57.8499 690.917 64.3412 695.784 67.5031 697.893C65.728 700.903 66.835 709.765 67.7835 714.798C67.8886 715.253 67.9677 715.66 68.0221 716.003C69.1934 717.856 69.9911 722.377 63.8118 725.635C56.0876 729.708 48.6696 724.233 48.1239 716.753C51.6259 720.775 60.5083 726.257 68.0221 716.003Z" fill="#C56D32"/>
<path d="M64.8944 669.006C62.3744 668.548 58.4021 675.763 56.731 679.428C66.0266 663.91 80.3974 670.315 86.4208 675.457C75.0276 660.847 68.0444 669.578 64.8944 669.006Z" fill="#C56D32"/>
<path d="M38.0882 723.501C43.5861 721.897 40.9026 701.605 38.8736 691.659C58.053 696.176 50.6794 710.55 48.1726 716.047C46.1672 720.445 40.6141 722.849 38.0882 723.501Z" fill="#C56D32"/>
<path d="M78.7631 709.304C75.4054 712.757 74.2999 707.223 74.1668 704.024L80.5777 698.443C81.3718 700.624 82.1207 705.85 78.7631 709.304Z" fill="#FFB299"/>
<path d="M75.4623 675.053C80.0098 681.038 79.2911 686.304 81.3719 681.841C83.4527 677.378 77.5786 675.2 75.4623 675.053Z" fill="#FFB299"/>
<path d="M40.1824 713.723C39.288 710.259 32.158 699.937 28.7049 695.209C31.3447 692.91 37.4628 691.562 38.8248 692.365C40.1868 693.168 41.3004 718.053 40.1824 713.723Z" fill="#FFB299"/>
<path d="M216.358 599.705C222.16 606.37 217.366 614.738 210.284 620.903C203.203 627.068 196.517 628.695 190.714 622.03C184.912 615.365 185.949 604.965 193.03 598.8C200.112 592.635 210.556 593.04 216.358 599.705Z" fill="#FE8310"/>
<path d="M212.359 593.201C210.199 601.769 200.59 602.609 191.487 600.313C182.383 598.017 177.231 593.455 179.391 584.887C181.552 576.319 190.684 571.234 199.788 573.53C208.892 575.826 214.52 584.633 212.359 593.201Z" fill="#FE8310"/>
<path d="M185.805 569.899C192.038 576.163 187.811 584.832 181.155 591.454C174.5 598.077 167.937 600.145 161.704 593.881C155.471 587.617 155.813 577.171 162.469 570.548C169.124 563.926 179.572 563.635 185.805 569.899Z" fill="#FE8310"/>
<path d="M174.047 601.931C180.868 608.786 177.137 617.382 170.776 623.711C164.415 630.041 157.833 631.706 151.013 624.852C144.192 617.997 143.819 607.31 150.18 600.98C156.541 594.651 167.227 595.077 174.047 601.931Z" fill="#FE8310"/>
<path d="M196.817 604.903C203.638 611.758 199.907 620.354 193.546 626.683C187.185 633.013 180.603 634.678 173.782 627.824C166.962 620.969 166.589 610.281 172.95 603.952C179.311 597.623 189.996 598.049 196.817 604.903Z" fill="#FE8310"/>
<path d="M193.768 593.146C200.589 600.001 196.858 608.597 190.497 614.927C184.136 621.256 177.554 622.922 170.734 616.067C163.913 609.212 163.54 598.525 169.901 592.195C176.262 585.866 186.948 586.292 193.768 593.146Z" fill="#FE8310"/>
<path d="M195.634 625.151C218.871 617.119 215.618 602.671 211.086 596.451C221.273 600.841 219.318 608.952 217.067 612.458C210.486 625.612 200.036 626.401 195.634 625.151Z" fill="#C56D32"/>
<path d="M192.022 621.003C191.945 620.634 191.865 620.23 191.783 619.798C191.174 617.167 189.69 612.972 187.062 610.737C184.992 608.975 182.828 609.889 181.25 611.279C180.597 612.247 179.911 612.985 179.435 613.399C179.848 612.749 180.479 611.958 181.25 611.279C182.15 609.945 182.987 608.174 183.122 606.211C183.415 601.979 169.551 597.476 171.995 597.999C173.951 598.418 178.933 595.053 181.179 593.319C181.85 595.917 188.341 600.784 191.503 602.893C189.728 605.903 190.835 614.765 191.783 619.798C191.889 620.253 191.968 620.66 192.022 621.003C193.193 622.856 193.991 627.377 187.812 630.635C180.088 634.708 172.67 629.233 172.124 621.753C175.626 625.775 184.508 631.257 192.022 621.003Z" fill="#C56D32"/>
<path d="M188.894 574.006C186.374 573.548 182.402 580.763 180.731 584.428C190.027 568.91 204.397 575.315 210.421 580.457C199.028 565.847 192.044 574.578 188.894 574.006Z" fill="#C56D32"/>
<path d="M162.088 628.501C167.586 626.897 164.903 606.605 162.874 596.659C182.053 601.176 174.679 615.55 172.173 621.047C170.167 625.445 164.614 627.849 162.088 628.501Z" fill="#C56D32"/>
<path d="M202.763 614.304C199.405 617.757 198.3 612.223 198.167 609.024L204.578 603.443C205.372 605.624 206.121 610.85 202.763 614.304Z" fill="#FFB299"/>
<path d="M199.462 580.053C204.01 586.038 203.291 591.304 205.372 586.841C207.453 582.378 201.579 580.2 199.462 580.053Z" fill="#FFB299"/>
<path d="M164.182 618.723C163.288 615.259 156.158 604.937 152.705 600.209C155.345 597.91 161.463 596.562 162.825 597.365C164.187 598.168 165.3 623.053 164.182 618.723Z" fill="#FFB299"/>
<path d="M105.674 667.059C102.474 664.659 98.0075 627.725 96.1742 609.559C91.5075 605.892 84.3742 597.659 93.1742 594.059C96.3984 592.74 104.692 593.698 115.674 595.471C117.008 574.834 125.574 531.659 149.174 524.059C178.674 514.559 193.174 572.059 192.674 574.059C192.274 575.659 188.841 580.059 187.174 582.059C184.841 579.392 180.174 573.559 180.174 571.559C180.174 569.059 180.674 540.059 156.674 532.059C137.474 525.659 128.008 572.79 125.674 597.155C151.878 601.664 187.171 607.98 208.674 602.059C213.841 598.392 224.874 591.359 227.674 592.559C231.174 594.059 240.674 596.559 240.174 598.559C239.774 600.159 235.674 603.892 233.674 605.559C234.829 610.177 228.361 647.259 224.604 667.279C238.235 655.124 230.143 663.59 224.174 669.559C224.313 668.827 224.456 668.067 224.604 667.279C224.152 667.683 223.675 668.109 223.174 668.559C203.674 686.059 109.674 670.059 105.674 667.059Z" fill="#E08F62"/>
<path d="M97.8343 609C99.501 631.833 125.934 675.2 218.334 666C186.668 674.333 119.734 686 105.334 666C102.834 649.833 97.8343 615.8 97.8343 609C92.8343 607.5 84.6343 603.3 91.8343 598.5C97.8343 601 171.334 614 194.834 611.5C213.634 609.5 233.001 600.667 240.334 596.5C240.668 597.333 240.334 600 236.334 604C231.334 609 179.334 633 97.8343 609Z" fill="#7F473A"/>
<path d="M147.711 526.507C135.71 533.066 124.198 575.489 119.834 596.5C117.128 552.431 136.62 531.898 147.711 526.507C148.085 526.303 148.46 526.133 148.834 526C148.471 526.151 148.096 526.32 147.711 526.507Z" fill="#7F473A"/>
<path d="M187.334 580.5C179.835 555 171.334 540 170.334 539C171.534 536.6 175.501 542 177.334 545C187.834 559.5 194.834 606 187.334 580.5Z" fill="#7F473A"/>
<path d="M52.8396 718.416C52.8396 727.252 43.7285 730.416 34.3396 730.416C24.9508 730.416 18.8396 727.252 18.8396 718.416C18.8396 709.579 26.4508 702.416 35.8396 702.416C45.2285 702.416 52.8396 709.579 52.8396 718.416Z" fill="#FE2510"/>
<path d="M54.0942 710.885C46.8384 715.929 39.0405 710.253 33.6816 702.544C28.3228 694.834 27.4323 688.011 34.6881 682.967C41.9439 677.923 52.17 680.084 57.5289 687.794C62.8877 695.503 61.35 705.841 54.0942 710.885Z" fill="#FE2510"/>
<path d="M49.3666 675.874C49.9546 684.691 41.0741 688.454 31.7061 689.078C22.3381 689.703 16.0299 686.953 15.4419 678.136C14.8539 669.319 21.9716 661.665 31.3396 661.041C40.7076 660.416 48.7786 667.057 49.3666 675.874Z" fill="#FE2510"/>
<path d="M19.4658 692.313C20.1093 701.962 11.651 705.995 2.69753 706.592C-6.25591 707.189 -12.314 704.124 -12.9575 694.475C-13.6009 684.827 -6.86436 676.521 2.08909 675.924C11.0425 675.327 18.8224 682.665 19.4658 692.313Z" fill="#FE2510"/>
<path d="M34.6881 709.506C35.3315 719.154 26.8732 723.188 17.9198 723.785C8.96633 724.382 2.90821 721.316 2.26476 711.668C1.6213 702.019 8.35788 693.714 17.3113 693.117C26.2648 692.52 34.0446 699.857 34.6881 709.506Z" fill="#FE2510"/>
<path d="M40.1081 698.636C40.7516 708.285 32.2933 712.319 23.3398 712.916C14.3864 713.513 8.32828 710.447 7.68483 700.799C7.04137 691.15 13.778 682.845 22.7314 682.247C31.6848 681.65 39.4647 688.988 40.1081 698.636Z" fill="#FE2510"/>
<path d="M20.5001 724C43.3001 733.2 50.3334 720.167 51.0001 712.5C55.8001 722.5 49.0001 727.333 45.0001 728.5C31.4001 734.1 23.0001 727.833 20.5001 724Z" fill="#B73B3B"/>
<path d="M20.5001 718.5C20.6844 718.171 20.8889 717.814 21.1111 717.435C22.3794 715.05 24.014 710.911 23.5001 707.5C23.0952 704.812 20.8632 704.081 18.7601 704.093C17.6324 704.394 16.6307 704.5 16.0001 704.5C16.7378 704.281 17.7336 704.099 18.7601 704.093C20.3149 703.677 22.109 702.891 23.5001 701.5C26.5001 698.5 19.0001 686 20.5001 688C21.7001 689.6 27.6668 690.333 30.5001 690.5C29.3001 692.9 31.0001 700.833 32.0001 704.5C28.6845 705.605 23.7007 713.016 21.1111 717.435C20.8922 717.846 20.6842 718.206 20.5001 718.5C20.1668 720.667 17.8001 724.6 11.0001 723C2.50011 721 0.500113 712 5.00011 706C5.0001 711.333 8.10008 721.3 20.5001 718.5Z" fill="#B73B3B"/>
<path d="M49.0001 681C47.4001 679 39.6668 681.833 36.0001 683.5C53.2001 677.9 59.8335 692.167 61.0001 700C62.0001 681.5 51.0001 683.5 49.0001 681Z" fill="#B73B3B"/>
<path d="M-7 704.5C-1.8 706.9 9.5 689.833 14.5 681C26 697 11.0001 703 5.5 705.5C1.09991 707.5 -4.6667 705.667 -7 704.5Z" fill="#B73B3B"/>
<path d="M33 720.5C28.2 720.9 31 716 33 713.5H41.5C40.6667 715.667 37.8 720.1 33 720.5Z" fill="#FFB299"/>
<path d="M53 692.5C52.5 700 48.5 703.5 53 701.5C57.5 699.5 54.5 694 53 692.5Z" fill="#FFB299"/>
<path d="M1.00003 698.5C2.60003 695.3 4.00003 682.833 4.50003 677C8.00003 677 13.5 680 14 681.5C14.5 683 -0.999966 702.5 1.00003 698.5Z" fill="#FFB299"/>
<path d="M113.5 614.5C111.5 614.1 105.667 614 103 614C105.4 614.4 113.333 616.5 117 617.5C116.667 616.667 115.5 614.9 113.5 614.5Z" fill="#661D00"/>
<path d="M113.5 620C111.5 619.6 105.667 619.5 103 619.5C105.4 619.9 113.333 622 117 623C116.667 622.167 115.5 620.4 113.5 620Z" fill="#661D00"/>
<path d="M113.5 625.5C111.5 625.1 105.667 625 103 625C105.4 625.4 113.333 627.5 117 628.5C116.667 627.667 115.5 625.9 113.5 625.5Z" fill="#661D00"/>
<path d="M113.5 631.071C111.5 630.614 105.667 630.5 103 630.5C105.4 630.957 113.333 633.357 117 634.5C116.667 633.548 115.5 631.529 113.5 631.071Z" fill="#661D00"/>
<path d="M113.5 637.071C111.5 636.614 105.667 636.5 103 636.5C105.4 636.957 113.333 639.357 117 640.5C116.667 639.548 115.5 637.529 113.5 637.071Z" fill="#661D00"/>
<path d="M113.5 643.071C111.5 642.614 105.667 642.5 103 642.5C105.4 642.957 113.333 645.357 117 646.5C116.667 645.548 115.5 643.529 113.5 643.071Z" fill="#661D00"/>
<path d="M113.5 649C111.5 648.6 105.667 648.5 103 648.5C105.4 648.9 113.333 651 117 652C116.667 651.167 115.5 649.4 113.5 649Z" fill="#661D00"/>
<path d="M113.5 654.5C111.5 654.1 105.667 654 103 654C105.4 654.4 113.333 656.5 117 657.5C116.667 656.667 115.5 654.9 113.5 654.5Z" fill="#661D00"/>
<path d="M113.5 660C111.5 659.6 105.667 659.5 103 659.5C105.4 659.9 113.333 662 117 663C116.667 662.167 115.5 660.4 113.5 660Z" fill="#661D00"/>
<path d="M113.5 665.571C111.5 665.114 105.667 665 103 665C105.4 665.457 113.333 667.857 117 669C116.667 668.048 115.5 666.029 113.5 665.571Z" fill="#661D00"/>
<path d="M113.5 671.571C111.5 671.114 105.667 671 103 671C105.4 671.457 113.333 673.857 117 675C116.667 674.048 115.5 672.029 113.5 671.571Z" fill="#661D00"/>
<path d="M138.5 616.5C136.5 616.1 130.667 616 128 616C130.4 616.4 138.333 618.5 142 619.5C141.667 618.667 140.5 616.9 138.5 616.5Z" fill="#661D00"/>
<path d="M138.5 622C136.5 621.6 130.667 621.5 128 621.5C130.4 621.9 138.333 624 142 625C141.667 624.167 140.5 622.4 138.5 622Z" fill="#661D00"/>
<path d="M138.5 627.5C136.5 627.1 130.667 627 128 627C130.4 627.4 138.333 629.5 142 630.5C141.667 629.667 140.5 627.9 138.5 627.5Z" fill="#661D00"/>
<path d="M138.5 633.071C136.5 632.614 130.667 632.5 128 632.5C130.4 632.957 138.333 635.357 142 636.5C141.667 635.548 140.5 633.529 138.5 633.071Z" fill="#661D00"/>
<path d="M138.5 639.071C136.5 638.614 130.667 638.5 128 638.5C130.4 638.957 138.333 641.357 142 642.5C141.667 641.548 140.5 639.529 138.5 639.071Z" fill="#661D00"/>
<path d="M138.5 645.071C136.5 644.614 130.667 644.5 128 644.5C130.4 644.957 138.333 647.357 142 648.5C141.667 647.548 140.5 645.529 138.5 645.071Z" fill="#661D00"/>
<path d="M138.5 651C136.5 650.6 130.667 650.5 128 650.5C130.4 650.9 138.333 653 142 654C141.667 653.167 140.5 651.4 138.5 651Z" fill="#661D00"/>
<path d="M138.5 656.5C136.5 656.1 130.667 656 128 656C130.4 656.4 138.333 658.5 142 659.5C141.667 658.667 140.5 656.9 138.5 656.5Z" fill="#661D00"/>
<path d="M138.5 662C136.5 661.6 130.667 661.5 128 661.5C130.4 661.9 138.333 664 142 665C141.667 664.167 140.5 662.4 138.5 662Z" fill="#661D00"/>
<path d="M138.5 667.571C136.5 667.114 130.667 667 128 667C130.4 667.457 138.333 669.857 142 671C141.667 670.048 140.5 668.029 138.5 667.571Z" fill="#661D00"/>
<path d="M138.5 673.571C136.5 673.114 130.667 673 128 673C130.4 673.457 138.333 675.857 142 677C141.667 676.048 140.5 674.029 138.5 673.571Z" fill="#661D00"/>
<path d="M163.5 618.5C161.5 618.1 155.667 618 153 618C155.4 618.4 163.333 620.5 167 621.5C166.667 620.667 165.5 618.9 163.5 618.5Z" fill="#661D00"/>
<path d="M163.5 624C161.5 623.6 155.667 623.5 153 623.5C155.4 623.9 163.333 626 167 627C166.667 626.167 165.5 624.4 163.5 624Z" fill="#661D00"/>
<path d="M163.5 629.5C161.5 629.1 155.667 629 153 629C155.4 629.4 163.333 631.5 167 632.5C166.667 631.667 165.5 629.9 163.5 629.5Z" fill="#661D00"/>
<path d="M163.5 635.071C161.5 634.614 155.667 634.5 153 634.5C155.4 634.957 163.333 637.357 167 638.5C166.667 637.548 165.5 635.529 163.5 635.071Z" fill="#661D00"/>
<path d="M163.5 641.071C161.5 640.614 155.667 640.5 153 640.5C155.4 640.957 163.333 643.357 167 644.5C166.667 643.548 165.5 641.529 163.5 641.071Z" fill="#661D00"/>
<path d="M163.5 647.071C161.5 646.614 155.667 646.5 153 646.5C155.4 646.957 163.333 649.357 167 650.5C166.667 649.548 165.5 647.529 163.5 647.071Z" fill="#661D00"/>
<path d="M163.5 653C161.5 652.6 155.667 652.5 153 652.5C155.4 652.9 163.333 655 167 656C166.667 655.167 165.5 653.4 163.5 653Z" fill="#661D00"/>
<path d="M163.5 658.5C161.5 658.1 155.667 658 153 658C155.4 658.4 163.333 660.5 167 661.5C166.667 660.667 165.5 658.9 163.5 658.5Z" fill="#661D00"/>
<path d="M163.5 664C161.5 663.6 155.667 663.5 153 663.5C155.4 663.9 163.333 666 167 667C166.667 666.167 165.5 664.4 163.5 664Z" fill="#661D00"/>
<path d="M163.5 669.571C161.5 669.114 155.667 669 153 669C155.4 669.457 163.333 671.857 167 673C166.667 672.048 165.5 670.029 163.5 669.571Z" fill="#661D00"/>
<path d="M163.5 675.571C161.5 675.114 155.667 675 153 675C155.4 675.457 163.333 677.857 167 679C166.667 678.048 165.5 676.029 163.5 675.571Z" fill="#661D00"/>
<path d="M188.5 621.5C186.5 621.1 180.667 621 178 621C180.4 621.4 188.333 623.5 192 624.5C191.667 623.667 190.5 621.9 188.5 621.5Z" fill="#661D00"/>
<path d="M188.5 627C186.5 626.6 180.667 626.5 178 626.5C180.4 626.9 188.333 629 192 630C191.667 629.167 190.5 627.4 188.5 627Z" fill="#661D00"/>
<path d="M188.5 632.5C186.5 632.1 180.667 632 178 632C180.4 632.4 188.333 634.5 192 635.5C191.667 634.667 190.5 632.9 188.5 632.5Z" fill="#661D00"/>
<path d="M188.5 638.071C186.5 637.614 180.667 637.5 178 637.5C180.4 637.957 188.333 640.357 192 641.5C191.667 640.548 190.5 638.529 188.5 638.071Z" fill="#661D00"/>
<path d="M188.5 644.071C186.5 643.614 180.667 643.5 178 643.5C180.4 643.957 188.333 646.357 192 647.5C191.667 646.548 190.5 644.529 188.5 644.071Z" fill="#661D00"/>
<path d="M188.5 650.071C186.5 649.614 180.667 649.5 178 649.5C180.4 649.957 188.333 652.357 192 653.5C191.667 652.548 190.5 650.529 188.5 650.071Z" fill="#661D00"/>
<path d="M188.5 656C186.5 655.6 180.667 655.5 178 655.5C180.4 655.9 188.333 658 192 659C191.667 658.167 190.5 656.4 188.5 656Z" fill="#661D00"/>
<path d="M188.5 661.5C186.5 661.1 180.667 661 178 661C180.4 661.4 188.333 663.5 192 664.5C191.667 663.667 190.5 661.9 188.5 661.5Z" fill="#661D00"/>
<path d="M188.5 667C186.5 666.6 180.667 666.5 178 666.5C180.4 666.9 188.333 669 192 670C191.667 669.167 190.5 667.4 188.5 667Z" fill="#661D00"/>
<path d="M188.5 672.571C186.5 672.114 180.667 672 178 672C180.4 672.457 188.333 674.857 192 676C191.667 675.048 190.5 673.029 188.5 672.571Z" fill="#661D00"/>
<path d="M211.5 619.5C209.5 619.1 203.667 619 201 619C203.4 619.4 211.333 621.5 215 622.5C214.667 621.667 213.5 619.9 211.5 619.5Z" fill="#661D00"/>
<path d="M211.5 625C209.5 624.6 203.667 624.5 201 624.5C203.4 624.9 211.333 627 215 628C214.667 627.167 213.5 625.4 211.5 625Z" fill="#661D00"/>
<path d="M211.5 630.5C209.5 630.1 203.667 630 201 630C203.4 630.4 211.333 632.5 215 633.5C214.667 632.667 213.5 630.9 211.5 630.5Z" fill="#661D00"/>
<path d="M211.5 636.071C209.5 635.614 203.667 635.5 201 635.5C203.4 635.957 211.333 638.357 215 639.5C214.667 638.548 213.5 636.529 211.5 636.071Z" fill="#661D00"/>
<path d="M211.5 642.071C209.5 641.614 203.667 641.5 201 641.5C203.4 641.957 211.333 644.357 215 645.5C214.667 644.548 213.5 642.529 211.5 642.071Z" fill="#661D00"/>
<path d="M211.5 648.071C209.5 647.614 203.667 647.5 201 647.5C203.4 647.957 211.333 650.357 215 651.5C214.667 650.548 213.5 648.529 211.5 648.071Z" fill="#661D00"/>
<path d="M211.5 654C209.5 653.6 203.667 653.5 201 653.5C203.4 653.9 211.333 656 215 657C214.667 656.167 213.5 654.4 211.5 654Z" fill="#661D00"/>
<path d="M211.5 659.5C209.5 659.1 203.667 659 201 659C203.4 659.4 211.333 661.5 215 662.5C214.667 661.667 213.5 659.9 211.5 659.5Z" fill="#661D00"/>
<path d="M211.5 665C209.5 664.6 203.667 664.5 201 664.5C203.4 664.9 211.333 667 215 668C214.667 667.167 213.5 665.4 211.5 665Z" fill="#661D00"/>
<path d="M211.5 670.571C209.5 670.114 203.667 670 201 670C203.4 670.457 211.333 672.857 215 674C214.667 673.048 213.5 671.029 211.5 670.571Z" fill="#661D00"/>
<path d="M122.5 614.5C124.5 614.1 130.333 614 133 614C130.6 614.4 122.667 616.5 119 617.5C119.333 616.667 120.5 614.9 122.5 614.5Z" fill="#661D00"/>
<path d="M122.5 620C124.5 619.6 130.333 619.5 133 619.5C130.6 619.9 122.667 622 119 623C119.333 622.167 120.5 620.4 122.5 620Z" fill="#661D00"/>
<path d="M122.5 625.5C124.5 625.1 130.333 625 133 625C130.6 625.4 122.667 627.5 119 628.5C119.333 627.667 120.5 625.9 122.5 625.5Z" fill="#661D00"/>
<path d="M122.5 631.071C124.5 630.614 130.333 630.5 133 630.5C130.6 630.957 122.667 633.357 119 634.5C119.333 633.548 120.5 631.529 122.5 631.071Z" fill="#661D00"/>
<path d="M122.5 637.071C124.5 636.614 130.333 636.5 133 636.5C130.6 636.957 122.667 639.357 119 640.5C119.333 639.548 120.5 637.529 122.5 637.071Z" fill="#661D00"/>
<path d="M122.5 643.071C124.5 642.614 130.333 642.5 133 642.5C130.6 642.957 122.667 645.357 119 646.5C119.333 645.548 120.5 643.529 122.5 643.071Z" fill="#661D00"/>
<path d="M122.5 649C124.5 648.6 130.333 648.5 133 648.5C130.6 648.9 122.667 651 119 652C119.333 651.167 120.5 649.4 122.5 649Z" fill="#661D00"/>
<path d="M122.5 654.5C124.5 654.1 130.333 654 133 654C130.6 654.4 122.667 656.5 119 657.5C119.333 656.667 120.5 654.9 122.5 654.5Z" fill="#661D00"/>
<path d="M122.5 660C124.5 659.6 130.333 659.5 133 659.5C130.6 659.9 122.667 662 119 663C119.333 662.167 120.5 660.4 122.5 660Z" fill="#661D00"/>
<path d="M122.5 665.571C124.5 665.114 130.333 665 133 665C130.6 665.457 122.667 667.857 119 669C119.333 668.048 120.5 666.029 122.5 665.571Z" fill="#661D00"/>
<path d="M122.5 671.571C124.5 671.114 130.333 671 133 671C130.6 671.457 122.667 673.857 119 675C119.333 674.048 120.5 672.029 122.5 671.571Z" fill="#661D00"/>
<path d="M147.5 616.5C149.5 616.1 155.333 616 158 616C155.6 616.4 147.667 618.5 144 619.5C144.333 618.667 145.5 616.9 147.5 616.5Z" fill="#661D00"/>
<path d="M147.5 622C149.5 621.6 155.333 621.5 158 621.5C155.6 621.9 147.667 624 144 625C144.333 624.167 145.5 622.4 147.5 622Z" fill="#661D00"/>
<path d="M147.5 627.5C149.5 627.1 155.333 627 158 627C155.6 627.4 147.667 629.5 144 630.5C144.333 629.667 145.5 627.9 147.5 627.5Z" fill="#661D00"/>
<path d="M147.5 633.071C149.5 632.614 155.333 632.5 158 632.5C155.6 632.957 147.667 635.357 144 636.5C144.333 635.548 145.5 633.529 147.5 633.071Z" fill="#661D00"/>
<path d="M147.5 639.071C149.5 638.614 155.333 638.5 158 638.5C155.6 638.957 147.667 641.357 144 642.5C144.333 641.548 145.5 639.529 147.5 639.071Z" fill="#661D00"/>
<path d="M147.5 645.071C149.5 644.614 155.333 644.5 158 644.5C155.6 644.957 147.667 647.357 144 648.5C144.333 647.548 145.5 645.529 147.5 645.071Z" fill="#661D00"/>
<path d="M147.5 651C149.5 650.6 155.333 650.5 158 650.5C155.6 650.9 147.667 653 144 654C144.333 653.167 145.5 651.4 147.5 651Z" fill="#661D00"/>
<path d="M147.5 656.5C149.5 656.1 155.333 656 158 656C155.6 656.4 147.667 658.5 144 659.5C144.333 658.667 145.5 656.9 147.5 656.5Z" fill="#661D00"/>
<path d="M147.5 662C149.5 661.6 155.333 661.5 158 661.5C155.6 661.9 147.667 664 144 665C144.333 664.167 145.5 662.4 147.5 662Z" fill="#661D00"/>
<path d="M147.5 667.571C149.5 667.114 155.333 667 158 667C155.6 667.457 147.667 669.857 144 671C144.333 670.048 145.5 668.029 147.5 667.571Z" fill="#661D00"/>
<path d="M147.5 673.571C149.5 673.114 155.333 673 158 673C155.6 673.457 147.667 675.857 144 677C144.333 676.048 145.5 674.029 147.5 673.571Z" fill="#661D00"/>
<path d="M172.5 618.5C174.5 618.1 180.333 618 183 618C180.6 618.4 172.667 620.5 169 621.5C169.333 620.667 170.5 618.9 172.5 618.5Z" fill="#661D00"/>
<path d="M172.5 624C174.5 623.6 180.333 623.5 183 623.5C180.6 623.9 172.667 626 169 627C169.333 626.167 170.5 624.4 172.5 624Z" fill="#661D00"/>
<path d="M172.5 629.5C174.5 629.1 180.333 629 183 629C180.6 629.4 172.667 631.5 169 632.5C169.333 631.667 170.5 629.9 172.5 629.5Z" fill="#661D00"/>
<path d="M172.5 635.071C174.5 634.614 180.333 634.5 183 634.5C180.6 634.957 172.667 637.357 169 638.5C169.333 637.548 170.5 635.529 172.5 635.071Z" fill="#661D00"/>
<path d="M172.5 641.071C174.5 640.614 180.333 640.5 183 640.5C180.6 640.957 172.667 643.357 169 644.5C169.333 643.548 170.5 641.529 172.5 641.071Z" fill="#661D00"/>
<path d="M172.5 647.071C174.5 646.614 180.333 646.5 183 646.5C180.6 646.957 172.667 649.357 169 650.5C169.333 649.548 170.5 647.529 172.5 647.071Z" fill="#661D00"/>
<path d="M172.5 653C174.5 652.6 180.333 652.5 183 652.5C180.6 652.9 172.667 655 169 656C169.333 655.167 170.5 653.4 172.5 653Z" fill="#661D00"/>
<path d="M172.5 658.5C174.5 658.1 180.333 658 183 658C180.6 658.4 172.667 660.5 169 661.5C169.333 660.667 170.5 658.9 172.5 658.5Z" fill="#661D00"/>
<path d="M172.5 664C174.5 663.6 180.333 663.5 183 663.5C180.6 663.9 172.667 666 169 667C169.333 666.167 170.5 664.4 172.5 664Z" fill="#661D00"/>
<path d="M172.5 669.571C174.5 669.114 180.333 669 183 669C180.6 669.457 172.667 671.857 169 673C169.333 672.048 170.5 670.029 172.5 669.571Z" fill="#661D00"/>
<path d="M172.5 675.571C174.5 675.114 180.333 675 183 675C180.6 675.457 172.667 677.857 169 679C169.333 678.048 170.5 676.029 172.5 675.571Z" fill="#661D00"/>
<path d="M197.5 621.5C199.5 621.1 205.333 621 208 621C205.6 621.4 197.667 623.5 194 624.5C194.333 623.667 195.5 621.9 197.5 621.5Z" fill="#661D00"/>
<path d="M197.5 627C199.5 626.6 205.333 626.5 208 626.5C205.6 626.9 197.667 629 194 630C194.333 629.167 195.5 627.4 197.5 627Z" fill="#661D00"/>
<path d="M197.5 632.5C199.5 632.1 205.333 632 208 632C205.6 632.4 197.667 634.5 194 635.5C194.333 634.667 195.5 632.9 197.5 632.5Z" fill="#661D00"/>
<path d="M197.5 638.071C199.5 637.614 205.333 637.5 208 637.5C205.6 637.957 197.667 640.357 194 641.5C194.333 640.548 195.5 638.529 197.5 638.071Z" fill="#661D00"/>
<path d="M197.5 644.071C199.5 643.614 205.333 643.5 208 643.5C205.6 643.957 197.667 646.357 194 647.5C194.333 646.548 195.5 644.529 197.5 644.071Z" fill="#661D00"/>
<path d="M197.5 650.071C199.5 649.614 205.333 649.5 208 649.5C205.6 649.957 197.667 652.357 194 653.5C194.333 652.548 195.5 650.529 197.5 650.071Z" fill="#661D00"/>
<path d="M197.5 656C199.5 655.6 205.333 655.5 208 655.5C205.6 655.9 197.667 658 194 659C194.333 658.167 195.5 656.4 197.5 656Z" fill="#661D00"/>
<path d="M197.5 661.5C199.5 661.1 205.333 661 208 661C205.6 661.4 197.667 663.5 194 664.5C194.333 663.667 195.5 661.9 197.5 661.5Z" fill="#661D00"/>
<path d="M197.5 667C199.5 666.6 205.333 666.5 208 666.5C205.6 666.9 197.667 669 194 670C194.333 669.167 195.5 667.4 197.5 667Z" fill="#661D00"/>
<path d="M197.5 672.571C199.5 672.114 205.333 672 208 672C205.6 672.457 197.667 674.857 194 676C194.333 675.048 195.5 673.029 197.5 672.571Z" fill="#661D00"/>
<path d="M220.5 619.5C222.5 619.1 228.333 619 231 619C228.6 619.4 220.667 621.5 217 622.5C217.333 621.667 218.5 619.9 220.5 619.5Z" fill="#661D00"/>
<path d="M220.5 625C222.5 624.6 228.333 624.5 231 624.5C228.6 624.9 220.667 627 217 628C217.333 627.167 218.5 625.4 220.5 625Z" fill="#661D00"/>
<path d="M220.5 630.5C222.5 630.1 228.333 630 231 630C228.6 630.4 220.667 632.5 217 633.5C217.333 632.667 218.5 630.9 220.5 630.5Z" fill="#661D00"/>
<path d="M220.5 636.071C222.5 635.614 228.333 635.5 231 635.5C228.6 635.957 220.667 638.357 217 639.5C217.333 638.548 218.5 636.529 220.5 636.071Z" fill="#661D00"/>
<path d="M220.5 642.071C222.5 641.614 228.333 641.5 231 641.5C228.6 641.957 220.667 644.357 217 645.5C217.333 644.548 218.5 642.529 220.5 642.071Z" fill="#661D00"/>
<path d="M220.5 648.071C222.5 647.614 228.333 647.5 231 647.5C228.6 647.957 220.667 650.357 217 651.5C217.333 650.548 218.5 648.529 220.5 648.071Z" fill="#661D00"/>
<path d="M220.5 654C222.5 653.6 228.333 653.5 231 653.5C228.6 653.9 220.667 656 217 657C217.333 656.167 218.5 654.4 220.5 654Z" fill="#661D00"/>
<path d="M220.5 659.5C222.5 659.1 228.333 659 231 659C228.6 659.4 220.667 661.5 217 662.5C217.333 661.667 218.5 659.9 220.5 659.5Z" fill="#661D00"/>
<path d="M220.5 665C222.5 664.6 228.333 664.5 231 664.5C228.6 664.9 220.667 667 217 668C217.333 667.167 218.5 665.4 220.5 665Z" fill="#661D00"/>
<path d="M237.234 723.518C234.234 723.018 207.234 710.518 206.234 710.018C205.034 703.218 208.734 703.185 210.734 704.018L227.234 698.518C229.734 695.852 235.234 690.318 237.234 689.518C239.734 688.518 252.734 690.018 255.234 689.518C257.234 689.118 262.068 686.352 264.234 685.018C299.234 684.518 286.734 694.518 298.234 692.518C307.434 690.918 326.734 694.185 335.234 696.018C339.234 716.818 319.234 724.018 308.734 725.018C303.734 726.852 292.734 731.018 288.734 733.018C283.734 735.518 270.734 732.518 267.234 730.518C263.734 728.518 240.234 724.018 237.234 723.518Z" fill="#CE7E5D"/>
<path d="M240.5 715.025C238.9 714.225 219.5 710.358 210 708.525C212.8 716.125 231.5 720.691 240.5 722.025C241.167 720.025 242.1 715.825 240.5 715.025Z" fill="#F27F53"/>
<path d="M258.5 720.025C258 718.025 254.5 724.025 254 725.025C255 725.025 271.5 729.025 265.5 727.525C259.5 726.025 259 722.025 258.5 720.025Z" fill="#F27F53"/>
<path d="M260 707.525C255.5 710.525 228.5 697.525 228 696.525C229.167 694.191 234.3 689.425 245.5 689.025C256.7 688.625 268.5 693.191 273 695.525C270.167 698.525 263.6 705.125 260 707.525Z" fill="#F27F53"/>
<path d="M288 716.025L308 703.525C309.6 703.525 316.667 711.191 320 715.025C327.341 712.625 334.059 701.691 336.5 696.525L331 716.025C324.833 718.858 312.3 724.525 311.5 724.525C310.888 724.525 311.4 718.152 311.889 713.784C310.958 717.963 309.216 723.808 308.5 724.525C307.74 725.285 292.168 728.514 283.328 730.263C282.9 730.609 282.456 730.72 282 730.525C282.422 730.442 282.866 730.354 283.328 730.263C285.53 728.484 287.302 720.49 288 716.025Z" fill="#F27F53"/>
</g>
<path d="M212.675 735.212L241.112 681.541L265.757 696.45L235.424 739.187C243.007 755.421 258.742 792.858 261.017 812.736C263.861 837.583 258.174 837.583 255.33 837.583C252.486 837.583 208.883 845.534 195.613 833.608C184.996 824.066 217.73 815.717 235.424 812.736L212.675 735.212Z" fill="#BD6A3B"/>
<path d="M233.008 728.043C233.008 723.273 247.542 707.503 254.809 700.214L266.184 697.233L241.539 728.043C239.264 750.307 245.014 764.486 248.174 768.793C263.34 801.393 262.076 828.096 259.549 837.372H254.809C247.542 802.917 233.008 732.814 233.008 728.043Z" fill="#81402D"/>
<path d="M209.831 562.273C130.208 551.937 142.531 508.272 158.645 487.731C173.811 473.817 165.28 473.817 168.124 459.902C170.968 445.987 234.476 388.341 277.132 452.945C319.787 517.548 309.36 575.194 209.831 562.273Z" fill="#BD6A3B"/>
<path d="M283.767 758.071V708.376L314.099 685.517L301.777 753.102C306.832 762.047 318.27 785.901 323.578 809.754C329.043 834.31 322.935 837.295 321.668 837.583C321.673 837.583 321.678 837.583 321.682 837.583C323.578 837.583 283.767 848.516 271.444 837.583C261.586 828.837 287.558 818.037 301.777 813.73L283.767 758.071Z" fill="#BD6A3B"/>
<path d="M296.516 728.043C296.516 723.273 302.52 704.521 309.787 697.233H315.474L305.047 728.043C302.772 750.307 308.523 764.486 311.683 768.793C326.849 801.393 325.585 828.096 323.057 837.372H318.318C311.051 802.917 296.516 732.814 296.516 728.043Z" fill="#81402D"/>
<path fill-rule="evenodd" clip-rule="evenodd" d="M372.868 661.663C388.035 664.049 388.035 667.958 386.139 669.614C382.985 676.229 371.302 683.073 356.754 689.288C349.349 692.451 341.201 695.452 333.057 698.176C341.272 692.434 356.565 668.487 352.015 618.631C357.913 624.931 362.41 631.916 365.721 638.804C369.663 647.002 371.924 655.062 372.868 661.663ZM328.317 601.854C321.639 598.941 314.084 596.841 305.568 595.866C303.672 626.569 292.298 691.209 261.965 704.14C270.487 707.874 281.087 709.886 294.193 709.37C297.586 708.552 301.427 707.573 305.568 706.454C323.768 697.761 328.317 633.099 328.317 601.854ZM255.33 606.746C258.001 631.297 259.224 682.177 242.748 689.288C229.622 672.474 228.318 648.911 230.685 633.834C231.068 624.14 243.031 614.2 255.33 606.746Z" fill="#BD6A3B"/>
<path d="M305.568 595.866C296.313 594.805 285.922 595.071 274.288 597.06C269.169 599.197 262.197 602.584 255.33 606.746C258.001 631.297 259.224 682.177 242.748 689.288C247.486 695.356 253.764 700.546 261.965 704.14C292.298 691.209 303.672 626.569 305.568 595.866Z" fill="#4C2018"/>
<path d="M333.057 698.176C341.272 692.434 356.565 668.487 352.015 618.631C345.771 611.961 337.957 606.059 328.317 601.854C328.317 633.099 323.768 697.761 305.568 706.454C313.917 704.199 323.484 701.378 333.057 698.176Z" fill="#491C13"/>
<path d="M143.906 701.208C145.486 696.57 145.612 687.691 133.479 689.282C130.951 694.251 129.498 703.594 143.906 701.208Z" fill="#F5C08C"/>
<path d="M340.119 512.368C340.435 515.349 341.826 521.909 344.859 524.294C347.892 526.68 351.81 526.614 353.39 526.282C354.338 520.981 353.011 510.777 340.119 512.368Z" fill="#F5C08C"/>
<path d="M328.745 557.093C327.481 558.749 325.712 562.858 328.745 566.038C332.536 570.014 338.224 557.093 328.745 557.093Z" fill="#F5C08C"/>
<path fill-rule="evenodd" clip-rule="evenodd" d="M133.479 689.282L340.119 512.368C340.435 515.349 341.826 521.909 344.859 524.294C346.376 529.86 211.522 644.556 143.906 701.208C145.486 696.57 145.612 687.691 133.479 689.282Z" fill="#794F26"/>
<path d="M353.39 526.282C351.81 526.614 347.892 526.68 344.859 524.294C346.376 529.86 211.522 644.556 143.906 701.208L307.891 566.038H328.745C325.712 562.858 327.481 558.749 328.745 557.093H315.474L353.39 526.282Z" fill="#B57434"/>
<ellipse cx="237.32" cy="600.042" rx="38.8636" ry="39.7559" fill="#BD6A3B"/>
<path d="M172.16 686.259C162.111 668.034 206.932 610.472 230.599 583.969C232.079 582.378 233.715 578.836 228.422 577.397C221.806 575.597 185.901 606.556 177.445 626.469C170.68 642.399 158.884 678.488 153.831 694.541C151.917 696.492 151.046 698.93 153.157 701.595C158.331 708.129 184.722 709.041 172.16 686.259Z" fill="#AA5A39"/>
<path d="M202.248 649.736C195.423 637.81 194.665 594.741 197.508 568.237C213.623 572.212 216.466 576.188 238.268 575.194C255.709 574.399 267.652 568.237 271.444 565.255L277.131 611.968C259.121 636.816 209.073 661.663 202.248 649.736Z" fill="#99953C"/>
<path d="M200.779 630.641L203.623 584.922H220.685V630.641H200.779Z" fill="#5B5842"/>
<path d="M226.372 630.641V584.922H241.539V628.654L226.372 630.641Z" fill="#5B5842"/>
<path d="M249.122 594.861C249.122 593.271 247.858 587.572 247.226 584.922H263.34V594.861C258.601 595.524 249.122 596.451 249.122 594.861Z" fill="#5B5842"/>
<path d="M291.814 782.04C284.574 770.03 283.435 745.676 283.77 735.001H305.891C301.065 751.815 310.584 773.366 315.946 782.04C310.919 787.044 299.054 794.05 291.814 782.04Z" fill="#70AE5A"/>
<path d="M221.254 768.01C214.43 756.084 212.359 737.862 212.675 727.26H242.059C237.509 743.958 242.691 759.397 247.747 768.01C243.007 772.98 228.079 779.937 221.254 768.01Z" fill="#70AE5A"/>
<path d="M236.372 643.773C246.988 635.027 264.809 588.446 272.392 566.249L277.131 598.054C273.34 642.779 223.102 654.706 236.372 643.773Z" fill="#7B783E"/>
<path d="M276.183 598.054C267.084 642.58 221.838 651.062 200.352 649.737C200.352 652.387 206.419 659.477 230.685 666.633C254.951 673.789 281.239 623.895 291.35 598.054H276.183Z" fill="#E9BE9C"/>
<path d="M204.571 651.513C216.704 653.103 249.438 597.843 264.288 570.014C278.696 575.579 277.875 576.971 275.663 576.971C277.938 600.029 241.223 646.875 222.581 667.416C211.522 661.452 192.438 649.923 204.571 651.513Z" fill="black" stroke="#4C2018"/>
<path d="M143.906 696.239C134.806 701.804 133.163 693.92 133.479 689.281C127.792 703.196 142.958 702.202 144.854 701.208C146.37 700.413 144.854 697.564 143.906 696.239Z" fill="#C89767"/>
<path d="M298.412 781.714C292.346 777.738 286.406 750.903 284.194 737.982C284.194 738.976 282.298 781.714 294.621 788.671C304.479 794.237 311.999 786.352 314.526 781.714C311.683 783.37 304.479 785.689 298.412 781.714Z" fill="#436537"/>
<path d="M245.33 766.805C224.097 765.215 217.525 739.639 216.893 727.049C213.102 730.031 213.102 761.836 223.529 771.775C231.87 779.726 243.434 773.1 248.174 768.793L245.33 766.805Z" fill="#436537"/>
<path d="M384.67 667.416C338.413 691.269 266.816 682.655 236.799 675.367C244.382 701.606 270.779 711.661 286.089 709.159C359.415 697.178 384.354 675.367 384.67 667.416Z" fill="#9F5238" fill-opacity="0.64"/>
<path d="M199.831 560.075C278.696 564.845 293.989 507.067 291.777 477.581C302.204 492.49 316.801 527.475 291.777 548.148C266.752 568.821 220.053 564.713 199.831 560.075Z" fill="#AA5A39"/>
<path d="M208.796 681.41C228.779 683.453 260.185 616.838 273.391 583.275C274.159 581.203 276.556 578.174 279.998 582.63C284.3 588.199 272.294 635.287 258.511 651.605C247.483 664.659 221.041 690.863 209.197 702.333C208.297 704.968 206.541 706.808 203.353 705.897C195.539 703.665 183.818 678.856 208.796 681.41Z" fill="#BD6A3B"/>
<path d="M214.05 692.263C252.724 669.205 271.872 609.107 276.611 581.94C278.886 579.555 279.455 580.947 279.455 581.94C294.621 632.629 211.206 702.202 209.311 701.208C207.794 700.413 211.838 694.914 214.05 692.263Z" fill="#81402D"/>
<path d="M226.372 446.77C218.031 441.205 182.453 449.09 165.707 453.728C183.717 456.709 204.571 453.728 210.258 450.746C215.946 447.764 255.757 459.691 261.444 465.654C267.132 471.618 304.1 494.477 305.047 489.508C305.806 485.532 287.037 467.974 277.559 459.691C263.972 457.703 234.714 452.336 226.372 446.77Z" fill="#4C2018"/>
<path d="M288.933 478.575C237.368 436.434 185.297 445.114 165.707 454.721C184.665 384.155 237.747 388.13 288.933 409.996C329.882 427.488 316.106 470.292 304.1 489.508L288.933 478.575Z" fill="#9D923A"/>
<path d="M171.282 394.433C178.619 400.311 193.332 415.446 193.49 428.962C195.397 429.933 199.963 431.271 202.968 428.851C206.725 425.825 193.048 391.196 193.013 388.215C192.978 385.233 174.911 380.475 163.583 384.584C152.256 388.692 135.673 429.639 132.829 429.673C129.986 429.706 134.958 449.527 135.812 441.565C136.496 435.196 159.744 407.49 171.282 394.433Z" fill="#4C2018"/>
<path d="M251.661 377.588C257.36 378.515 252.337 435.23 252.395 440.199C255.254 441.491 261.531 443.273 263.769 440.066C266.007 436.859 268.004 396.944 268.722 377.388C262.997 374.142 250.021 367.071 243.927 364.757C237.833 362.443 216.892 376.67 207.183 384.073C210.382 387.349 217.333 392.701 219.552 387.904C222.325 381.907 245.963 376.661 251.661 377.588Z" fill="#4C2018"/>
<path d="M218.789 663.44C223.339 663.44 255.441 603.143 270.923 572.995C274.715 572.995 276.295 576.308 276.611 577.965C279.644 588.301 242.486 642.568 223.529 668.409C220.053 666.753 214.239 663.44 218.789 663.44Z" fill="#393939"/>
<path d="M234.891 472.521C242.277 476.863 244.684 487.081 240.266 495.345C235.848 503.608 234.891 500.157 222.487 500.157C210.489 498.086 209.1 487.886 213.518 479.623C217.936 471.359 227.505 468.18 234.891 472.521Z" fill="white"/>
<path d="M230.164 470.624C223.339 469.034 216.577 473.274 214.05 475.593C210.89 478.906 205.519 484.737 209.31 481.557C214.05 477.581 226.372 475.593 230.164 475.593C233.955 475.593 236.799 479.569 239.643 479.569C241.918 479.569 244.382 470.955 245.33 466.648C243.434 468.967 239.643 473.009 239.643 470.624V464.66C239.327 467.311 236.989 472.214 230.164 470.624Z" fill="black"/>
<path d="M235.851 491.496C235.851 497.534 235.851 501.711 221.987 500.157C216.229 500.157 214.998 497.534 214.998 491.496C214.998 485.457 219.666 480.563 225.424 480.563C231.183 480.563 235.851 485.457 235.851 491.496Z" fill="black"/>
<ellipse cx="229.216" cy="489.508" rx="4.73946" ry="4.96949" fill="white"/>
<path d="M172.552 466.983C165.245 468.53 160.849 476.095 162.731 483.88C164.614 491.664 166.222 489.147 176.821 492.395C187.549 493.875 191.072 486.059 189.19 478.275C187.307 470.49 179.858 465.435 172.552 466.983Z" fill="white"/>
<path d="M177.026 466.699C183.223 467.21 188.029 472.382 189.658 474.904C191.599 478.388 194.854 484.471 192.342 480.927C189.203 476.498 179.128 471.677 175.888 470.684C172.648 469.691 169.307 472.135 166.877 471.39C164.933 470.795 164.8 463.241 164.976 459.539C166.065 461.895 168.38 466.13 168.926 464.216L170.292 459.434C169.955 461.642 170.83 466.187 177.026 466.699Z" fill="black"/>
<path d="M167.385 481.949C166.002 486.791 166.995 491.354 177.249 492.525C182.493 492.525 183.823 492.252 185.206 487.409C186.589 482.567 183.721 477.419 178.8 475.911C173.879 474.403 168.768 477.106 167.385 481.949Z" fill="black"/>
<ellipse cx="4.23597" cy="4.14493" rx="4.23597" ry="4.14493" transform="matrix(-0.95612 -0.292974 -0.274614 0.961554 184.37 479.336)" fill="white"/>
<path d="M190.352 530.258C170.636 528.667 166.971 521.313 168.551 524.294C180.874 535.227 210.258 546.16 228.268 544.172C242.676 542.582 236.689 524.667 228.268 522.307C223.017 520.834 210.069 531.848 190.352 530.258Z" fill="#1D1D1D"/>
<path d="M220.685 535.778C213.24 533.637 209.078 537.425 208.362 542.184C209.317 542.184 212.688 543.811 224.715 543.811C236.742 543.811 237.84 538.456 236.885 535.778C233.783 535.481 228.13 537.92 220.685 535.778Z" fill="#FF9C9C"/>
<path d="M175.186 508.391C177.714 506.404 184.096 503.622 189.405 508.391" stroke="black"/>
<path d="M216.893 464.659C224.792 462.672 241.728 459.294 246.278 461.678" stroke="black"/>
<path d="M196.988 462.498C189.088 460.511 172.153 457.132 167.603 459.517" stroke="black"/>
<path d="M284.194 464.66C300.118 461.48 295.884 427.555 291.777 410.99C326.659 422.121 315.158 467.973 305.047 489.508L268.799 466.332C266.365 466.08 265.875 465.307 266.184 464.66L268.799 466.332C271.352 466.597 276.043 466.288 284.194 464.66Z" fill="#635E37"/>
<g filter="url(#filter0_d_158_217)">
<rect x="11" y="140" width="376" height="215" rx="30" fill="white"/>
<path d="M293 396C303 389.2 297.167 363.833 293 352C312.333 338.5 348.9 319.6 340.5 352C332.1 384.4 305.333 394.833 293 396Z" fill="white"/>
</g>
<g filter="url(#filter1_d_158_217)">
<path d="M409.5 715C259.1 814.6 64 751.5 -6 710L-2 716.5L-16 882.5L429 871L409.5 715Z" fill="#E3F4FF"/>
</g>
<rect x="241" y="509" width="25" height="6" rx="1" fill="#5B5842"/>
<path d="M148.306 506.278C148.419 505.823 148.833 505.509 149.301 505.521L167.026 505.975C167.568 505.989 168 506.432 168 506.975V510.976C168 511.538 167.538 511.989 166.976 511.976L148.249 511.53C147.609 511.514 147.148 510.909 147.303 510.287L148.306 506.278Z" fill="#5B5842"/>
<rect x="241" y="518" width="25" height="6" rx="1" fill="#99953C"/>
<path d="M146.924 515.917C146.967 515.399 147.4 515 147.92 515H167C167.552 515 168 515.448 168 516V520C168 520.552 167.552 521 167 521H147.587C147.002 521 146.542 520.5 146.59 519.917L146.924 515.917Z" fill="#99953C"/>
<defs>
<filter id="filter0_d_158_217" x="7" y="140" width="384" height="264" filterUnits="userSpaceOnUse" color-interpolation-filters="sRGB">
<feFlood flood-opacity="0" result="BackgroundImageFix"/>
<feColorMatrix in="SourceAlpha" type="matrix" values="0 0 0 0 0 0 0 0 0 0 0 0 0 0 0 0 0 0 127 0" result="hardAlpha"/>
<feOffset dy="4"/>
<feGaussianBlur stdDeviation="2"/>
<feComposite in2="hardAlpha" operator="out"/>
<feColorMatrix type="matrix" values="0 0 0 0 0 0 0 0 0 0 0 0 0 0 0 0 0 0 0.25 0"/>
<feBlend mode="normal" in2="BackgroundImageFix" result="effect1_dropShadow_158_217"/>
<feBlend mode="normal" in="SourceGraphic" in2="effect1_dropShadow_158_217" result="shape"/>
</filter>
<filter id="filter1_d_158_217" x="-34" y="690" width="481" height="208.5" filterUnits="userSpaceOnUse" color-interpolation-filters="sRGB">
<feFlood flood-opacity="0" result="BackgroundImageFix"/>
<feColorMatrix in="SourceAlpha" type="matrix" values="0 0 0 0 0 0 0 0 0 0 0 0 0 0 0 0 0 0 127 0" result="hardAlpha"/>
<feOffset dy="-2"/>
<feGaussianBlur stdDeviation="9"/>
<feComposite in2="hardAlpha" operator="out"/>
<feColorMatrix type="matrix" values="0 0 0 0 0.101331 0 0 0 0 0.379993 0 0 0 0 0.658654 0 0 0 0.38 0"/>
<feBlend mode="normal" in2="BackgroundImageFix" result="effect1_dropShadow_158_217"/>
<feBlend mode="normal" in="SourceGraphic" in2="effect1_dropShadow_158_217" result="shape"/>
</filter>
</defs>
</svg>
