<svg width="117" height="243" viewBox="0 0 117 243" fill="none" xmlns="http://www.w3.org/2000/svg">
<path d="M39.4409 188.534L52.0915 161.264L63.0553 168.839L49.5613 190.554C52.9348 198.803 59.9348 217.825 60.9469 227.925C62.2119 240.55 59.6818 240.55 58.4168 240.55C57.1517 240.55 37.7541 244.59 31.8505 238.53C27.1276 233.682 41.6898 229.44 49.5613 227.925L39.4409 188.534Z" fill="#BD6A3B"/>
<path d="M48.4937 184.892C48.4937 182.468 54.9595 174.455 58.1924 170.751L63.2527 169.236L52.2888 184.892C51.2768 196.204 53.835 203.409 55.2406 205.597C61.9876 222.161 61.4254 235.729 60.3009 240.443H58.1924C54.9595 222.936 48.4937 187.316 48.4937 184.892Z" fill="#81402D"/>
<path d="M38.1795 100.648C2.75779 95.3962 8.23972 73.2095 15.4084 62.7727C22.1554 55.7025 18.3602 55.7025 19.6253 48.6324C20.8903 41.5623 49.1433 12.2718 68.1192 45.0974C87.0951 77.9229 82.4566 107.213 38.1795 100.648Z" fill="#BD6A3B"/>
<path d="M71.071 200.135V174.885L84.565 163.269L79.0831 197.61C81.3321 202.155 86.4204 214.275 88.7819 226.395C91.2129 238.873 88.4956 240.389 87.9322 240.536C87.9343 240.536 87.9364 240.536 87.9385 240.536C88.7819 240.536 71.071 246.091 65.5891 240.536C61.2036 236.092 72.7578 230.604 79.0831 228.415L71.071 200.135Z" fill="#BD6A3B"/>
<path d="M76.7469 184.892C76.7469 182.468 79.4176 172.94 82.6506 169.236H85.1807L80.5421 184.892C79.5301 196.204 82.0883 203.409 83.4939 205.597C90.2409 222.161 89.6787 235.729 88.5542 240.443H86.4457C83.2128 222.936 76.7469 187.316 76.7469 184.892Z" fill="#81402D"/>
<path fill-rule="evenodd" clip-rule="evenodd" d="M110.713 151.133C117.46 152.345 117.46 154.332 116.617 155.173C115.214 158.534 110.017 162.012 103.545 165.17C100.25 166.777 96.6253 168.302 93.0023 169.686C96.657 166.769 103.46 154.601 101.436 129.268C104.06 132.469 106.061 136.019 107.534 139.518C109.287 143.684 110.293 147.779 110.713 151.133ZM90.8939 120.744C87.9228 119.263 84.5619 118.197 80.7734 117.701C79.93 133.302 74.8698 166.146 61.3758 172.716C65.1672 174.614 69.8825 175.636 75.7132 175.374C77.2227 174.958 78.9314 174.461 80.7734 173.892C88.8698 169.475 90.8939 136.619 90.8939 120.744ZM58.424 123.23C59.6122 135.704 60.1563 161.557 52.8268 165.17C46.9874 156.626 46.4076 144.654 47.4602 136.993C47.6309 132.068 52.9529 127.017 58.424 123.23Z" fill="#BD6A3B"/>
<path d="M80.7734 117.701C76.6561 117.162 72.0337 117.297 66.8578 118.308C64.5807 119.394 61.4791 121.115 58.424 123.23C59.6122 135.704 60.1563 161.557 52.8268 165.17C54.9345 168.253 57.7273 170.89 61.3758 172.716C74.8698 166.146 79.93 133.302 80.7734 117.701Z" fill="#4C2018"/>
<path d="M93.0023 169.686C96.657 166.769 103.46 154.601 101.436 129.268C98.6584 125.879 95.1822 122.881 90.8939 120.744C90.8939 136.619 88.8698 169.475 80.7734 173.892C84.4875 172.746 88.7436 171.313 93.0023 169.686Z" fill="#491C13"/>
<path d="M8.85068 171.227C9.55349 168.871 9.60972 164.359 4.21213 165.167C3.08763 167.692 2.44104 172.439 8.85068 171.227Z" fill="#F5C08C"/>
<path d="M96.1398 75.2759C96.2804 76.7909 96.8989 80.124 98.2483 81.336C99.5977 82.548 101.341 82.5144 102.043 82.346C102.465 79.6527 101.875 74.4679 96.1398 75.2759Z" fill="#F5C08C"/>
<path d="M91.0796 98.0012C90.5173 98.8429 89.7302 100.93 91.0796 102.546C92.7663 104.566 95.2964 98.0012 91.0796 98.0012Z" fill="#F5C08C"/>
<path fill-rule="evenodd" clip-rule="evenodd" d="M4.21213 165.167L96.1398 75.2759C96.2804 76.7909 96.8989 80.124 98.2483 81.336C98.923 84.1641 38.931 142.442 8.85068 171.227C9.55349 168.871 9.60972 164.359 4.21213 165.167Z" fill="#794F26"/>
<path d="M102.043 82.346C101.341 82.5144 99.5977 82.548 98.2483 81.336C98.923 84.1641 38.931 142.442 8.85068 171.227L81.8025 102.546H91.0796C89.7302 100.93 90.5173 98.8429 91.0796 98.0012H85.176L102.043 82.346Z" fill="#B57434"/>
<ellipse cx="50.412" cy="119.823" rx="17.2892" ry="20.2003" fill="#BD6A3B"/>
<path d="M21.4249 163.661C16.9543 154.401 36.8937 125.153 47.4222 111.687C48.0806 110.878 48.8086 109.079 46.4539 108.347C43.5105 107.433 27.5378 123.163 23.7757 133.281C20.7661 141.376 15.5185 159.713 13.2709 167.869C12.4192 168.86 12.0318 170.099 12.971 171.454C15.2727 174.773 27.0132 175.237 21.4249 163.661Z" fill="#AA5A39"/>
<path d="M34.8097 145.074C31.7736 139.014 31.4362 117.13 32.7012 103.663C39.8699 105.683 41.135 107.704 50.8338 107.199C58.5928 106.795 63.9061 103.663 65.5928 102.148L68.1229 125.884C60.1109 138.509 37.8458 151.134 34.8097 145.074Z" fill="#99953C"/>
<path d="M34.1562 135.372L35.4213 112.142H43.0117V135.372H34.1562Z" fill="#5B5842"/>
<path d="M45.5418 135.372V112.142H52.2888V134.362L45.5418 135.372Z" fill="#5B5842"/>
<path d="M55.6623 117.192C55.6623 116.384 55.1 113.488 54.8189 112.142H61.9876V117.192C59.8791 117.528 55.6623 118 55.6623 117.192Z" fill="#5B5842"/>
<path d="M74.6548 212.328C71.4341 206.225 70.9271 193.851 71.0762 188.427H80.9173C78.7702 196.97 83.0048 207.92 85.3906 212.328C83.154 214.87 77.8755 218.43 74.6548 212.328Z" fill="#70AE5A"/>
<path d="M43.2651 205.199C40.2289 199.139 39.3077 189.881 39.4482 184.494H52.5205C50.4964 192.978 52.8016 200.823 55.0506 205.199C52.9422 207.725 46.3012 211.26 43.2651 205.199Z" fill="#70AE5A"/>
<path d="M49.9903 142.044C54.7132 137.6 62.6409 113.932 66.0144 102.653L68.1228 118.814C66.4361 141.539 44.0867 147.599 49.9903 142.044Z" fill="#7B783E"/>
<path d="M67.7012 118.813C63.6531 141.438 43.5245 145.747 33.9663 145.074C33.9663 146.421 36.6651 150.023 47.4603 153.659C58.2555 157.295 69.9502 131.944 74.4482 118.813H67.7012Z" fill="#E9BE9C"/>
<path d="M35.843 145.976C41.2406 146.784 55.8028 118.706 62.4093 104.565C68.8189 107.393 68.4534 108.1 67.4695 108.1C68.4815 119.817 52.1482 143.619 43.855 154.056C38.9354 151.026 30.4454 145.168 35.843 145.976Z" fill="black" stroke="#4C2018"/>
<path d="M8.85069 168.731C4.8025 171.559 4.07157 167.553 4.21214 165.196C1.68201 172.266 8.42901 171.761 9.27238 171.256C9.94708 170.852 9.27238 169.405 8.85069 168.731Z" fill="#C89767"/>
<path d="M77.5903 212.162C74.8915 210.142 72.2489 196.507 71.265 189.941C71.265 190.446 70.4216 212.162 75.9035 215.697C80.289 218.525 83.6344 214.518 84.7589 212.162C83.4939 213.003 80.289 214.182 77.5903 212.162Z" fill="#436537"/>
<path d="M53.9756 204.587C44.5298 203.779 41.6061 190.783 41.325 184.387C39.6383 185.902 39.6383 202.062 44.2768 207.112C47.9877 211.152 53.1322 207.785 55.2407 205.597L53.9756 204.587Z" fill="#436537"/>
<path d="M115.964 154.086C95.3852 166.206 63.5338 161.829 50.1804 158.126C53.5539 171.458 65.2971 176.567 72.1081 175.296C104.728 169.208 115.823 158.126 115.964 154.086Z" fill="#9F5238" fill-opacity="0.64"/>
<path d="M33.7346 99.5309C68.8189 101.955 75.6222 72.5972 74.6382 57.6152C79.2768 65.1904 85.7708 82.9667 74.6382 93.4708C63.5057 103.975 42.7306 101.888 33.7346 99.5309Z" fill="#AA5A39"/>
<path d="M37.7154 161.167C46.6051 162.205 60.577 128.357 66.4517 111.304C66.7935 110.251 67.8597 108.712 69.3908 110.976C71.3047 113.806 65.9639 137.732 59.8319 146.023C54.9263 152.656 43.1626 165.97 37.894 171.798C37.4935 173.137 36.7125 174.072 35.294 173.609C31.8178 172.475 26.6034 159.869 37.7154 161.167Z" fill="#BD6A3B"/>
<path d="M40.0528 166.682C57.2576 154.966 65.7757 124.43 67.8841 110.626C68.8962 109.414 69.1492 110.121 69.1492 110.626C75.8962 136.382 38.7877 171.732 37.9444 171.227C37.2697 170.823 39.0689 168.029 40.0528 166.682Z" fill="#81402D"/>
<path d="M45.5346 41.96C41.8237 39.1319 25.9964 43.1383 18.5466 45.4951C26.5587 47.0101 35.8358 45.4951 38.3659 43.98C40.896 42.4649 58.6069 48.5251 61.137 51.5551C63.6671 54.5852 80.1129 66.2004 80.5346 63.6753C80.8719 61.6553 72.5225 52.7335 68.3057 48.5251C62.2615 47.5151 49.2454 44.788 45.5346 41.96Z" fill="#4C2018"/>
<path d="M73.3659 58.1199C50.4261 36.7075 27.2615 41.1179 18.5466 45.9997C26.9804 10.1441 50.5948 12.1641 73.3659 23.2743C91.5828 32.1624 85.4543 53.9114 80.1129 63.6749L73.3659 58.1199Z" fill="#9D923A"/>
<path d="M21.0295 15.3633C24.2933 18.3499 30.8385 26.0399 30.9089 32.9076C31.7574 33.4013 33.7886 34.0811 35.1255 32.8512C36.7966 31.3137 30.712 13.7186 30.6965 12.2037C30.681 10.6887 22.6436 8.27108 17.6044 10.3587C12.5652 12.4463 5.18779 33.2518 3.92282 33.2687C2.65784 33.2857 4.86974 43.3569 5.24996 39.3115C5.55413 36.0751 15.8964 21.9975 21.0295 15.3633Z" fill="#4C2018"/>
<path d="M56.7875 6.80399C59.3226 7.27511 57.088 36.0925 57.1139 38.6174C58.3857 39.2738 61.1784 40.1792 62.1738 38.5497C63.1692 36.9202 64.0576 16.6392 64.3773 6.70242C61.8301 5.05305 56.0579 1.46036 53.3469 0.284539C50.6358 -0.891282 41.3198 6.33766 37.0007 10.0991C38.4235 11.7636 41.5158 14.4831 42.5029 12.0456C43.7368 8.99888 54.2524 6.33288 56.7875 6.80399Z" fill="#4C2018"/>
<path d="M42.1682 152.037C44.1923 152.037 58.4734 121.4 65.3609 106.081C67.0477 106.081 67.7505 107.764 67.8911 108.606C69.2405 113.858 52.7104 141.432 44.2766 154.562C42.7304 153.72 40.1441 152.037 42.1682 152.037Z" fill="#393939"/>
<path d="M49.3317 55.0436C52.6176 57.2496 53.6882 62.4416 51.7228 66.6403C49.7574 70.8391 49.3317 69.0856 43.8137 69.0856C38.476 68.033 37.8581 62.8507 39.8235 58.6519C41.7889 54.4532 46.0458 52.8377 49.3317 55.0436Z" fill="white"/>
<path d="M47.2286 54.0789C44.1924 53.2709 41.1844 55.4256 40.0599 56.6039C38.6543 58.2873 36.2647 61.25 37.9515 59.634C40.0599 57.6139 45.5418 56.6039 47.2286 56.6039C48.9153 56.6039 50.1804 58.624 51.4455 58.624C52.4575 58.624 53.5539 54.2472 53.9756 52.0588C53.1322 53.2372 51.4455 55.2909 51.4455 54.0789V51.0488C51.3049 52.3955 50.2647 54.8869 47.2286 54.0789Z" fill="black"/>
<path d="M49.7588 64.685C49.7588 67.753 49.7588 69.8753 43.5912 69.0859C41.0294 69.0859 40.4817 67.753 40.4817 64.685C40.4817 61.617 42.5584 59.1299 45.1202 59.1299C47.682 59.1299 49.7588 61.617 49.7588 64.685Z" fill="black"/>
<ellipse cx="46.8069" cy="63.6754" rx="2.10843" ry="2.52504" fill="white"/>
<path d="M21.5915 52.2297C18.3412 53.0162 16.3852 56.8601 17.2226 60.8153C18.0601 64.7705 18.7755 63.4915 23.491 65.1418C28.2634 65.894 29.8306 61.9225 28.9932 57.9673C28.1557 54.0121 24.8419 51.4433 21.5915 52.2297Z" fill="white"/>
<path d="M23.5821 52.0856C26.3387 52.3456 28.4771 54.9733 29.2017 56.2547C30.0653 58.0251 31.5132 61.1159 30.3958 59.3154C28.9992 57.0647 24.5172 54.6152 23.0758 54.1107C21.6344 53.6062 20.1482 54.848 19.0672 54.4696C18.2023 54.1669 18.1431 50.3289 18.2216 48.4477C18.706 49.6449 19.7356 51.7965 19.9786 50.8244L20.5863 48.3943C20.4363 49.5164 20.8256 51.8256 23.5821 52.0856Z" fill="black"/>
<path d="M19.2932 59.834C18.6779 62.2946 19.1194 64.6127 23.6811 65.2082C26.014 65.2082 26.6057 65.0691 27.2209 62.6086C27.8362 60.148 26.5603 57.5322 24.3711 56.766C22.1819 55.9999 19.9085 57.3735 19.2932 59.834Z" fill="black"/>
<ellipse cx="1.90892" cy="2.08746" rx="1.90892" ry="2.08746" transform="matrix(-0.943864 -0.330333 -0.24258 0.970132 26.8494 58.5068)" fill="white"/>
<path d="M29.5106 84.3659C20.7395 83.5579 19.109 79.8209 19.8118 81.3359C25.2937 86.891 38.366 92.4461 46.3781 91.4361C52.7877 90.628 50.1241 81.5254 46.3781 80.3259C44.0418 79.5778 38.2817 85.1739 29.5106 84.3659Z" fill="#1D1D1D"/>
<path d="M43.0117 87.1711C39.6996 86.0827 37.8483 88.0074 37.5298 90.426C37.9544 90.426 39.4541 91.2524 44.8045 91.2524C50.1549 91.2524 50.6432 88.5315 50.2186 87.171C48.8385 87.0199 46.3239 88.2594 43.0117 87.1711Z" fill="#FF9C9C"/>
<ellipse cx="55.6623" cy="75.7809" rx="3.37349" ry="2.52504" fill="#FF9C9C"/>
<ellipse cx="13.4899" cy="72.7506" rx="3.37349" ry="2.52504" fill="#FF9C9C"/>
<path d="M22.7637 73.2551C23.8882 72.2453 26.7275 70.8317 29.089 73.2551" stroke="black"/>
<path d="M41.325 51.0496C44.839 50.0398 52.3731 48.3232 54.3972 49.5349" stroke="black"/>
<path d="M32.4695 49.9509C28.9554 48.9412 21.4213 47.2246 19.3972 48.4363" stroke="black"/>
<path d="M71.2649 51.0498C78.3493 49.4337 76.4657 32.1961 74.6384 23.7793C90.1565 29.4354 85.04 52.7331 80.542 63.675L64.4164 51.8994C63.3335 51.7713 63.1157 51.3784 63.2529 51.0498L64.4164 51.8994C65.552 52.0337 67.6388 51.8769 71.2649 51.0498Z" fill="#635E37"/>
</svg>
