<svg width="402" height="874" viewBox="0 0 402 874" fill="none" xmlns="http://www.w3.org/2000/svg">
<g clip-path="url(#clip0_175_11)">
<rect width="402" height="874" fill="#91BF5C"/>
<rect width="55" height="56.6349" transform="matrix(-0.719633 0.694354 0.694354 0.719633 279.58 825)" fill="white"/>
<path d="M104 804.5C61.5999 738.1 -6.66682 680.5 -14.5002 667C-19.5002 538.667 -26.5002 278.2 -14.5002 263C-2.50016 247.8 128.167 107.667 192 39.5L470.5 95L445 879.5L262 914H134.5C128 900.5 146.4 870.9 104 804.5Z" fill="#7D985E"/>
<path d="M-30.1669 285.32L316.825 -20L779 590.168L233.025 896.456L252.246 919.12L96.5817 973L233.025 896.456L-159.807 433.254L-135.71 322.658L-30.1669 285.32Z" fill="white"/>
<rect width="52.4747" height="650.448" transform="matrix(0.693893 0.720078 -0.733442 0.679752 309.066 49.9496)" fill="#D1220D"/>
<rect width="52.4747" height="650.448" transform="matrix(0.693893 0.720078 -0.733442 0.679752 389.067 118.009)" fill="#D1220D"/>
<rect width="52.4747" height="630.817" transform="matrix(0.693893 0.720078 -0.733442 0.679752 457.502 195.52)" fill="#D1220D"/>
<rect width="52.4747" height="634.031" transform="matrix(0.693893 0.720078 -0.733442 0.679752 528.828 276.813)" fill="#D1220D"/>
<rect width="52.5792" height="190.117" transform="matrix(-0.763811 0.64544 0.660042 0.751229 303.973 19.701)" fill="#D1220D"/>
<rect width="52.4747" height="635.064" transform="matrix(0.693893 0.720078 -0.733442 0.679752 594.371 348.653)" fill="#D1220D"/>
<rect width="52.4747" height="650.448" transform="matrix(0.693893 0.720078 -0.733442 0.679752 665.697 415.767)" fill="#D1220D"/>
<rect width="52.5792" height="633.8" transform="matrix(-0.763811 0.64544 0.660042 0.751229 -85.4292 380.792)" fill="#D1220D"/>
<rect width="52.5792" height="633.8" transform="matrix(-0.763811 0.64544 0.660042 0.751229 -6.39209 309.897)" fill="#D1220D"/>
<rect width="52.5219" height="54.0455" transform="matrix(-0.726358 0.687316 0.701332 0.712835 351.12 705.963)" fill="white"/>
<rect width="52.5219" height="54.0455" transform="matrix(-0.726358 0.687316 0.701332 0.712835 282.685 636.013)" fill="white"/>
<rect width="52.5792" height="638.568" transform="matrix(-0.763811 0.64544 0.660042 0.751229 131.186 143.73)" fill="#D1220D"/>
<rect width="52.5792" height="638.568" transform="matrix(-0.763811 0.64544 0.660042 0.751229 205.659 71.6907)" fill="#D1220D"/>
<rect width="52.5219" height="54.0455" transform="matrix(-0.726358 0.687316 0.701332 0.712835 217.142 565.119)" fill="white"/>
<rect width="52.5219" height="54.0455" transform="matrix(-0.726358 0.687316 0.701332 0.712835 372.325 421.438)" fill="white"/>
<rect width="52.5219" height="54.0455" transform="matrix(-0.726358 0.687316 0.701332 0.712835 149.671 479.099)" fill="white"/>
<rect width="52.5219" height="54.0455" transform="matrix(-0.726358 0.687316 0.701332 0.712835 304.854 335.419)" fill="white"/>
<rect width="52.5219" height="54.0455" transform="matrix(-0.726358 0.687316 0.701332 0.712835 79.3091 404.424)" fill="white"/>
<rect width="52.5219" height="54.0455" transform="matrix(-0.726358 0.687316 0.701332 0.712835 234.492 260.743)" fill="white"/>
<rect width="52.5219" height="54.0455" transform="matrix(-0.726358 0.687316 0.701332 0.712835 166.057 181.341)" fill="white"/>
<rect width="52.5219" height="54.0455" transform="matrix(-0.726358 0.687316 0.701332 0.712835 387.747 118.009)" fill="white"/>
<rect width="52.5219" height="54.0455" transform="matrix(-0.726358 0.687316 0.701332 0.712835 319.312 38.6063)" fill="white"/>
<rect width="52.5792" height="665.618" transform="matrix(-0.763811 0.64544 0.660042 0.751229 50.6802 212.264)" fill="#D1220D"/>
<rect width="52.5219" height="54.0455" transform="matrix(-0.726358 0.687316 0.701332 0.712835 203.648 708.799)" fill="white"/>
<rect width="52.5219" height="54.0455" transform="matrix(-0.726358 0.687316 0.701332 0.712835 138.105 637.904)" fill="white"/>
<rect width="52.5219" height="54.0455" transform="matrix(-0.726358 0.687316 0.701332 0.712835 293.288 494.224)" fill="white"/>
<rect width="52.5219" height="54.0455" transform="matrix(-0.726358 0.687316 0.701332 0.712835 361.722 564.173)" fill="white"/>
<rect width="52.5219" height="54.0455" transform="matrix(-0.726358 0.687316 0.701332 0.712835 70.6343 551.885)" fill="white"/>
<rect width="52.5219" height="54.0455" transform="matrix(-0.726358 0.687316 0.701332 0.712835 225.817 408.205)" fill="white"/>
<rect width="52.5219" height="54.0455" transform="matrix(-0.726358 0.687316 0.701332 0.712835 0.271973 477.209)" fill="white"/>
<rect width="52.5219" height="54.0455" transform="matrix(-0.726358 0.687316 0.701332 0.712835 155.455 333.529)" fill="white"/>
<rect width="52.5219" height="54.0455" transform="matrix(-0.726358 0.687316 0.701332 0.712835 87.02 254.127)" fill="white"/>
<rect width="52.5219" height="54.0455" transform="matrix(-0.726358 0.687316 0.701332 0.712835 308.709 190.794)" fill="white"/>
<rect width="52.5219" height="54.0455" transform="matrix(-0.726358 0.687316 0.701332 0.712835 240.275 111.392)" fill="white"/>
<rect width="52.5219" height="54.0455" transform="matrix(-0.726358 0.687316 0.701332 0.712835 379.072 265.47)" fill="white"/>
<rect width="52.5219" height="54.0455" transform="matrix(-0.726358 0.687316 0.701332 0.712835 16.6577 320.295)" fill="white"/>
<path d="M-13 808C-10.6667 814 -6 829.1 -6 841.5C-6 844.167 -3.8 852.3 5 863.5C13.8 874.7 28 839.5 34 820.5C27.5 827.5 14.5 839.5 14.5 831.5V787L5 820.5L-13 808Z" fill="#7D985E"/>
<path d="M-14 841V878C140 897.2 85.8333 861.333 39.5 841L25 854C12 851.5 -14 845.4 -14 841Z" fill="#C3DB88"/>
</g>
<defs>
<clipPath id="clip0_175_11">
<rect width="402" height="874" fill="white"/>
</clipPath>
</defs>
</svg>
