<svg width="402" height="874" viewBox="0 0 402 874" fill="none" xmlns="http://www.w3.org/2000/svg">
<rect width="55" height="56.6349" transform="matrix(-0.719633 0.694354 0.694354 0.719633 279.58 825)" fill="white"/>
<path d="M104 804.5C61.5999 738.1 -6.66682 680.5 -14.5002 667C-19.5002 538.667 -26.5002 278.2 -14.5002 263C-2.50016 247.8 128.167 107.667 192 39.5L470.5 95L445 879.5L262 914H134.5C128 900.5 146.4 870.9 104 804.5Z" fill="#7D985E"/>
<path d="M-33 299L327 -24L806.5 621.5L240.059 945.524L260 969.5L98.5 1026.5L240.059 945.524L-167.5 455.5L-142.5 338.5L-33 299Z" fill="white"/>
<rect x="318.95" y="50" width="55" height="681" transform="rotate(46.6187 318.95 50)" fill="#D1220D"/>
<rect x="401.95" y="122" width="55" height="681" transform="rotate(46.6187 401.95 122)" fill="#D1220D"/>
<rect x="472.95" y="204" width="55" height="660.447" transform="rotate(46.6187 472.95 204)" fill="#D1220D"/>
<rect x="546.95" y="290" width="55" height="663.812" transform="rotate(46.6187 546.95 290)" fill="#D1220D"/>
<rect width="55" height="199.444" transform="matrix(-0.757564 0.652761 0.652761 0.757564 313.666 18)" fill="#D1220D"/>
<rect x="614.95" y="366" width="55" height="664.894" transform="rotate(46.6187 614.95 366)" fill="#D1220D"/>
<rect x="688.95" y="437" width="55" height="681" transform="rotate(46.6187 688.95 437)" fill="#D1220D"/>
<rect width="55" height="664.894" transform="matrix(-0.757564 0.652761 0.652761 0.757564 -90.334 400)" fill="#D1220D"/>
<rect width="55" height="664.894" transform="matrix(-0.757564 0.652761 0.652761 0.757564 -8.33398 325)" fill="#D1220D"/>
<rect width="55" height="56.6349" transform="matrix(-0.719633 0.694354 0.694354 0.719633 362.58 744)" fill="white"/>
<rect width="55" height="56.6349" transform="matrix(-0.719633 0.694354 0.694354 0.719633 291.58 670)" fill="white"/>
<rect width="55" height="669.895" transform="matrix(-0.757564 0.652761 0.652761 0.757564 134.401 149.211)" fill="#D1220D"/>
<rect width="55" height="669.895" transform="matrix(-0.757564 0.652761 0.652761 0.757564 211.666 73)" fill="#D1220D"/>
<rect width="55" height="56.6349" transform="matrix(-0.719633 0.694354 0.694354 0.719633 223.58 595)" fill="white"/>
<rect width="55" height="56.6349" transform="matrix(-0.719633 0.694354 0.694354 0.719633 384.58 443)" fill="white"/>
<rect width="55" height="56.6349" transform="matrix(-0.719633 0.694354 0.694354 0.719633 153.58 504)" fill="white"/>
<rect width="55" height="56.6349" transform="matrix(-0.719633 0.694354 0.694354 0.719633 314.58 352)" fill="white"/>
<rect width="55" height="56.6349" transform="matrix(-0.719633 0.694354 0.694354 0.719633 80.5798 425)" fill="white"/>
<rect width="55" height="56.6349" transform="matrix(-0.719633 0.694354 0.694354 0.719633 241.58 273)" fill="white"/>
<rect width="55" height="56.6349" transform="matrix(-0.719633 0.694354 0.694354 0.719633 170.58 189)" fill="white"/>
<rect width="55" height="56.6349" transform="matrix(-0.719633 0.694354 0.694354 0.719633 400.58 122)" fill="white"/>
<rect width="55" height="56.6349" transform="matrix(-0.719633 0.694354 0.694354 0.719633 329.58 38)" fill="white"/>
<rect width="55" height="698.272" transform="matrix(-0.757564 0.652761 0.652761 0.757564 50.8779 221.714)" fill="#D1220D"/>
<rect width="55" height="56.6349" transform="matrix(-0.719633 0.694354 0.694354 0.719633 209.58 747)" fill="white"/>
<rect width="55" height="56.6349" transform="matrix(-0.719633 0.694354 0.694354 0.719633 141.58 672)" fill="white"/>
<rect width="55" height="56.6349" transform="matrix(-0.719633 0.694354 0.694354 0.719633 302.58 520)" fill="white"/>
<rect width="55" height="56.6349" transform="matrix(-0.719633 0.694354 0.694354 0.719633 373.58 594)" fill="white"/>
<rect width="55" height="56.6349" transform="matrix(-0.719633 0.694354 0.694354 0.719633 71.5798 581)" fill="white"/>
<rect width="55" height="56.6349" transform="matrix(-0.719633 0.694354 0.694354 0.719633 232.58 429)" fill="white"/>
<rect width="55" height="56.6349" transform="matrix(-0.719633 0.694354 0.694354 0.719633 -1.42017 502)" fill="white"/>
<rect width="55" height="56.6349" transform="matrix(-0.719633 0.694354 0.694354 0.719633 159.58 350)" fill="white"/>
<rect width="55" height="56.6349" transform="matrix(-0.719633 0.694354 0.694354 0.719633 88.5798 266)" fill="white"/>
<rect width="55" height="56.6349" transform="matrix(-0.719633 0.694354 0.694354 0.719633 318.58 199)" fill="white"/>
<rect width="55" height="56.6349" transform="matrix(-0.719633 0.694354 0.694354 0.719633 247.58 115)" fill="white"/>
<rect width="55" height="56.6349" transform="matrix(-0.719633 0.694354 0.694354 0.719633 391.58 278)" fill="white"/>
<rect width="55" height="56.6349" transform="matrix(-0.719633 0.694354 0.694354 0.719633 15.5798 336)" fill="white"/>
<g filter="url(#filter0_d_158_218)">
<path d="M402.496 136.58C251.92 8.69878 56.5918 89.7161 -13.4901 143L-9.48538 134.654L-22 -1.44444L406 -13L402.496 136.58Z" fill="#E3F4FF"/>
</g>
<path d="M-13 808C-10.6667 814 -6 829.1 -6 841.5C-6 844.167 -3.8 852.3 5 863.5C13.8 874.7 28 839.5 34 820.5C27.5 827.5 14.5 839.5 14.5 831.5V787L5 820.5L-13 808Z" fill="#7D985E"/>
<path d="M-14 841V878C140 897.2 85.8333 861.333 39.5 841L25 854C12 851.5 -14 845.4 -14 841Z" fill="#C3DB88"/>
<defs>
<filter id="filter0_d_158_218" x="-40" y="-33" width="464" height="192" filterUnits="userSpaceOnUse" color-interpolation-filters="sRGB">
<feFlood flood-opacity="0" result="BackgroundImageFix"/>
<feColorMatrix in="SourceAlpha" type="matrix" values="0 0 0 0 0 0 0 0 0 0 0 0 0 0 0 0 0 0 127 0" result="hardAlpha"/>
<feOffset dy="-2"/>
<feGaussianBlur stdDeviation="9"/>
<feComposite in2="hardAlpha" operator="out"/>
<feColorMatrix type="matrix" values="0 0 0 0 0.101331 0 0 0 0 0.379993 0 0 0 0 0.658654 0 0 0 0.38 0"/>
<feBlend mode="normal" in2="BackgroundImageFix" result="effect1_dropShadow_158_218"/>
<feBlend mode="normal" in="SourceGraphic" in2="effect1_dropShadow_158_218" result="shape"/>
</filter>
</defs>
</svg>
