<svg width="402" height="874" viewBox="0 0 402 874" fill="none" xmlns="http://www.w3.org/2000/svg">
<g clip-path="url(#clip0_45_3110)">
<rect width="402" height="874" fill="#91BF5C"/>
<rect x="-8" y="368" width="435" height="169" fill="#DAEE6F"/>
<path d="M-13 808C-10.6667 814 -6 829.1 -6 841.5C-6 844.167 -3.8 852.3 5 863.5C13.8 874.7 28 839.5 34 820.5C27.5 827.5 14.5 839.5 14.5 831.5V787L5 820.5L-13 808Z" fill="#7D985E"/>
<path d="M71.3504 394.738C42.674 404.589 23.18 445.673 17.0176 464.984C37.0112 454.664 56.4457 435.63 58.7672 424.866C60.6245 416.255 89.9446 397.332 104.372 388.947C115.58 379.411 140.217 359.192 149.103 354.605C157.99 350.018 202.749 306.283 224.018 284.989L174.7 310.445L136.49 330.168C126.725 347.587 100.027 384.888 71.3504 394.738Z" fill="#7D985E"/>
<path d="M-25 -23H432V384.968C432 384.968 329.136 412.425 262.5 408.642C199.152 405.046 165.858 381.602 102.5 384.968C50.3103 387.74 -25 408.642 -25 408.642V-23Z" fill="#E3F4FF"/>
<path d="M185.996 371.574C190.821 375.835 201.894 387.113 207.582 398.131C208.805 400.501 214.49 406.719 227.447 412.635C240.404 418.552 236.877 380.76 233.494 361.124C230.929 370.326 224.881 386.952 221.211 379.843L200.801 340.3L207.724 374.425L185.996 371.574Z" fill="#7D985E"/>
<path d="M200.244 401.356L217.214 434.234C362.866 380.661 298.283 373.634 247.784 376.817L240.862 395.02C228.163 398.761 202.262 405.266 200.244 401.356Z" fill="#C3DB88"/>
<path d="M121 342.5C97.8 341.3 23.6667 363 -10.5 374L-34.5 393.5L393.5 384.5L411.5 321C382.333 328.167 313.1 342.5 269.5 342.5H174C166 343 144.2 343.7 121 342.5Z" fill="#A9E4F6"/>
<path d="M200.5 325.5C223.7 324.3 297.833 346 332 357L356 376.5L-72 367.5L-90 304C-60.8333 311.167 8.39999 325.5 52 325.5H147.5C155.5 326 177.3 326.7 200.5 325.5Z" fill="#9DD3E7"/>
<path d="M-14 841V878C140 897.2 85.8333 861.333 39.5 841L25 854C12 851.5 -14 845.4 -14 841Z" fill="#C3DB88"/>
<path d="M388.5 418.53C344.5 406.03 -13 397.03 -25 395.53C-25 382.53 -24.5 356.63 -22.5 357.03C-20 357.53 -17.5 358.53 -14.5 359.53C-11.5 360.53 -7.5 365.03 -6 369.03C-4.5 373.03 -5 371.53 -3.5 373.53C-2.3 375.13 4.33333 375.53 7.5 375.53C11.3333 371.197 19.1 362.33 19.5 361.53C20 360.53 24.5 355.53 27.5 354.03C30.5 352.53 30 354.53 32.5 355.53C35 356.53 34 363.03 44 367.53C54 372.03 56.5 381.03 57.5 381.03C58.5 381.03 65 384.03 65.5 383.53C66 383.03 66.5 377.03 70 377.03C73.5 377.03 72.5 385.03 73.5 385.53C74.5 386.03 76 385.53 78.5 385.03C81 384.53 81 381.03 85 379.03C89 377.03 95 385.53 96 385.53C97 385.53 96.5 385.03 101.5 385.03C105.5 385.03 108.833 388.03 110 389.53C111 389.197 113 388.33 113 387.53C113 386.53 116.5 383.53 120 379.03C123.5 374.53 120.5 377.53 129.5 376.03C138.5 374.53 132 375.03 135.5 376.03C139 377.03 139.5 380.03 142 381.03C144.5 382.03 145 386.03 147.5 383.53C150 381.03 163.5 373.03 165.5 373.03C167.5 373.03 171 378.03 172 380.03C173 382.03 173 385.03 182 387.53C188 389.53 188.5 386.53 188 383.53C187.5 380.53 193.5 382.53 196.5 381.03C199.5 379.53 198 378.03 198.5 377.53C199 377.03 202 371.03 203 370.53C204 370.03 209.5 370.03 214 370.53C218.5 371.03 220.5 373.03 221 374.03C221.5 375.03 219.5 378.53 223 381.03C226 381.03 227.5 384.03 228 384.53C228.5 385.03 226.5 389.53 227.5 391.03C228.3 392.23 233.5 390.53 236 389.53C236.833 389.53 239.2 389.83 242 391.03C245.5 392.53 251.5 404.03 251.5 402.53C251.5 401.03 255.5 396.53 256.5 396.53C257.3 396.53 259.833 391.53 261 389.03C261.167 387.697 261.7 384.53 262.5 382.53L262.564 382.371C263.524 379.966 264.118 378.477 269.5 376.03C275 373.53 272 376.03 272.5 376.03C273 376.03 280 374.03 282 374.03C284 374.03 288.5 380.53 290.5 382.53C292.5 384.53 294.5 383.53 296.5 384.03C298.5 384.53 298.5 378.53 300 377.03C301.5 375.53 308.5 378.53 309.5 378.53H317C318.5 378.53 321 383.53 322 385.03C323 386.53 325.5 388.53 328 389.53C330.5 390.53 329 390.53 331 389.53C333 388.53 331.5 387.53 331 385.03C330.5 382.53 327.5 381.03 327.5 378.53C327.5 376.03 331 379.53 333 380.03C335 380.53 333.5 377.53 334 376.03C334.5 374.53 335 374.03 336 373.03C337 372.03 341.5 374.53 343 374.03C344.2 373.63 345.5 370.864 346 369.53C346.667 368.53 347.7 365.93 346.5 363.53C345 360.53 345.5 359.53 346 357.03C346.5 354.53 347 356.03 351.5 351.03C356 346.03 353.5 351.53 355 354.03C356.5 356.53 356.5 357.03 358 357.03C359.5 357.03 360 356.03 362 356.03C364 356.03 365 351.53 367.5 351.53H372.5C374.5 351.53 373.5 357.03 373.5 359.53C373.5 361.53 374.833 360.364 375.5 359.53C377 359.864 380 361.03 380 363.03C380 365.03 381.333 366.864 382 367.53L398.5 374.53C409.833 393.364 423.7 428.53 388.5 418.53Z" fill="#5F9B34"/>
<path d="M12 388.511C10.5 387.511 -3.5 382.011 -5 381.511V393.511C22.5 394.677 76.6 396.611 73 395.011C68.5 393.011 69 393.011 65 390.511C61 388.011 64.5 385.011 61.5 380.511C58.5 376.011 53 376.511 49.5 375.011C46 373.511 41.5 367.511 38 367.011C34.5 366.511 32 383.511 32.5 385.011C33 386.511 26.5 387.511 24 388.511C21.5 389.511 13.5 389.511 12 388.511Z" fill="#257348"/>
<path d="M86.5 387.011C82.5 385.511 88 393.011 88 395.011C92 395.011 104.5 397.511 104.5 395.011C104.5 392.511 105.5 393.511 104.5 392.511C103.5 391.511 97 387.011 95 387.011C93 387.011 90.5 388.511 86.5 387.011Z" fill="#257348"/>
<path d="M128 390.511C124 383.511 138 378.511 141 378.011L137.5 385.011C137.667 385.677 139.5 387.711 145.5 390.511C147.5 390.511 148.667 393.511 149 395.011C149.833 395.511 152.1 397.111 154.5 399.511C155.433 400.444 156.548 401.055 157.65 401.443C159.239 401.652 160.714 401.844 162 402.011C161.083 402.113 159.382 402.053 157.65 401.443C148.12 400.19 134.529 398.354 133.5 398.011C132 397.511 132 397.511 128 390.511Z" fill="#257348"/>
<path d="M170 387.511C170.8 387.511 171 385.177 171 384.011C172.5 385.177 175.7 388.111 176.5 390.511C177.5 393.511 178.5 392.511 178.5 393.511C178.5 394.511 180.5 396.011 183.5 398.011C186.5 400.011 187 398.011 189.5 398.011C191.5 398.011 195 400.677 196.5 402.011L162 400.511C162.833 399.677 164.5 397.811 164.5 397.011V390.511C164.5 389.511 169 387.511 170 387.511Z" fill="#257348"/>
<path d="M216.5 378.011C217.7 377.611 219 377.844 219.5 378.011L218 380.511H224C226 380.511 223.5 388.511 223 389.011C222.5 389.511 219.5 393.511 220 394.011C220.5 394.511 222 395.011 226.5 398.011C231 401.011 229 398.511 233.5 398.011C238 397.511 241.5 398.011 244.5 398.511C246.9 398.911 249.833 404.677 251 407.511C239.5 406.511 215.4 404.311 211 403.511C205.5 402.511 206 398.511 206.5 398.011C207 397.511 207.5 390.511 206.5 387.511C205.5 384.511 206.5 385.511 207.5 385.511C208.5 385.511 209 382.011 209.5 381.011C210 380.011 211 380.511 213 380.511C215 380.511 215 378.511 216.5 378.011Z" fill="#257348"/>
<path d="M278 389.011C277.6 389.011 279.167 386.344 280 385.011L282.5 387.511C283.667 388.511 286 391.111 286 393.511C286 396.511 288 395.511 289.5 395.511C291 395.511 297.5 398.011 300.5 398.011C303.5 398.011 305 398.511 305 400.511C305 402.511 308.5 402.011 311.5 403.511C314.5 405.011 313.5 405.011 317 406.011C319.8 406.811 317.5 408.344 316 409.011C316.5 409.511 317.7 410.811 318.5 412.011C319.3 413.211 285.833 410.511 269 409.011V403.511C269 401.511 270.5 400.511 273.5 398.511C276.5 396.511 275.5 398.511 276.5 398.011C277.5 397.511 279 395.511 280 394.011C281 392.511 278.5 389.011 278 389.011Z" fill="#257348"/>
<path d="M351 374.511C354.5 375.011 362 370.011 363 368.511L366.5 376.011L369.5 378.011C369 378.844 367.9 381.011 367.5 383.011C367 385.511 372.5 387.511 374 390.511C375.5 393.511 382 395.511 388.5 402.011C395 408.511 382.5 406.011 380 406.011C377.5 406.011 373.5 403.511 355.5 395.511C337.5 387.511 351 391.511 349.5 389.011C348 386.511 343.5 381.511 343 376.011C342.5 370.511 345 374.511 345.5 374.511C346 374.511 347.5 374.011 351 374.511Z" fill="#257348"/>
<path d="M327 413.511C324.2 412.311 333.833 404.344 339 400.511C341.167 399.677 345.8 398.111 347 398.511C348.5 399.011 349.5 400.511 349.5 403.511C349.5 406.511 353 403.511 358.5 405.011C362.9 406.211 366.333 411.177 367.5 413.511C355.167 414.011 329.8 414.711 327 413.511Z" fill="#257348"/>
<path d="M114 438C99.6 448 19.6667 433.833 -18.5 425.5L-74.5 488.5H42.5C103.5 479.5 114 476 132 459.5C146.4 446.3 237.333 420.667 281 409.5C257.667 410.667 203.4 415.5 173 425.5C135 438 132 425.5 114 438Z" fill="#7DBC90"/>
<path d="M116.097 284.132C106.096 291.125 93.6648 278.518 88.699 271.34C110.014 241.538 155.222 200.79 175.161 184.141L190.569 200.004C169.912 225.133 126.097 277.138 116.097 284.132Z" fill="#C3DB88"/>
<path d="M28.531 340L21.4 334.186L12 126.919L290.434 117L294 250.048L276.172 236.709L271.31 237.735C269.582 239.901 265.8 244.028 264.503 243.207C262.883 242.181 264.179 233.63 263.531 234.998C262.883 236.367 258.993 240.471 258.021 238.761C257.048 237.051 260.29 229.868 258.021 229.868C255.752 229.868 252.51 237.735 250.566 237.735C248.621 237.735 254.131 240.129 250.566 241.497C247.713 242.591 247.216 243.777 247.324 244.233L258.021 257.23L247.324 259.282C251.43 266.579 260.16 281.582 262.234 283.224C264.828 285.276 278.766 295.537 277.145 302.035C275.524 308.534 268.069 299.299 265.152 299.299C262.234 299.299 270.014 309.56 271.31 314.348C272.348 318.179 267.637 314.804 265.152 312.638L262.234 299.299C260.938 302.719 257.502 310.175 254.131 312.638C250.76 315.101 250.349 317.084 250.566 317.768V330.423C248.405 329.625 243.694 327.756 242.138 326.661C241.253 326.039 241.173 324.779 241.349 323.302L234.034 314.348C234.251 317.084 234.942 322.899 235.979 324.267C237.276 325.977 232.09 329.397 229.821 324.267C229.172 322.801 229.084 321.175 229.306 319.591C225.347 321.368 218.752 323.655 217.503 322.557C215.948 321.189 221.919 313.322 225.099 309.56C220.082 313.322 210.048 320.231 210.048 317.768C210.048 315.306 220.082 304.429 225.099 299.299C224.62 298.729 223.662 297.179 223.662 295.537C223.662 293.895 219.556 297.361 217.503 299.299L213.614 309.56C210.48 310.586 204.214 312.022 204.214 309.56C204.214 306.482 207.131 306.14 207.131 299.299C204.797 297.11 210.48 293.143 213.614 291.433C212.425 291.433 210.048 290.68 210.048 287.67C210.048 283.908 216.207 287.67 219.448 285.276C222.69 282.882 222.69 281.172 223.662 278.436C224.44 276.247 221.177 276.611 219.448 277.067C217.503 274.673 212.901 269.543 210.048 268.175C206.483 266.465 202.593 281.172 202.593 278.436C202.593 275.699 207.131 264.755 207.131 263.044C207.131 261.334 202.593 267.491 199.352 263.044C198.379 258.256 192.869 266.465 190.924 264.755C188.979 263.044 192.221 263.044 194.814 261.676C196.888 260.582 197.191 256.66 197.083 254.836L187.683 261.676C187.683 260.194 188.007 256.272 189.303 252.442C190.924 247.653 200.972 250.048 202.593 250.048C203.89 250.048 190.6 236.595 183.793 229.868L171.152 237.735C169.423 239.673 165.123 243.686 161.752 244.233C158.381 244.78 157.538 248.337 157.538 250.048C159.375 253.924 163.308 261.95 164.345 263.044C165.382 264.139 160.239 264.641 157.538 264.755C156.025 265.553 153.519 267.696 155.593 269.885C157.668 272.074 165.317 267.377 168.883 264.755L165.966 274.673C167.046 275.471 169.142 277.888 168.883 281.172C168.623 284.455 161.211 286.872 157.538 287.67C157.97 290.292 158.575 296.289 157.538 299.299C156.501 302.309 154.08 303.745 153 304.087C151.92 304.087 149.759 303.677 149.759 302.035C149.759 299.983 150.731 299.299 149.759 295.537C148.981 292.527 145.761 298.615 144.248 302.035C142.952 302.719 139.71 305.182 137.117 309.56C134.524 313.938 136.037 306.368 137.117 302.035C134.848 302.719 129.857 303.677 128.041 302.035C126.226 300.394 123.611 294.283 122.531 291.433L116.372 304.087C114.536 305.912 109.954 311.202 106.324 317.768C105.676 325.977 105.352 320.847 103.731 324.267C102.11 327.687 109.89 329.397 110.862 334.186C111.834 338.974 99.1931 327.687 96.9241 324.267C94.6552 320.847 99.1931 316.742 96.9241 309.56C94.6552 306.482 96.9241 302.035 96.9241 299.299C96.9241 296.563 97.8966 286.986 96.9241 283.224C95.9517 279.462 97.8966 273.989 99.1931 271.937C100.49 269.885 97.8966 264.755 94.9793 264.755H87.2C84.6069 264.755 86.8759 278.436 82.0138 283.224C77.1517 288.012 77.8 278.778 75.2069 278.436C72.6138 278.094 71.3172 289.722 70.9931 289.722C70.669 289.722 66.4552 292.459 64.1862 289.722C62.371 287.533 66.2391 285.846 68.4 285.276L73.9103 269.885C73.154 266.009 70.9931 258.051 68.4 257.23C65.1586 256.204 62.8897 264.755 61.269 264.755C59.6483 264.755 59.3241 260.308 56.4069 261.676C54.0731 262.771 53.7057 267.605 53.8138 269.885L50.5724 264.755V269.885L46.3586 264.755L43.1172 269.885C43.7655 271.367 46.1641 274.879 50.5724 277.067C54.9807 279.256 52.4092 282.084 50.5724 283.224C49.8161 284.934 48.7572 288.628 50.5724 289.722C52.8414 291.09 56.4069 292.459 59.3241 295.537C61.1777 297.493 58.3831 296.989 55.7471 296.185C58.2787 297.241 60.9571 299.235 59.3241 302.035C57.2497 305.592 51.1126 304.885 48.3034 304.087L43.1172 309.56C42.2529 311.384 40.0055 314.553 37.931 312.638C35.3379 310.244 31.4483 309.902 31.4483 312.638V320.847L28.531 324.267L35.0138 334.186L28.531 340Z" fill="#95BE23"/>
<path d="M374.258 323L384.181 315.477L408.395 262.833L421.615 276.532C425.558 276.827 433.026 276.709 431.356 273.877C429.686 271.045 424.166 265.334 421.615 262.833L431.356 260.158L440.402 270.337C444.808 266.348 451.952 257.136 445.272 252.192C436.923 246.012 421.615 242.859 421.615 238.896C421.615 235.725 420.687 224.636 420.223 219.487L440.402 215.903C434.603 204.102 422.728 180.499 421.615 180.499C420.223 180.499 409.091 168.378 415.353 163.849C420.363 160.226 421.615 153.282 421.615 150.263C419.528 139.696 415.353 117.527 415.353 113.386V86.2142V62.2768L408.395 47.2916C412.106 42.5824 417.301 32.1287 408.395 27.9882C397.262 22.8125 394.105 19.5777 384.181 18.2838C376.242 17.2487 368.243 17.8525 365.236 18.2838L339.074 11.1669C336.217 8.14777 329.331 1.59195 324.64 -0.47831C318.776 -3.06613 318.776 -6.30091 309.304 -6.30091C301.726 -6.30091 291.494 -2.41918 287.326 -0.47831L223.149 -18.5931C220.894 -19.0244 214.218 -21.6985 205.558 -28.9444C194.732 -38.0017 183.926 -49 175.787 -49H136.544C127.884 -49 74.5973 -28.7287 49.0367 -18.5931H18.0521C11.4454 -18.5931 -12.0688 -10.3983 -23 -6.30091L-7.50003 144.5L4.83194 206.609L29.6407 189.35L36.4068 190.678C38.8125 193.48 44.075 198.821 45.8792 197.759C48.1346 196.431 46.3303 185.367 47.2324 187.137C48.1346 188.908 53.5474 194.218 54.9006 192.005C56.2538 189.793 51.7431 180.499 54.9006 180.499C58.0581 180.499 62.5688 190.678 65.2752 190.678C67.9816 190.678 60.3134 193.776 65.2752 195.546C69.2446 196.962 69.9363 198.496 69.7859 199.086L54.9006 215.903L69.7859 218.558C64.0724 227.999 51.9235 247.413 49.0367 249.537C45.4281 252.192 26.0322 265.469 28.2875 273.877C30.5429 282.285 40.9174 270.337 44.9771 270.337C49.0367 270.337 38.2111 283.613 36.4068 289.809C34.9634 294.765 41.5189 290.399 44.9771 287.596L49.0367 270.337C50.8409 274.762 55.6223 284.41 60.3134 287.596C65.0045 290.782 65.5759 293.349 65.2752 294.234V310.609C68.2823 309.576 74.8379 307.157 77.003 305.741C78.2342 304.935 78.3452 303.306 78.1005 301.394L88.2798 289.809C87.9791 293.349 87.0168 300.873 85.5734 302.643C83.7691 304.855 90.9862 309.281 94.1437 302.643C95.046 300.746 95.1693 298.642 94.8592 296.593C100.369 298.892 109.546 301.851 111.284 300.43C113.449 298.66 105.14 288.481 100.715 283.613C107.696 288.481 121.659 297.421 121.659 294.234C121.659 291.048 107.696 276.975 100.715 270.337C101.381 269.599 102.714 267.593 102.714 265.469C102.714 263.344 108.427 267.829 111.284 270.337L116.697 283.613C121.057 284.941 129.778 286.799 129.778 283.613C129.778 279.63 125.719 279.188 125.719 270.337C128.966 267.504 121.057 262.371 116.697 260.158C118.351 260.158 121.659 259.184 121.659 255.29C121.659 250.422 113.089 255.29 108.578 252.192C104.067 249.094 104.067 246.882 102.714 243.341C101.631 240.509 106.172 240.981 108.578 241.571C111.284 238.473 117.689 231.835 121.659 230.065C126.621 227.852 132.033 246.882 132.033 243.341C132.033 239.801 125.719 225.639 125.719 223.426C125.719 221.214 132.033 229.18 136.544 223.426C137.897 217.231 145.566 227.852 148.272 225.639C150.978 223.426 146.468 223.426 142.859 221.656C139.972 220.24 139.551 215.165 139.702 212.805L152.783 221.656C152.783 219.738 152.332 214.664 150.527 209.707C148.272 203.512 134.289 206.609 132.033 206.609C130.229 206.609 148.723 189.203 158.195 180.499L175.787 190.678C178.193 193.185 184.177 198.378 188.868 199.086C193.559 199.794 194.732 204.397 194.732 206.609C192.176 211.625 186.703 222.01 185.26 223.426C183.816 224.843 190.973 225.492 194.732 225.639C196.837 226.672 200.325 229.445 197.438 232.277C194.552 235.11 183.906 229.032 178.945 225.639L183.004 238.473C181.501 239.506 178.584 242.633 178.945 246.882C179.306 251.13 189.62 254.257 194.732 255.29C194.131 258.683 193.289 266.442 194.732 270.337C196.175 274.231 199.543 276.09 201.047 276.532C202.551 276.532 205.558 276.001 205.558 273.877C205.558 271.222 204.205 270.337 205.558 265.469C206.64 261.574 211.121 269.452 213.226 273.877C215.03 274.762 219.541 277.948 223.149 283.613C226.758 289.278 224.653 279.483 223.149 273.877C226.307 274.762 233.253 276.001 235.779 273.877C238.305 271.753 241.944 263.846 243.448 260.158L252.018 276.532C254.574 278.893 260.949 285.737 266.001 294.234C266.903 304.855 267.354 298.217 269.61 302.643C271.865 307.068 261.039 309.281 259.686 315.477C258.333 321.672 275.925 307.068 279.082 302.643C282.239 298.217 275.925 292.907 279.082 283.613C282.239 279.63 279.082 273.877 279.082 270.337C279.082 266.796 277.729 254.405 279.082 249.537C280.435 244.669 277.729 237.588 275.925 234.933C274.12 232.277 277.729 225.639 281.788 225.639H292.614C296.223 225.639 293.065 243.341 299.831 249.537C306.597 255.733 305.695 243.784 309.304 243.341C312.912 242.899 314.716 257.945 315.168 257.945C315.619 257.945 321.482 261.486 324.64 257.945C327.166 255.113 321.783 252.93 318.776 252.192L311.108 232.277C312.16 227.262 315.168 216.965 318.776 215.903C323.287 214.575 326.444 225.639 328.7 225.639C330.955 225.639 331.406 219.886 335.466 221.656C338.713 223.072 339.225 229.327 339.074 232.277L343.585 225.639V232.277L349.449 225.639L353.959 232.277C353.057 234.195 349.719 238.739 343.585 241.571C337.45 244.403 341.029 248.062 343.585 249.537C344.637 251.75 346.111 256.529 343.585 257.945C340.427 259.715 335.466 261.486 331.406 265.469C328.827 267.999 332.716 267.348 336.384 266.307C332.861 267.673 329.134 270.254 331.406 273.877C334.293 278.48 342.833 277.565 346.742 276.532L353.959 283.613C355.162 285.973 358.29 290.074 361.177 287.596C364.785 284.498 370.198 284.056 370.198 287.596V298.217L374.258 302.643L365.236 315.477L374.258 323Z" fill="#366C34"/>
<path d="M72.7585 132.965L70.4849 138.787C60.9574 148.606 41.0578 168.242 37.6799 168.242C34.3019 168.242 34.7567 144.724 35.4063 132.965C30.1012 131.252 18.5815 129.266 14.9437 135.02C12.3734 139.086 15.4893 171.205 19.0669 200.377L25.6929 198.904L35.4063 181.77L37.6799 172.644C41.4203 171.177 49.4385 168.242 51.5883 168.242C53.738 168.242 59.9054 161.352 62.7203 157.907L72.4336 152.77L78.9863 132.041C76.7632 132.308 74.6502 132.627 72.7585 132.965Z" fill="#130901"/>
<path d="M96.469 131.638C91.597 140.512 80.9435 158.681 77.3057 160.365C75.6781 165.925 70.9958 176.166 65.288 172.644C59.5801 169.123 55.568 172.54 54.2755 174.69L51.5883 180.23L46.1247 183.185L37.6799 189.819V202.492L42.5826 193.244C44.3118 188.906 49.8469 180.23 58.1531 180.23C66.4594 180.23 45.1708 201.464 33.4881 212.082L25.6929 218.189V224.009L63.6947 183.185L105.613 134.945C103.786 133.122 100.464 132.107 96.469 131.638Z" fill="#130901"/>
<path d="M280.632 189.819C288.687 191.463 291.567 187.764 292 185.71C288.857 184.34 253.467 178.06 236.164 175.092L220.759 177.49C218.414 177.49 213.723 178.038 213.723 180.23C213.723 182.422 208.979 184.071 206.608 184.622L195.24 191.289L179.294 193.767L171.529 198.904H160.486L145.545 203.117L139.992 202.492L152.335 193.244C151.995 193.244 160.272 182.754 168.246 172.647L168.247 172.645L168.248 172.644C175.521 163.425 182.542 154.527 182.542 154.2C182.542 153.717 181.573 149.658 179.294 147.666C181.892 154.893 162.759 170.237 160.486 171.607C158.667 172.703 154.511 178.839 152.66 181.77C150.288 185.406 145.07 193.34 143.169 195.986C141.499 198.312 140.928 198.353 138.94 198.493C138.101 198.553 137.01 198.63 135.476 198.904C131.343 199.644 129.403 204.761 128.949 207.227L107.868 213.734C106.136 214.648 102.476 216.611 101.697 217.159C100.722 217.844 84.7761 224.009 83.5077 224.009C82.2392 224.009 78.3108 225.722 76.0372 227.417C74.2183 228.772 72.6809 231.687 72.1396 232.974L60.7715 239.422C60.2302 238.28 59.0176 235.997 58.4979 235.997C57.9602 235.997 57.645 236.231 55.7103 237.672C55.3077 237.972 54.835 238.324 54.2755 238.737C52.1685 240.292 53.0684 240.719 54.0494 241.185C54.5807 241.438 55.1358 241.701 55.2499 242.162C55.3867 242.714 55.5813 243.226 55.7849 243.762C56.0644 244.499 56.3611 245.281 56.5491 246.272C56.7331 247.241 56.5002 247.113 55.9687 246.819C55.5617 246.594 54.9797 246.272 54.2755 246.272C54.1672 246.157 54.1672 245.891 54.1672 245.523C54.1672 244.787 54.1672 243.646 53.3011 242.504C52.3097 241.197 51.8857 241.885 51.4518 242.588C51.3171 242.807 51.1814 243.027 51.0275 243.189C50.5078 243.737 50.1613 246.386 50.053 247.642C49.2952 247.185 47.4546 246.272 46.1554 246.272C44.8944 246.272 44.8084 246.891 44.6809 247.809C44.6441 248.074 44.604 248.363 44.5314 248.669C44.2716 249.765 44.6397 250.724 44.8562 251.067C43.0157 251.866 39.2047 253.464 38.685 253.464C38.1653 253.464 37.1692 250.496 36.7362 249.012C36.1948 249.582 34.9173 250.793 34.1377 251.067C33.6505 251.238 33.3257 251.495 33.0009 251.752C32.6761 252.008 32.3513 252.265 31.8641 252.436C31.2401 252.656 31.1489 252.735 30.9081 252.943C30.7729 253.06 30.5905 253.218 30.2401 253.464C29.2657 254.149 32.5137 258.259 32.8385 258.259C33.0984 258.259 28.538 261.227 26.2254 262.711L27.611 273.389C38.2479 266.475 53.9443 256.486 68.536 247.623C69.079 247.293 69.6204 246.965 70.16 246.638C75.29 243.534 80.253 240.591 84.7761 237.994C85.7525 237.433 86.7084 236.888 87.6411 236.362C88.3229 235.977 88.9923 235.602 89.6481 235.237C97.9418 230.622 104.078 227.663 105.888 227.837C106.971 227.94 108.062 227.776 109.136 227.417C109.917 227.155 110.689 226.791 111.441 226.353C112.569 225.695 113.653 224.87 114.658 223.973C116.928 221.947 118.794 219.555 119.855 217.904C129.127 215.883 143.163 212.895 155.908 210.328C158.698 209.766 161.425 209.224 164.028 208.717C174.386 206.7 182.757 205.232 185.14 205.232C189.326 205.232 199.307 197.945 208.425 191.289C214.872 186.583 220.887 182.191 224.116 180.915C230.478 178.399 257.392 184.552 272.548 188.017C275.963 188.797 278.781 189.442 280.632 189.819Z" fill="#130901"/>
<path d="M65.288 188.926C78.6049 190.023 105.369 192.217 105.888 192.217C106.408 192.217 111.951 197.542 114.658 200.204C115.367 199.789 116.122 199.355 116.932 198.904C114.55 196.675 109.526 191.737 108.487 189.819C107.447 187.901 112.168 187.422 114.658 187.422L127.65 193.767C128.074 193.594 128.507 193.42 128.949 193.244C129.385 193.072 129.818 192.883 130.248 192.679L117.906 185.367L139.018 186.275C139.57 185.737 140.112 185.184 140.642 184.621C133.713 184.143 119.465 183.185 117.906 183.185C115.957 183.185 104.295 185.367 101.047 186.335C98.4486 187.109 77.8589 186.657 67.8889 186.335C67.0103 187.212 66.1422 188.077 65.288 188.926Z" fill="#130901"/>
<path d="M65.288 218.189C71.7291 214.774 76.4098 212.365 77.3057 212.082C69.0375 214.173 53.0733 210.442 46.1247 208.314L65.288 218.189Z" fill="#130901"/>
<path d="M117.581 279.211C117.04 277.27 115.957 272.841 115.957 270.649C115.957 267.909 115.957 262.771 113.034 262.429C111.877 262.293 108.938 257.982 105.426 252.831C100.068 244.971 93.3763 235.155 89.6481 235.237C88.9923 235.602 88.3229 235.977 87.6411 236.362C95.952 245.756 112.666 264.874 113.034 266.196C113.093 266.408 113.18 266.711 113.286 267.08C114.009 269.59 115.621 275.187 115.338 276.411C115.013 277.816 115.277 279.211 117.581 279.211Z" fill="#130901"/>
<path d="M139.343 236.057L114.658 223.973C113.653 224.87 112.569 225.695 111.441 226.353C117.071 228.502 129.045 233.289 131.903 235.237C134.761 237.185 136.992 238.838 137.75 239.422L139.343 236.057Z" fill="#130901"/>
<path d="M221.843 167.215C221.437 167.108 221.158 165.2 220.759 162.469C219.879 156.449 218.415 146.432 213.723 142.897C214.491 151.4 216.352 168.405 217.651 168.405C218.95 168.405 220.987 167.611 221.843 167.215Z" fill="#130901"/>
<path d="M247.502 169.955L269.589 142.212C265.052 144.362 255.458 149.482 253.379 152.77C252.049 154.874 248.846 159.328 246.08 163.174C243.443 166.84 241.203 169.955 241.362 169.955C241.418 169.955 241.512 170.068 241.65 170.236C242.31 171.036 243.987 173.068 247.502 169.955Z" fill="#130901"/>
<path fill-rule="evenodd" clip-rule="evenodd" d="M155.908 210.328C158.698 209.766 161.425 209.224 164.028 208.717C166.107 211.506 191.095 227.877 203.329 235.714C213.181 240.852 233.86 251.948 237.758 255.236C241.656 258.524 243.063 272.818 243.28 279.554C245.012 281.152 251.075 285.445 261.469 289.829C274.461 295.309 277.059 302.159 276.409 301.131C275.89 300.309 264.5 294.395 258.87 291.541C262.118 297.82 268.614 310.584 268.614 311.406V328.188C268.614 325.015 267.499 321.188 266.569 318C265.994 316.026 265.49 314.297 265.366 313.119C265.041 310.036 257.246 292.226 256.921 291.541C256.661 290.993 245.986 285.376 240.681 282.636V306.269C240.681 307.928 242.375 311.87 243.788 315.156C244.999 317.975 246.003 320.311 245.553 320.311C244.774 320.311 241.331 315.059 239.707 312.434C239.274 313.918 238.408 317.571 238.408 320.311C238.408 323.051 237.108 323.051 236.459 322.708C237.108 308.324 238.408 279.348 238.408 278.526C238.408 277.961 237.226 276.565 236.164 275.31C235.297 274.285 234.51 273.354 234.51 273.046C234.51 272.931 234.528 272.583 234.556 272.063C234.692 269.491 235.05 262.707 234.51 259.004C233.99 255.442 213.073 244.277 202.679 239.139C198.132 236.856 188.583 232.426 186.764 232.974C184.49 233.659 178.644 232.289 176.695 229.549C175.136 227.357 162.187 215.822 155.908 210.328ZM109.136 227.417C109.917 227.155 110.689 226.791 111.441 226.353C117.071 228.502 129.045 233.289 131.903 235.237C134.761 237.185 136.992 238.838 137.75 239.422L139.343 236.057C138.693 241.422 137.264 252.359 136.744 253.181C136.095 254.209 139.018 263.456 140.642 265.854C141.941 267.772 146.38 266.881 148.437 266.196C155.193 271.95 154.067 278.184 152.66 280.581C152.397 279.959 152.155 278.975 151.869 277.816C151.211 275.149 150.323 271.551 148.437 269.279C147.177 267.76 145.517 268.346 143.845 268.937C142.501 269.412 141.15 269.889 139.992 269.279C137.996 268.226 136.192 264.748 134.579 261.64C134.093 260.702 133.623 259.798 133.172 259.004C132.084 257.092 132.514 253.045 132.937 249.068C133.272 245.921 133.602 242.818 133.172 240.852C132.392 237.29 116.823 230.411 109.136 227.417ZM84.7761 237.994C85.7525 237.433 86.7084 236.888 87.6411 236.362C95.952 245.756 112.666 264.874 113.034 266.196C113.093 266.408 113.18 266.711 113.286 267.08C114.009 269.59 115.621 275.187 115.338 276.411C115.013 277.816 115.277 279.211 117.581 279.211C116.823 280.581 115.437 284.417 115.957 288.801C116.391 292.465 114.502 297.967 113.494 300.904L113.493 300.906C113.408 301.153 113.33 301.382 113.259 301.59C113.467 298.187 112.95 288.669 112.531 280.946C112.278 276.27 112.06 272.253 112.06 270.649C112.06 266.813 93.8706 247.28 84.7761 237.994ZM113.259 301.59C113.217 302.287 113.144 302.727 113.034 302.844C112.766 303.126 112.915 302.606 113.259 301.59ZM68.536 247.623C69.079 247.293 69.6204 246.965 70.16 246.638C72.5419 248.02 77.7605 251.264 79.5793 253.181C81.3981 255.099 81.6363 268.137 81.5281 274.416L79.5793 273.389V256.264C79.5793 254.346 72.2171 249.704 68.536 247.623ZM32.8385 258.259C33.0984 258.259 28.538 261.227 26.2254 262.711L23.3886 240.852C34.4544 234.793 53.0492 224.676 65.288 218.189C71.7291 214.774 76.4098 212.365 77.3057 212.082C78.609 211.67 82.7886 210.651 87.6411 209.468C94.8818 207.703 103.621 205.572 106.538 204.547C108.504 203.856 110.417 202.718 112.854 201.27L112.856 201.269L112.858 201.267L112.861 201.266C113.429 200.928 114.026 200.574 114.658 200.204C115.367 199.789 116.122 199.355 116.932 198.904C119.713 197.356 123.146 195.611 127.65 193.767C128.074 193.594 128.507 193.42 128.949 193.244C129.385 193.072 129.818 192.883 130.248 192.679C133.368 191.196 136.321 188.905 139.018 186.275C139.57 185.737 140.112 185.184 140.642 184.621C133.713 184.143 119.465 183.185 117.906 183.185C115.957 183.185 104.295 185.367 101.047 186.335C98.4486 187.109 77.8589 186.657 67.8889 186.335C67.0103 187.212 66.1422 188.077 65.288 188.926C62.7611 191.437 60.3549 193.813 58.1531 195.986C55.6629 198.445 53.4342 200.645 51.5883 202.492L77.3057 212.082C69.0375 214.173 53.0733 210.442 46.1247 208.314C44.3058 211.328 30.2094 226.01 23.3886 232.974C22.1179 224.097 20.5526 212.491 19.0669 200.377L25.6929 198.904L35.4063 181.77L37.6799 172.644C41.4203 171.177 49.4385 168.242 51.5883 168.242C53.738 168.242 59.9054 161.352 62.7203 157.907L72.4336 152.77L78.9863 132.041C84.7185 131.353 91.1823 131.017 96.469 131.638C91.597 140.512 80.9435 158.681 77.3057 160.365C75.6781 165.925 70.9958 176.166 65.288 172.644C59.5801 169.123 55.568 172.54 54.2755 174.69L51.5883 180.23L46.1247 183.185L37.6799 189.819V202.492L42.5826 193.244C44.3118 188.906 49.8469 180.23 58.1531 180.23C66.4594 180.23 45.1708 201.464 33.4881 212.082L25.6929 218.189V224.009L63.6947 183.185L105.613 134.945C107.408 136.735 107.76 139.303 105.888 142.897C101.227 151.85 86.2418 167.82 72.4336 181.77C79.5793 183.255 94.3903 185.778 96.469 183.997C99.0674 181.77 100.367 180.914 103.29 181.77C104.73 182.192 105.618 182.739 106.343 183.185C107.09 183.644 107.663 183.997 108.487 183.997C109.786 183.997 113.142 181.485 114.658 180.23L143.169 181.77C147.407 176.71 150.693 171.386 152.533 168.405C153.216 167.299 153.699 166.516 153.959 166.187C155.38 164.389 161.775 161.804 164.439 160.727C164.82 160.573 165.124 160.45 165.327 160.365C166.626 159.817 172.798 151.003 175.721 146.665C177.158 146.362 178.34 146.833 179.294 147.666C181.892 154.893 162.759 170.237 160.486 171.607C158.667 172.703 154.511 178.839 152.66 181.77C150.288 185.406 145.07 193.34 143.169 195.986C141.499 198.312 140.928 198.353 138.94 198.493C138.101 198.553 137.01 198.63 135.476 198.904C131.343 199.644 129.403 204.761 128.949 207.227L107.868 213.734C106.136 214.648 102.476 216.611 101.697 217.159C100.722 217.844 84.7761 224.009 83.5077 224.009C82.2392 224.009 78.3108 225.722 76.0372 227.417C74.2183 228.772 72.6809 231.687 72.1396 232.974L60.7715 239.422C60.2302 238.28 59.0176 235.997 58.4979 235.997C57.9602 235.997 57.645 236.231 55.7103 237.672C55.3077 237.972 54.835 238.324 54.2755 238.737C52.1685 240.292 53.0684 240.719 54.0494 241.185C54.5807 241.438 55.1358 241.701 55.2499 242.162C55.3867 242.714 55.5813 243.226 55.7849 243.762C56.0644 244.499 56.3611 245.281 56.5491 246.272C56.7331 247.241 56.5002 247.113 55.9687 246.819C55.5617 246.594 54.9797 246.272 54.2755 246.272C54.1672 246.157 54.1672 245.891 54.1672 245.523C54.1672 244.787 54.1672 243.646 53.3011 242.504C52.3097 241.197 51.8857 241.885 51.4518 242.588C51.3171 242.807 51.1814 243.027 51.0275 243.189C50.5078 243.737 50.1613 246.386 50.053 247.642C49.2952 247.185 47.4546 246.272 46.1554 246.272C44.8944 246.272 44.8084 246.891 44.6809 247.809C44.6441 248.074 44.604 248.363 44.5314 248.669C44.2716 249.765 44.6397 250.724 44.8562 251.067C43.0157 251.866 39.2047 253.464 38.685 253.464C38.1653 253.464 37.1692 250.496 36.7362 249.012C36.1948 249.582 34.9173 250.793 34.1377 251.067C33.6505 251.238 33.3257 251.495 33.0009 251.752C32.6761 252.008 32.3513 252.265 31.8641 252.436C31.2401 252.656 31.1489 252.735 30.9081 252.943C30.7729 253.06 30.5905 253.218 30.2401 253.464C29.2657 254.149 32.5137 258.259 32.8385 258.259ZM139.992 202.492L152.335 193.244C152.985 193.244 177.994 191.874 179.294 189.819C180.333 188.175 203.112 174.75 214.372 168.242C211.882 158.081 208.266 138.787 213.723 142.897C214.491 151.4 216.352 168.405 217.651 168.405C218.95 168.405 220.987 167.611 221.843 167.215C222.882 167.489 234.185 164.361 239.707 162.762L257.246 142.212H269.589C265.052 144.362 255.458 149.482 253.379 152.77C252.049 154.874 248.846 159.328 246.08 163.174C243.443 166.84 241.203 169.955 241.362 169.955C241.418 169.955 241.512 170.068 241.65 170.236C242.31 171.036 243.987 173.068 247.502 169.955C262.573 169.681 272.62 173.265 275.76 175.092L288.102 159.68L283.88 138.787L292 162.762C287.463 167.349 278.324 176.716 278.064 177.49C277.804 178.264 279.668 177.812 280.632 177.49L292 175.092V185.71C288.857 184.34 253.467 178.06 236.164 175.092L220.759 177.49C218.414 177.49 213.723 178.038 213.723 180.23C213.723 182.422 208.979 184.071 206.608 184.622L195.24 191.289L179.294 193.767L171.529 198.904H160.486L145.545 203.117L139.992 202.492Z" fill="#5F4822"/>
<path d="M280.632 177.49L292 162.762C287.463 167.349 278.324 176.716 278.064 177.49C277.804 178.264 279.668 177.812 280.632 177.49Z" fill="#130901"/>
<path d="M23.3886 232.974C22.1179 224.097 20.5526 212.491 19.0669 200.377L-2 217.159V515L65.288 504C63.7825 500.167 57.1337 488.6 42.5826 473C28.0315 457.4 26.5386 333.426 27.611 273.389L26.2254 262.711L23.3886 240.852V232.974Z" fill="#5F4822"/>
<path d="M40.3415 176.137C38.0062 176.137 37.8549 172.948 38.0711 171.353C39.8875 171.353 44.8822 172.492 47.1525 173.062C45.8552 174.087 42.6768 176.137 40.3415 176.137Z" fill="#EADBA4"/>
<path d="M41.3144 167.594C39.3683 166.91 41.963 163.835 43.2604 163.151C44.8172 163.151 49.531 159.05 51.6933 157C53.0988 157.57 55.9746 159.119 56.2341 160.759C56.5584 162.81 54.9367 165.885 53.9637 165.543C55.78 166.364 51.4771 169.075 49.0985 170.328C46.1795 170.328 50.7203 166.227 45.8551 167.594C45.8551 165.543 43.2604 168.277 41.3144 167.594Z" fill="#EADBA4"/>
<path d="M70.8294 224.664C69.532 224.664 69.8564 220.221 69.532 219.196L75.6945 215.779C76.3432 217.373 77.2514 220.836 75.6945 221.93C73.7485 223.297 74.0728 220.563 73.0998 220.563C72.1268 220.563 72.1268 224.664 70.8294 224.664Z" fill="#EADBA4"/>
<path d="M86.7221 224.664C84.9058 224.664 85.1004 222.841 85.4248 221.93L88.3438 220.563C88.5601 221.93 88.5384 224.664 86.7221 224.664Z" fill="#EADBA4"/>
<path d="M105.858 212.703C102.291 212.361 103.264 210.653 102.291 209.969C108.129 206.096 120.648 198.008 124.021 196.641C127.395 195.274 145.104 176.707 153.536 167.594L125.319 199.375C124.238 200.628 121.297 203.681 118.183 205.868C114.291 208.602 112.021 207.235 111.048 207.919C110.269 208.465 110.075 209.513 110.075 209.969C109.858 210.994 108.712 212.976 105.858 212.703Z" fill="#EADBA4"/>
<path d="M148.347 200.4C148.023 199.033 142.184 199.375 140.563 198.35C146.725 198.692 158.856 199.58 158.077 200.4C157.104 201.426 155.482 202.451 155.158 203.476C154.834 204.501 151.915 205.868 150.293 205.868C148.671 205.868 148.671 201.767 148.347 200.4Z" fill="#EADBA4"/>
<path d="M165.861 198.35C164.564 199.603 161.775 202.041 160.996 201.767C160.111 201.457 161.104 198.885 161.779 197.136L161.798 197.088L165.861 198.35Z" fill="#EADBA4"/>
<path d="M174.294 194.933C174.619 193.907 199.593 174.429 202.836 174.429C206.08 174.429 175.267 194.249 174.294 194.933Z" fill="#EADBA4"/>
<path d="M173.97 235.941C172.997 236.624 166.834 231.157 166.51 230.815L169.105 230.131C169.97 230.245 171.959 230.542 172.997 230.815C174.035 231.088 173.646 227.967 173.321 226.372C176.132 228.537 181.819 232.865 182.078 232.865C182.403 232.865 174.943 233.207 174.619 232.865C174.294 232.524 174.943 235.257 173.97 235.941Z" fill="#EADBA4"/>
<path d="M219.378 172.036C217.756 172.378 212.891 172.72 212.566 172.036C214.642 172.857 227.054 167.366 233 164.518C230.838 166.341 226.059 170.191 224.243 171.011C221.972 172.036 220.999 171.695 219.378 172.036Z" fill="#EADBA4"/>
<path d="M33.5098 196.941C31.8817 201.038 20.8103 214.352 20.1591 215.376V222.546C31.7731 210.369 55.1966 186.016 55.9781 186.016C56.955 186.016 56.955 181.919 55.0012 181.919C53.4382 181.919 50.4424 186.244 49.1399 188.406L43.2786 186.016C42.4103 188.747 40.4782 194.756 39.6967 196.941C38.9152 199.126 30.2535 208.548 26.0204 212.987C29.4937 208.435 36.4405 199.058 36.4405 197.965C36.4405 196.873 37.0917 184.537 37.4173 178.505C36.6575 183.285 34.8123 193.663 33.5098 196.941Z" fill="#DEA37B"/>
<path d="M49.1399 194.21C40.1309 204.907 21.9826 226.506 21.4616 227.325C19.5031 227.605 20.6455 229.49 21.4616 230.398C22.9812 228.236 26.2809 223.638 27.3229 222.546C28.6254 221.18 55.0012 190.454 57.6062 187.723C60.2113 184.992 74.2133 169.629 77.1439 166.898C79.4884 164.713 90.2775 150.056 95.3791 143L49.1399 194.21Z" fill="#DEA37B"/>
<path d="M33.5098 261.124L21.4616 266.927C19.942 267.952 17.554 270 20.1591 270C23.4153 270 44.744 253.613 55.9781 248.151C67.2123 242.688 77.1439 234.153 80.4002 233.812C83.0052 233.539 94.0765 227.553 99.2866 224.594C97.9841 224.935 94.6627 225.413 91.7971 224.594C88.2152 223.57 66.3982 241.664 63.7932 243.371C61.7092 244.737 57.7148 245.761 55.9781 246.102L33.5098 261.124Z" fill="#DEA37B"/>
<path d="M131.244 210.376C123.641 212.202 116.682 214.006 111.66 215.376C114.195 213.9 121.685 212.142 131.244 210.376C147.638 206.439 167.028 202.403 176.46 202.403C178.74 202.517 183.754 202.267 185.578 200.355C187.857 197.965 204.79 178.505 210 178.505L185.578 202.403C171.693 204.077 148.209 207.241 131.244 210.376Z" fill="#DEA37B"/>
<path d="M19.5 454.5C21.9 442.5 14.8333 332.833 11 279.5H15.5C18.5 333.333 24.5 442.1 24.5 446.5C24.5 452 21.5 468.5 21.5 471.5C21.5 473.9 26.8333 481.5 29.5 485H11C12.8333 479.833 17.1 466.5 19.5 454.5Z" fill="#DEA37B"/>
<path d="M29.5 460.5C29.9 454.9 20.8333 335.5 19 277L36 474.5L41.5 484V491L51 494.5L24.5 499.5C26.1667 498.333 30.2 495.7 33 494.5C35.8 493.3 34.1667 482.667 33 477.5C31.6667 474.167 29.1 466.1 29.5 460.5Z" fill="#130901"/>
<path d="M144.5 439C139.7 437.8 148.167 433.833 153 432C229.667 424.667 383.8 410 387 410C391 410 409.5 442 409.5 447.5C409.5 453 394 456.5 378 461C362 465.5 260.5 462 259 461C257.5 460 177 447.5 164 442C151 436.5 150.5 440.5 144.5 439Z" fill="#25944D"/>
<path d="M190.5 411C182.9 421.4 162.667 420.167 146.5 424.5C148 437.5 204 448 216.5 449C226.5 449.8 338 473.5 396.5 449L388 411C325.333 406.667 198.1 400.6 190.5 411Z" fill="#D1220D"/>
<path d="M193.78 432.296C196.654 432.296 224.454 438.835 237.995 442.104C237.995 444.99 221.967 449.62 213.953 451.574C206.437 446.614 178.397 443.194 165.316 442.104C173.607 438.835 190.906 432.296 193.78 432.296Z" fill="#FFF9F9"/>
<path fill-rule="evenodd" clip-rule="evenodd" d="M258.445 406.029C260.379 406.142 283.04 408.284 283.316 410.877C275.797 412.411 261.458 415.298 258.855 415.688C258.591 415.688 258.445 415.701 258.445 415.724C252.457 413.357 237.056 408.442 223.349 407.72C216.901 408.66 203.728 410.764 202.623 411.666L188.806 409.749L174.712 412.793L181.344 416.401C180.699 417.002 178.47 418.52 174.712 419.783L165.316 415.724L162 419.783L165.593 424.518L174.124 420.088C173.533 420.7 176.034 421.427 179.445 422.418C184.786 423.97 192.357 426.17 193.78 429.591C195.77 434.376 214.322 428.804 223.349 425.42C231.797 426.234 238.622 429.521 243.589 431.913C247.558 433.825 250.34 435.164 251.813 434.213L239.93 442.894C250.523 444.134 272.87 447.268 277.513 449.883L263.419 457.098L306.529 458L310.398 452.814L341.073 457.098L347.981 453.942L315.925 443.795C315.372 446.05 313.493 451.01 310.398 452.814C302.016 451.837 283.703 449.883 277.513 449.883C282.027 448.643 290.556 444.968 288.567 440.188C287.432 437.461 282.842 437.646 276.743 437.892C269.48 438.185 260.075 438.564 251.813 434.213C254.466 432.499 264.893 429.967 269.775 428.914C269.984 426.866 252.067 421.764 241.633 419.088C245.233 418.955 253.679 416.972 258.445 415.724C258.445 415.741 258.588 415.728 258.855 415.688C261.102 415.682 271.855 416.537 273.091 418.656C274.197 420.549 280.368 421.925 283.316 422.376C283.316 423.781 279.015 425.583 275.778 426.94C273.042 428.086 271.066 428.914 273.091 428.914C276.629 428.914 292.067 432.447 299.344 434.213C296.581 436.843 291.607 441.879 293.817 440.977C295.125 440.443 300.147 441.324 304.986 442.173C310.372 443.117 315.533 444.022 315.096 442.894C314.433 441.18 319.61 437.298 322.281 435.572C322.657 436.292 329.803 436.947 337.312 437.634C345.664 438.398 354.464 439.204 354.89 440.188C355.553 441.721 359.404 435.566 361.246 432.296C354.982 430.906 339.636 428.283 328.361 428.914C330.295 428.576 337.48 421.248 335.822 419.783C339.241 419.783 342.487 420.138 345.904 420.512C349.943 420.954 354.222 421.422 359.311 421.361C361.245 423.086 360.642 425.243 360.114 427.133C359.434 429.565 358.877 431.557 364.009 431.62C371.305 431.71 380.682 432.484 384.459 432.86C384.643 435.528 384.127 441.112 380.59 442.104C371.194 441.428 353.785 440.481 359.311 442.104C364.838 443.728 354.061 451.424 347.981 455.069H369.813C373.139 451.763 379.546 445.01 380.476 442.596C382.522 442.799 389.534 442.407 393.855 442.104L398 432.86H384.459C388.328 430.042 395.623 424.18 393.855 423.278C391.791 422.225 365.892 421.22 360.204 421.322C367.586 420.774 376.784 414.735 380.59 411.666L359.311 410.877C361.301 414.755 344.481 418.43 335.822 419.783C334.575 418.681 323.468 418.555 317.089 418.637C321.481 418.001 334.474 412.643 341.073 409.749C333.151 408.284 317.417 405.826 317.859 407.72C318.302 409.614 306.806 413.319 301.002 414.935C304.963 415.912 313.493 418.024 315.925 418.656C312.609 421.361 307.303 426.84 312.609 427.111C316.002 427.284 319.54 427.84 322.446 428.298C325.219 428.734 327.416 429.08 328.361 428.914C326.61 430.568 322.944 434.19 322.281 435.453C315.25 435.453 309.682 434.784 305.774 434.315C302.22 433.888 300.038 433.626 299.378 434.182C302.472 431.394 306.904 428.309 308.74 427.111C306.75 424.766 290.962 422.977 283.316 422.376C290.041 420.234 302.66 415.747 299.344 414.935C296.525 414.245 289.778 412.529 285.385 411.406C288.769 410.992 295.488 408.447 299.344 406.818L288.567 404L258.445 406.029ZM223.349 425.42C222.704 424.142 225.118 421 239.93 418.656C239.93 417.609 228.397 415.958 218.149 414.491C209.628 413.271 201.996 412.178 202.623 411.666L181.344 416.401C190.187 416.942 213.032 422.639 223.349 425.42Z" fill="#FFF9F9"/>
<path d="M221 556C237.4 553.6 263.167 530 274 518.5C291.5 518.5 384.5 529.5 392 529.5C398 529.5 384.167 559.5 376.5 574.5C364.167 580.167 335.7 594 320.5 604C305.3 614 293.5 648.833 289.5 665L256.5 727L186.5 863L104 906.5L-2 894L-39.5 750.5V679L21.5 654L104 621.5C119.667 609.5 152.5 583.3 158.5 574.5C166 563.5 200.5 559 221 556Z" fill="#ECC47A"/>
<path d="M266.959 614.732C266.959 609.198 250.32 637.925 242 652.981C322.323 677.395 372.242 620.429 381.318 608.629C388.579 599.189 384.343 565.904 381.318 550.442L409 489H381.318L351.821 510.159L331.853 523.18V581.367C324.744 592.488 309.435 617.499 305.079 628.567C299.633 642.402 301.448 614.732 298.272 601.711C295.73 591.294 289.044 606.051 286.019 614.732L266.959 652.981V614.732Z" fill="#DAEE6F"/>
<path d="M45.8859 617.177C44.7464 611.762 66.9445 636.447 78.1859 649.467C4.61065 689.897 -55.9677 644.43 -67.279 634.752C-76.328 627.009 -79.0367 593.566 -79.26 577.812L-119 523.386L-91.9112 517.686L-58.6893 532.318L-36.4687 540.949L-24.4877 597.889C-15.2404 607.308 4.88973 628.631 11.4319 638.565C19.6095 650.982 12.1358 624.279 12.5632 610.882C12.9052 600.166 22.4866 613.23 27.2345 621.102L53.7615 654.606L45.8859 617.177Z" fill="#DAEE6F"/>
<path d="M330 811.5C329 825.5 327.6 857.2 330 872C345.5 874.666 379.3 880 390.5 880C401.7 880 423.5 842.667 433 824C423.5 816.667 401.7 801.7 390.5 800.5C379.3 799.3 345.5 807.333 330 811.5Z" fill="#CAC3B4"/>
<path d="M365.5 861C356.7 861 338.167 828.333 330 812C324.4 885.2 341.667 884.167 351 874.5C368.333 875.5 404.3 876.9 409.5 874.5C414.7 872.1 421.333 853.167 424 844L398 861H365.5Z" fill="#8A8A8A"/>
<path d="M103.428 609.757C103.86 615.746 104.464 629.306 103.428 635.637C96.7426 636.778 82.1632 639.06 77.3321 639.06C72.5011 639.06 63.0978 623.089 59 615.104C63.0978 611.967 72.5011 605.565 77.3321 605.052C82.1632 604.538 96.7426 607.975 103.428 609.757Z" fill="#CAC3B4"/>
<path d="M88.1157 630.931C91.9116 630.931 99.9058 616.958 103.428 609.971C105.844 641.284 98.3961 640.841 94.3702 636.706C86.8936 637.134 71.3796 637.733 69.1366 636.706C66.8936 635.68 64.0324 627.581 62.8821 623.659L74.0971 630.931H88.1157Z" fill="#8A8A8A"/>
<path d="M7.5 502.5C6.7 499.3 4.16667 510.833 3 517C5.8 517 14.1667 521 18 523C21.5 520.167 28.8 514.5 30 514.5C31.5 514.5 35 517 38 520C41 523 42 517 43.5 512.5C44.7 508.9 51.3333 511 54.5 512.5C56.6667 512 61.4 510.6 63 509C65 507 67 502.5 67 500.5C67 498.9 63 489.5 61 485V497.5C58 497.5 51.3 498.8 48.5 504C45 510.5 25 509 23.5 509C22.3 509 23 501.333 23.5 497.5L9.5 509C9.16667 508.167 8.3 505.7 7.5 502.5Z" fill="#25944D"/>
<path d="M328.654 387C326.987 390.833 324.154 398.8 326.154 400C326.523 400.222 327.011 400.435 327.577 400.638C329.128 401.194 331.266 401.671 333.154 402.019C334.313 402.232 335.378 402.397 336.154 402.5L337.654 421.5C343.654 422.667 356.254 424.3 358.654 421.5C361.654 418 357.154 383 346.654 377.5C345.457 376.874 344.288 376.517 343.154 376.38C338.903 375.867 335.157 378.446 332.417 381.5C330.755 383.353 329.463 385.381 328.654 387Z" fill="#FC8282"/>
<path d="M301.154 426C300.154 429 304.154 436 309.654 436C314.054 436 321.746 435.333 325.042 435C323.343 432.606 323.212 427.286 323.469 423.5C320.224 423.424 315.454 423.438 311.154 423.705C306.039 424.022 301.588 424.696 301.154 426Z" fill="#FFC677"/>
<path d="M323.469 423.5C323.519 422.765 323.583 422.087 323.654 421.5H327.577C329.769 417.679 333.954 408.434 333.154 402.019C331.266 401.671 329.128 401.194 327.577 400.638C326.769 404.592 324.854 412.5 323.654 412.5C322.454 412.5 314.82 419.97 311.154 423.705C315.454 423.438 320.224 423.424 323.469 423.5Z" fill="#FFC677"/>
<path d="M321.654 377.5H330.654C331.242 376.667 332.565 374.7 333.154 373.5C333.89 372 334.154 370.5 333.154 368.5C332.154 366.5 332.417 367 330.654 365C328.89 363 323.654 361 323.469 361C323.325 361 321.085 361.912 320.106 363.5C319.83 363.948 319.654 364.45 319.654 365C319.654 367 318.32 369.833 317.654 371L321.654 373.5V377.5Z" fill="#FFC677"/>
<path d="M358.654 421.5C356.254 424.3 343.654 422.667 337.654 421.5H327.577H323.654C323.583 422.087 323.519 422.765 323.469 423.5C323.212 427.286 323.343 432.606 325.042 435C325.357 435.443 325.725 435.785 326.154 436C329.354 437.6 336.487 436 339.654 435C343.487 435.333 351.754 435.3 354.154 432.5C356.554 429.7 358.154 424 358.654 421.5Z" fill="#5DAE74"/>
<path d="M330.654 377.5L332.417 381.5C335.157 378.446 338.903 375.867 343.154 376.38C343.987 375.587 345.654 373.4 345.654 371C345.654 368 340.654 366 339.654 363.5C338.854 361.5 336.987 356.333 336.154 354C333.295 354.5 326.393 355.5 321.654 355.5C316.915 355.5 318.647 360.833 320.106 363.5C321.085 361.912 323.325 361 323.469 361C323.654 361 328.89 363 330.654 365C332.417 367 332.154 366.5 333.154 368.5C334.154 370.5 333.89 372 333.154 373.5C332.565 374.7 331.242 376.667 330.654 377.5Z" fill="#582C29"/>
<path d="M354.5 422C351.3 422 341.167 409 336.5 402.5L337.5 421.5C342.7 424.3 353 423 357.5 422H354.5Z" fill="#BC4646"/>
<path d="M323.5 421.5C325.167 424.5 330.2 430.6 337 431C343.8 431.4 351.5 431.833 354.5 432C352.167 434 345.9 437.2 339.5 434C337.167 435.167 331.3 437.3 326.5 436.5C321.7 435.7 322.5 426.167 323.5 421.5Z" fill="#618F6E"/>
<path d="M228.132 415.756C227.458 417.267 219.657 414.48 219.179 413.523C218.845 415.69 218.379 420.623 219.179 423.023C219.275 423.313 219.447 423.589 219.679 423.851C221.849 426.302 229.337 427.552 230.82 427.816C232.46 428.108 247.179 423.023 248.679 422.023C249.038 421.784 249.34 421.43 249.591 421.023C250.389 419.731 250.679 417.904 250.679 417.523C250.679 417.143 247.783 416.473 246.179 416.174C245.675 416.081 245.298 416.023 245.179 416.023C244.679 416.023 243.679 417.023 240.179 418.523C237.379 419.723 230.679 418.69 227.679 418.023L228.132 415.756Z" fill="#FFD389"/>
<path d="M245.179 427.816C243.679 427.816 239.179 431.523 238.679 432.523C238.242 433.397 238.187 438.089 237.179 439.259C242.012 439.769 252.279 440.635 254.679 440.023C257.079 439.412 258.345 437.102 258.679 436.023C260.845 436.69 265.179 437.423 265.179 435.023C265.179 432.023 262.179 427.523 254.179 425.523L250.179 428.023C249.012 427.954 246.379 427.816 245.179 427.816Z" fill="#FFD389"/>
<path d="M245.679 387.523L240.679 382.023H230.179C229.158 385.98 228.293 392.969 230.82 396.023C231.592 396.957 232.681 397.523 234.179 397.523C236.078 397.523 237.76 396.936 239.216 396.023C242.669 393.86 244.858 389.867 245.679 387.523Z" fill="#FFD389"/>
<path d="M240.679 382.023L245.679 387.523H249.679V382.023L244.179 375.023C241.512 375.19 235.779 375.423 234.179 375.023C232.579 374.623 230.845 379.523 230.179 382.023H240.679Z" fill="#470B00"/>
<path d="M234.179 397.523C232.681 397.523 231.592 396.957 230.82 396.023C229.939 396.523 228.379 397.723 229.179 398.523C229.979 399.323 232.845 402.523 234.179 404.023L239.179 399.523L239.216 396.023C237.76 396.936 236.078 397.523 234.179 397.523Z" fill="#FFD389"/>
<path d="M234.179 404.023C232.845 402.523 229.979 399.323 229.179 398.523C227.179 397.357 222.879 395.923 221.679 399.523C220.179 404.023 218.679 412.523 219.179 413.523C219.657 414.48 227.458 417.267 228.132 415.756L228.179 415.523C228.179 415.61 228.163 415.687 228.132 415.756L227.679 418.023C230.679 418.69 237.379 419.723 240.179 418.523C243.679 417.023 244.679 416.023 245.179 416.023C245.298 416.023 245.675 416.081 246.179 416.174C246.345 415.791 246.479 413.623 245.679 408.023C244.879 402.423 241.012 400.023 239.179 399.523L234.179 404.023Z" fill="#9EBB9F"/>
<path d="M248.679 422.023C247.179 423.023 232.46 428.108 230.82 427.816C229.337 427.552 221.849 426.302 219.679 423.851C218.679 426.742 217.079 433.023 218.679 435.023C220.679 437.523 235.179 439.523 236.679 439.523C236.868 439.523 237.033 439.428 237.179 439.259C238.187 438.089 238.242 433.397 238.679 432.523C239.179 431.523 243.679 427.816 245.179 427.816C246.379 427.816 249.012 427.954 250.179 428.023L254.179 425.523L249.591 421.023C249.34 421.43 249.038 421.784 248.679 422.023Z" fill="#628BA1"/>
<path d="M273.023 411.488L274.523 407.488L263.523 407.03L265.023 418.988C270.356 421.822 281.123 427.788 281.523 428.988C282.023 430.488 284.523 431.488 285.023 432.488C285.523 433.488 291.023 429.988 291.523 428.988C291.923 428.188 291.356 425.655 291.023 424.488L284.523 422.488L280.023 418.184L273.023 411.488Z" fill="#FECF8E"/>
<path d="M285.023 366.989C283.423 364.989 278.023 367.822 275.523 369.489C275.523 373.155 275.823 380.788 277.023 381.988C277.252 382.218 277.599 382.436 278.023 382.639C280.361 383.759 285.023 384.412 285.023 383.988C285.023 383.683 286.38 382.195 287.542 380.988C287.903 380.613 288.246 380.265 288.523 379.988C289.356 379.322 291.023 377.788 291.023 376.988C291.023 375.988 291.346 373.489 289.773 373.489L288.523 374.489C288.023 372.822 286.623 368.989 285.023 366.989Z" fill="#FECF8E"/>
<path d="M285.023 383.988C285.023 384.412 280.361 383.759 278.023 382.639L275.523 387.988C277.689 389.155 282.323 391.288 283.523 390.488C285.023 389.488 291.023 387.988 289.773 386.488C288.773 385.288 287.869 382.322 287.542 380.988C286.38 382.195 285.023 383.683 285.023 383.988Z" fill="#FECF8E"/>
<path d="M305.023 424.988L300.023 422.929L291.523 433.988C289.869 435.322 286.758 438.188 287.542 438.988C288.523 439.988 290.023 442.988 293.023 441.488C295.423 440.288 299.023 435.655 300.523 433.488L305.023 424.988Z" fill="#FECF8E"/>
<path d="M309.523 405.488C309.291 405.257 308.847 404.492 308.435 403.488C307.464 404.322 305.123 406.197 303.523 407.03C303.053 407.274 302.343 407.346 301.523 407.307V409.488L303.523 412.488C305.885 411.488 310.393 408.688 309.523 405.488Z" fill="#FECF8E"/>
<path d="M305.523 396.488C305.023 395.488 300.523 393.488 300.023 393.488C299.7 393.488 296.885 394.735 294.523 395.353C294.523 399.861 295.189 404.322 295.523 405.988C296.936 406.479 299.547 407.212 301.523 407.307C302.343 407.346 303.053 407.274 303.523 407.03C305.123 406.197 307.464 404.322 308.435 403.488C307.956 402.321 307.523 400.833 307.523 399.488C307.523 396.988 306.023 397.488 305.523 396.488Z" fill="#FECF8E"/>
<path d="M298.523 389.488C295.689 391.155 290.323 394.688 291.523 395.488C292.056 395.844 293.22 395.694 294.523 395.353C296.885 394.735 299.7 393.488 300.023 393.488C300.523 393.488 305.023 395.488 305.523 396.488C306.023 397.488 307.523 396.988 307.523 399.488C307.523 400.833 307.956 402.321 308.435 403.488C308.847 404.492 309.291 405.257 309.523 405.488C310.023 405.988 316.523 408.488 317.023 409.488C317.084 409.537 317.158 409.606 317.244 409.693C317.997 409.945 319.7 407.666 317.023 404.988C314.623 402.588 312.023 398.322 311.023 396.488C311.189 394.155 311.323 389.488 310.523 389.488C309.523 389.488 306.023 386.488 298.523 389.488Z" fill="#6F4931"/>
<path d="M275.523 364.989V369.489C278.023 367.822 283.423 364.989 285.023 366.989C286.623 368.989 288.023 372.822 288.523 374.489L289.773 373.489L291.023 372.489C292.189 370.655 293.323 366.089 288.523 362.489C283.723 358.889 277.856 362.655 275.523 364.989Z" fill="#5E421A"/>
<path d="M283.523 390.488C282.323 391.288 277.689 389.155 275.523 387.988C274.356 387.655 271.623 387.188 270.023 387.988C268.023 388.988 264.023 395.988 263.523 399.488C263.123 402.288 262.689 405.655 262.523 406.988L263.523 407.03L274.523 407.488L273.023 411.488L280.023 418.184C280.863 418.988 295.023 417.488 296.023 415.488C296.247 415.04 296.398 415.105 296.495 415.488C296.373 413.332 299.796 410.59 301.523 409.488V407.307C299.547 407.212 296.936 406.479 295.523 405.988C295.189 404.322 294.523 399.861 294.523 395.353C293.22 395.694 292.056 395.844 291.523 395.488C290.323 394.688 295.689 391.155 298.523 389.488L289.773 386.488C291.023 387.988 285.023 389.488 283.523 390.488Z" fill="#8DAAE1"/>
<path d="M317.023 409.488C316.523 408.488 310.023 405.988 309.523 405.488C310.393 408.688 305.885 411.488 303.523 412.488L301.523 409.488C299.796 410.59 296.373 413.332 296.495 415.488C296.745 416.474 296.643 419.569 296.523 421.488L300.023 422.929L305.023 424.988H312.023H316.023C318.189 422.488 322.523 417.388 322.523 416.988C322.523 416.519 318.557 411.024 317.244 409.693C317.153 409.663 317.076 409.596 317.023 409.488Z" fill="#FFAB36"/>
<path d="M284.523 422.488L291.023 424.488L296.523 421.488C296.643 419.569 296.745 416.474 296.495 415.488C296.398 415.105 296.247 415.04 296.023 415.488C295.023 417.488 280.863 418.988 280.023 418.184L284.523 422.488Z" fill="#1D3941"/>
<path d="M285.023 432.488C284.523 431.488 282.023 430.488 281.523 428.988C281.123 427.788 270.356 421.822 265.023 418.988C263.523 418.655 260.323 418.688 259.523 421.488C258.523 424.988 258.523 426.488 263.523 428.988C267.523 430.988 279.523 432.155 285.023 432.488Z" fill="#1D3941"/>
<path d="M233 396C235.8 395.6 241.167 388.5 243.5 385L245.5 387.5C244.5 389.5 242.1 393.9 240.5 395.5C240.258 395.742 239.913 395.94 239.5 396.101L239 399.5L234 404L237.5 396.565C234.356 396.966 230.507 396.356 233 396Z" fill="#E0AF5D"/>
<path d="M225.5 421L226 416.5L228 416C227.833 416.5 227.5 417.6 227.5 418C227.5 418.5 232.5 420.5 231.5 421C230.7 421.4 227.167 421.167 225.5 421Z" fill="#E0AF5D"/>
<path d="M257.5 433C256.7 430.6 252.167 428.667 250 428C257.6 428.8 259.167 433.333 259 435.5C258.833 435.667 258.3 435.4 257.5 433Z" fill="#E0AF5D"/>
<path d="M271 413C270.6 412.6 273.167 409.167 274.5 407.5C274 408.667 273 411.1 273 411.5C273 411.9 280.667 419 284.5 422.5C280.167 419.5 271.4 413.4 271 413Z" fill="#E0AF5D"/>
<path d="M287 376C287.8 374.4 286.333 369.667 285.5 367.5L288.5 374.5C288.5 375.333 288.3 377.6 287.5 380C286.7 382.4 284.167 382.333 283 382C284 380.667 286.2 377.6 287 376Z" fill="#E0AF5D"/>
<path d="M289.5 379C290.3 377.8 290.5 374.833 290.5 373.5C291.3 373.9 291.167 376 291 377C290.167 378.167 288.7 380.2 289.5 379Z" fill="#E0AF5D"/>
<path d="M283 390.5C284 390 286 382.5 286 382L287.5 381C288.167 382.333 289.6 385.4 290 387C290.5 389 282 391 283 390.5Z" fill="#E0AF5D"/>
<path d="M299.414 433.798C300.64 430.896 302.116 426.957 303 424.5C304.2 424.9 304.833 425 305 425C303.441 427.384 301.085 431.05 299.414 433.798C298.561 435.818 297.828 437.336 297.5 437.5C297.14 437.68 298.048 436.045 299.414 433.798Z" fill="#E0AF5D"/>
<path d="M307 435.5C307.8 435.5 317.667 431.5 322.5 429.5L324 435.5H307Z" fill="#E0AF5D"/>
<path d="M322.5 421.5L332 402H333C334.2 406.8 329.5 417 327 421.5H322.5Z" fill="#E0AF5D"/>
<path d="M322 377.5C332.8 375.1 331.167 367.167 329 363.5C336.6 367.9 333.5 374.667 331 377.5H322Z" fill="#E0AF5D"/>
<path d="M320 370.5L321 367L322 373L320 370.5Z" fill="#E0AF5D"/>
<path d="M362.175 481.901C361.825 480.485 365.02 477.277 366.661 475.85C367.623 476.533 369.117 477.586 370.357 478.439C370.334 478.764 370.337 479.089 370.362 479.41L366.621 478.709C365.285 480.363 362.526 483.318 362.175 481.901Z" fill="#5D4439"/>
<path fill-rule="evenodd" clip-rule="evenodd" d="M420.808 495.196C426.17 492.686 422.368 486.157 418.997 484.371L406.766 478.439L391.232 477.736L381.942 480.178C380.699 476.665 377.124 470.525 372.766 474.072C372.567 474.234 372.382 474.399 372.211 474.567C370.984 475.769 370.452 477.112 370.357 478.439C370.334 478.764 370.337 479.089 370.362 479.41C370.612 482.601 373.07 485.479 373.988 485.816C375.078 486.217 379.112 484.685 381.304 483.738L381.526 489.078L372.487 489.575L374.237 504.963L373.793 507.702C375.337 507.647 378.068 506.694 376.634 503.315C375.2 499.937 374.879 493.703 374.899 491.008L382.448 491.242L378.924 492.921C379.271 494.322 379.812 497.265 379.202 497.822C378.592 498.38 378.419 499.948 378.409 500.663L382.943 499.343L380.877 494.013L388.146 489.739C388.566 490.022 389.004 490.301 389.46 490.573C389.782 493.724 390.331 498.975 390.412 499.303L390.85 501.073L394.119 499.172L391.642 491.751C391.88 491.866 392.122 491.98 392.368 492.09C393.876 492.769 395.346 493.109 396.73 493.213L401.664 497.924L399.449 507.111L400.982 513.308C400.041 514.341 400.024 515.485 400.134 515.928C401.657 516.038 404.67 516.125 404.539 515.594C404.499 515.433 404.397 515.11 404.267 514.698C403.861 513.408 403.181 511.251 403.279 510.503C403.353 509.941 403.36 506.161 403.366 502.79L403.366 502.789C403.371 500.246 403.375 497.936 403.408 497.416C403.459 496.59 401.643 494.401 400.331 492.974C402.67 492.486 404.504 491.448 405.472 490.646C406.581 491.811 409.692 494.537 413.511 495.636C414.657 498.54 418.718 506.801 420.759 510.87C421.166 510.752 421.892 510.161 421.541 508.744C421.211 507.407 418.084 500.151 416.303 496.099C416.986 496.126 417.68 496.086 418.38 495.964C421.527 500.221 424.623 503.063 425.778 503.951C426.859 502.877 422.915 497.667 420.808 495.196Z" fill="#AE5D39"/>
<path d="M366.848 466.779L372.766 474.072C372.567 474.234 372.382 474.399 372.211 474.567L366.753 469.417C365.46 470.742 362.831 473.216 362.656 472.508C362.481 471.8 365.378 468.394 366.848 466.779Z" fill="#5D4439"/>
<path d="M370.379 478.801C374.992 486.568 378.589 482.262 379.811 479.138L385.231 480.644C383.296 482.394 378.568 485.906 375.14 485.955C371.712 486.005 370.537 481.206 370.379 478.801Z" fill="#985233"/>
<path d="M382.996 491.259C383.973 490.421 385.964 488.592 386.111 487.979C385.588 488.132 383.704 490.341 382.952 490.323C382.199 490.305 374.785 490.566 374.316 490.94C373.942 491.239 374.855 501.934 375.358 507.245C376.041 506.73 377.328 505.532 377.013 504.865C376.698 504.197 375.506 495.497 374.949 491.23L382.996 491.259Z" fill="#985233"/>
<path d="M381.102 494.184C380.992 493.741 387.88 489.837 388.054 489.787C386.527 489.662 382.478 492.439 380.644 493.843L381.718 499.699C382.085 499.671 382.889 499.595 383.168 499.514C383.517 499.412 381.211 494.626 381.102 494.184Z" fill="#985233"/>
<path d="M396.878 492.201C396.232 492.009 389.242 489.046 385.827 487.589C386.484 490.245 393.225 492.552 396.573 493.238C396.904 493.063 397.523 492.392 396.878 492.201Z" fill="#985233"/>
<path d="M394.115 499.173L391.556 491.852C391.187 493.383 392.197 499.732 392.306 500.175C392.394 500.529 393.549 499.655 394.115 499.173Z" fill="#985233"/>
<path d="M422.852 493.652C424.551 491.449 420.532 488.555 418.31 487.383C419.165 488.32 420.882 490.525 420.909 491.845C420.937 493.166 417.871 495.182 416.334 496.025C417.225 496.102 418.815 496.023 420.306 495.453C422.1 498.927 425.73 505.437 425.894 503.681C426.058 501.925 422.686 497.266 420.98 495.156C421.689 494.799 422.344 494.311 422.852 493.652Z" fill="#985233"/>
<path d="M409.739 487.506C409.694 487.556 409.655 487.692 409.622 487.889L408.707 490.891L409.449 491.624C409.448 490.603 409.485 488.715 409.622 487.889L409.739 487.506Z" fill="#985233"/>
<path d="M410.875 489.073L410.959 489.286C411.257 490.4 410.121 492.839 409.473 493.989L413.389 495.459L410.959 489.286C410.938 489.208 410.91 489.137 410.875 489.073Z" fill="#985233"/>
<path d="M403.468 496.925L400.171 492.665C400.958 494.334 402.575 497.849 402.751 498.557C402.926 499.265 402.428 510.356 402.158 515.813C403.449 516.196 404.207 515.532 404.425 515.153L403.429 511.884L403.468 496.925Z" fill="#985233"/>
<path d="M338.175 597.901C337.825 596.485 341.02 593.277 342.661 591.85C343.623 592.533 345.117 593.586 346.357 594.439C346.334 594.764 346.337 595.089 346.362 595.41L342.621 594.709C341.285 596.363 338.526 599.318 338.175 597.901Z" fill="#5D4439"/>
<path fill-rule="evenodd" clip-rule="evenodd" d="M396.808 611.196C402.17 608.686 398.368 602.157 394.997 600.371L382.766 594.439L367.232 593.736L357.942 596.178C356.699 592.665 353.124 586.525 348.766 590.072C348.567 590.234 348.382 590.399 348.211 590.567C346.984 591.769 346.452 593.112 346.357 594.439C346.334 594.764 346.337 595.089 346.362 595.41C346.612 598.601 349.07 601.479 349.988 601.816C351.078 602.217 355.112 600.685 357.304 599.738L357.526 605.078L348.487 605.575L350.237 620.963L349.793 623.702C351.337 623.647 354.068 622.694 352.634 619.315C351.2 615.937 350.879 609.703 350.899 607.008L358.448 607.242L354.924 608.921C355.271 610.322 355.812 613.265 355.202 613.822C354.592 614.38 354.419 615.948 354.409 616.663L358.943 615.343L356.877 610.013L364.146 605.739C364.566 606.022 365.004 606.301 365.46 606.573C365.782 609.724 366.331 614.975 366.412 615.303L366.85 617.073L370.119 615.172L367.642 607.751C367.88 607.866 368.122 607.98 368.368 608.09C369.876 608.769 371.346 609.109 372.73 609.213L377.664 613.924L375.449 623.111L376.982 629.308C376.041 630.341 376.024 631.485 376.134 631.928C377.657 632.038 380.67 632.125 380.539 631.594C380.499 631.433 380.397 631.11 380.267 630.698C379.861 629.408 379.181 627.251 379.279 626.503C379.353 625.941 379.36 622.161 379.366 618.79L379.366 618.789C379.371 616.246 379.375 613.936 379.408 613.416C379.459 612.59 377.643 610.401 376.331 608.974C378.67 608.486 380.504 607.448 381.472 606.646C382.581 607.811 385.692 610.537 389.511 611.636C390.657 614.54 394.718 622.801 396.759 626.87C397.166 626.752 397.892 626.161 397.541 624.744C397.211 623.407 394.084 616.151 392.303 612.099C392.986 612.126 393.68 612.086 394.38 611.964C397.527 616.221 400.623 619.063 401.778 619.951C402.859 618.877 398.915 613.667 396.808 611.196Z" fill="#AE5D39"/>
<path d="M342.848 582.779L348.766 590.072C348.567 590.234 348.382 590.399 348.211 590.567L342.753 585.417C341.46 586.742 338.831 589.216 338.656 588.508C338.481 587.8 341.378 584.394 342.848 582.779Z" fill="#5D4439"/>
<path d="M346.379 594.801C350.992 602.568 354.589 598.262 355.811 595.138L361.231 596.644C359.296 598.394 354.568 601.906 351.14 601.955C347.712 602.005 346.537 597.206 346.379 594.801Z" fill="#985233"/>
<path d="M385.965 599.881L391.941 611.19L391.407 612.057L385.859 603.233L385.165 607.232L382.286 606.172L385.965 599.881Z" fill="#AE5D39"/>
<path d="M358.996 607.259C359.973 606.421 361.964 604.592 362.111 603.979C361.588 604.132 359.704 606.341 358.952 606.323C358.199 606.305 350.785 606.566 350.316 606.94C349.942 607.239 350.855 617.934 351.358 623.245C352.041 622.73 353.328 621.532 353.013 620.865C352.698 620.197 351.506 611.497 350.949 607.23L358.996 607.259Z" fill="#985233"/>
<path d="M357.102 610.184C356.992 609.741 363.88 605.837 364.054 605.787C362.527 605.662 358.478 608.439 356.644 609.843L357.718 615.699C358.085 615.671 358.889 615.595 359.168 615.514C359.517 615.412 357.211 610.626 357.102 610.184Z" fill="#985233"/>
<path d="M372.878 608.201C372.232 608.009 365.242 605.046 361.827 603.589C362.484 606.245 369.225 608.552 372.573 609.238C372.904 609.063 373.523 608.392 372.878 608.201Z" fill="#985233"/>
<path d="M370.115 615.173L367.556 607.852C367.187 609.383 368.197 615.732 368.306 616.175C368.394 616.529 369.549 615.655 370.115 615.173Z" fill="#985233"/>
<path d="M397.712 624.695C397.413 622.884 389.872 607.364 386.139 599.831C384.963 601.122 383.116 604.744 382.34 606.394L383.093 606.412L386.009 600.817L397.049 626.549C397.394 626.686 398.01 626.506 397.712 624.695Z" fill="#985233"/>
<path d="M398.852 609.652C400.551 607.449 396.532 604.555 394.31 603.383C395.165 604.32 396.882 606.525 396.909 607.845C396.937 609.166 393.871 611.182 392.334 612.025C393.225 612.102 394.815 612.023 396.306 611.453C398.1 614.927 401.73 621.437 401.894 619.681C402.058 617.925 398.686 613.266 396.98 611.156C397.689 610.799 398.344 610.311 398.852 609.652Z" fill="#985233"/>
<path d="M385.739 603.506C385.694 603.556 385.655 603.692 385.622 603.889L384.707 606.891L385.449 607.624C385.448 606.603 385.485 604.715 385.622 603.889L385.739 603.506Z" fill="#985233"/>
<path d="M386.875 605.073L386.959 605.286C387.257 606.4 386.121 608.839 385.473 609.989L389.389 611.459L386.959 605.286C386.938 605.208 386.91 605.137 386.875 605.073Z" fill="#985233"/>
<path d="M379.468 612.925L376.171 608.665C376.958 610.334 378.575 613.849 378.751 614.557C378.926 615.265 378.428 626.356 378.158 631.813C379.449 632.196 380.207 631.532 380.425 631.153L379.429 627.884L379.468 612.925Z" fill="#985233"/>
<path d="M321.175 639.901C320.825 638.485 324.02 635.277 325.661 633.85C326.623 634.533 328.117 635.586 329.357 636.439C329.334 636.764 329.337 637.089 329.362 637.41L325.621 636.709C324.285 638.363 321.526 641.318 321.175 639.901Z" fill="#5D4439"/>
<path fill-rule="evenodd" clip-rule="evenodd" d="M379.808 653.196C385.17 650.686 381.368 644.157 377.997 642.371L365.766 636.439L350.232 635.736L340.942 638.178C339.699 634.665 336.124 628.525 331.766 632.072C331.567 632.234 331.382 632.399 331.211 632.567C329.984 633.769 329.452 635.112 329.357 636.439C329.334 636.764 329.337 637.089 329.362 637.41C329.612 640.601 332.07 643.479 332.988 643.816C334.078 644.217 338.112 642.685 340.304 641.738L340.526 647.078L331.487 647.575L333.237 662.963L332.793 665.702C334.337 665.647 337.068 664.694 335.634 661.315C334.2 657.937 333.879 651.703 333.899 649.008L341.448 649.242L337.924 650.921C338.271 652.322 338.812 655.265 338.202 655.822C337.592 656.38 337.419 657.948 337.409 658.663L341.943 657.343L339.877 652.013L347.146 647.739C347.566 648.022 348.004 648.301 348.46 648.573C348.782 651.724 349.331 656.975 349.412 657.303L349.85 659.073L353.119 657.172L350.642 649.751C350.88 649.866 351.122 649.98 351.368 650.09C352.876 650.769 354.346 651.109 355.73 651.213L360.664 655.924L358.449 665.111L359.982 671.308C359.041 672.341 359.024 673.485 359.134 673.928C360.657 674.038 363.67 674.125 363.539 673.594C363.499 673.433 363.397 673.11 363.267 672.698C362.861 671.408 362.181 669.251 362.279 668.503C362.353 667.941 362.36 664.161 362.366 660.79L362.366 660.789C362.371 658.246 362.375 655.936 362.408 655.416C362.459 654.59 360.643 652.401 359.331 650.974C361.67 650.486 363.504 649.448 364.472 648.646C365.581 649.811 368.692 652.537 372.511 653.636C373.657 656.54 377.718 664.801 379.759 668.87C380.166 668.752 380.892 668.161 380.541 666.744C380.211 665.407 377.084 658.151 375.303 654.099C375.986 654.126 376.68 654.086 377.38 653.964C380.527 658.221 383.623 661.063 384.778 661.951C385.859 660.877 381.915 655.667 379.808 653.196Z" fill="#AE5D39"/>
<path d="M325.848 624.779L331.766 632.072C331.567 632.234 331.382 632.399 331.211 632.567L325.753 627.417C324.46 628.742 321.831 631.216 321.656 630.508C321.481 629.8 324.378 626.394 325.848 624.779Z" fill="#5D4439"/>
<path d="M329.379 636.801C333.992 644.568 337.589 640.262 338.811 637.138L344.231 638.644C342.296 640.394 337.568 643.906 334.14 643.955C330.712 644.005 329.537 639.206 329.379 636.801Z" fill="#985233"/>
<path d="M368.965 641.881L374.941 653.19L374.407 654.057L368.859 645.233L368.165 649.232L365.286 648.172L368.965 641.881Z" fill="#AE5D39"/>
<path d="M341.996 649.259C342.973 648.421 344.964 646.592 345.111 645.979C344.588 646.132 342.704 648.341 341.952 648.323C341.199 648.305 333.785 648.566 333.316 648.94C332.942 649.239 333.855 659.934 334.358 665.245C335.041 664.73 336.328 663.532 336.013 662.865C335.698 662.197 334.506 653.497 333.949 649.23L341.996 649.259Z" fill="#985233"/>
<path d="M340.102 652.184C339.992 651.741 346.88 647.837 347.054 647.787C345.527 647.662 341.478 650.439 339.644 651.843L340.718 657.699C341.085 657.671 341.889 657.595 342.168 657.514C342.517 657.412 340.211 652.626 340.102 652.184Z" fill="#985233"/>
<path d="M355.878 650.201C355.232 650.009 348.242 647.046 344.827 645.589C345.484 648.245 352.225 650.552 355.573 651.238C355.904 651.063 356.523 650.392 355.878 650.201Z" fill="#985233"/>
<path d="M353.115 657.173L350.556 649.852C350.187 651.383 351.197 657.732 351.306 658.175C351.394 658.529 352.549 657.655 353.115 657.173Z" fill="#985233"/>
<path d="M380.712 666.695C380.413 664.884 372.872 649.364 369.139 641.831C367.963 643.122 366.116 646.744 365.34 648.394L366.093 648.412L369.009 642.817L380.049 668.549C380.394 668.686 381.01 668.506 380.712 666.695Z" fill="#985233"/>
<path d="M381.852 651.652C383.551 649.449 379.532 646.555 377.31 645.383C378.165 646.32 379.882 648.525 379.909 649.845C379.937 651.166 376.871 653.182 375.334 654.025C376.225 654.102 377.815 654.023 379.306 653.453C381.1 656.927 384.73 663.437 384.894 661.681C385.058 659.925 381.686 655.266 379.98 653.156C380.689 652.799 381.344 652.311 381.852 651.652Z" fill="#985233"/>
<path d="M368.739 645.506C368.694 645.556 368.655 645.692 368.622 645.889L367.707 648.891L368.449 649.624C368.448 648.603 368.485 646.715 368.622 645.889L368.739 645.506Z" fill="#985233"/>
<path d="M369.875 647.073L369.959 647.286C370.257 648.4 369.121 650.839 368.473 651.989L372.389 653.459L369.959 647.286C369.938 647.208 369.91 647.137 369.875 647.073Z" fill="#985233"/>
<path d="M362.468 654.925L359.171 650.665C359.958 652.334 361.575 655.849 361.751 656.557C361.926 657.265 361.428 668.356 361.158 673.813C362.449 674.196 363.207 673.532 363.425 673.153L362.429 669.884L362.468 654.925Z" fill="#985233"/>
<path d="M113.52 680.978L128.009 652.05L140.566 660.085L125.111 683.121C128.975 691.871 136.992 712.05 138.151 722.764C139.6 736.157 136.702 736.157 135.254 736.157C133.805 736.157 111.589 740.442 104.827 734.014C99.4182 728.871 116.096 724.371 125.111 722.764L113.52 680.978Z" fill="#BD6A3B"/>
<path d="M123.88 677.114C123.88 674.543 131.285 666.043 134.988 662.114L140.784 660.507L128.227 677.114C127.068 689.114 129.998 696.757 131.607 699.078C139.335 716.65 138.691 731.042 137.403 736.042H134.988C131.285 717.471 123.88 679.685 123.88 677.114Z" fill="#81402D"/>
<path d="M112.071 587.764C71.503 582.193 77.7815 558.657 85.9917 547.586C93.7191 540.086 89.3724 540.086 90.8213 532.586C92.2702 525.086 124.628 494.014 146.361 528.836C168.094 563.657 162.782 594.728 112.071 587.764Z" fill="#BD6A3B"/>
<path d="M149.742 693.299V666.514L165.197 654.192L158.918 690.621C161.494 695.442 167.322 708.299 170.026 721.156C172.81 734.392 169.698 736.001 169.053 736.156C169.055 736.156 169.058 736.156 169.06 736.156C170.026 736.156 149.742 742.049 143.464 736.156C138.441 731.442 151.674 725.621 158.918 723.299L149.742 693.299Z" fill="#BD6A3B"/>
<path d="M156.238 677.114C156.238 674.543 159.297 664.435 162.999 660.507H165.897L160.585 677.114C159.426 689.114 162.355 696.757 163.965 699.078C171.693 716.65 171.049 731.042 169.761 736.042H167.346C163.643 717.471 156.238 679.685 156.238 677.114Z" fill="#81402D"/>
<path fill-rule="evenodd" clip-rule="evenodd" d="M195.14 641.334C202.867 642.62 202.867 644.727 201.901 645.62C200.294 649.185 194.342 652.874 186.93 656.224C183.157 657.929 179.005 659.546 174.856 661.015C179.041 657.92 186.833 645.012 184.515 618.14C187.52 621.536 189.811 625.301 191.498 629.013C193.507 633.432 194.659 637.776 195.14 641.334ZM172.441 609.097C169.038 607.527 165.189 606.395 160.85 605.869C159.884 622.419 154.089 657.26 138.634 664.229C142.976 666.242 148.377 667.326 155.055 667.049C156.783 666.608 158.74 666.08 160.85 665.477C170.123 660.791 172.441 625.938 172.441 609.097ZM135.253 611.734C136.614 624.967 137.237 652.391 128.843 656.224C122.155 647.161 121.491 634.461 122.696 626.334C122.892 621.109 128.987 615.752 135.253 611.734Z" fill="#BD6A3B"/>
<path d="M160.85 605.869C156.135 605.298 150.841 605.441 144.913 606.513C142.305 607.665 138.752 609.491 135.253 611.734C136.614 624.967 137.237 652.391 128.843 656.224C131.257 659.495 134.455 662.292 138.634 664.229C154.089 657.26 159.884 622.419 160.85 605.869Z" fill="#4C2018"/>
<path d="M174.856 661.015C179.041 657.92 186.833 645.012 184.515 618.14C181.334 614.545 177.352 611.364 172.441 609.097C172.441 625.938 170.123 660.791 160.85 665.477C165.104 664.261 169.978 662.741 174.856 661.015Z" fill="#491C13"/>
<path d="M101.141 637.875C101.946 635.375 102.01 630.589 95.8282 631.447C94.5403 634.125 93.7998 639.161 101.141 637.875Z" fill="#F5C08C"/>
<path d="M201.113 536.09C201.274 537.697 201.982 541.232 203.528 542.518C205.073 543.804 207.069 543.768 207.874 543.59C208.357 540.732 207.681 535.233 201.113 536.09Z" fill="#F5C08C"/>
<path d="M195.317 560.197C194.673 561.09 193.772 563.304 195.317 565.018C197.249 567.161 200.147 560.197 195.317 560.197Z" fill="#F5C08C"/>
<path fill-rule="evenodd" clip-rule="evenodd" d="M95.8282 631.447L201.113 536.09C201.274 537.697 201.982 541.232 203.528 542.518C204.3 545.518 135.592 607.339 101.141 637.875C101.946 635.375 102.01 630.589 95.8282 631.447Z" fill="#794F26"/>
<path d="M207.874 543.59C207.069 543.768 205.073 543.804 203.528 542.518C204.3 545.518 135.592 607.339 101.141 637.875L184.692 565.018H195.317C193.772 563.304 194.673 561.09 195.317 560.197H188.556L207.874 543.59Z" fill="#B57434"/>
<ellipse cx="126.077" cy="608.121" rx="19.8012" ry="21.4285" fill="#BD6A3B"/>
<path d="M108.208 634.907C104.731 628.478 104.344 605.264 105.793 590.978C114.003 593.121 115.452 595.264 126.56 594.728C135.447 594.3 141.532 590.978 143.464 589.371L146.361 614.55C137.185 627.942 111.685 641.335 108.208 634.907Z" fill="#99953C"/>
<path d="M107.459 624.614L108.908 599.972H117.602V624.614H107.459Z" fill="#5B5842"/>
<path d="M120.499 624.614V599.972H128.227V623.543L120.499 624.614Z" fill="#5B5842"/>
<path d="M132.09 605.329C132.09 604.472 131.446 601.4 131.124 599.972H139.335V605.329C136.92 605.686 132.09 606.186 132.09 605.329Z" fill="#5B5842"/>
<path d="M153.842 706.218C150.153 699.745 149.573 686.618 149.744 680.864H161.015C158.555 689.927 163.405 701.543 166.138 706.218C163.576 708.916 157.531 712.692 153.842 706.218Z" fill="#70AE5A"/>
<path d="M117.892 698.657C114.415 692.228 113.36 682.407 113.521 676.692H128.492C126.174 685.692 128.814 694.014 131.39 698.657C128.975 701.335 121.369 705.085 117.892 698.657Z" fill="#70AE5A"/>
<path d="M125.594 631.692C131.004 626.978 140.083 601.871 143.947 589.906L146.362 607.049C144.43 631.156 118.833 637.585 125.594 631.692Z" fill="#7B783E"/>
<path d="M145.878 607.049C141.242 631.049 118.189 635.62 107.242 634.906C107.242 636.334 110.333 640.156 122.697 644.013C135.06 647.87 148.454 620.977 153.606 607.049H145.878Z" fill="#E9BE9C"/>
<path d="M109.391 635.864C115.573 636.721 132.251 606.936 139.818 591.936C147.159 594.936 146.74 595.686 145.613 595.686C146.772 608.114 128.066 633.364 118.568 644.435C112.933 641.221 103.21 635.007 109.391 635.864Z" fill="black" stroke="#4C2018"/>
<path d="M157.204 706.043C154.113 703.9 151.087 689.436 149.96 682.472C149.96 683.007 148.994 706.043 155.272 709.793C160.295 712.793 164.126 708.543 165.414 706.043C163.965 706.936 160.295 708.186 157.204 706.043Z" fill="#436537"/>
<path d="M130.158 698.007C119.34 697.149 115.992 683.364 115.67 676.578C113.738 678.185 113.738 695.328 119.05 700.685C123.301 704.971 129.193 701.399 131.607 699.078L130.158 698.007Z" fill="#436537"/>
<path d="M201.153 644.437C177.585 657.294 141.106 652.651 125.812 648.722C129.676 662.865 143.125 668.285 150.926 666.936C188.285 660.478 200.992 648.722 201.153 644.437Z" fill="#9F5238" fill-opacity="0.64"/>
<path d="M106.977 586.578C147.159 589.15 154.95 558.007 153.823 542.114C159.136 550.15 166.573 569.007 153.823 580.15C141.073 591.293 117.28 589.078 106.977 586.578Z" fill="#AA5A39"/>
<path d="M120.5 525.507C116.25 522.507 98.1226 526.757 89.5903 529.257C98.7665 530.865 109.392 529.257 112.289 527.65C115.187 526.043 135.471 532.472 138.369 535.686C141.267 538.9 160.102 551.222 160.585 548.543C160.971 546.4 151.409 536.936 146.579 532.472C139.657 531.4 124.75 528.507 120.5 525.507Z" fill="#4C2018"/>
<path d="M152.375 542.65C126.102 519.935 99.5714 524.614 89.5903 529.793C99.2495 491.757 126.295 493.9 152.375 505.685C173.238 515.114 166.219 538.185 160.102 548.542L152.375 542.65Z" fill="#9D923A"/>
<path d="M92.4307 497.297C96.1687 500.466 103.665 508.623 103.746 515.908C104.717 516.432 107.044 517.153 108.575 515.849C110.489 514.218 103.52 495.553 103.502 493.946C103.485 492.339 94.2794 489.774 88.508 491.989C82.7367 494.203 74.2873 516.274 72.8385 516.292C71.3898 516.309 73.923 526.993 74.3585 522.702C74.7069 519.269 86.5518 504.335 92.4307 497.297Z" fill="#4C2018"/>
<path d="M133.384 488.218C136.288 488.717 133.728 519.287 133.758 521.965C135.215 522.662 138.413 523.622 139.553 521.894C140.693 520.165 141.711 498.651 142.077 488.11C139.16 486.36 132.549 482.549 129.444 481.302C126.339 480.055 115.669 487.723 110.723 491.713C112.352 493.479 115.894 496.364 117.024 493.778C118.437 490.546 130.481 487.718 133.384 488.218Z" fill="#4C2018"/>
<path d="M116.636 642.293C118.954 642.293 135.31 609.793 143.198 593.543C145.13 593.543 145.935 595.329 146.096 596.222C147.642 601.793 128.71 631.043 119.051 644.971C117.28 644.079 114.318 642.293 116.636 642.293Z" fill="#393939"/>
<path d="M124.84 539.387C128.603 541.727 129.829 547.235 127.578 551.689C125.327 556.143 124.84 554.283 118.52 554.283C112.407 553.166 111.699 547.669 113.95 543.215C116.201 538.761 121.077 537.047 124.84 539.387Z" fill="white"/>
<path d="M122.431 538.365C118.954 537.508 115.509 539.793 114.221 541.043C112.611 542.829 109.874 545.972 111.806 544.258C114.221 542.115 120.5 541.043 122.431 541.043C124.363 541.043 125.812 543.186 127.261 543.186C128.42 543.186 129.676 538.543 130.159 536.222C129.193 537.472 127.261 539.65 127.261 538.365V535.15C127.1 536.579 125.909 539.222 122.431 538.365Z" fill="black"/>
<path d="M125.329 549.615C125.329 552.87 125.329 555.121 118.265 554.284C115.331 554.284 114.704 552.87 114.704 549.615C114.704 546.361 117.083 543.723 120.017 543.723C122.951 543.723 125.329 546.361 125.329 549.615Z" fill="black"/>
<ellipse cx="121.948" cy="548.543" rx="2.41478" ry="2.67856" fill="white"/>
<path d="M93.0775 536.4C89.3549 537.235 87.1147 541.312 88.0738 545.508C89.033 549.704 89.8524 548.347 95.2529 550.097C100.719 550.895 102.514 546.682 101.555 542.487C100.595 538.291 96.8001 535.566 93.0775 536.4Z" fill="white"/>
<path d="M95.3571 536.247C98.5142 536.523 100.963 539.311 101.793 540.67C102.782 542.548 104.44 545.827 103.161 543.917C101.561 541.529 96.428 538.931 94.7771 538.396C93.1263 537.861 91.4242 539.178 90.1861 538.776C89.1956 538.455 89.1278 534.384 89.2177 532.388C89.7725 533.658 90.9516 535.941 91.23 534.91L91.9259 532.332C91.7542 533.522 92.2 535.972 95.3571 536.247Z" fill="black"/>
<path d="M90.445 544.467C89.7404 547.078 90.246 549.537 95.4705 550.168C98.1423 550.168 98.82 550.021 99.5246 547.411C100.229 544.801 98.768 542.026 96.2607 541.213C93.7535 540.4 91.1497 541.857 90.445 544.467Z" fill="black"/>
<ellipse cx="2.16926" cy="2.22514" rx="2.16926" ry="2.22514" transform="matrix(-0.951269 -0.308362 -0.260635 0.965437 99.0991 543.06)" fill="white"/>
<path d="M102.147 570.507C92.1017 569.65 90.2343 565.686 91.0392 567.293C97.3176 573.186 112.289 579.079 121.465 578.007C128.806 577.15 125.756 567.494 121.465 566.222C118.79 565.428 112.193 571.364 102.147 570.507Z" fill="#1D1D1D"/>
<path d="M117.602 573.483C113.808 572.328 111.688 574.37 111.323 576.936C111.81 576.936 113.527 577.812 119.655 577.812C125.783 577.812 126.342 574.926 125.856 573.483C124.275 573.323 121.395 574.637 117.602 573.483Z" fill="#FF9C9C"/>
<ellipse cx="132.09" cy="561.4" rx="3.86365" ry="2.67856" fill="#FF9C9C"/>
<ellipse cx="83.7946" cy="558.186" rx="3.86365" ry="2.67856" fill="#FF9C9C"/>
<path d="M94.4199 558.721C95.7078 557.65 98.9597 556.15 101.664 558.721" stroke="black"/>
<path d="M115.67 535.148C119.695 534.077 128.323 532.256 130.642 533.542" stroke="black"/>
<path d="M105.528 533.984C101.503 532.913 92.8744 531.092 90.5562 532.378" stroke="black"/>
<path d="M149.96 535.15C158.073 533.436 155.916 515.15 153.823 506.222C171.596 512.222 165.736 536.936 160.585 548.543L142.116 536.051C140.876 535.916 140.626 535.499 140.783 535.15L142.116 536.051C143.417 536.194 145.807 536.028 149.96 535.15Z" fill="#635E37"/>
<path d="M191.495 617.313C184.375 628.808 103.14 656.878 62.5539 641.071C59.6942 639.81 56.1548 637.037 54.5923 632.758C53.9503 630.999 53.6421 628.986 53.852 626.719C57.5209 631.173 67.7343 640.312 79.2365 641.236C93.6141 642.391 158.753 629.552 166.967 622.721C173.539 617.256 184.715 605.191 189.481 599.842C190.326 601.169 191.091 602.572 191.709 604.018C193.568 608.368 194.102 613.104 191.495 617.313Z" fill="#C54B1A"/>
<path d="M142.602 601.241C143.713 600.911 144.824 600.579 145.929 600.245L150.312 607.142L155.071 614.632C154.785 616.262 153.792 619.386 152.102 618.842C151.041 618.5 147.829 614.095 144.75 609.532C142.918 606.819 141.133 604.05 139.876 602.046C140.782 601.78 141.692 601.511 142.602 601.241Z" fill="#84240E"/>
<path d="M127.548 605.659C128.906 607.49 131.023 610.448 132.752 613.1C134.237 615.379 135.435 617.431 135.618 618.347C136.015 620.328 134.961 621.319 134.385 621.566L129.103 614.175L123.821 606.783C124.998 606.422 126.245 606.047 127.548 605.659Z" fill="#84240E"/>
<path d="M107.759 608.062C109.222 610.05 111.421 613.12 113.254 615.858C115.078 618.58 116.54 620.975 116.558 621.65C116.593 623.004 114.741 625.365 113.81 626.376C112.085 623.744 109.286 619.388 106.912 615.497C105.044 612.435 103.44 609.661 102.83 608.241C104.415 608.177 106.057 608.117 107.759 608.062Z" fill="#84240E"/>
<path d="M86.5096 609.184C89.9428 613.642 96.8344 623.306 96.9355 626.294C97.0619 630.029 95.5256 632.279 94.2768 631.226C93.2777 630.384 85.465 616.46 81.6835 609.604C83.1892 609.459 84.7957 609.319 86.5096 609.184Z" fill="#84240E"/>
<path d="M102.83 608.241C103.44 609.661 105.044 612.435 106.912 615.497C106.099 615.846 91.8391 614.437 89.4867 608.963C93.4057 608.689 97.8315 608.444 102.83 608.241Z" fill="#E6975E"/>
<path d="M120.714 607.761C121.679 607.448 122.719 607.122 123.821 606.783L129.103 614.175C127.163 615.378 121.276 617.398 113.254 615.858C111.421 613.12 109.222 610.05 107.759 608.062C111.742 607.934 116.051 607.831 120.714 607.761Z" fill="#E6975E"/>
<path d="M127.548 605.659C129.778 604.996 132.17 604.299 134.646 603.576L134.648 603.576C136.359 603.077 138.11 602.566 139.876 602.046C141.133 604.05 142.918 606.819 144.75 609.532C141.295 610.08 134.058 611.561 132.752 613.1C131.023 610.448 128.906 607.49 127.548 605.659Z" fill="#E6975E"/>
<path d="M150.312 607.142L145.929 600.245C147.997 599.62 150.046 598.988 152.034 598.356C152.586 600.468 152.966 604.951 150.312 607.142Z" fill="#E6975E"/>
<path d="M178.864 594.014C179.669 594.035 184.613 596.8 183.689 599.153C183.127 600.587 181.657 599.912 179.963 599.134C178.879 598.635 177.702 598.095 176.611 598.038C175.49 597.98 174.046 598.239 172.709 598.477C170.717 598.834 168.965 599.147 168.876 598.307C168.728 596.904 172.037 594.014 172.421 593.849C172.729 593.717 176.844 593.904 178.864 594.014Z" fill="#E6975E"/>
<path fill-rule="evenodd" clip-rule="evenodd" d="M172.221 589.412C171.097 591.105 166.97 593.092 161.384 595.171C159.691 595.801 157.865 596.44 155.947 597.081C154.678 597.505 153.37 597.93 152.034 598.356L172.221 589.412Z" fill="#84240E"/>
<path fill-rule="evenodd" clip-rule="evenodd" d="M172.221 589.412C173.763 589.116 177.984 589.16 182.535 591.703C183.43 592.488 184.435 593.469 185.462 594.601C186.833 596.114 188.243 597.896 189.481 599.842C184.715 605.191 173.539 617.256 166.967 622.721C158.753 629.552 93.6141 642.391 79.2365 641.236C67.7343 640.312 57.5209 631.173 53.852 626.719C54.0825 624.229 54.9382 621.432 56.6632 618.329C57.4885 616.845 58.5129 615.29 59.763 613.665C61.2878 613.01 66.0813 611.098 81.6835 609.604C85.465 616.46 93.2777 630.384 94.2768 631.226C95.5256 632.279 97.0619 630.029 96.9355 626.294C96.8344 623.306 89.9428 613.642 86.5096 609.184C87.4679 609.109 88.4599 609.035 89.4867 608.963C91.8391 614.437 106.099 615.846 106.912 615.497C109.286 619.388 112.085 623.744 113.81 626.376C114.741 625.365 116.593 623.004 116.558 621.65C116.54 620.975 115.078 618.58 113.254 615.858C121.276 617.398 127.163 615.378 129.103 614.175L134.385 621.566C134.961 621.319 136.015 620.328 135.618 618.347C135.435 617.431 134.237 615.379 132.752 613.1C134.058 611.561 141.295 610.08 144.75 609.532C147.829 614.095 151.041 618.5 152.102 618.842C153.792 619.386 154.785 616.262 155.071 614.632L150.312 607.142C152.966 604.951 152.586 600.468 152.034 598.356C153.37 597.93 154.678 597.505 155.947 597.081C159.142 602.043 165.919 612.023 167.468 612.237C168.887 612.434 169.15 610.367 169.402 608.388C169.493 607.668 169.584 606.96 169.727 606.376C170.158 604.626 164.345 598.177 161.384 595.171C166.97 593.092 171.097 591.105 172.221 589.412ZM183.689 599.153C184.613 596.8 179.669 594.035 178.864 594.014C176.844 593.904 172.729 593.717 172.421 593.849C172.037 594.014 168.728 596.904 168.876 598.307C168.965 599.147 170.717 598.834 172.709 598.477C174.046 598.239 175.49 597.98 176.611 598.038C177.702 598.095 178.879 598.635 179.963 599.134C181.657 599.912 183.127 600.587 183.689 599.153Z" fill="#D65E21"/>
<path d="M161.384 595.171C164.345 598.177 170.158 604.626 169.727 606.376C169.584 606.96 169.493 607.668 169.402 608.388C169.15 610.367 168.887 612.434 167.468 612.237C165.919 612.023 159.142 602.043 155.947 597.081C157.865 596.44 159.691 595.801 161.384 595.171Z" fill="#84240E"/>
<path d="M189.481 599.842C188.243 597.896 186.833 596.114 185.462 594.601C185.382 594.513 184.655 588.958 186.436 588.07C188.191 587.195 189.487 589.37 189.552 590.005C189.533 590.064 189.517 590.121 189.502 590.175C189.529 590.326 189.578 590.509 189.554 590.031C189.553 590.022 189.553 590.014 189.552 590.005C189.847 589.06 190.629 587.578 191.792 588.091C193.336 588.772 195.294 589.886 193.95 593.642C194.758 593.05 196.6 591.917 197.504 592.115C198.634 592.362 200.681 593.683 200.519 594.364C200.356 595.045 199.027 596.717 198.303 597.15C197.579 597.584 195.222 598.719 195.4 599.131C195.577 599.544 196.781 598.904 197.18 599.833C197.58 600.762 198.348 602.021 197.905 602.578C197.462 603.135 196.147 604.311 195.489 604.105C194.963 603.94 192.75 603.979 191.709 604.018C191.091 602.572 190.326 601.169 189.481 599.842Z" fill="#B23215"/>
<path d="M52.1766 620.104C52.5458 618.845 52.3681 616.844 52.8186 616.039C53.1635 615.423 55.4303 617.226 56.6632 618.329C54.9382 621.432 54.0825 624.229 53.852 626.719C53.6421 628.986 53.9503 630.999 54.5923 632.758C52.0299 635.326 50.6869 633.581 50.2434 632.549C49.8886 631.723 50.9326 630.623 51.499 630.175C51.0828 630.354 49.8707 630.729 48.3517 630.795C46.453 630.877 47.0286 627.451 47.6268 626.461C48.225 625.47 49.5769 624.645 49.0597 624.5C48.5425 624.356 45.8011 622.478 45.3873 622.045C44.9735 621.611 45.4533 619.816 47.6622 618.866C49.8711 617.917 51.8075 621.363 52.1766 620.104Z" fill="#B23215"/>
<path d="M89.1183 641.89C98.2525 646.571 127.701 612.143 141.284 594.344C142.1 593.238 143.903 591.84 144.589 595.102C145.447 599.18 129.516 625.28 119.384 632.659C111.278 638.562 92.9428 649.666 84.7884 654.48C83.7874 655.901 82.5483 656.699 81.2172 655.602C77.9552 652.913 77.7006 636.038 89.1183 641.89Z" fill="#BD6A3B"/>
<path d="M89.2903 649.295C112.807 642.19 134.972 609.54 143.115 594.104C144.721 593.07 144.693 594.001 144.478 594.596C140.79 627.554 85.7794 654.75 85.0857 653.827C84.5308 653.089 87.6576 650.498 89.2903 649.295Z" fill="#81402D"/>
<path d="M401 489.5C399 489 384 481 382.5 480.5C387.7 479.7 399.333 485.167 404.5 488C404 488.667 402.6 489.9 401 489.5Z" fill="#985233"/>
<path d="M216.974 539.176C215.984 536.864 221.707 529.865 224.692 526.655C226.753 527.422 229.952 528.596 232.604 529.534C232.624 530.111 232.696 530.675 232.813 531.223L225.197 531.653C222.869 535.124 217.964 541.488 216.974 539.176Z" fill="#5D4439"/>
<path fill-rule="evenodd" clip-rule="evenodd" d="M336.797 536.454C346.992 529.714 335.342 524.782 328.243 523.159L304.003 521.915L256.098 527.45C252.895 521.88 244.495 512.764 236.519 520.865C236.155 521.235 235.82 521.603 235.512 521.971C233.308 524.608 232.522 527.18 232.604 529.534C232.624 530.111 232.696 530.675 232.813 531.223C233.967 536.67 239.466 540.598 241.369 540.781C243.626 540.998 251.369 536.549 255.554 533.932L257.092 543.136L239.142 547.99L245.791 574.019L245.466 578.986C248.54 578.209 253.798 575.343 250.241 570.092C246.684 564.84 244.766 554.124 244.251 549.422L259.377 546.497L252.683 550.976C253.663 553.264 255.347 558.151 254.242 559.391C253.138 560.631 253.115 563.44 253.241 564.689L262.027 560.388L256.807 552.016L270.448 541.365C271.345 541.671 272.277 541.964 273.243 542.237C274.533 547.582 276.706 556.486 276.935 557.022L278.173 559.912L284.312 555.158L277.843 543.326C278.342 543.422 278.848 543.512 279.361 543.596C282.513 544.112 285.519 544.056 288.304 543.627L299.123 549.655L296.583 566.633L300.916 576.75C299.248 578.965 299.45 580.964 299.76 581.687C302.824 581.206 308.859 580.028 308.488 579.161C308.376 578.899 308.106 578.38 307.762 577.72C306.686 575.653 304.886 572.197 304.93 570.851C304.962 569.839 304.201 563.251 303.522 557.377L303.522 557.376C303.009 552.945 302.544 548.919 302.502 548C302.435 546.539 298.36 543.527 295.446 541.62C300.018 539.739 303.469 537.121 305.237 535.297C307.69 536.836 314.463 540.211 322.314 540.439C325.2 544.992 335.004 557.588 339.913 563.775C340.702 563.389 342.031 562.039 341.041 559.726C340.106 557.544 332.373 546.286 327.986 540.015C329.355 539.759 330.734 539.383 332.106 538.862C339.265 544.888 346.031 548.47 348.519 549.509C350.457 547.161 341.512 539.827 336.797 536.454Z" fill="#AE5D39"/>
<path d="M223.206 510.774L236.519 520.865C236.155 521.235 235.82 521.603 235.512 521.971L223.556 515.411C221.246 518.29 216.503 523.759 216.008 522.603C215.513 521.447 220.6 514.235 223.206 510.774Z" fill="#5D4439"/>
<path d="M232.721 530.154C243.528 541.647 249.828 532.559 251.627 526.579L262.762 526.809C259.256 530.712 250.533 538.916 243.697 540.515C236.861 542.114 233.531 534.274 232.721 530.154Z" fill="#985233"/>
<path d="M312.821 521.53L327.075 538.59L326.188 540.336L313.298 527.416L312.732 534.686L306.764 534.112L312.821 521.53Z" fill="#AE5D39"/>
<path d="M260.475 546.287C262.254 544.396 265.854 540.331 266.024 539.199C265.01 539.695 261.7 544.375 260.194 544.676C258.688 544.976 243.934 548.704 243.075 549.561C242.388 550.247 246.404 568.473 248.499 577.501C249.757 576.302 252.081 573.649 251.316 572.625C250.55 571.601 246.385 556.973 244.398 549.788L260.475 546.287Z" fill="#985233"/>
<path d="M257.292 552.215C256.982 551.493 269.936 541.654 270.274 541.488C267.2 541.945 259.681 548.569 256.306 551.824L259.653 561.549C260.381 561.338 261.971 560.851 262.511 560.587C263.187 560.256 257.601 552.938 257.292 552.215Z" fill="#985233"/>
<path d="M288.391 541.797C287.062 541.748 272.494 539.673 265.376 538.642C267.233 542.978 281.169 544.022 287.996 543.738C288.62 543.287 289.72 541.846 288.391 541.797Z" fill="#985233"/>
<path d="M284.304 555.162L277.692 543.539C277.269 546.368 280.587 556.982 280.896 557.704C281.144 558.282 283.271 556.25 284.304 555.162Z" fill="#985233"/>
<path d="M341.37 559.564C340.403 556.542 322.16 532.839 313.159 521.365C311.075 524.134 308.131 531.258 306.919 534.473L308.425 534.173L313.102 523.141L340.426 563.086C341.144 563.172 342.338 562.587 341.37 559.564Z" fill="#985233"/>
<path d="M340.563 532.861C343.504 528.274 334.883 525.006 330.206 523.946C332.106 525.201 335.987 528.283 336.313 530.571C336.638 532.859 330.928 537.724 328.032 539.87C329.827 539.612 332.986 538.772 335.847 537.121C340.143 542.38 348.727 552.116 348.694 548.985C348.661 545.854 340.973 539.228 337.133 536.306C338.475 535.371 339.684 534.232 340.563 532.861Z" fill="#985233"/>
<path d="M313.115 527.943C313.034 528.05 312.985 528.305 312.96 528.662L311.747 534.295L313.38 535.244C313.168 533.465 312.854 530.161 312.96 528.662L313.115 527.943Z" fill="#985233"/>
<path d="M315.704 530.172L315.915 530.505C316.738 532.314 314.971 537.064 313.913 539.353L322.035 540.184L315.915 530.505C315.857 530.379 315.788 530.267 315.704 530.172Z" fill="#985233"/>
<path d="M302.522 547.116L295.064 541.152C296.977 543.712 300.928 549.12 301.423 550.276C301.918 551.433 303.199 570.969 303.778 580.593C306.435 580.69 307.814 579.2 308.17 578.442L305.512 573.188L302.522 547.116Z" fill="#985233"/>
<path fill-rule="evenodd" clip-rule="evenodd" d="M224.672 480.334C225.309 493.658 235.59 509.808 240.651 516.217C243.419 521.156 253.72 527.01 258.524 529.32C263.524 531.452 276.206 535.677 286.929 535.518C300.333 535.319 312.663 531.66 320.618 527.328C328.573 522.996 342.203 512.826 348.977 503.827C354.396 496.628 358.576 481.061 359.988 474.178L358.588 473.771C348.894 511.548 325.706 521.219 321.744 522.871C321.512 522.968 321.346 523.037 321.253 523.083C321.066 523.222 320.878 523.359 320.689 523.494C304.077 535.379 280.002 533.581 269.94 531.161C240.786 523.407 228.627 493.549 226.192 479.589L224.672 480.334Z" fill="#9EA65D"/>
<path d="M361.389 474.585C360.868 487.369 351.366 516.469 317.52 530.593C275.213 548.248 229.455 528.255 223.151 481.078L224.672 480.334C225.309 493.658 235.59 509.808 240.651 516.217C243.419 521.156 253.72 527.01 258.524 529.32C263.524 531.452 276.206 535.677 286.929 535.518C300.333 535.319 312.663 531.66 320.618 527.328C328.573 522.996 342.203 512.826 348.977 503.827C354.396 496.628 358.576 481.061 359.988 474.178L361.389 474.585Z" fill="#4C6340"/>
<path fill-rule="evenodd" clip-rule="evenodd" d="M320.689 523.494C281.399 546.083 241.396 503.788 226.192 479.589C235.381 488.639 268.163 498.376 288.784 503.577C305.281 507.738 342.194 485.44 358.588 473.771C348.894 511.548 325.706 521.219 321.744 522.871C321.512 522.968 321.346 523.037 321.253 523.083C321.066 523.222 320.878 523.359 320.689 523.494Z" fill="#DF1B41"/>
<path d="M269.94 531.161C240.786 523.407 228.627 493.549 226.192 479.589C241.396 503.788 281.399 546.083 320.689 523.494C304.077 535.379 280.002 533.581 269.94 531.161Z" fill="#AC223C"/>
<ellipse cx="1.88116" cy="1.57221" rx="1.88116" ry="1.57221" transform="matrix(-0.898126 0.439739 0.39364 0.919265 339.226 491.555)" fill="#6C3636"/>
<ellipse cx="1.88147" cy="1.57197" rx="1.88147" ry="1.57197" transform="matrix(-0.896678 -0.442682 -0.396401 0.918077 332.071 506.069)" fill="#6C3636"/>
<ellipse cx="1.88147" cy="1.57197" rx="1.88147" ry="1.57197" transform="matrix(-0.896678 -0.442682 -0.396401 0.918077 322.463 503.955)" fill="#6C3636"/>
<ellipse cx="1.88147" cy="1.57197" rx="1.88147" ry="1.57197" transform="matrix(-0.896678 -0.442682 -0.396401 0.918077 314.126 515.03)" fill="#6C3636"/>
<ellipse cx="1.87055" cy="1.58029" rx="1.87055" ry="1.58029" transform="matrix(-0.946097 0.323883 0.286821 0.957984 304.692 506.362)" fill="#6C3636"/>
<ellipse cx="1.87055" cy="1.58029" rx="1.87055" ry="1.58029" transform="matrix(-0.946097 0.323883 0.286821 0.957984 297.397 516.054)" fill="#6C3636"/>
<ellipse cx="1.87055" cy="1.58029" rx="1.87055" ry="1.58029" transform="matrix(-0.946097 0.323883 0.286821 0.957984 288.277 510.029)" fill="#6C3636"/>
<ellipse cx="1.87055" cy="1.58029" rx="1.87055" ry="1.58029" transform="matrix(-0.946097 0.323883 0.286821 0.957984 278.335 519.268)" fill="#6C3636"/>
<ellipse cx="1.87055" cy="1.58029" rx="1.87055" ry="1.58029" transform="matrix(-0.946097 0.323883 0.286821 0.957984 268.515 503.971)" fill="#6C3636"/>
<ellipse cx="1.87055" cy="1.58029" rx="1.87055" ry="1.58029" transform="matrix(-0.946097 0.323883 0.286821 0.957984 252.385 498.756)" fill="#6C3636"/>
<ellipse cx="1.87055" cy="1.58029" rx="1.87055" ry="1.58029" transform="matrix(-0.946097 0.323883 0.286821 0.957984 248.721 509.291)" fill="#6C3636"/>
<path d="M298.286 502.858C316.958 501.408 346.615 482.401 359.109 473.078C346.505 487.554 313.024 504.821 296.454 508.126C283.199 510.77 245.056 491.186 227.642 481.064C243.41 488.933 279.614 504.308 298.286 502.858Z" fill="#FF7979"/>
<path fill-rule="evenodd" clip-rule="evenodd" d="M409 482.979C400.865 479.264 384.48 471.702 384.018 471.171C387.757 475.682 397.989 486.163 409 492V482.979Z" fill="#CD7E34"/>
<path d="M383.092 478.733C382.722 478.203 383.555 473.471 384.018 471.171C387.757 475.682 397.989 486.163 409 492C400.518 487.799 383.462 479.264 383.092 478.733Z" fill="#B1651E"/>
<path fill-rule="evenodd" clip-rule="evenodd" d="M395.815 460.027C391.69 463.521 383.555 470.641 384.018 471.171C384.48 471.702 400.865 479.264 409 482.979L408.387 480.458L387.14 470.375C389.685 468.076 395.075 463.264 396.277 462.415L404.839 465.865L404.258 463.477C401.598 462.196 396.185 459.713 395.815 460.027Z" fill="#E7C5A4"/>
<path d="M387.14 470.375C389.685 468.076 395.075 463.264 396.277 462.415L404.839 465.865L408.387 480.458L387.14 470.375Z" fill="#D6B18F"/>
</g>
<defs>
<clipPath id="clip0_45_3110">
<rect width="402" height="874" fill="white"/>
</clipPath>
</defs>
</svg>
