<svg width="402" height="874" viewBox="0 0 402 874" fill="none" xmlns="http://www.w3.org/2000/svg">
<g clip-path="url(#clip0_62_3615)">
<rect width="402" height="874" fill="white"/>
<g opacity="0.5">
<path d="M-13 884C-10.6667 890 -6 905.1 -6 917.5C-6 920.167 -3.8 928.3 5 939.5C13.8 950.7 28 915.5 34 896.5C27.5 903.5 14.5 915.5 14.5 907.5V863L5 896.5L-13 884Z" fill="#7D985E"/>
<rect y="76" width="408" height="878" fill="#91BF5C"/>
<path d="M43.5 839H69.5H83.5C91 839 86.5 846.5 100 839C113.5 831.5 117 829 119.5 830.5C127 830.5 124 826.5 132.5 830.5C139.3 833.7 147.333 833.833 150.5 833.5C161.667 828.167 185.2 818 190 820C196 822.5 213.5 820 220 820C226.5 820 234.5 813.5 240 813.5C245.5 813.5 267 818.5 270 813.5C273 808.5 283 801 276.5 801C270 801 239 809 231 809C223 809 210 801 215 801C220 801 261 801 250.5 796C242.1 792 226.667 790 220 789.5C224.5 788.667 234.8 787 240 787C246.5 787 266.5 794.5 274 792C281.5 789.5 288 789.5 297 789.5C304.2 789.5 322.667 785.833 331 784C333.5 785 339.8 787.5 345 789.5C351.5 792 365 794.5 373 792C381 789.5 397.5 784 401.5 784C405.5 784 430 787 433.5 787C436.3 787 448.667 793 454.5 796C453.667 805.333 451.2 824 448 824C444 824 410.5 812 396 816C381.5 820 387.5 827 368.5 827.5C349.5 828 336.5 820 331 820C325.613 820 324.063 820.959 314.134 827.107L313.5 827.5C312.481 828.131 311.646 828.743 310.957 829.33C318.865 828.226 328.248 827.5 334 827.5C347.5 827.5 336.5 823.5 352.5 827.5C368.5 831.5 380 828 385.5 824C391 820 420.5 829.5 423 830C425.5 830.5 424.5 822.5 445.5 830C462.3 836 470.167 919.5 472 960.5L-58 1020L43.5 839Z" fill="#25944D"/>
<path d="M153.126 411.001C110.726 344.601 42.4592 287.001 34.6258 273.501C29.6258 145.168 22.6258 -115.299 34.6258 -130.499C46.6258 -145.699 201.612 -340.495 295 -340.5C319.626 -340.501 557.5 -57.499 557.5 -57.499L494.126 486.001L315.626 583.001C315.626 583.001 205.226 565.364 183.626 520.501C177.126 507.001 195.526 477.401 153.126 411.001Z" fill="#7D985E"/>
<path d="M364 -398L-7.49988 -174.5L-96.4998 -75L-121.5 42L306 556L444 447.5L852.5 208L364 -398Z" fill="white"/>
<rect x="364.95" y="-363.5" width="55" height="681" transform="rotate(46.6187 364.95 -363.5)" fill="#D1220D"/>
<rect x="447.95" y="-291.5" width="55" height="681" transform="rotate(46.6187 447.95 -291.5)" fill="#D1220D"/>
<rect x="518.95" y="-209.5" width="55" height="660.447" transform="rotate(46.6187 518.95 -209.5)" fill="#D1220D"/>
<rect x="592.95" y="-123.5" width="55" height="663.812" transform="rotate(46.6187 592.95 -123.5)" fill="#D1220D"/>
<rect x="660.95" y="-47.5" width="55" height="664.894" transform="rotate(46.6187 660.95 -47.5)" fill="#D1220D"/>
<rect x="734.95" y="23.5" width="55" height="681" transform="rotate(46.6187 734.95 23.5)" fill="#D1220D"/>
<rect width="55" height="664.894" transform="matrix(-0.757564 0.652761 0.652761 0.757564 -44.3337 -13.5)" fill="#D1220D"/>
<rect width="55" height="664.894" transform="matrix(-0.757564 0.652761 0.652761 0.757564 37.6663 -88.5)" fill="#D1220D"/>
<rect width="55" height="56.6349" transform="matrix(-0.719633 0.694354 0.694354 0.719633 408.58 330.5)" fill="white"/>
<rect width="55" height="56.6349" transform="matrix(-0.719633 0.694354 0.694354 0.719633 337.58 256.5)" fill="white"/>
<rect width="55" height="669.895" transform="matrix(-0.757564 0.652761 0.652761 0.757564 180.401 -264.289)" fill="#D1220D"/>
<rect width="55" height="669.895" transform="matrix(-0.757564 0.652761 0.652761 0.757564 257.666 -340.5)" fill="#D1220D"/>
<rect width="55" height="56.6349" transform="matrix(-0.719633 0.694354 0.694354 0.719633 269.58 181.5)" fill="white"/>
<rect width="55" height="56.6349" transform="matrix(-0.719633 0.694354 0.694354 0.719633 430.58 29.5)" fill="white"/>
<rect width="55" height="56.6349" transform="matrix(-0.719633 0.694354 0.694354 0.719633 199.58 90.5)" fill="white"/>
<rect width="55" height="56.6349" transform="matrix(-0.719633 0.694354 0.694354 0.719633 360.58 -61.5)" fill="white"/>
<rect width="55" height="56.6349" transform="matrix(-0.719633 0.694354 0.694354 0.719633 126.58 11.5)" fill="white"/>
<rect width="55" height="698.272" transform="matrix(-0.757564 0.652761 0.652761 0.757564 96.8782 -191.786)" fill="#D1220D"/>
<rect width="55" height="56.6349" transform="matrix(-0.719633 0.694354 0.694354 0.719633 255.58 333.5)" fill="white"/>
<rect width="55" height="56.6349" transform="matrix(-0.719633 0.694354 0.694354 0.719633 323.58 411.5)" fill="white"/>
<rect width="55" height="56.6349" transform="matrix(-0.719633 0.694354 0.694354 0.719633 187.58 258.5)" fill="white"/>
<rect width="55" height="56.6349" transform="matrix(-0.719633 0.694354 0.694354 0.719633 348.58 106.5)" fill="white"/>
<rect width="55" height="56.6349" transform="matrix(-0.719633 0.694354 0.694354 0.719633 419.58 180.5)" fill="white"/>
<rect width="55" height="56.6349" transform="matrix(-0.719633 0.694354 0.694354 0.719633 117.58 167.5)" fill="white"/>
<rect width="55" height="56.6349" transform="matrix(-0.719633 0.694354 0.694354 0.719633 278.58 15.5)" fill="white"/>
<rect width="55" height="56.6349" transform="matrix(-0.719633 0.694354 0.694354 0.719633 44.5801 88.5)" fill="white"/>
<rect width="55" height="56.6349" transform="matrix(-0.719633 0.694354 0.694354 0.719633 205.58 -63.5)" fill="white"/>
<rect width="55" height="56.6349" transform="matrix(-0.719633 0.694354 0.694354 0.719633 61.5801 -77.5)" fill="white"/>
<g filter="url(#filter0_d_62_3615)">
<path d="M184.669 317.038C181.64 311.486 201.089 293.478 211.192 285.167C259.286 249.056 356.84 176.276 362.307 174.042C367.774 171.808 370.552 173.747 371.257 174.995C379.264 183.222 398.987 204.683 405.706 205.801C412.426 206.918 421.023 198.898 426.877 190.974C437.289 168.751 453.411 165.305 460.171 166.36C490.499 169.59 474.415 198.032 467.741 203.873C461.068 209.714 424.397 223.881 427.242 230.218C430.087 236.555 463.113 266.233 462.922 272.75C462.731 279.266 284.966 418.729 275.89 414.243C266.814 409.757 188.455 323.978 184.669 317.038Z" fill="#8A4800"/>
<path d="M185.622 308.089C182.593 302.537 202.042 284.528 212.145 276.218C260.239 240.107 357.793 167.327 363.26 165.093C368.727 162.859 371.504 164.797 372.21 166.046C380.217 174.273 399.94 195.734 406.659 196.851C413.379 197.969 421.976 189.949 427.83 182.025C438.242 159.802 454.364 156.356 461.123 157.411C491.452 160.64 475.368 189.082 468.694 194.924C462.021 200.765 425.35 214.932 428.195 221.269C431.04 227.606 464.066 257.284 463.875 263.8C463.684 270.317 285.919 409.78 276.843 405.294C267.767 400.807 189.408 315.029 185.622 308.089Z" fill="#F6A132"/>
<path d="M198.048 328.504C194.3 310.808 308.665 212.062 366.315 164.9C322.01 184.319 223.618 269.379 179.96 309.482L198.048 328.504Z" fill="#FFB95D"/>
<path d="M239.395 340.932C249.592 349.811 335.494 352.633 369.6 325.542C371.96 323.493 374.522 319.798 374.751 315.248C374.844 313.378 374.544 311.364 373.674 309.26C371.485 314.599 364.426 326.347 353.711 330.627C340.316 335.978 274.291 342.954 264.425 338.854C256.533 335.574 242.292 327.348 236.158 323.645C235.743 325.163 235.427 326.73 235.263 328.294C234.772 332.999 235.661 337.681 239.395 340.932Z" fill="#C54B1A"/>
<path d="M281.358 311.135C280.2 311.148 279.04 311.159 277.886 311.166L275.736 319.05L273.402 327.611C274.156 329.084 276.028 331.776 277.482 330.756C278.394 330.117 280.161 324.959 281.756 319.691C282.704 316.557 283.591 313.384 284.2 311.099C283.256 311.112 282.308 311.124 281.358 311.135Z" fill="#84240E"/>
<path d="M297.046 310.909C296.289 313.059 295.14 316.511 294.272 319.555C293.527 322.171 292.988 324.486 293.083 325.415C293.29 327.424 294.589 328.06 295.212 328.126L298.075 319.504L300.938 310.882C299.707 310.884 298.405 310.894 297.046 310.909Z" fill="#84240E"/>
<path d="M316.661 307.36C315.851 309.691 314.657 313.273 313.714 316.43C312.776 319.57 312.087 322.289 312.269 322.94C312.635 324.243 315.102 325.952 316.29 326.643C317.161 323.62 318.549 318.631 319.667 314.212C320.547 310.735 321.26 307.611 321.424 306.075C319.891 306.481 318.304 306.909 316.661 307.36Z" fill="#84240E"/>
<path d="M337.294 302.154C335.331 307.428 331.601 318.695 332.388 321.58C333.37 325.186 335.502 326.882 336.385 325.507C337.09 324.408 340.441 308.797 342.029 301.129C340.548 301.437 338.971 301.777 337.294 302.154Z" fill="#84240E"/>
<path d="M321.424 306.075C321.26 307.611 320.547 310.735 319.667 314.212C320.547 314.306 333.754 308.747 334.385 302.823C330.56 303.719 326.259 304.791 321.424 306.075Z" fill="#E6975E"/>
<path d="M304.195 310.898C303.181 310.885 302.091 310.88 300.938 310.882L298.075 319.504C300.285 320.08 306.506 320.272 313.714 316.43C314.657 313.273 315.851 309.691 316.661 307.36C312.818 308.413 308.671 309.588 304.195 310.898Z" fill="#E6975E"/>
<path d="M297.046 310.909C294.72 310.934 292.228 310.974 289.649 311.016L289.648 311.016C287.865 311.044 286.041 311.074 284.2 311.099C283.591 313.384 282.704 316.557 281.756 319.691C285.218 319.193 292.569 318.47 294.272 319.555C295.14 316.511 296.289 313.059 297.046 310.909Z" fill="#E6975E"/>
<path d="M275.736 319.05L277.886 311.166C275.725 311.179 273.581 311.181 271.495 311.164C271.592 313.346 272.553 317.74 275.736 319.05Z" fill="#E6975E"/>
<path d="M244.58 314.942C243.817 315.199 239.911 319.301 241.488 321.276C242.449 322.48 243.653 321.402 245.042 320.158C245.931 319.361 246.896 318.497 247.921 318.121C248.975 317.735 250.431 317.555 251.778 317.388C253.786 317.14 255.554 316.921 255.39 316.093C255.117 314.708 251.102 312.925 250.686 312.881C250.354 312.846 246.477 314.24 244.58 314.942Z" fill="#E6975E"/>
<path fill-rule="evenodd" clip-rule="evenodd" d="M249.567 308.583C251.141 309.868 255.671 310.547 261.622 310.884C263.425 310.986 265.359 311.056 267.38 311.102C268.718 311.133 270.093 311.153 271.495 311.164L249.567 308.583Z" fill="#84240E"/>
<path fill-rule="evenodd" clip-rule="evenodd" d="M249.567 308.583C248.007 308.756 243.987 310.044 240.389 313.818C239.766 314.833 239.096 316.067 238.45 317.452C237.587 319.302 236.766 321.421 236.158 323.645C242.292 327.348 256.533 335.574 264.425 338.854C274.291 342.954 340.316 335.978 353.711 330.627C364.426 326.347 371.485 314.599 373.674 309.26C372.718 306.949 371.075 304.53 368.51 302.075C367.283 300.9 365.845 299.718 364.171 298.535C362.521 298.359 357.376 297.948 342.029 301.129C340.441 308.797 337.09 324.408 336.385 325.507C335.502 326.882 333.37 325.186 332.388 321.58C331.601 318.695 335.331 307.428 337.294 302.154C336.356 302.365 335.387 302.588 334.385 302.823C333.754 308.747 320.547 314.306 319.667 314.212C318.549 318.631 317.161 323.62 316.29 326.643C315.102 325.952 312.635 324.243 312.269 322.94C312.087 322.289 312.776 319.57 313.714 316.43C306.506 320.272 300.285 320.08 298.075 319.504L295.212 328.126C294.589 328.06 293.29 327.424 293.083 325.415C292.988 324.486 293.527 322.171 294.272 319.555C292.569 318.47 285.218 319.193 281.756 319.691C280.161 324.959 278.394 330.117 277.482 330.756C276.028 331.776 274.156 329.084 273.402 327.611L275.736 319.05C272.553 317.74 271.592 313.346 271.495 311.164C270.093 311.153 268.718 311.133 267.38 311.102C265.794 316.787 262.267 328.323 260.851 328.985C259.553 329.593 258.691 327.695 257.866 325.879C257.565 325.218 257.27 324.568 256.96 324.053C256.032 322.509 259.681 314.63 261.622 310.884C255.671 310.547 251.141 309.868 249.567 308.583ZM241.488 321.276C239.911 319.301 243.817 315.199 244.58 314.942C246.477 314.24 250.354 312.846 250.686 312.881C251.102 312.925 255.117 314.708 255.39 316.093C255.554 316.921 253.786 317.14 251.778 317.388C250.431 317.555 248.975 317.735 247.921 318.121C246.896 318.497 245.931 319.361 245.042 320.158C243.653 321.402 242.449 322.48 241.488 321.276Z" fill="#D65E21"/>
<path d="M261.622 310.884C259.681 314.63 256.032 322.509 256.96 324.053C257.27 324.568 257.565 325.218 257.866 325.879C258.691 327.695 259.553 329.593 260.851 328.985C262.267 328.323 265.794 316.787 267.38 311.102C265.359 311.056 263.425 310.986 261.622 310.884Z" fill="#84240E"/>
<path d="M236.158 323.645C236.766 321.421 237.587 319.302 238.45 317.452C238.5 317.344 237.553 311.822 235.59 311.5C233.655 311.182 233.059 313.643 233.185 314.268C233.22 314.319 233.252 314.369 233.282 314.417C233.301 314.569 233.309 314.758 233.19 314.294C233.188 314.286 233.186 314.277 233.185 314.268C232.623 313.453 231.438 312.268 230.479 313.102C229.205 314.208 227.663 315.851 230.057 319.043C229.11 318.716 227.016 318.177 226.211 318.633C225.204 319.204 223.638 321.07 223.995 321.673C224.351 322.275 226.115 323.48 226.935 323.68C227.754 323.88 230.341 324.269 230.294 324.715C230.246 325.162 228.907 324.906 228.8 325.912C228.693 326.917 228.33 328.346 228.918 328.748C229.506 329.149 231.11 329.885 231.677 329.493C232.131 329.18 234.257 328.563 235.263 328.294C235.427 326.73 235.743 325.163 236.158 323.645Z" fill="#B23215"/>
<path d="M373.321 302.446C372.596 301.352 372.175 299.387 371.507 298.751C370.995 298.264 369.362 300.657 368.51 302.075C371.075 304.53 372.718 306.949 373.674 309.26C374.544 311.364 374.844 313.378 374.751 315.248C377.957 316.945 378.725 314.88 378.844 313.764C378.939 312.87 377.616 312.127 376.943 311.867C377.394 311.915 378.662 311.915 380.133 311.529C381.971 311.047 380.409 307.944 379.545 307.174C378.681 306.405 377.146 306.015 377.597 305.725C378.049 305.434 380.113 302.83 380.38 302.294C380.648 301.757 379.659 300.184 377.268 299.929C374.877 299.675 374.045 303.539 373.321 302.446Z" fill="#B23215"/>
<path d="M386.397 278.1C380.389 290.213 302.152 325.794 260.259 313.872C257.294 312.885 253.509 310.457 251.552 306.343C250.747 304.653 250.251 302.678 250.247 300.401C254.318 304.49 265.345 312.629 276.883 312.468C291.306 312.266 354.95 293.362 362.486 285.789C368.514 279.73 378.507 266.668 382.75 260.895C383.715 262.137 384.609 263.462 385.36 264.844C387.62 268.999 388.597 273.664 386.397 278.1Z" fill="#C54B1A"/>
<path d="M336.21 266.694C337.284 266.262 338.359 265.826 339.428 265.39L344.439 271.844L349.881 278.853C349.751 280.503 349.055 283.707 347.321 283.324C346.234 283.084 342.622 279 339.127 274.747C337.048 272.218 335.011 269.628 333.572 267.752C334.448 267.402 335.329 267.049 336.21 266.694Z" fill="#84240E"/>
<path d="M321.637 272.508C323.161 274.203 325.547 276.949 327.517 279.427C329.21 281.556 330.596 283.486 330.864 284.381C331.445 286.316 330.49 287.401 329.939 287.702L323.986 280.839L318.033 273.977C319.17 273.507 320.377 273.016 321.637 272.508Z" fill="#84240E"/>
<path d="M302.162 276.76C303.805 278.602 306.283 281.451 308.365 284.004C310.437 286.544 312.117 288.79 312.198 289.46C312.361 290.805 310.739 293.329 309.907 294.424C307.942 291.966 304.746 287.892 302.017 284.241C299.87 281.368 298.012 278.757 297.271 277.402C298.843 277.189 300.473 276.975 302.162 276.76Z" fill="#84240E"/>
<path d="M281.112 279.874C284.949 283.99 292.718 292.963 293.1 295.928C293.577 299.635 292.259 302.019 290.916 301.089C289.843 300.344 280.756 287.216 276.347 280.745C277.832 280.46 279.418 280.17 281.112 279.874Z" fill="#84240E"/>
<path d="M297.271 277.402C298.012 278.757 299.87 281.368 302.017 284.241C301.24 284.666 286.911 284.602 284.055 279.374C287.931 278.733 292.314 278.073 297.271 277.402Z" fill="#E6975E"/>
<path d="M315.031 275.242C315.963 274.84 316.968 274.418 318.033 273.977L323.986 280.839C322.167 282.219 316.496 284.784 308.365 284.004C306.283 281.451 303.805 278.602 302.162 276.76C306.115 276.257 310.396 275.75 315.031 275.242Z" fill="#E6975E"/>
<path d="M321.637 272.508C323.795 271.638 326.111 270.719 328.508 269.767L328.51 269.766C330.166 269.108 331.862 268.435 333.572 267.752C335.011 269.628 337.048 272.218 339.127 274.747C335.739 275.617 328.673 277.771 327.517 279.427C325.547 276.949 323.161 274.203 321.637 272.508Z" fill="#E6975E"/>
<path d="M344.439 271.844L339.428 265.39C341.428 264.573 343.408 263.751 345.328 262.935C346.076 264.986 346.876 269.413 344.439 271.844Z" fill="#E6975E"/>
<path d="M371.632 256.091C372.435 256.036 377.617 258.324 376.919 260.753C376.493 262.234 374.967 261.7 373.207 261.085C372.08 260.69 370.858 260.263 369.767 260.309C368.645 260.357 367.232 260.75 365.924 261.113C363.974 261.655 362.258 262.131 362.091 261.304C361.812 259.92 364.835 256.733 365.202 256.532C365.496 256.372 369.611 256.171 371.632 256.091Z" fill="#E6975E"/>
<path fill-rule="evenodd" clip-rule="evenodd" d="M364.586 252.134C363.625 253.925 359.703 256.291 354.338 258.886C352.712 259.672 350.953 260.479 349.104 261.298C347.881 261.84 346.618 262.386 345.328 262.935L364.586 252.134Z" fill="#84240E"/>
<path fill-rule="evenodd" clip-rule="evenodd" d="M364.586 252.134C366.093 251.694 370.299 251.341 375.07 253.445C376.034 254.143 377.127 255.025 378.255 256.055C379.763 257.432 381.334 259.074 382.75 260.895C378.507 266.668 368.514 279.73 362.486 285.789C354.95 293.362 291.306 312.266 276.883 312.468C265.345 312.629 254.318 304.49 250.247 300.401C250.242 297.9 250.831 295.035 252.257 291.784C252.939 290.228 253.813 288.584 254.905 286.849C256.361 286.053 260.954 283.699 276.347 280.745C280.756 287.216 289.843 300.344 290.916 301.089C292.259 302.019 293.577 299.635 293.1 295.928C292.718 292.963 284.949 283.99 281.112 279.874C282.059 279.709 283.04 279.542 284.055 279.374C286.911 284.602 301.24 284.666 302.017 284.241C304.746 287.892 307.942 291.966 309.907 294.424C310.739 293.329 312.361 290.805 312.198 289.46C312.117 288.79 310.437 286.544 308.365 284.004C316.496 284.784 322.167 282.219 323.986 280.839L329.939 287.702C330.49 287.401 331.445 286.316 330.864 284.381C330.596 283.486 329.21 281.556 327.517 279.427C328.673 277.771 335.739 275.617 339.127 274.747C342.622 279 346.234 283.084 347.321 283.324C349.055 283.707 349.751 280.503 349.881 278.853L344.439 271.844C346.876 269.413 346.076 264.986 345.328 262.935C346.618 262.386 347.881 261.84 349.104 261.298C352.751 265.938 360.437 275.236 361.998 275.304C363.43 275.367 363.498 273.284 363.562 271.29C363.586 270.565 363.609 269.851 363.697 269.257C363.962 267.474 357.568 261.6 354.338 258.886C359.703 256.291 363.625 253.925 364.586 252.134ZM376.919 260.753C377.617 258.324 372.435 256.036 371.632 256.091C369.611 256.171 365.496 256.372 365.202 256.532C364.835 256.733 361.812 259.92 362.091 261.304C362.258 262.131 363.974 261.655 365.924 261.113C367.232 260.75 368.645 260.357 369.767 260.309C370.858 260.263 372.08 260.69 373.207 261.085C374.967 261.7 376.493 262.234 376.919 260.753Z" fill="#D65E21"/>
<path d="M354.338 258.886C357.568 261.6 363.962 267.474 363.697 269.257C363.609 269.851 363.586 270.565 363.562 271.29C363.498 273.284 363.43 275.367 361.998 275.304C360.437 275.236 352.751 265.938 349.104 261.298C350.953 260.479 352.712 259.672 354.338 258.886Z" fill="#84240E"/>
<path d="M382.75 260.895C381.334 259.074 379.763 257.432 378.255 256.055C378.167 255.975 376.922 250.513 378.611 249.462C380.277 248.426 381.772 250.469 381.895 251.095C381.882 251.155 381.871 251.214 381.862 251.269C381.903 251.417 381.968 251.595 381.9 251.12C381.899 251.112 381.897 251.104 381.895 251.095C382.1 250.126 382.74 248.578 383.946 248.979C385.547 249.511 387.601 250.437 386.616 254.303C387.365 253.638 389.092 252.336 390.01 252.448C391.159 252.588 393.321 253.711 393.223 254.404C393.126 255.097 391.959 256.887 391.279 257.386C390.599 257.886 388.36 259.237 388.575 259.632C388.79 260.026 389.929 259.276 390.414 260.163C390.898 261.05 391.782 262.231 391.393 262.827C391.004 263.424 389.806 264.718 389.132 264.575C388.593 264.46 386.393 264.706 385.36 264.844C384.609 263.462 383.715 262.137 382.75 260.895Z" fill="#B23215"/>
<path d="M247.957 293.973C248.206 292.685 247.841 290.709 248.214 289.865C248.5 289.219 250.926 290.802 252.257 291.784C250.831 295.035 250.242 297.9 250.247 300.401C250.251 302.678 250.747 304.653 251.552 306.343C249.242 309.141 247.741 307.529 247.202 306.544C246.771 305.755 247.707 304.561 248.229 304.063C247.832 304.28 246.66 304.767 245.154 304.975C243.271 305.236 243.522 301.771 244.025 300.729C244.527 299.686 245.796 298.737 245.267 298.642C244.739 298.547 241.833 296.935 241.38 296.543C240.928 296.15 241.237 294.317 243.346 293.165C245.456 292.012 247.708 295.261 247.957 293.973Z" fill="#B23215"/>
<path d="M388.084 229.765C383.948 242.639 311.885 289.478 268.684 283.931C265.604 283.397 261.5 281.56 258.951 277.783C257.904 276.232 257.119 274.352 256.776 272.102C261.411 275.539 273.528 281.944 284.913 280.065C299.145 277.718 359.262 249.542 365.585 240.931C370.644 234.042 378.579 219.637 381.914 213.296C383.054 214.38 384.135 215.558 385.084 216.812C387.938 220.584 389.598 225.051 388.084 229.765Z" fill="#C54B1A"/>
<path d="M336.758 225.964C337.756 225.376 338.754 224.786 339.746 224.195L345.663 229.831L352.088 235.951C352.205 237.602 351.995 240.874 350.223 240.753C349.112 240.677 344.931 237.177 340.842 233.493C338.41 231.301 336.01 229.044 334.307 227.403C335.122 226.926 335.94 226.446 336.758 225.964Z" fill="#84240E"/>
<path d="M323.214 233.884C324.974 235.333 327.742 237.693 330.059 239.85C332.05 241.703 333.708 243.405 334.107 244.25C334.97 246.077 334.187 247.292 333.687 247.672L326.778 241.773L319.869 235.874C320.923 235.239 322.043 234.574 323.214 233.884Z" fill="#84240E"/>
<path d="M304.59 240.99C306.489 242.567 309.363 245.015 311.803 247.23C314.229 249.432 316.226 251.403 316.406 252.054C316.768 253.359 315.539 256.097 314.88 257.303C312.571 255.166 308.803 251.613 305.561 248.41C303.01 245.889 300.784 243.584 299.849 242.353C301.372 241.909 302.951 241.454 304.59 240.99Z" fill="#84240E"/>
<path d="M284.238 247.206C288.646 250.704 297.665 258.419 298.484 261.295C299.508 264.889 298.56 267.443 297.094 266.723C295.921 266.147 284.98 254.519 279.656 248.777C281.083 248.274 282.608 247.75 284.238 247.206Z" fill="#84240E"/>
<path d="M299.849 242.353C300.784 243.584 303.01 245.889 305.561 248.41C304.856 248.945 290.678 251.017 287.074 246.273C290.811 245.062 295.047 243.756 299.849 242.353Z" fill="#E6975E"/>
<path d="M317.089 237.572C317.951 237.036 318.881 236.468 319.869 235.874L326.778 241.773C325.185 243.408 319.959 246.79 311.803 247.23C309.363 245.015 306.489 242.567 304.59 240.99C308.424 239.904 312.581 238.765 317.089 237.572Z" fill="#E6975E"/>
<path d="M323.214 233.884C325.218 232.703 327.371 231.448 329.6 230.15L329.601 230.149C331.141 229.252 332.718 228.333 334.307 227.403C336.01 229.044 338.41 231.301 340.842 233.493C337.621 234.858 330.956 238.04 330.059 239.85C327.742 237.693 324.974 235.333 323.214 233.884Z" fill="#E6975E"/>
<path d="M345.663 229.831L339.746 224.195C341.602 223.089 343.438 221.982 345.214 220.888C346.26 222.806 347.71 227.064 345.663 229.831Z" fill="#E6975E"/>
<path d="M370.205 210.202C370.991 210.028 376.455 211.519 376.127 214.025C375.927 215.552 374.338 215.252 372.507 214.905C371.334 214.683 370.061 214.443 368.989 214.651C367.887 214.865 366.548 215.464 365.309 216.018C363.461 216.845 361.836 217.572 361.547 216.778C361.065 215.452 363.58 211.849 363.913 211.596C364.179 211.394 368.218 210.583 370.205 210.202Z" fill="#E6975E"/>
<path fill-rule="evenodd" clip-rule="evenodd" d="M362.648 207.339C361.965 209.253 358.439 212.177 353.52 215.542C352.029 216.562 350.411 217.622 348.704 218.707C347.575 219.425 346.408 220.154 345.214 220.888L362.648 207.339Z" fill="#84240E"/>
<path fill-rule="evenodd" clip-rule="evenodd" d="M362.648 207.339C364.072 206.68 368.179 205.704 373.21 207.073C374.268 207.62 375.48 208.329 376.749 209.18C378.445 210.317 380.243 211.706 381.914 213.296C378.579 219.637 370.644 234.042 365.585 240.931C359.262 249.542 299.145 277.718 284.913 280.065C273.528 281.944 261.411 275.539 256.776 272.102C256.399 269.629 256.555 266.709 257.48 263.281C257.923 261.642 258.542 259.886 259.363 258.007C260.685 257.003 264.875 253.991 279.656 248.777C284.98 254.519 295.921 266.147 297.094 266.723C298.56 267.443 299.508 264.889 298.484 261.295C297.665 258.419 288.646 250.704 284.238 247.206C285.15 246.901 286.095 246.59 287.074 246.273C290.678 251.017 304.856 248.945 305.561 248.41C308.803 251.613 312.571 255.166 314.88 257.303C315.539 256.097 316.768 253.359 316.406 252.054C316.226 251.403 314.229 249.432 311.803 247.23C319.959 246.79 325.185 243.408 326.778 241.773L333.687 247.672C334.187 247.292 334.97 246.077 334.107 244.25C333.708 243.405 332.05 241.703 330.059 239.85C330.956 238.04 337.621 234.858 340.842 233.493C344.931 237.177 349.112 240.677 350.223 240.753C351.995 240.874 352.205 237.602 352.088 235.951L345.663 229.831C347.71 227.064 346.26 222.806 345.214 220.888C346.408 220.154 347.575 219.425 348.704 218.707C353.002 222.752 361.987 230.802 363.541 230.636C364.966 230.485 364.723 228.415 364.49 226.434C364.405 225.713 364.322 225.004 364.32 224.403C364.316 222.601 357.119 217.745 353.52 215.542C358.439 212.177 361.965 209.253 362.648 207.339ZM376.127 214.025C376.455 211.519 370.991 210.028 370.205 210.202C368.218 210.583 364.179 211.394 363.913 211.596C363.58 211.849 361.065 215.452 361.547 216.778C361.836 217.572 363.461 216.845 365.309 216.018C366.548 215.464 367.887 214.865 368.989 214.651C370.061 214.443 371.334 214.683 372.507 214.905C374.338 215.252 375.927 215.552 376.127 214.025Z" fill="#D65E21"/>
<path d="M353.52 215.542C357.119 217.745 364.316 222.601 364.32 224.403C364.322 225.004 364.405 225.713 364.49 226.434C364.723 228.415 364.966 230.485 363.541 230.636C361.987 230.802 353.002 222.752 348.704 218.707C350.411 217.622 352.029 216.562 353.52 215.542Z" fill="#84240E"/>
<path d="M381.914 213.296C380.243 211.706 378.445 210.317 376.749 209.18C376.65 209.114 374.605 203.898 376.119 202.607C377.611 201.334 379.394 203.132 379.609 203.732C379.606 203.794 379.603 203.854 379.602 203.91C379.665 204.05 379.756 204.216 379.618 203.757C379.615 203.749 379.612 203.741 379.609 203.732C379.668 202.744 380.07 201.118 381.322 201.335C382.985 201.623 385.154 202.232 384.756 206.201C385.397 205.432 386.91 203.888 387.836 203.862C388.992 203.829 391.297 204.617 391.304 205.317C391.311 206.017 390.424 207.96 389.826 208.556C389.228 209.151 387.215 210.821 387.486 211.179C387.758 211.537 388.772 210.625 389.384 211.43C389.995 212.235 391.045 213.271 390.749 213.919C390.454 214.567 389.461 216.025 388.773 215.984C388.223 215.951 386.084 216.522 385.084 216.812C384.135 215.558 383.054 214.38 381.914 213.296Z" fill="#B23215"/>
<path d="M253.554 266.087C253.609 264.776 252.953 262.876 253.196 261.986C253.382 261.305 256.017 262.509 257.48 263.281C256.555 266.709 256.399 269.629 256.776 272.102C257.119 274.352 257.904 276.232 258.951 277.783C257.084 280.894 255.36 279.524 254.681 278.63C254.137 277.914 254.885 276.594 255.326 276.024C254.966 276.298 253.88 276.953 252.421 277.384C250.599 277.922 250.331 274.459 250.672 273.353C251.014 272.247 252.127 271.12 251.59 271.105C251.053 271.089 247.94 269.928 247.434 269.607C246.927 269.287 246.96 267.429 248.874 265.974C250.789 264.52 253.5 267.397 253.554 266.087Z" fill="#B23215"/>
</g>
<g filter="url(#filter1_d_62_3615)">
<circle cx="217" cy="116" r="48" fill="#F99C1A"/>
<path d="M252 147.5C212.4 146.3 182.5 113.333 172.5 97L164 128C159.667 133 159.7 146.1 194.5 158.5C229.3 170.9 247.334 156.333 252 147.5Z" fill="#FFBD2E"/>
<circle cx="147" cy="152" r="48" fill="#F99C1A"/>
<path d="M150 200.5C190.8 195.7 179.333 137.5 168.5 109C189.7 113.4 195.333 144.5 195.5 159.5C188.3 191.1 162.167 200 150 200.5Z" fill="#D9983D"/>
<path d="M144.5 200.5C103.7 195.7 115.167 137.5 126 109C104.8 113.4 99.1667 144.5 99 159.5C106.2 191.1 132.333 200 144.5 200.5Z" fill="#FFBD2E"/>
<circle cx="147.5" cy="151.5" r="42.5" fill="#FFDB7B"/>
<path d="M121.269 177.947L140.317 158.752C141.1 158.226 142.784 157.606 143.261 159.33C143.858 161.485 140.126 185.719 139.742 187.682C126.719 187.575 122.001 181.147 121.269 177.947Z" fill="#EBA131"/>
<path d="M169.021 181.289L152.059 160.229C151.335 159.625 149.724 158.833 149.071 160.498C148.255 162.58 149.462 187.071 149.642 189.063C162.606 190.302 167.963 184.396 169.021 181.289Z" fill="#EBA131"/>
<path d="M184.197 162.328L158.468 154.007C157.531 153.899 155.75 154.119 156.116 155.87C156.574 158.059 171.005 177.883 172.247 179.451C183.77 173.384 185.015 165.508 184.197 162.328Z" fill="#EBA131"/>
<path d="M183.854 137.208L158.179 145.696C157.359 146.162 156.053 147.392 157.383 148.589C159.045 150.084 182.401 157.553 184.329 158.084C190.041 146.38 186.393 139.29 183.854 137.208Z" fill="#EBA131"/>
<path d="M165.867 118.338L150.14 140.335C149.752 141.195 149.423 142.96 151.202 143.141C153.427 143.368 176.693 135.624 178.563 134.915C176.273 122.095 169.145 118.522 165.867 118.338Z" fill="#EBA131"/>
<path d="M136.73 115.227L143.449 141.42C143.858 142.27 144.996 143.658 146.28 142.412C147.885 140.855 156.928 118.063 157.589 116.175C146.301 109.679 138.98 112.836 136.73 115.227Z" fill="#EBA131"/>
<path d="M189.723 66.5668C186.353 59.0167 184.623 45.1514 195.5 29L199.5 15C208.833 27.8333 224.7 57.6 213.5 74C205.822 85.2421 202.092 84.2824 200.505 80.3657L202.5 93C193.333 91 174 85.3 170 78.5C166 71.7 162.667 52 161.5 43C175.168 48.0004 184.923 59.1362 189.723 66.5668Z" fill="#21A04B"/>
<path d="M114.137 134.312L138.029 146.977C138.932 147.247 140.725 147.339 140.668 145.551C140.597 143.316 129.831 121.286 128.88 119.526C116.478 123.499 113.884 131.039 114.137 134.312Z" fill="#EBA131"/>
<path d="M115.571 167.515L139.335 154.61C140.059 154.007 141.128 152.564 139.607 151.623C137.705 150.446 113.396 147.235 111.404 147.054C107.857 159.585 112.704 165.916 115.571 167.515Z" fill="#EBA131"/>
<circle cx="148.5" cy="150.5" r="3.5" fill="#FFEFE1"/>
<path d="M199.5 16C199.825 36.9651 200.752 78.6591 201.911 81.8333C202.127 82.1005 202.172 82.1723 202 82C201.97 81.9701 201.94 81.9142 201.911 81.8333C200.246 79.7733 188.443 66.098 188 63C187.5 59.5 184.5 52.5 199.5 16Z" fill="#457B53"/>
<path d="M175 75.5C173 72.3 164.833 52.5 161 43C163.667 54.5 169.4 78.4 171 82C172.6 85.6 192.333 90.1667 202 92C193.833 87.8333 177 78.7 175 75.5Z" fill="#457B53"/>
</g>
<path d="M77.8873 397.996C77.2158 397.127 61.1007 389.998 69.494 377.652C77.8873 365.307 83.4269 365.133 83.4269 364.09C83.4269 363.046 93.1631 371.393 92.9952 374.522C92.838 377.454 100.93 397.323 82.0839 398.109C82.3117 398.532 82.777 399.441 83.4269 400.781C88.3509 398.52 99.1055 393.023 102.731 389.128C106.357 385.233 105.249 382.173 104.242 381.13L106.089 379.565V384.26C106.089 385.79 101.948 390.925 99.8777 393.302L83.4269 400.781C84.0542 402.075 84.8535 403.771 85.777 405.821L91.3165 404.082C92.8273 405.009 95.9832 406.864 96.5204 406.864C97.0576 406.864 105.249 403.966 109.278 402.517L117 401.648C115.042 402.691 110.621 404.778 108.607 404.778C106.089 404.778 104.914 405.995 100.381 406.864C96.7554 407.56 94.3941 407.965 93.6667 408.081C92.7714 407.328 90.813 405.821 90.1415 405.821C89.47 405.821 87.2261 406.516 86.1881 406.864C86.9084 408.97 87.1537 411.485 86.7486 413.819L94.1703 418.166C93.4428 418.514 92.1559 419.592 92.8273 421.122C93.6667 423.035 98.199 431.381 98.3669 431.903C98.5348 432.425 91.988 425.347 91.3165 423.035C90.6451 420.723 90.1415 419.557 90.1415 418.862C90.1415 418.305 87.5059 416.654 86.1881 415.897C85.3549 418.101 83.7949 419.931 81.3245 420.769C82.1612 420.79 83.3184 421.09 84.7698 421.992C88.1271 424.078 85.777 432.598 85.777 433.816C85.777 435.033 78.7266 437.815 77.2158 437.815C75.705 437.815 72.6835 436.076 70.3333 433.468C68.4532 431.381 68.9904 425.643 69.494 423.035C70.9935 422.054 74.1126 420.274 75.084 420.658C72.6908 419.28 72.6224 415.953 71.3405 413.298C69.8297 413.935 66.6403 415.245 65.9688 415.384C65.1295 415.558 64.6259 416.775 62.1079 418.862C60.0935 420.531 55.785 421.064 53.8825 421.122L59.5899 418.166C60.765 417.065 63.2494 414.758 63.7866 414.341C64.458 413.819 70.3333 412.081 71.0836 412.081C71.0398 410.046 72.3705 406.985 73.9885 404.082L68.3189 402.517L62.6115 405.299C58.247 402.94 49.3165 398.199 48.5108 398.109C47.705 398.019 47.1679 397.649 47 397.475C47.4476 397.011 48.5108 396.153 49.1823 396.431C50.0216 396.779 61.1007 402.517 62.1079 402.517C63.1151 402.517 68.1511 400.262 69.494 400.781C70.5683 401.196 73.5427 402.111 74.8956 402.517C75.451 401.593 76.0161 400.71 76.552 399.909L58.9185 388.085V378.348L62.1079 377.652C61.6603 380.608 60.8993 386.625 61.4365 387.042C61.9736 387.459 72.1799 395.146 77.2158 398.937C77.4509 398.6 77.676 398.285 77.8873 397.996Z" fill="#BD6A3B"/>
<path d="M63.7867 437.551L72.18 432.335L66.4725 439.116C66.3606 440.16 65.8682 442.629 64.7939 444.159C63.7195 445.689 63.6748 440.391 63.7867 437.551Z" fill="#4C2018"/>
<path d="M78.8946 444.159C80.4054 441.724 77.5517 434.074 77.3838 432.335L80.2375 436.16C80.3494 439.464 80.5061 446.524 80.2375 448.332C79.9018 450.592 77.3838 446.593 78.8946 444.159Z" fill="#4C2018"/>
<path d="M111.424 299.071C111.133 298.012 98.9312 285.298 111.383 277.064C123.835 268.829 129.026 270.772 129.422 269.807C129.818 268.841 135.657 280.259 134.313 283.091C133.054 285.744 132.997 307.196 115.264 300.769C115.314 301.247 115.399 302.264 115.491 303.751C120.905 303.528 132.942 302.527 137.775 300.3C142.608 298.073 142.745 294.821 142.209 293.474L144.512 292.727L142.729 297.07C142.148 298.486 136.368 301.665 133.55 303.077L115.491 303.751C115.581 305.186 115.676 307.058 115.752 309.305L121.537 309.8C122.583 311.232 124.798 314.146 125.295 314.35C125.792 314.553 134.471 314.983 138.748 315.172L146.222 317.299C144.014 317.521 139.132 317.773 137.269 317.008C134.939 316.052 133.39 316.732 128.867 315.815C125.248 315.082 122.91 314.561 122.193 314.392C121.651 313.355 120.411 311.217 119.79 310.962C119.169 310.708 116.829 310.499 115.736 310.427C115.603 312.649 114.875 315.068 113.614 317.074L118.83 323.913C118.025 323.959 116.425 324.467 116.465 326.138C116.515 328.226 117.54 337.668 117.497 338.214C117.454 338.761 114.085 329.728 114.341 327.334C114.598 324.94 114.575 323.67 114.839 323.027C115.05 322.512 113.239 319.984 112.307 318.784C110.699 320.505 108.562 321.606 105.958 321.444C106.724 321.781 107.681 322.498 108.681 323.883C110.995 327.088 105.586 334.078 105.123 335.204C104.661 336.33 97.0827 336.227 95.685 335.653C94.2873 335.08 92.1522 332.324 90.9683 329.019C90.0211 326.375 92.6967 321.27 94.1528 319.048C95.9125 318.71 99.474 318.247 100.227 318.972C98.5361 316.788 99.7356 313.685 99.558 310.741C97.9183 310.758 94.4703 310.758 93.7963 310.632C92.9538 310.474 92.0258 311.409 88.9042 312.384C86.4068 313.163 82.2184 312.02 80.4364 311.352L86.8388 310.784C88.344 310.211 91.5182 309.021 92.1736 308.839C92.9928 308.611 99.0883 309.233 99.7824 309.518C100.514 307.619 102.908 305.292 105.507 303.221L100.856 299.621L94.5194 300.028C91.3774 296.188 84.9155 288.412 84.2044 288.022C83.4932 287.633 83.1368 287.086 83.0476 286.862C83.6377 286.603 84.947 286.213 85.4625 286.725C86.107 287.365 94.178 296.88 95.1097 297.263C96.0415 297.645 101.557 297.471 102.602 298.461C103.438 299.253 105.842 301.229 106.94 302.118C107.805 301.474 108.663 300.871 109.463 300.334L97.6385 282.7L101.335 273.692L104.55 274.26C103.014 276.824 100.026 282.101 100.364 282.691C100.703 283.281 107.226 294.267 110.446 299.687C110.791 299.464 111.119 299.258 111.424 299.071Z" fill="#BD6A3B"/>
<path d="M83.3614 330.31L93.1067 328.671L85.252 332.778C84.7524 333.701 83.3594 335.798 81.7845 336.806C80.2097 337.813 82.1796 332.895 83.3614 330.31Z" fill="#4C2018"/>
<path d="M94.8294 342.159C97.1513 340.481 97.416 332.319 97.9209 330.647L99.1086 335.269C97.9578 338.368 95.4224 344.959 94.4874 346.53C93.3186 348.493 92.5075 343.838 94.8294 342.159Z" fill="#4C2018"/>
<path d="M87.8517 508.738C86.8901 508.207 69.2691 508.067 72.0666 493.403C74.8641 478.739 79.8786 476.379 79.4641 475.421C79.0496 474.464 91.3004 478.255 92.3898 481.194C93.4103 483.947 108.73 498.965 91.7477 507.174C92.1249 507.472 92.9129 508.121 94.0418 509.093C97.6621 505.061 105.348 495.744 107.128 490.729C108.908 485.714 106.675 483.346 105.336 482.789L106.409 480.619L108.274 484.927C108.882 486.332 107.123 492.689 106.167 495.693L94.0418 509.093C95.1315 510.031 96.5389 511.27 98.2007 512.784L102.594 508.987C104.348 509.238 107.981 509.686 108.474 509.473C108.967 509.259 115.333 503.345 118.455 500.415L125.196 496.549C123.813 498.285 120.585 501.956 118.737 502.756C116.426 503.756 115.831 505.34 112.017 507.939C108.966 510.018 106.961 511.328 106.339 511.724C105.218 511.388 102.822 510.783 102.206 511.05C101.59 511.316 99.8069 512.846 98.9925 513.578C100.49 515.224 101.715 517.435 102.27 519.738L110.808 520.778C110.279 521.387 109.526 522.887 110.75 524.025C112.28 525.446 119.756 531.305 120.117 531.717C120.478 532.129 111.658 528.235 110.124 526.38C108.589 524.525 107.664 523.656 107.387 523.017C107.166 522.507 104.091 522.038 102.581 521.868C102.692 524.22 101.988 526.52 100.054 528.271C100.83 527.957 102.011 527.773 103.701 528.024C107.611 528.605 108.84 537.357 109.323 538.474C109.807 539.591 104.442 544.945 103.056 545.546C101.669 546.146 98.2055 545.751 95.0126 544.291C92.4582 543.123 90.6714 537.644 90.0973 535.05C91.0836 533.554 93.2387 530.681 94.2828 530.648C91.5389 530.334 90.1547 527.309 87.9232 525.381C86.7901 526.566 84.3836 529.035 83.8226 529.43C83.1215 529.923 83.1429 531.24 81.6612 534.155C80.4758 536.487 76.7338 538.688 75.0109 539.498L79.0741 534.517C79.715 533.04 81.0784 529.936 81.4055 529.339C81.8145 528.594 86.5153 524.664 87.2038 524.366C86.3553 522.516 86.3603 519.179 86.6918 515.872L80.8672 516.688L76.7349 521.509C71.7923 521.078 61.7134 520.275 60.9381 520.513C60.1628 520.75 59.5227 520.624 59.2996 520.531C59.5262 519.927 60.161 518.718 60.8877 518.706C61.7962 518.692 74.2431 519.556 75.1674 519.156C76.0917 518.756 79.8173 514.686 81.2558 514.628C82.4066 514.582 85.4997 514.24 86.9025 514.075C87.045 513.007 87.2126 511.971 87.3863 511.024L66.5065 507.179L62.6379 498.243L65.2884 496.338C66.0521 499.228 67.744 505.052 68.4028 505.221C69.0615 505.391 81.4816 508.39 87.6094 509.868C87.6912 509.465 87.7726 509.087 87.8517 508.738Z" fill="#BD6A3B"/>
<path d="M90.627 550.639L96.2569 542.517L93.7135 551.008C94.0253 552.009 94.5544 554.471 94.1764 556.302C93.7985 558.133 91.6527 553.289 90.627 550.639Z" fill="#4C2018"/>
<path d="M107.116 550.7C107.536 547.866 101.877 541.978 101.032 540.449L105.171 542.826C106.586 545.813 109.535 552.23 110.007 553.996C110.597 556.204 106.697 553.534 107.116 550.7Z" fill="#4C2018"/>
<path d="M126.088 627.174C125.171 626.683 108.28 626.722 111.104 612.904C113.927 599.085 118.757 596.816 118.369 595.92C117.981 595.023 129.688 598.471 130.704 601.224C131.656 603.804 146.197 617.78 129.838 625.665C130.197 625.942 130.946 626.545 132.019 627.448C135.528 623.621 142.986 614.784 144.741 610.05C146.495 605.316 144.378 603.111 143.1 602.599L144.149 600.548L145.896 604.582C146.465 605.897 144.717 611.894 143.772 614.728L132.019 627.448C133.054 628.319 134.391 629.471 135.97 630.879L140.218 627.266C141.898 627.485 145.376 627.871 145.851 627.666C146.325 627.46 152.485 621.836 155.506 619.05L162.005 615.349C160.663 616.995 157.533 620.479 155.754 621.249C153.529 622.213 152.943 623.708 149.262 626.189C146.317 628.173 144.382 629.425 143.782 629.803C142.711 629.498 140.42 628.953 139.826 629.209C139.233 629.466 137.509 630.922 136.721 631.618C138.141 633.152 139.294 635.22 139.804 637.38L147.979 638.276C147.465 638.853 146.729 640.272 147.892 641.33C149.345 642.652 156.455 648.09 156.797 648.474C157.139 648.858 148.722 645.281 147.268 643.551C145.815 641.822 144.936 641.013 144.678 640.415C144.471 639.937 141.528 639.526 140.082 639.38C140.165 641.592 139.468 643.761 137.597 645.427C138.344 645.125 139.478 644.939 141.096 645.159C144.838 645.668 145.932 653.888 146.384 654.934C146.837 655.98 141.643 661.067 140.308 661.645C138.973 662.223 135.656 661.885 132.609 660.543C130.172 659.469 128.512 654.333 127.987 651.899C128.947 650.483 131.04 647.76 132.042 647.718C129.414 647.449 128.116 644.618 125.996 642.826C124.898 643.952 122.567 646.297 122.026 646.674C121.349 647.144 121.357 648.383 119.908 651.139C118.749 653.344 115.141 655.45 113.481 656.228L117.424 651.505C118.053 650.109 119.39 647.176 119.709 646.612C120.109 645.907 124.653 642.165 125.316 641.878C124.52 640.147 124.557 637.008 124.907 633.894L119.316 634.719L115.308 639.292C110.574 638.935 100.919 638.277 100.174 638.508C99.4282 638.739 98.8158 638.626 98.6028 638.541C98.8259 637.971 99.4461 636.827 100.143 636.81C101.014 636.787 112.938 637.48 113.828 637.094C114.718 636.709 118.328 632.845 119.708 632.777C120.812 632.723 123.78 632.372 125.126 632.203C125.273 631.196 125.444 630.221 125.62 629.328L105.641 625.914L102.018 617.547L104.578 615.729C105.282 618.44 106.847 623.901 107.477 624.054C108.107 624.207 119.985 626.908 125.845 628.239C125.927 627.86 126.009 627.503 126.088 627.174Z" fill="#BD6A3B"/>
<path d="M128.344 666.555L133.819 658.862L131.299 666.872C131.588 667.812 132.072 670.122 131.692 671.847C131.312 673.573 129.301 669.038 128.344 666.555Z" fill="#4C2018"/>
<path d="M144.151 666.453C144.58 663.784 139.212 658.301 138.417 656.872L142.362 659.067C143.69 661.863 146.454 667.869 146.89 669.525C147.434 671.596 143.721 669.123 144.151 666.453Z" fill="#4C2018"/>
<path d="M164.938 748.174C164.021 747.683 147.13 747.722 149.954 733.904C152.777 720.085 157.607 717.816 157.219 716.92C156.831 716.023 168.539 719.471 169.555 722.224C170.506 724.804 185.047 738.78 168.688 746.665C169.047 746.942 169.796 747.545 170.869 748.448C174.378 744.621 181.836 735.784 183.591 731.05C185.346 726.316 183.228 724.111 181.95 723.599L183 721.548L184.746 725.582C185.315 726.897 183.567 732.894 182.622 735.728L170.869 748.448C171.904 749.319 173.242 750.471 174.82 751.879L179.068 748.266C180.748 748.485 184.226 748.871 184.701 748.666C185.175 748.46 191.335 742.836 194.356 740.05L200.855 736.349C199.513 737.995 196.384 741.479 194.604 742.249C192.379 743.213 191.793 744.708 188.112 747.189C185.167 749.173 183.232 750.425 182.632 750.803C181.561 750.498 179.27 749.953 178.676 750.209C178.083 750.466 176.359 751.922 175.571 752.618C176.991 754.152 178.144 756.22 178.654 758.38L186.829 759.276C186.315 759.853 185.579 761.272 186.742 762.33C188.195 763.652 195.305 769.09 195.647 769.474C195.989 769.858 187.572 766.281 186.119 764.551C184.665 762.822 183.787 762.013 183.528 761.415C183.321 760.937 180.378 760.526 178.932 760.38C179.015 762.592 178.318 764.761 176.447 766.427C177.194 766.125 178.328 765.939 179.946 766.159C183.689 766.668 184.782 774.888 185.234 775.934C185.687 776.98 180.493 782.067 179.158 782.645C177.823 783.223 174.506 782.885 171.459 781.543C169.022 780.469 167.362 775.333 166.837 772.899C167.797 771.483 169.89 768.76 170.892 768.718C168.264 768.449 166.967 765.618 164.846 763.826C163.748 764.952 161.417 767.297 160.876 767.674C160.199 768.144 160.207 769.383 158.758 772.139C157.599 774.344 153.991 776.45 152.331 777.228L156.275 772.505C156.903 771.109 158.24 768.176 158.56 767.612C158.959 766.907 163.503 763.165 164.166 762.878C163.37 761.147 163.408 758.008 163.757 754.894L158.166 755.719L154.158 760.292C149.424 759.935 139.769 759.277 139.024 759.508C138.278 759.739 137.666 759.626 137.453 759.541C137.676 758.971 138.296 757.827 138.993 757.81C139.864 757.787 151.788 758.48 152.678 758.094C153.568 757.709 157.178 753.845 158.558 753.777C159.662 753.723 162.63 753.372 163.977 753.203C164.124 752.196 164.294 751.221 164.47 750.328L144.491 746.914L140.868 738.547L143.428 736.729C144.132 739.44 145.698 744.901 146.327 745.054C146.957 745.207 158.835 747.908 164.695 749.239C164.777 748.86 164.859 748.503 164.938 748.174Z" fill="#BD6A3B"/>
<path d="M167.194 787.555L172.669 779.862L170.149 787.872C170.438 788.812 170.922 791.122 170.542 792.847C170.162 794.573 168.151 790.038 167.194 787.555Z" fill="#4C2018"/>
<path d="M183.001 787.453C183.43 784.784 178.062 779.301 177.267 777.872L181.212 780.067C182.54 782.863 185.304 788.869 185.74 790.525C186.284 792.596 182.571 790.123 183.001 787.453Z" fill="#4C2018"/>
<path d="M218.938 873.174C218.021 872.683 201.13 872.722 203.954 858.904C206.777 845.085 211.607 842.816 211.219 841.92C210.831 841.023 222.539 844.471 223.555 847.224C224.506 849.804 239.047 863.78 222.688 871.665C223.047 871.942 223.796 872.545 224.869 873.448C228.378 869.621 235.836 860.784 237.591 856.05C239.346 851.316 237.228 849.111 235.95 848.599L237 846.548L238.746 850.582C239.315 851.897 237.567 857.894 236.622 860.728L224.869 873.448C225.904 874.319 227.242 875.471 228.82 876.879L233.068 873.266C234.748 873.485 238.226 873.871 238.701 873.666C239.175 873.46 245.335 867.836 248.356 865.05L254.855 861.349C253.513 862.995 250.384 866.479 248.604 867.249C246.379 868.213 245.793 869.708 242.112 872.189C239.167 874.173 237.232 875.425 236.632 875.803C235.561 875.498 233.27 874.953 232.676 875.209C232.083 875.466 230.359 876.922 229.571 877.618C230.991 879.152 232.144 881.22 232.654 883.38L240.829 884.276C240.315 884.853 239.579 886.272 240.742 887.33C242.195 888.652 249.305 894.09 249.647 894.474C249.989 894.858 241.572 891.281 240.119 889.551C238.665 887.822 237.787 887.013 237.528 886.415C237.321 885.937 234.378 885.526 232.932 885.38C233.015 887.592 232.318 889.761 230.447 891.427C231.194 891.125 232.328 890.939 233.946 891.159C237.689 891.668 238.782 899.888 239.234 900.934C239.687 901.98 234.493 907.067 233.158 907.645C231.823 908.223 228.506 907.885 225.459 906.543C223.022 905.469 221.362 900.333 220.837 897.899C221.797 896.483 223.89 893.76 224.892 893.718C222.264 893.449 220.967 890.618 218.846 888.826C217.748 889.952 215.417 892.297 214.876 892.674C214.199 893.144 214.207 894.383 212.758 897.139C211.599 899.344 207.991 901.45 206.331 902.228L210.275 897.505C210.903 896.109 212.24 893.176 212.56 892.612C212.959 891.907 217.503 888.165 218.166 887.878C217.37 886.147 217.408 883.008 217.757 879.894L212.166 880.719L208.158 885.292C203.424 884.935 193.769 884.277 193.024 884.508C192.278 884.739 191.666 884.626 191.453 884.541C191.676 883.971 192.296 882.827 192.993 882.81C193.864 882.787 205.788 883.48 206.678 883.094C207.568 882.709 211.178 878.845 212.558 878.777C213.662 878.723 216.63 878.372 217.977 878.203C218.124 877.196 218.294 876.221 218.47 875.328L198.491 871.914L194.868 863.547L197.428 861.729C198.132 864.44 199.698 869.901 200.327 870.054C200.957 870.207 212.835 872.908 218.695 874.239C218.777 873.86 218.859 873.503 218.938 873.174Z" fill="#BD6A3B"/>
</g>
<path d="M226.674 696.014L255.111 642.344L279.756 657.252L249.423 699.99C257.007 716.223 272.742 753.66 275.017 773.538C277.86 798.386 272.173 798.386 269.329 798.386C266.486 798.386 222.882 806.337 209.612 794.41C198.996 784.869 231.729 776.52 249.423 773.538L226.674 696.014Z" fill="#BD6A3B"/>
<path d="M247.007 688.845C247.007 684.074 261.541 668.304 268.808 661.016L280.183 658.034L255.538 688.845C253.263 711.108 259.013 725.288 262.173 729.595C277.339 762.195 276.076 788.897 273.548 798.174H268.808C261.541 763.719 247.007 693.616 247.007 688.845Z" fill="#81402D"/>
<path d="M223.831 523.077C144.208 512.74 156.53 469.075 172.645 448.534C187.811 434.62 179.28 434.62 182.123 420.705C184.967 406.79 248.476 349.144 291.131 413.748C333.786 478.351 323.359 535.997 223.831 523.077Z" fill="#BD6A3B"/>
<path d="M297.766 718.874V669.18L328.099 646.32L315.776 713.905C320.832 722.85 332.27 746.704 337.578 770.557C343.042 795.114 336.934 798.098 335.668 798.386C335.673 798.386 335.677 798.386 335.682 798.386C337.578 798.386 297.766 809.319 285.444 798.386C275.586 789.64 301.558 778.84 315.776 774.533L297.766 718.874Z" fill="#BD6A3B"/>
<path d="M310.516 688.845C310.516 684.074 316.52 665.323 323.787 658.034H329.474L319.047 688.845C316.772 711.108 322.523 725.288 325.683 729.595C340.849 762.195 339.585 788.897 337.057 798.174H332.318C325.051 763.719 310.516 693.616 310.516 688.845Z" fill="#81402D"/>
<path fill-rule="evenodd" clip-rule="evenodd" d="M386.868 622.465C402.034 624.85 402.034 628.76 400.138 630.416C396.984 637.031 385.302 643.875 370.754 650.09C363.348 653.253 355.2 656.254 347.056 658.978C355.271 653.236 370.564 629.289 366.014 579.433C371.912 585.733 376.409 592.718 379.72 599.605C383.662 607.804 385.923 615.864 386.868 622.465ZM342.317 562.656C335.638 559.743 328.084 557.643 319.567 556.667C317.672 587.371 306.297 652.011 275.964 664.942C284.487 668.676 295.086 670.688 308.193 670.172C311.586 669.354 315.427 668.375 319.567 667.256C337.767 658.563 342.317 593.9 342.317 562.656ZM269.329 567.548C272 592.099 273.223 642.979 256.747 650.09C243.621 633.276 242.318 609.712 244.684 594.636C245.068 584.942 257.031 575.002 269.329 567.548Z" fill="#BD6A3B"/>
<path d="M319.567 556.667C310.312 555.607 299.922 555.873 288.287 557.862C283.168 559.999 276.197 563.386 269.329 567.548C272 592.099 273.223 642.979 256.747 650.09C261.485 656.158 267.763 661.348 275.964 664.942C306.297 652.011 317.672 587.371 319.567 556.667Z" fill="#4C2018"/>
<path d="M347.056 658.978C355.271 653.236 370.564 629.289 366.014 579.433C359.77 572.763 351.956 566.861 342.317 562.656C342.317 593.9 337.767 658.563 319.567 667.256C327.916 665.001 337.483 662.18 347.056 658.978Z" fill="#491C13"/>
<path d="M157.906 662.01C159.485 657.372 159.612 648.493 147.479 650.083C144.951 655.053 143.498 664.395 157.906 662.01Z" fill="#F5C08C"/>
<path d="M354.119 473.169C354.435 476.151 355.825 482.711 358.859 485.096C361.892 487.481 365.81 487.415 367.39 487.084C368.338 481.783 367.011 471.579 354.119 473.169Z" fill="#F5C08C"/>
<path d="M342.745 517.895C341.481 519.551 339.711 523.659 342.745 526.84C346.536 530.815 352.223 517.895 342.745 517.895Z" fill="#F5C08C"/>
<path fill-rule="evenodd" clip-rule="evenodd" d="M147.479 650.083L354.119 473.169C354.435 476.151 355.825 482.711 358.859 485.096C360.375 490.662 225.522 605.358 157.906 662.01C159.485 657.372 159.612 648.493 147.479 650.083Z" fill="#794F26"/>
<path d="M367.39 487.084C365.81 487.415 361.892 487.481 358.859 485.096C360.375 490.662 225.522 605.358 157.906 662.01L321.891 526.84H342.745C339.711 523.659 341.481 519.551 342.745 517.895H329.474L367.39 487.084Z" fill="#B57434"/>
<ellipse cx="251.319" cy="560.844" rx="38.8636" ry="39.7559" fill="#BD6A3B"/>
<path d="M186.16 647.062C176.111 628.837 220.932 571.274 244.599 544.771C246.079 543.18 247.715 539.638 242.422 538.199C235.806 536.399 199.901 567.358 191.445 587.271C184.679 603.201 172.884 639.29 167.831 655.343C165.917 657.294 165.046 659.732 167.157 662.398C172.331 668.931 198.722 669.843 186.16 647.062Z" fill="#AA5A39"/>
<path d="M216.247 610.539C209.422 598.612 208.664 555.543 211.508 529.039C227.622 533.015 230.466 536.99 252.267 535.997C269.708 535.201 281.652 529.039 285.443 526.058L291.131 572.771C273.121 597.618 223.072 622.466 216.247 610.539Z" fill="#99953C"/>
<path d="M214.779 591.443L217.622 545.724H234.684V591.443H214.779Z" fill="#5B5842"/>
<path d="M240.372 591.443V545.724H255.538V589.455L240.372 591.443Z" fill="#5B5842"/>
<path d="M263.121 555.663C263.121 554.072 261.857 548.374 261.225 545.724H277.339V555.663C272.6 556.325 263.121 557.253 263.121 555.663Z" fill="#5B5842"/>
<path d="M305.814 742.842C298.574 730.832 297.435 706.478 297.77 695.803H319.891C315.065 712.617 324.584 734.168 329.946 742.842C324.919 747.846 313.054 754.852 305.814 742.842Z" fill="#70AE5A"/>
<path d="M235.254 728.812C228.429 716.886 226.358 698.664 226.674 688.062H256.059C251.509 704.76 256.691 720.199 261.746 728.812C257.007 733.782 242.079 740.739 235.254 728.812Z" fill="#70AE5A"/>
<path d="M250.371 604.575C260.988 595.829 278.808 549.248 286.391 527.051L291.131 558.856C287.339 603.581 237.101 615.508 250.371 604.575Z" fill="#7B783E"/>
<path d="M290.183 558.855C281.083 603.382 235.837 611.863 214.352 610.538C214.352 613.189 220.418 620.278 244.684 627.434C268.95 634.59 295.238 584.697 305.349 558.855H290.183Z" fill="#E9BE9C"/>
<path d="M218.57 612.315C230.703 613.905 263.437 558.645 278.287 530.815C292.695 536.381 291.874 537.773 289.662 537.773C291.937 560.831 255.222 607.677 236.58 628.217C225.521 622.254 206.437 610.725 218.57 612.315Z" fill="black" stroke="#4C2018"/>
<path d="M157.905 657.04C148.806 662.606 147.163 654.721 147.478 650.083C141.791 663.998 156.957 663.004 158.853 662.01C160.37 661.215 158.853 658.365 157.905 657.04Z" fill="#C89767"/>
<path d="M312.412 742.516C306.346 738.54 300.405 711.705 298.194 698.784C298.194 699.778 296.298 742.516 308.621 749.473C318.479 755.039 325.999 747.154 328.526 742.516C325.683 744.172 318.479 746.491 312.412 742.516Z" fill="#436537"/>
<path d="M259.329 727.607C238.097 726.017 231.525 700.441 230.893 687.852C227.101 690.833 227.101 722.638 237.528 732.577C245.869 740.528 257.434 733.902 262.173 729.595L259.329 727.607Z" fill="#436537"/>
<path d="M398.67 628.218C352.412 652.071 280.815 643.458 250.798 636.169C258.382 662.408 284.779 672.463 300.089 669.961C373.414 657.98 398.354 636.169 398.67 628.218Z" fill="#9F5238" fill-opacity="0.64"/>
<path d="M213.831 520.877C292.695 525.648 307.988 467.869 305.776 438.384C316.203 453.292 330.8 488.277 305.776 508.951C280.752 529.624 234.052 525.516 213.831 520.877Z" fill="#AA5A39"/>
<path d="M222.796 642.212C242.778 644.255 274.185 577.64 287.391 544.077C288.159 542.005 290.556 538.977 293.997 543.432C298.299 549.002 286.294 596.09 272.51 612.407C261.483 625.461 235.04 651.665 223.197 663.135C222.297 665.77 220.541 667.61 217.352 666.699C209.539 664.467 197.817 639.658 222.796 642.212Z" fill="#BD6A3B"/>
<path d="M228.05 653.066C266.724 630.007 285.871 569.909 290.61 542.743C292.885 540.358 293.454 541.749 293.454 542.743C308.62 593.432 225.206 663.005 223.31 662.011C221.794 661.216 225.838 655.716 228.05 653.066Z" fill="#81402D"/>
<path d="M240.372 407.574C232.031 402.008 196.453 409.893 179.707 414.531C197.717 417.513 218.571 414.531 224.258 411.549C229.945 408.567 269.757 420.494 275.444 426.458C281.131 432.421 318.099 455.281 319.047 450.311C319.805 446.335 301.037 428.777 291.558 420.494C277.972 418.506 248.714 413.139 240.372 407.574Z" fill="#4C2018"/>
<path d="M302.933 439.377C251.368 397.236 199.297 405.916 179.707 415.523C198.665 344.957 251.747 348.932 302.933 370.798C343.882 388.291 330.106 431.094 318.099 450.31L302.933 439.377Z" fill="#9D923A"/>
<path d="M185.282 355.236C192.618 361.114 207.331 376.248 207.49 389.765C209.397 390.736 213.963 392.074 216.968 389.654C220.724 386.628 207.047 351.999 207.012 349.018C206.977 346.036 188.91 341.278 177.583 345.387C166.256 349.495 149.672 390.442 146.829 390.475C143.985 390.509 148.957 410.33 149.812 402.368C150.496 395.999 173.743 368.293 185.282 355.236Z" fill="#4C2018"/>
<path d="M265.661 338.391C271.36 339.318 266.336 396.033 266.395 401.002C269.254 402.294 275.531 404.076 277.769 400.869C280.006 397.662 282.003 357.747 282.722 338.191C276.996 334.945 264.021 327.874 257.927 325.56C251.833 323.246 230.892 337.473 221.183 344.876C224.381 348.151 231.332 353.504 233.551 348.707C236.325 342.71 259.962 337.463 265.661 338.391Z" fill="#4C2018"/>
<path d="M232.788 624.242C237.338 624.242 269.44 563.945 284.922 533.797C288.714 533.797 290.294 537.11 290.61 538.766C293.643 549.103 256.486 603.37 237.528 629.211C234.052 627.555 228.238 624.242 232.788 624.242Z" fill="#393939"/>
<path d="M248.891 433.324C256.277 437.665 258.683 447.883 254.265 456.147C249.847 464.41 248.891 460.959 236.487 460.959C224.488 458.888 223.1 448.689 227.517 440.425C231.935 432.162 241.504 428.982 248.891 433.324Z" fill="white"/>
<path d="M244.163 431.426C237.339 429.836 230.577 434.077 228.049 436.396C224.89 439.709 219.518 445.54 223.31 442.359C228.049 438.384 240.372 436.396 244.163 436.396C247.955 436.396 250.799 440.371 253.642 440.371C255.917 440.371 258.382 431.758 259.33 427.451C257.434 429.77 253.642 433.812 253.642 431.426V425.463C253.326 428.113 250.988 433.017 244.163 431.426Z" fill="black"/>
<path d="M249.851 452.298C249.851 458.336 249.851 462.513 235.987 460.96C230.228 460.96 228.997 458.336 228.997 452.298C228.997 446.26 233.665 441.365 239.424 441.365C245.182 441.365 249.851 446.26 249.851 452.298Z" fill="black"/>
<ellipse cx="243.215" cy="450.31" rx="4.73946" ry="4.96949" fill="white"/>
<path d="M186.552 427.784C179.245 429.332 174.848 436.897 176.731 444.681C178.613 452.466 180.222 449.948 190.821 453.196C201.549 454.677 205.072 446.86 203.189 439.076C201.307 431.292 193.858 426.236 186.552 427.784Z" fill="white"/>
<path d="M191.026 427.501C197.222 428.013 202.029 433.184 203.658 435.706C205.599 439.191 208.854 445.274 206.342 441.73C203.203 437.3 193.128 432.48 189.888 431.487C186.648 430.494 183.307 432.938 180.877 432.193C178.933 431.597 178.8 424.044 178.976 420.341C180.065 422.698 182.379 426.932 182.926 425.019L184.292 420.236C183.955 422.445 184.83 426.99 191.026 427.501Z" fill="black"/>
<path d="M181.385 442.751C180.002 447.594 180.994 452.156 191.249 453.328C196.492 453.328 197.823 453.054 199.206 448.212C200.589 443.369 197.72 438.221 192.8 436.713C187.879 435.205 182.768 437.909 181.385 442.751Z" fill="black"/>
<ellipse cx="4.23597" cy="4.14493" rx="4.23597" ry="4.14493" transform="matrix(-0.95612 -0.292974 -0.274614 0.961554 198.37 440.139)" fill="white"/>
<path d="M204.352 491.06C184.636 489.469 180.971 482.115 182.551 485.096C194.873 496.029 224.258 506.962 242.268 504.974C256.676 503.384 250.688 485.469 242.268 483.109C237.016 481.636 224.068 492.65 204.352 491.06Z" fill="#1D1D1D"/>
<path d="M234.684 496.58C227.239 494.438 223.078 498.226 222.362 502.986C223.316 502.986 226.687 504.613 238.714 504.613C250.741 504.613 251.839 499.258 250.884 496.58C247.782 496.283 242.13 498.722 234.684 496.58Z" fill="#FF9C9C"/>
<ellipse cx="263.121" cy="474.164" rx="7.58314" ry="4.96949" fill="#FF9C9C"/>
<ellipse cx="168.332" cy="468.2" rx="7.58314" ry="4.96949" fill="#FF9C9C"/>
<path d="M189.186 469.193C191.714 467.206 198.096 464.424 203.404 469.193" stroke="black"/>
<path d="M230.893 425.462C238.792 423.475 255.728 420.097 260.277 422.481" stroke="black"/>
<path d="M210.987 423.301C203.088 421.314 186.152 417.935 181.602 420.32" stroke="black"/>
<path d="M298.194 425.463C314.118 422.283 309.884 388.358 305.777 371.793C340.659 382.925 329.158 428.776 319.047 450.311L282.799 427.136C280.365 426.884 279.875 426.11 280.184 425.463L282.799 427.136C285.352 427.4 290.043 427.091 298.194 425.463Z" fill="#635E37"/>
<g filter="url(#filter2_d_62_3615)">
<path d="M406.5 716C256.1 815.6 61 752.5 -9 711L-5 717.5L-19 883.5L426 872L406.5 716Z" fill="#E3F4FF"/>
</g>
<g filter="url(#filter3_d_62_3615)">
<rect x="17" y="65" width="376" height="215" rx="30" fill="white"/>
<path d="M299 321C309 314.2 303.167 288.833 299 277C318.333 263.5 354.9 244.6 346.5 277C338.1 309.4 311.333 319.833 299 321Z" fill="white"/>
</g>
</g>
<defs>
<filter id="filter0_d_62_3615" x="175.96" y="157.244" width="306.999" height="265.104" filterUnits="userSpaceOnUse" color-interpolation-filters="sRGB">
<feFlood flood-opacity="0" result="BackgroundImageFix"/>
<feColorMatrix in="SourceAlpha" type="matrix" values="0 0 0 0 0 0 0 0 0 0 0 0 0 0 0 0 0 0 127 0" result="hardAlpha"/>
<feOffset dy="4"/>
<feGaussianBlur stdDeviation="2"/>
<feComposite in2="hardAlpha" operator="out"/>
<feColorMatrix type="matrix" values="0 0 0 0 0 0 0 0 0 0 0 0 0 0 0 0 0 0 0.25 0"/>
<feBlend mode="normal" in2="BackgroundImageFix" result="effect1_dropShadow_62_3615"/>
<feBlend mode="normal" in="SourceGraphic" in2="effect1_dropShadow_62_3615" result="shape"/>
</filter>
<filter id="filter1_d_62_3615" x="95" y="15" width="174" height="193.5" filterUnits="userSpaceOnUse" color-interpolation-filters="sRGB">
<feFlood flood-opacity="0" result="BackgroundImageFix"/>
<feColorMatrix in="SourceAlpha" type="matrix" values="0 0 0 0 0 0 0 0 0 0 0 0 0 0 0 0 0 0 127 0" result="hardAlpha"/>
<feOffset dy="4"/>
<feGaussianBlur stdDeviation="2"/>
<feComposite in2="hardAlpha" operator="out"/>
<feColorMatrix type="matrix" values="0 0 0 0 0 0 0 0 0 0 0 0 0 0 0 0 0 0 0.25 0"/>
<feBlend mode="normal" in2="BackgroundImageFix" result="effect1_dropShadow_62_3615"/>
<feBlend mode="normal" in="SourceGraphic" in2="effect1_dropShadow_62_3615" result="shape"/>
</filter>
<filter id="filter2_d_62_3615" x="-37" y="691" width="481" height="208.5" filterUnits="userSpaceOnUse" color-interpolation-filters="sRGB">
<feFlood flood-opacity="0" result="BackgroundImageFix"/>
<feColorMatrix in="SourceAlpha" type="matrix" values="0 0 0 0 0 0 0 0 0 0 0 0 0 0 0 0 0 0 127 0" result="hardAlpha"/>
<feOffset dy="-2"/>
<feGaussianBlur stdDeviation="9"/>
<feComposite in2="hardAlpha" operator="out"/>
<feColorMatrix type="matrix" values="0 0 0 0 0.101331 0 0 0 0 0.379993 0 0 0 0 0.658654 0 0 0 0.38 0"/>
<feBlend mode="normal" in2="BackgroundImageFix" result="effect1_dropShadow_62_3615"/>
<feBlend mode="normal" in="SourceGraphic" in2="effect1_dropShadow_62_3615" result="shape"/>
</filter>
<filter id="filter3_d_62_3615" x="13" y="65" width="384" height="264" filterUnits="userSpaceOnUse" color-interpolation-filters="sRGB">
<feFlood flood-opacity="0" result="BackgroundImageFix"/>
<feColorMatrix in="SourceAlpha" type="matrix" values="0 0 0 0 0 0 0 0 0 0 0 0 0 0 0 0 0 0 127 0" result="hardAlpha"/>
<feOffset dy="4"/>
<feGaussianBlur stdDeviation="2"/>
<feComposite in2="hardAlpha" operator="out"/>
<feColorMatrix type="matrix" values="0 0 0 0 0 0 0 0 0 0 0 0 0 0 0 0 0 0 0.25 0"/>
<feBlend mode="normal" in2="BackgroundImageFix" result="effect1_dropShadow_62_3615"/>
<feBlend mode="normal" in="SourceGraphic" in2="effect1_dropShadow_62_3615" result="shape"/>
</filter>
<clipPath id="clip0_62_3615">
<rect width="402" height="874" fill="white"/>
</clipPath>
</defs>
</svg>
