<svg width="209" height="188" viewBox="0 0 209 188" fill="none" xmlns="http://www.w3.org/2000/svg">
<path d="M9.60583 80.5792C8.54587 76.63 18.2116 67.6852 23.177 63.7064C26.0862 65.6128 30.6053 68.5479 34.3569 70.9262C34.2863 71.833 34.2949 72.7374 34.3712 73.6329L23.054 71.6776C19.0129 76.2903 10.6658 84.5284 9.60583 80.5792Z" fill="#5D4439"/>
<path fill-rule="evenodd" clip-rule="evenodd" d="M186.978 117.647C203.199 110.647 191.698 92.4453 181.5 87.4648L144.5 70.9262L97.5062 68.9648L69.4033 75.7754C65.643 65.9799 54.8265 48.8613 41.6434 58.7501C41.0417 59.2015 40.483 59.6615 39.9653 60.1292C36.2525 63.4829 34.645 67.2254 34.3569 70.9262C34.2863 71.833 34.2949 72.7374 34.3712 73.6329C35.1292 82.5291 42.5648 90.5532 45.3414 91.4947C48.6371 92.6122 60.8415 88.3406 67.4735 85.7005L68.1446 100.589L40.8011 101.974L46.0938 144.875L44.7499 152.513C49.4227 152.361 57.6837 149.703 53.3455 140.283C49.0072 130.863 48.0378 113.483 48.0954 105.97L70.9345 106.621L60.273 111.302C61.3219 115.21 62.9584 123.414 61.1129 124.968C59.2675 126.522 58.7446 130.896 58.7139 132.888L72.4317 129.207L66.1808 114.346L88.1713 102.432C89.441 103.219 90.7661 103.997 92.1457 104.756C93.1209 113.54 94.781 128.18 95.0267 129.096L96.3517 134.032L106.241 128.732L98.7468 108.041C99.4668 108.362 100.198 108.678 100.942 108.986C105.505 110.878 109.952 111.827 114.139 112.118L129.064 125.252L122.363 150.865L127 168.143C124.154 171.024 124.104 174.212 124.436 175.446C129.043 175.753 138.158 175.997 137.761 174.516C137.641 174.068 137.332 173.166 136.939 172.017C135.71 168.422 133.654 162.409 133.952 160.324C134.175 158.755 134.196 148.215 134.215 138.817L134.215 138.815C134.229 131.725 134.242 125.285 134.34 123.836C134.495 121.533 129.002 115.429 125.031 111.449C132.108 110.091 137.657 107.197 140.586 104.961C143.939 108.207 153.351 115.807 164.903 118.871C168.371 126.969 180.657 150.001 186.829 161.346C188.06 161.016 190.257 159.368 189.197 155.419C188.197 151.692 178.737 131.462 173.35 120.164C175.416 120.238 177.517 120.126 179.633 119.787C189.154 131.655 198.52 139.578 202.013 142.056C205.282 139.062 193.352 124.535 186.978 117.647Z" fill="#AE5D39"/>
<path d="M23.7425 38.4172L41.6434 58.7501C41.0417 59.2015 40.483 59.6615 39.9653 60.1292L23.4538 45.7713C19.5437 49.4668 11.5909 56.3642 11.0609 54.3897C10.5309 52.4151 19.2945 42.9186 23.7425 38.4172Z" fill="#5D4439"/>
<path d="M34.422 71.9342C48.3793 93.5902 59.2599 81.5851 62.9555 72.8755L79.354 77.0739C73.499 81.9529 59.1965 91.7453 48.826 91.8826C38.4555 92.02 34.9022 78.6409 34.422 71.9342Z" fill="#985233"/>
<path d="M154.175 86.0993L172.254 117.63L170.64 120.048L153.856 95.4462L151.757 106.594L143.046 103.64L154.175 86.0993Z" fill="#AE5D39"/>
<path d="M72.5919 106.673C75.547 104.336 81.5689 99.2361 82.0156 97.5286C80.4327 97.9534 74.7331 104.114 72.4571 104.063C70.181 104.013 47.7516 104.74 46.3344 105.782C45.2006 106.616 47.963 136.436 49.4859 151.242C51.5514 149.806 55.4443 146.468 54.4923 144.607C53.5402 142.745 49.9331 118.488 48.2485 106.592L72.5919 106.673Z" fill="#985233"/>
<path d="M66.8615 114.826C66.5303 113.592 87.365 102.708 87.8926 102.567C83.2742 102.218 71.0233 109.961 65.4751 113.875L68.7259 130.202C69.8363 130.125 72.2682 129.913 73.1124 129.686C74.1676 129.403 67.1928 116.061 66.8615 114.826Z" fill="#985233"/>
<path d="M114.585 109.294C112.632 108.76 91.4858 100.5 81.1567 96.4367C83.1441 103.841 103.536 110.275 113.665 112.188C114.665 111.699 116.539 109.829 114.585 109.294Z" fill="#985233"/>
<path d="M106.229 128.736L98.4876 108.323C97.3708 112.592 100.425 130.294 100.757 131.528C101.022 132.516 104.515 130.078 106.229 128.736Z" fill="#985233"/>
<path d="M189.712 155.282C188.809 150.232 165.996 106.962 154.703 85.9582C151.144 89.5593 145.559 99.658 143.211 104.257L145.487 104.308L154.31 88.7096L187.706 160.451C188.751 160.832 190.615 160.331 189.712 155.282Z" fill="#985233"/>
<path d="M193.161 113.341C198.3 107.198 186.142 99.1279 179.42 95.8604C182.007 98.4737 187.201 104.621 187.284 108.303C187.368 111.985 178.092 117.606 173.444 119.956C176.139 120.171 180.948 119.95 185.459 118.361C190.887 128.048 201.867 146.197 202.363 141.301C202.859 136.405 192.66 123.416 187.499 117.533C189.643 116.537 191.626 115.176 193.161 113.341Z" fill="#985233"/>
<path d="M153.494 96.2038C153.357 96.3426 153.24 96.7234 153.14 97.2728L150.371 105.642L152.616 107.685C152.613 104.838 152.723 99.5746 153.14 97.2728L153.494 96.2038Z" fill="#985233"/>
<path d="M156.929 100.574L157.182 101.166C158.084 104.272 154.649 111.074 152.689 114.281L164.536 118.378L157.182 101.166C157.119 100.95 157.036 100.752 156.929 100.574Z" fill="#985233"/>
<path d="M134.523 122.464L124.548 110.588C126.929 115.241 131.821 125.041 132.351 127.016C132.881 128.99 131.377 159.912 130.558 175.126C134.465 176.194 136.758 174.344 137.417 173.285L134.405 164.171L134.523 122.464Z" fill="#985233"/>
</svg>
