<svg width="354" height="351" viewBox="0 0 354 351" fill="none" xmlns="http://www.w3.org/2000/svg">
<g filter="url(#filter0_d_253_4)">
<ellipse cx="103" cy="254.5" rx="102" ry="88.5" fill="#B6ED77"/>
</g>
<path d="M28.0147 237.875C27.8647 237.875 27.7397 237.817 27.6397 237.7C27.5397 237.6 27.4981 237.475 27.5147 237.325L28.3397 231.85C28.3731 231.617 28.4647 231.408 28.6147 231.225C28.7814 231.025 29.0231 230.925 29.3397 230.925H32.7897C32.9397 230.925 33.0647 230.983 33.1647 231.1C33.2647 231.2 33.3147 231.317 33.3147 231.45C33.3147 231.533 33.3064 231.608 33.2897 231.675L31.1397 237.125C31.0731 237.292 30.9647 237.458 30.8147 237.625C30.6814 237.792 30.4564 237.875 30.1397 237.875H28.0147ZM36.2438 236C35.8772 236 35.6938 235.817 35.6938 235.45V228.325C35.6938 227.225 35.8022 226.392 36.0188 225.825C36.2522 225.242 36.6522 224.95 37.2188 224.95H41.8688C41.4522 224.95 41.1105 225.308 40.8438 226.025C40.5938 226.725 40.4688 227.592 40.4688 228.625V235.45C40.4688 235.617 40.3855 235.75 40.2188 235.85C40.0522 235.95 39.8855 236 39.7188 236H36.2438ZM34.3938 225.55C34.2105 225.55 34.0522 225.492 33.9188 225.375C33.8022 225.242 33.7438 225.083 33.7438 224.9V222.375C33.7438 222.192 33.8022 222.042 33.9188 221.925C34.0522 221.792 34.2105 221.725 34.3938 221.725H42.1188C42.2855 221.725 42.4355 221.792 42.5688 221.925C42.7022 222.042 42.7688 222.192 42.7688 222.375V224.9C42.7688 225.067 42.7105 225.217 42.5938 225.35C42.4772 225.483 42.3188 225.55 42.1188 225.55H34.3938ZM52.0896 236C51.9062 236 51.7479 235.942 51.6146 235.825C51.4979 235.708 51.4396 235.558 51.4396 235.375V227.975C51.4396 227.175 51.2396 226.575 50.8396 226.175C50.4562 225.758 49.8562 225.55 49.0396 225.55H45.0896C44.9062 225.55 44.7479 225.492 44.6146 225.375C44.4979 225.242 44.4396 225.083 44.4396 224.9V222.375C44.4396 222.192 44.4979 222.042 44.6146 221.925C44.7479 221.792 44.9062 221.725 45.0896 221.725H49.1896C50.7229 221.725 52.0146 221.917 53.0646 222.3C54.1146 222.683 54.9062 223.317 55.4396 224.2C55.9896 225.083 56.2646 226.292 56.2646 227.825V235.35C56.2646 235.533 56.1979 235.692 56.0646 235.825C55.9479 235.942 55.7979 236 55.6146 236H52.0896ZM59.4556 236C59.2722 236 59.1139 235.942 58.9806 235.825C58.8639 235.692 58.8056 235.533 58.8056 235.35V222.375C58.8056 222.192 58.8639 222.042 58.9806 221.925C59.1139 221.792 59.2722 221.725 59.4556 221.725H63.1806C63.3472 221.725 63.4972 221.792 63.6306 221.925C63.7639 222.042 63.8306 222.192 63.8306 222.375V235.35C63.8306 235.533 63.7639 235.692 63.6306 235.825C63.4972 235.942 63.3472 236 63.1806 236H59.4556ZM76.2704 236C75.9704 236 75.7454 235.933 75.5954 235.8C75.4621 235.65 75.3704 235.533 75.3204 235.45L66.4204 222.575C66.3537 222.492 66.3204 222.392 66.3204 222.275C66.3204 222.125 66.3704 222 66.4704 221.9C66.5704 221.783 66.6954 221.725 66.8454 221.725H70.3454C70.6454 221.725 70.8621 221.8 70.9954 221.95C71.1287 222.1 71.2287 222.217 71.2954 222.3L80.3454 235.15C80.4121 235.217 80.4454 235.275 80.4454 235.325C80.4454 235.375 80.4454 235.417 80.4454 235.45C80.4454 235.6 80.3871 235.733 80.2704 235.85C80.1704 235.95 80.0537 236 79.9204 236H76.2704ZM66.9454 236C66.7621 236 66.6037 235.933 66.4704 235.8C66.3537 235.65 66.2954 235.483 66.2954 235.3V232.4C66.2954 231.4 66.3787 230.542 66.5454 229.825C66.7287 229.108 67.0287 228.467 67.4454 227.9C67.8787 227.317 68.4871 226.75 69.2704 226.2L71.5454 229.475C71.2121 229.742 70.9704 230.05 70.8204 230.4C70.6704 230.75 70.5787 231.092 70.5454 231.425C70.5121 231.758 70.4954 232.058 70.4954 232.325V235.3C70.4954 235.517 70.4287 235.692 70.2954 235.825C70.1787 235.942 70.0287 236 69.8454 236H66.9454ZM76.8454 231.05L74.4954 227.825C74.9287 227.608 75.2287 227.358 75.3954 227.075C75.5787 226.775 75.6871 226.475 75.7204 226.175C75.7704 225.875 75.7954 225.6 75.7954 225.35V222.425C75.7954 222.208 75.8537 222.042 75.9704 221.925C76.1037 221.792 76.2621 221.725 76.4454 221.725H79.5454C79.7287 221.725 79.8787 221.8 79.9954 221.95C80.1287 222.083 80.1954 222.242 80.1954 222.425V225.45C80.1954 226.117 80.1037 226.775 79.9204 227.425C79.7371 228.075 79.4037 228.708 78.9204 229.325C78.4371 229.925 77.7454 230.5 76.8454 231.05ZM87.6583 237.875C87.5083 237.875 87.3833 237.817 87.2833 237.7C87.1833 237.6 87.1416 237.475 87.1583 237.325L87.9833 231.85C88.0166 231.617 88.1083 231.408 88.2583 231.225C88.425 231.025 88.6666 230.925 88.9833 230.925H92.4333C92.5833 230.925 92.7083 230.983 92.8083 231.1C92.9083 231.2 92.9583 231.317 92.9583 231.45C92.9583 231.533 92.95 231.608 92.9333 231.675L90.7833 237.125C90.7166 237.292 90.6083 237.458 90.4583 237.625C90.325 237.792 90.1 237.875 89.7833 237.875H87.6583ZM95.7837 236C95.6004 236 95.442 235.942 95.3087 235.825C95.192 235.692 95.1337 235.533 95.1337 235.35V222.375C95.1337 222.192 95.192 222.042 95.3087 221.925C95.442 221.792 95.6004 221.725 95.7837 221.725H101.734C103.217 221.725 104.467 221.917 105.484 222.3C106.517 222.683 107.292 223.325 107.809 224.225C108.342 225.108 108.609 226.317 108.609 227.85V235.325C108.609 235.492 108.542 235.65 108.409 235.8C108.275 235.933 108.117 236 107.934 236H95.7837ZM99.4087 232.175H104.009V227.975C104.009 227.175 103.809 226.575 103.409 226.175C103.025 225.758 102.425 225.55 101.609 225.55H99.4087V232.175ZM111.799 236C111.616 236 111.458 235.942 111.324 235.825C111.208 235.692 111.149 235.533 111.149 235.35V222.375C111.149 222.192 111.208 222.042 111.324 221.925C111.458 221.792 111.616 221.725 111.799 221.725H118.049C119.599 221.725 120.899 221.925 121.949 222.325C122.999 222.708 123.791 223.367 124.324 224.3C124.858 225.217 125.124 226.458 125.124 228.025V235.35C125.124 235.533 125.058 235.692 124.924 235.825C124.808 235.942 124.658 236 124.474 236H120.949C120.783 236 120.633 235.942 120.499 235.825C120.366 235.708 120.299 235.558 120.299 235.375V227.975C120.299 227.175 120.099 226.575 119.699 226.175C119.316 225.758 118.724 225.55 117.924 225.55H115.974V235.35C115.974 235.533 115.908 235.692 115.774 235.825C115.641 235.942 115.491 236 115.324 236H111.799ZM130.883 236.35C130.717 236.383 130.558 236.317 130.408 236.15C130.275 235.983 130.208 235.808 130.208 235.625V232.675C130.208 232.508 130.275 232.342 130.408 232.175C130.542 232.008 130.692 231.892 130.858 231.825L131.583 231.525C131.983 231.358 132.342 231.142 132.658 230.875C132.992 230.608 133.258 230.258 133.458 229.825C133.658 229.375 133.758 228.808 133.758 228.125C133.758 227.558 133.692 227.108 133.558 226.775C133.442 226.425 133.225 226.167 132.908 226C132.608 225.833 132.183 225.75 131.633 225.75H131.108C130.942 225.75 130.792 225.692 130.658 225.575C130.525 225.442 130.458 225.283 130.458 225.1V222.325C130.458 222.158 130.525 222.017 130.658 221.9C130.792 221.783 130.942 221.725 131.108 221.725H132.658C134.142 221.725 135.325 221.975 136.208 222.475C137.092 222.975 137.733 223.692 138.133 224.625C138.533 225.542 138.733 226.65 138.733 227.95C138.733 229.05 138.542 230.058 138.158 230.975C137.792 231.875 137.283 232.667 136.633 233.35C135.983 234.017 135.25 234.583 134.433 235.05C133.633 235.5 132.792 235.842 131.908 236.075L130.883 236.35ZM132.133 225.75H127.383C127.2 225.75 127.042 225.692 126.908 225.575C126.792 225.442 126.733 225.283 126.733 225.1V218.9C126.733 218.717 126.792 218.567 126.908 218.45C127.042 218.317 127.2 218.25 127.383 218.25H130.583C130.767 218.25 130.917 218.317 131.033 218.45C131.167 218.567 131.233 218.717 131.233 218.9V221.725H132.158L132.133 225.75ZM144.384 236.35C144.218 236.383 144.059 236.317 143.909 236.15C143.776 235.983 143.709 235.808 143.709 235.625V232.675C143.709 232.508 143.776 232.342 143.909 232.175C144.043 232.008 144.193 231.892 144.359 231.825L145.084 231.525C145.484 231.358 145.843 231.142 146.159 230.875C146.493 230.608 146.759 230.258 146.959 229.825C147.159 229.375 147.259 228.808 147.259 228.125C147.259 227.558 147.193 227.108 147.059 226.775C146.943 226.425 146.726 226.167 146.409 226C146.109 225.833 145.684 225.75 145.134 225.75H144.609C144.443 225.75 144.293 225.692 144.159 225.575C144.026 225.442 143.959 225.283 143.959 225.1V222.325C143.959 222.158 144.026 222.017 144.159 221.9C144.293 221.783 144.443 221.725 144.609 221.725H146.159C147.643 221.725 148.826 221.975 149.709 222.475C150.593 222.975 151.234 223.692 151.634 224.625C152.034 225.542 152.234 226.65 152.234 227.95C152.234 229.05 152.043 230.058 151.659 230.975C151.293 231.875 150.784 232.667 150.134 233.35C149.484 234.017 148.751 234.583 147.934 235.05C147.134 235.5 146.293 235.842 145.409 236.075L144.384 236.35ZM145.634 225.75H140.884C140.701 225.75 140.543 225.692 140.409 225.575C140.293 225.442 140.234 225.283 140.234 225.1V218.9C140.234 218.717 140.293 218.567 140.409 218.45C140.543 218.317 140.701 218.25 140.884 218.25H144.084C144.268 218.25 144.418 218.317 144.534 218.45C144.668 218.567 144.734 218.717 144.734 218.9V221.725H145.659L145.634 225.75ZM160.066 239.1C159.883 239.1 159.724 239.033 159.591 238.9C159.474 238.783 159.416 238.633 159.416 238.45V222.375C159.416 222.192 159.474 222.042 159.591 221.925C159.724 221.792 159.883 221.725 160.066 221.725H163.591C163.758 221.725 163.908 221.792 164.041 221.925C164.174 222.042 164.241 222.192 164.241 222.375V238.45C164.241 238.633 164.174 238.783 164.041 238.9C163.908 239.033 163.758 239.1 163.591 239.1H160.066ZM167.385 236C167.202 236 167.044 235.942 166.91 235.825C166.794 235.692 166.735 235.533 166.735 235.35V232.625C166.735 232.442 166.794 232.292 166.91 232.175C167.044 232.042 167.202 231.975 167.385 231.975H171.035C171.852 231.975 172.477 231.767 172.91 231.35C173.36 230.933 173.602 230.333 173.635 229.55C173.652 229.283 173.66 229.058 173.66 228.875C173.66 228.675 173.652 228.442 173.635 228.175C173.602 227.375 173.36 226.775 172.91 226.375C172.477 225.958 171.852 225.75 171.035 225.75H167.385C167.202 225.75 167.044 225.692 166.91 225.575C166.794 225.442 166.735 225.283 166.735 225.1V222.375C166.735 222.192 166.794 222.042 166.91 221.925C167.044 221.792 167.202 221.725 167.385 221.725H171.16C172.827 221.725 174.169 222 175.185 222.55C176.202 223.083 176.952 223.842 177.435 224.825C177.919 225.792 178.194 226.917 178.26 228.2C178.277 228.483 178.285 228.708 178.285 228.875C178.285 229.025 178.277 229.242 178.26 229.525C178.194 230.808 177.919 231.942 177.435 232.925C176.952 233.892 176.202 234.65 175.185 235.2C174.169 235.733 172.827 236 171.16 236H167.385ZM34.5271 260.05C34.3437 260.05 34.1854 259.992 34.0521 259.875C33.9354 259.742 33.8771 259.583 33.8771 259.4V252.375C33.8771 252.192 33.9354 252.042 34.0521 251.925C34.1854 251.792 34.3437 251.725 34.5271 251.725H38.2521C38.4187 251.725 38.5687 251.792 38.7021 251.925C38.8354 252.042 38.9021 252.192 38.9021 252.375V259.4C38.9021 259.583 38.8354 259.742 38.7021 259.875C38.5687 259.992 38.4187 260.05 38.2521 260.05H34.5271ZM42.146 266C41.9627 266 41.8043 265.942 41.671 265.825C41.5543 265.692 41.496 265.533 41.496 265.35V252.375C41.496 252.192 41.5543 252.042 41.671 251.925C41.8043 251.792 41.9627 251.725 42.146 251.725H48.396C49.946 251.725 51.246 251.925 52.296 252.325C53.346 252.708 54.1377 253.367 54.671 254.3C55.2043 255.217 55.471 256.458 55.471 258.025V265.35C55.471 265.533 55.4043 265.692 55.271 265.825C55.1543 265.942 55.0043 266 54.821 266H51.296C51.1293 266 50.9793 265.942 50.846 265.825C50.7127 265.708 50.646 265.558 50.646 265.375V257.975C50.646 257.175 50.446 256.575 50.046 256.175C49.6627 255.758 49.071 255.55 48.271 255.55H46.321V265.35C46.321 265.533 46.2543 265.692 46.121 265.825C45.9877 265.942 45.8377 266 45.671 266H42.146ZM58.6743 266C58.491 266 58.3326 265.942 58.1993 265.825C58.0826 265.692 58.0243 265.533 58.0243 265.35V252.375C58.0243 252.192 58.0826 252.042 58.1993 251.925C58.3326 251.792 58.491 251.725 58.6743 251.725H62.3993C62.566 251.725 62.716 251.792 62.8493 251.925C62.9827 252.042 63.0493 252.192 63.0493 252.375V265.35C63.0493 265.533 62.9827 265.692 62.8493 265.825C62.716 265.942 62.566 266 62.3993 266H58.6743ZM69.3892 255.75V256.325C69.4058 256.558 69.4558 256.75 69.5392 256.9C69.6225 257.05 69.7308 257.15 69.8642 257.2L70.4892 257.425C70.6225 257.492 70.7225 257.6 70.7892 257.75C70.8725 257.883 70.9142 258.033 70.9142 258.2L70.9392 259.65C70.9392 259.95 70.8225 260.175 70.5892 260.325C70.3558 260.475 70.0642 260.533 69.7142 260.5L68.6642 260.35C68.0975 260.283 67.5725 260.058 67.0892 259.675C66.6225 259.292 66.2392 258.783 65.9392 258.15C65.6558 257.5 65.5142 256.767 65.5142 255.95V252.375C65.5475 252.192 65.6225 252.042 65.7392 251.925C65.8558 251.792 65.9975 251.725 66.1642 251.725H71.3392C72.9558 251.725 74.2558 252 75.2392 252.55C76.2392 253.083 76.9808 253.842 77.4642 254.825C77.9475 255.792 78.2225 256.917 78.2892 258.2C78.3058 258.45 78.3142 258.675 78.3142 258.875C78.3142 259.058 78.3058 259.275 78.2892 259.525C78.2225 260.808 77.9475 261.942 77.4642 262.925C76.9808 263.892 76.2392 264.65 75.2392 265.2C74.2558 265.733 72.9558 266 71.3392 266H66.4642C66.2808 266 66.1225 265.942 65.9892 265.825C65.8725 265.692 65.8142 265.533 65.8142 265.35V262.625C65.8142 262.442 65.8725 262.292 65.9892 262.175C66.1225 262.042 66.2808 261.975 66.4642 261.975H71.2142C71.9642 261.975 72.5975 261.767 73.1142 261.35C73.6475 260.933 73.9308 260.333 73.9642 259.55C73.9808 259.3 73.9892 259.075 73.9892 258.875C73.9892 258.658 73.9808 258.425 73.9642 258.175C73.9308 257.375 73.6475 256.775 73.1142 256.375C72.5975 255.958 71.9642 255.75 71.2142 255.75H69.3892ZM81.5382 255.55C81.3549 255.55 81.1965 255.492 81.0632 255.375C80.9465 255.242 80.8882 255.083 80.8882 254.9V252.375C80.8882 252.192 80.9465 252.042 81.0632 251.925C81.1965 251.792 81.3549 251.725 81.5382 251.725H88.9882C90.5215 251.725 91.8132 251.933 92.8632 252.35C93.9132 252.767 94.7049 253.425 95.2382 254.325C95.7882 255.208 96.0632 256.383 96.0632 257.85V265.35C96.0632 265.533 95.9965 265.692 95.8632 265.825C95.7465 265.942 95.5965 266 95.4132 266H91.8882C91.7215 266 91.5715 265.942 91.4382 265.825C91.3049 265.708 91.2382 265.558 91.2382 265.375V257.975C91.2382 257.175 91.0465 256.575 90.6632 256.175C90.2799 255.758 89.6799 255.55 88.8632 255.55H81.5382ZM85.0132 253.625H86.3382C86.8882 253.625 87.2549 253.725 87.4382 253.925C87.6382 254.125 87.6882 254.333 87.5882 254.55C87.4215 255 87.2882 255.45 87.1882 255.9C87.0882 256.333 87.0132 256.792 86.9632 257.275C86.9299 257.742 86.9132 258.267 86.9132 258.85L87.1632 265.35C87.1632 265.533 87.0965 265.692 86.9632 265.825C86.8299 265.942 86.6715 266 86.4882 266H80.6382C80.4549 266 80.2965 265.933 80.1632 265.8C80.0465 265.667 79.9882 265.517 79.9882 265.35V263.025C79.9882 262.842 80.0465 262.692 80.1632 262.575C80.2965 262.442 80.4549 262.375 80.6382 262.375H82.6882V258.875C82.6882 258.392 82.7049 257.917 82.7382 257.45C82.7882 256.983 82.8632 256.508 82.9632 256.025C83.0632 255.542 83.2049 255.05 83.3882 254.55C83.4882 254.3 83.6465 254.083 83.8632 253.9C84.0965 253.717 84.4799 253.625 85.0132 253.625ZM103.405 267.875C103.255 267.875 103.13 267.817 103.03 267.7C102.93 267.6 102.889 267.475 102.905 267.325L103.73 261.85C103.764 261.617 103.855 261.408 104.005 261.225C104.172 261.025 104.414 260.925 104.73 260.925H108.18C108.33 260.925 108.455 260.983 108.555 261.1C108.655 261.2 108.705 261.317 108.705 261.45C108.705 261.533 108.697 261.608 108.68 261.675L106.53 267.125C106.464 267.292 106.355 267.458 106.205 267.625C106.072 267.792 105.847 267.875 105.53 267.875H103.405ZM120.581 266C120.397 266 120.239 265.942 120.106 265.825C119.989 265.708 119.931 265.558 119.931 265.375V257.975C119.931 257.175 119.731 256.575 119.331 256.175C118.947 255.758 118.347 255.55 117.531 255.55H111.531C111.347 255.55 111.189 255.492 111.056 255.375C110.939 255.242 110.881 255.083 110.881 254.9V252.375C110.881 252.192 110.939 252.042 111.056 251.925C111.189 251.792 111.347 251.725 111.531 251.725H117.656C119.939 251.725 121.689 252.217 122.906 253.2C124.139 254.183 124.756 255.792 124.756 258.025V265.35C124.756 265.533 124.689 265.692 124.556 265.825C124.439 265.942 124.289 266 124.106 266H120.581ZM111.531 266C111.347 266 111.189 265.942 111.056 265.825C110.939 265.692 110.881 265.533 110.881 265.35V258.375C110.881 258.192 110.939 258.042 111.056 257.925C111.189 257.792 111.347 257.725 111.531 257.725H115.056C115.222 257.725 115.372 257.792 115.506 257.925C115.639 258.042 115.706 258.192 115.706 258.375V265.35C115.706 265.533 115.639 265.692 115.506 265.825C115.372 265.942 115.222 266 115.056 266H111.531ZM134.336 266.25C131.92 266.25 130.12 265.692 128.936 264.575C127.753 263.442 127.161 261.917 127.161 260V252.375C127.161 252.192 127.22 252.042 127.336 251.925C127.47 251.792 127.628 251.725 127.811 251.725H130.911C131.078 251.725 131.228 251.792 131.361 251.925C131.495 252.042 131.561 252.192 131.561 252.375V259.875C131.561 260.708 131.82 261.308 132.336 261.675C132.853 262.042 133.511 262.225 134.311 262.225C135.095 262.225 135.703 262.042 136.136 261.675C136.57 261.292 136.786 260.708 136.786 259.925C136.786 259.742 136.786 259.558 136.786 259.375C136.786 259.192 136.786 259.008 136.786 258.825C136.786 258.625 136.786 258.442 136.786 258.275C136.786 257.475 136.67 256.842 136.436 256.375C136.203 255.892 135.853 255.65 135.386 255.65C135.186 255.65 134.97 255.683 134.736 255.75C134.503 255.8 134.311 255.858 134.161 255.925C133.961 255.992 133.778 255.975 133.611 255.875C133.461 255.775 133.386 255.608 133.386 255.375V253C133.386 252.833 133.42 252.658 133.486 252.475C133.57 252.292 133.711 252.15 133.911 252.05C134.111 251.933 134.386 251.842 134.736 251.775C135.103 251.692 135.611 251.65 136.261 251.65C137.561 251.65 138.586 251.875 139.336 252.325C140.086 252.758 140.628 253.417 140.961 254.3C141.295 255.167 141.461 256.242 141.461 257.525C141.461 257.692 141.461 257.95 141.461 258.3C141.461 258.633 141.461 258.967 141.461 259.3C141.478 259.633 141.478 259.883 141.461 260.05C141.395 261.317 141.103 262.417 140.586 263.35C140.086 264.267 139.32 264.983 138.286 265.5C137.27 266 135.953 266.25 134.336 266.25ZM150.494 266.25C148.111 266.25 146.352 265.683 145.219 264.55C144.086 263.417 143.519 261.892 143.519 259.975V252.375C143.519 252.192 143.577 252.042 143.694 251.925C143.827 251.792 143.986 251.725 144.169 251.725H150.669C152.402 251.725 153.769 251.975 154.769 252.475C155.786 252.975 156.519 253.683 156.969 254.6C157.419 255.5 157.677 256.567 157.744 257.8C157.761 257.967 157.769 258.2 157.769 258.5C157.769 258.783 157.769 259.075 157.769 259.375C157.769 259.658 157.761 259.883 157.744 260.05C157.677 261.317 157.411 262.417 156.944 263.35C156.477 264.267 155.727 264.983 154.694 265.5C153.661 266 152.261 266.25 150.494 266.25ZM150.469 262.225C151.486 262.225 152.177 262.05 152.544 261.7C152.911 261.35 153.111 260.758 153.144 259.925C153.161 259.758 153.169 259.55 153.169 259.3C153.169 259.05 153.169 258.8 153.169 258.55C153.169 258.3 153.161 258.092 153.144 257.925C153.111 257.125 152.902 256.533 152.519 256.15C152.152 255.75 151.494 255.55 150.544 255.55H147.919V259.875C147.919 260.708 148.144 261.308 148.594 261.675C149.061 262.042 149.686 262.225 150.469 262.225ZM163.627 255.75V256.325C163.644 256.558 163.694 256.75 163.777 256.9C163.861 257.05 163.969 257.15 164.102 257.2L164.727 257.425C164.861 257.492 164.961 257.6 165.027 257.75C165.111 257.883 165.152 258.033 165.152 258.2L165.177 259.65C165.177 259.95 165.061 260.175 164.827 260.325C164.594 260.475 164.302 260.533 163.952 260.5L162.902 260.35C162.336 260.283 161.811 260.058 161.327 259.675C160.861 259.292 160.477 258.783 160.177 258.15C159.894 257.5 159.752 256.767 159.752 255.95V252.375C159.786 252.192 159.861 252.042 159.977 251.925C160.094 251.792 160.236 251.725 160.402 251.725H165.577C167.194 251.725 168.494 252 169.477 252.55C170.477 253.083 171.219 253.842 171.702 254.825C172.186 255.792 172.461 256.917 172.527 258.2C172.544 258.45 172.552 258.675 172.552 258.875C172.552 259.058 172.544 259.275 172.527 259.525C172.461 260.808 172.186 261.942 171.702 262.925C171.219 263.892 170.477 264.65 169.477 265.2C168.494 265.733 167.194 266 165.577 266H160.702C160.519 266 160.361 265.942 160.227 265.825C160.111 265.692 160.052 265.533 160.052 265.35V262.625C160.052 262.442 160.111 262.292 160.227 262.175C160.361 262.042 160.519 261.975 160.702 261.975H165.452C166.202 261.975 166.836 261.767 167.352 261.35C167.886 260.933 168.169 260.333 168.202 259.55C168.219 259.3 168.227 259.075 168.227 258.875C168.227 258.658 168.219 258.425 168.202 258.175C168.169 257.375 167.886 256.775 167.352 256.375C166.836 255.958 166.202 255.75 165.452 255.75H163.627ZM44.6815 296C44.4982 296 44.3399 295.942 44.2065 295.825C44.0899 295.692 44.0315 295.533 44.0315 295.35V291.6C44.0315 291.417 44.0899 291.258 44.2065 291.125C44.3399 290.992 44.4982 290.925 44.6815 290.925H48.4315C48.6149 290.925 48.7732 290.992 48.9065 291.125C49.0399 291.258 49.1065 291.417 49.1065 291.6V295.35C49.1065 295.533 49.0399 295.692 48.9065 295.825C48.7732 295.942 48.6149 296 48.4315 296H44.6815ZM55.4897 296C55.1231 296 54.9397 295.817 54.9397 295.45V288.325C54.9397 287.225 55.0481 286.392 55.2647 285.825C55.4981 285.242 55.8897 284.95 56.4397 284.95H61.1147C60.6981 284.95 60.3564 285.308 60.0897 286.025C59.8397 286.725 59.7147 287.592 59.7147 288.625V295.45C59.7147 295.617 59.6314 295.75 59.4647 295.85C59.2981 295.95 59.1314 296 58.9647 296H55.4897ZM50.0397 285.55C49.8564 285.55 49.6981 285.492 49.5647 285.375C49.4481 285.242 49.3897 285.083 49.3897 284.9V282.375C49.3897 282.192 49.4481 282.042 49.5647 281.925C49.6981 281.792 49.8564 281.725 50.0397 281.725H61.3397C61.5231 281.725 61.6731 281.792 61.7897 281.925C61.9231 282.042 61.9897 282.192 61.9897 282.375V284.9C61.9897 285.067 61.9314 285.217 61.8147 285.35C61.7147 285.483 61.5564 285.55 61.3397 285.55H50.0397ZM64.6802 296C64.4968 296 64.3385 295.942 64.2052 295.825C64.0885 295.692 64.0302 295.533 64.0302 295.35V282.375C64.0302 282.192 64.0885 282.042 64.2052 281.925C64.3385 281.792 64.4968 281.725 64.6802 281.725H68.4052C68.5718 281.725 68.7218 281.792 68.8552 281.925C68.9885 282.042 69.0552 282.192 69.0552 282.375V295.35C69.0552 295.533 68.9885 295.692 68.8552 295.825C68.7218 295.942 68.5718 296 68.4052 296H64.6802ZM71.895 297.425C71.7117 297.442 71.5534 297.383 71.42 297.25C71.2867 297.133 71.22 296.983 71.22 296.8V294.225C71.22 294.042 71.2784 293.892 71.395 293.775C71.5117 293.658 71.6534 293.575 71.82 293.525L77.395 292.325C78.3117 292.125 79.0034 291.867 79.47 291.55C79.9534 291.233 80.2784 290.825 80.445 290.325C80.6117 289.825 80.695 289.217 80.695 288.5V282.35C80.695 282.167 80.7534 282.017 80.87 281.9C81.0034 281.783 81.1617 281.725 81.345 281.725H84.87C85.0534 281.725 85.2034 281.792 85.32 281.925C85.4534 282.042 85.52 282.192 85.52 282.375V289.925C85.52 291.075 85.245 292.075 84.695 292.925C84.1617 293.775 83.3784 294.475 82.345 295.025C81.3117 295.558 80.0534 295.942 78.57 296.175L71.895 297.425ZM75.095 295.4L71.57 282.725C71.5367 282.592 71.5034 282.492 71.47 282.425C71.4534 282.358 71.445 282.292 71.445 282.225C71.445 282.092 71.495 281.975 71.595 281.875C71.695 281.775 71.8117 281.725 71.945 281.725H75.845C76.1617 281.725 76.3534 281.85 76.42 282.1L79.395 294.825L75.095 295.4ZM88.728 296C88.5447 296 88.3864 295.942 88.253 295.825C88.1364 295.692 88.078 295.533 88.078 295.35V282.375C88.078 282.192 88.1364 282.042 88.253 281.925C88.3864 281.792 88.5447 281.725 88.728 281.725H92.453C92.6197 281.725 92.7697 281.792 92.903 281.925C93.0364 282.042 93.103 282.192 93.103 282.375V295.35C93.103 295.533 93.0364 295.692 92.903 295.825C92.7697 295.942 92.6197 296 92.453 296H88.728ZM110.473 296C110.29 296 110.132 295.942 109.998 295.825C109.882 295.708 109.823 295.558 109.823 295.375V287.975C109.823 287.175 109.623 286.575 109.223 286.175C108.84 285.758 108.24 285.55 107.423 285.55H101.423C101.24 285.55 101.082 285.492 100.948 285.375C100.832 285.242 100.773 285.083 100.773 284.9V282.375C100.773 282.192 100.832 282.042 100.948 281.925C101.082 281.792 101.24 281.725 101.423 281.725H107.548C109.832 281.725 111.582 282.217 112.798 283.2C114.032 284.183 114.648 285.792 114.648 288.025V295.35C114.648 295.533 114.582 295.692 114.448 295.825C114.332 295.942 114.182 296 113.998 296H110.473ZM101.423 296C101.24 296 101.082 295.942 100.948 295.825C100.832 295.692 100.773 295.533 100.773 295.35V288.375C100.773 288.192 100.832 288.042 100.948 287.925C101.082 287.792 101.24 287.725 101.423 287.725H104.948C105.115 287.725 105.265 287.792 105.398 287.925C105.532 288.042 105.598 288.192 105.598 288.375V295.35C105.598 295.533 105.532 295.692 105.398 295.825C105.265 295.942 105.115 296 104.948 296H101.423ZM125.354 285.725L117.554 285.75C117.387 285.75 117.237 285.692 117.104 285.575C116.971 285.442 116.904 285.283 116.904 285.1V282.375C116.904 282.192 116.971 282.042 117.104 281.925C117.237 281.792 117.387 281.725 117.554 281.725H126.104C127.237 281.725 128.254 281.933 129.154 282.35C130.071 282.75 130.787 283.4 131.304 284.3C131.837 285.2 132.104 286.375 132.104 287.825V295.35C132.104 295.533 132.037 295.692 131.904 295.825C131.787 295.942 131.637 296 131.454 296H124.529C124.346 296 124.187 295.942 124.054 295.825C123.937 295.692 123.879 295.533 123.879 295.35V292.825C123.879 292.642 123.937 292.492 124.054 292.375C124.187 292.242 124.346 292.175 124.529 292.175H127.279V288.05C127.279 287.533 127.196 287.108 127.029 286.775C126.862 286.425 126.637 286.167 126.354 286C126.071 285.817 125.737 285.725 125.354 285.725ZM117.379 296C117.196 296 117.029 295.942 116.879 295.825C116.746 295.692 116.704 295.533 116.754 295.35L119.604 284.7C119.654 284.517 119.729 284.367 119.829 284.25C119.946 284.117 120.087 284.05 120.254 284.05L123.204 284.075C123.387 284.075 123.546 284.158 123.679 284.325C123.829 284.492 123.887 284.658 123.854 284.825L121.429 295.35C121.429 295.533 121.362 295.692 121.229 295.825C121.096 295.942 120.946 296 120.779 296H117.379ZM139.743 296C139.376 296 139.193 295.817 139.193 295.45V288.325C139.193 287.225 139.301 286.392 139.518 285.825C139.751 285.242 140.143 284.95 140.693 284.95H145.368C144.951 284.95 144.609 285.308 144.343 286.025C144.093 286.725 143.968 287.592 143.968 288.625V295.45C143.968 295.617 143.884 295.75 143.718 295.85C143.551 295.95 143.384 296 143.218 296H139.743ZM134.293 285.55C134.109 285.55 133.951 285.492 133.818 285.375C133.701 285.242 133.643 285.083 133.643 284.9V282.375C133.643 282.192 133.701 282.042 133.818 281.925C133.951 281.792 134.109 281.725 134.293 281.725H145.593C145.776 281.725 145.926 281.792 146.043 281.925C146.176 282.042 146.243 282.192 146.243 282.375V284.9C146.243 285.067 146.184 285.217 146.068 285.35C145.968 285.483 145.809 285.55 145.593 285.55H134.293ZM157.911 296C157.611 296 157.386 295.933 157.236 295.8C157.103 295.65 157.011 295.533 156.961 295.45L148.061 282.575C147.994 282.492 147.961 282.392 147.961 282.275C147.961 282.125 148.011 282 148.111 281.9C148.211 281.783 148.336 281.725 148.486 281.725H151.986C152.286 281.725 152.503 281.8 152.636 281.95C152.769 282.1 152.869 282.217 152.936 282.3L161.986 295.15C162.053 295.217 162.086 295.275 162.086 295.325C162.086 295.375 162.086 295.417 162.086 295.45C162.086 295.6 162.028 295.733 161.911 295.85C161.811 295.95 161.694 296 161.561 296H157.911ZM148.586 296C148.403 296 148.244 295.933 148.111 295.8C147.994 295.65 147.936 295.483 147.936 295.3V292.4C147.936 291.4 148.019 290.542 148.186 289.825C148.369 289.108 148.669 288.467 149.086 287.9C149.519 287.317 150.128 286.75 150.911 286.2L153.186 289.475C152.853 289.742 152.611 290.05 152.461 290.4C152.311 290.75 152.219 291.092 152.186 291.425C152.153 291.758 152.136 292.058 152.136 292.325V295.3C152.136 295.517 152.069 295.692 151.936 295.825C151.819 295.942 151.669 296 151.486 296H148.586ZM158.486 291.05L156.136 287.825C156.569 287.608 156.869 287.358 157.036 287.075C157.219 286.775 157.328 286.475 157.361 286.175C157.411 285.875 157.436 285.6 157.436 285.35V282.425C157.436 282.208 157.494 282.042 157.611 281.925C157.744 281.792 157.903 281.725 158.086 281.725H161.186C161.369 281.725 161.519 281.8 161.636 281.95C161.769 282.083 161.836 282.242 161.836 282.425V285.45C161.836 286.117 161.744 286.775 161.561 287.425C161.378 288.075 161.044 288.708 160.561 289.325C160.078 289.925 159.386 290.5 158.486 291.05Z" fill="white"/>
<rect x="79" width="241" height="53" rx="12" fill="#F8A35F"/>
<path d="M112.449 24.55C112.266 24.55 112.108 24.4917 111.974 24.375C111.858 24.2417 111.799 24.0833 111.799 23.9V21.375C111.799 21.1917 111.858 21.0417 111.974 20.925C112.108 20.7917 112.266 20.725 112.449 20.725H119.899C121.433 20.725 122.724 20.9333 123.774 21.35C124.824 21.7667 125.616 22.425 126.149 23.325C126.699 24.2083 126.974 25.3833 126.974 26.85V34.35C126.974 34.5333 126.908 34.6917 126.774 34.825C126.658 34.9417 126.508 35 126.324 35H122.799C122.633 35 122.483 34.9417 122.349 34.825C122.216 34.7083 122.149 34.5583 122.149 34.375V26.975C122.149 26.175 121.958 25.575 121.574 25.175C121.191 24.7583 120.591 24.55 119.774 24.55H112.449ZM115.924 22.625H117.249C117.799 22.625 118.166 22.725 118.349 22.925C118.549 23.125 118.599 23.3333 118.499 23.55C118.333 24 118.199 24.45 118.099 24.9C117.999 25.3333 117.924 25.7917 117.874 26.275C117.841 26.7417 117.824 27.2667 117.824 27.85L118.074 34.35C118.074 34.5333 118.008 34.6917 117.874 34.825C117.741 34.9417 117.583 35 117.399 35H111.549C111.366 35 111.208 34.9333 111.074 34.8C110.958 34.6667 110.899 34.5167 110.899 34.35V32.025C110.899 31.8417 110.958 31.6917 111.074 31.575C111.208 31.4417 111.366 31.375 111.549 31.375H113.599V27.875C113.599 27.3917 113.616 26.9167 113.649 26.45C113.699 25.9833 113.774 25.5083 113.874 25.025C113.974 24.5417 114.116 24.05 114.299 23.55C114.399 23.3 114.558 23.0833 114.774 22.9C115.008 22.7167 115.391 22.625 115.924 22.625ZM130.186 35C130.003 35 129.844 34.9417 129.711 34.825C129.594 34.6917 129.536 34.5333 129.536 34.35V21.375C129.536 21.1917 129.594 21.0417 129.711 20.925C129.844 20.7917 130.003 20.725 130.186 20.725H133.911C134.078 20.725 134.228 20.7917 134.361 20.925C134.494 21.0417 134.561 21.1917 134.561 21.375V34.35C134.561 34.5333 134.494 34.6917 134.361 34.825C134.228 34.9417 134.078 35 133.911 35H130.186ZM145.401 24.725L137.601 24.75C137.434 24.75 137.284 24.6917 137.151 24.575C137.018 24.4417 136.951 24.2833 136.951 24.1V21.375C136.951 21.1917 137.018 21.0417 137.151 20.925C137.284 20.7917 137.434 20.725 137.601 20.725H146.151C147.284 20.725 148.301 20.9333 149.201 21.35C150.118 21.75 150.834 22.4 151.351 23.3C151.884 24.2 152.151 25.375 152.151 26.825V34.35C152.151 34.5333 152.084 34.6917 151.951 34.825C151.834 34.9417 151.684 35 151.501 35H144.576C144.393 35 144.234 34.9417 144.101 34.825C143.984 34.6917 143.926 34.5333 143.926 34.35V31.825C143.926 31.6417 143.984 31.4917 144.101 31.375C144.234 31.2417 144.393 31.175 144.576 31.175H147.326V27.05C147.326 26.5333 147.243 26.1083 147.076 25.775C146.909 25.425 146.684 25.1667 146.401 25C146.118 24.8167 145.784 24.725 145.401 24.725ZM137.426 35C137.243 35 137.076 34.9417 136.926 34.825C136.793 34.6917 136.751 34.5333 136.801 34.35L139.651 23.7C139.701 23.5167 139.776 23.3667 139.876 23.25C139.993 23.1167 140.134 23.05 140.301 23.05L143.251 23.075C143.434 23.075 143.593 23.1583 143.726 23.325C143.876 23.4917 143.934 23.6583 143.901 23.825L141.476 34.35C141.476 34.5333 141.409 34.6917 141.276 34.825C141.143 34.9417 140.993 35 140.826 35H137.426ZM155.282 29.05C155.099 29.05 154.94 28.9917 154.807 28.875C154.69 28.7417 154.632 28.5833 154.632 28.4V21.375C154.632 21.1917 154.69 21.0417 154.807 20.925C154.94 20.7917 155.099 20.725 155.282 20.725H159.007C159.174 20.725 159.324 20.7917 159.457 20.925C159.59 21.0417 159.657 21.1917 159.657 21.375V28.4C159.657 28.5833 159.59 28.7417 159.457 28.875C159.324 28.9917 159.174 29.05 159.007 29.05H155.282ZM170.401 24.725L162.601 24.75C162.434 24.75 162.284 24.6917 162.151 24.575C162.018 24.4417 161.951 24.2833 161.951 24.1V21.375C161.951 21.1917 162.018 21.0417 162.151 20.925C162.284 20.7917 162.434 20.725 162.601 20.725H171.151C172.284 20.725 173.301 20.9333 174.201 21.35C175.118 21.75 175.834 22.4 176.351 23.3C176.884 24.2 177.151 25.375 177.151 26.825V34.35C177.151 34.5333 177.084 34.6917 176.951 34.825C176.834 34.9417 176.684 35 176.501 35H169.576C169.393 35 169.234 34.9417 169.101 34.825C168.984 34.6917 168.926 34.5333 168.926 34.35V31.825C168.926 31.6417 168.984 31.4917 169.101 31.375C169.234 31.2417 169.393 31.175 169.576 31.175H172.326V27.05C172.326 26.5333 172.243 26.1083 172.076 25.775C171.909 25.425 171.684 25.1667 171.401 25C171.118 24.8167 170.784 24.725 170.401 24.725ZM162.426 35C162.243 35 162.076 34.9417 161.926 34.825C161.793 34.6917 161.751 34.5333 161.801 34.35L164.651 23.7C164.701 23.5167 164.776 23.3667 164.876 23.25C164.993 23.1167 165.134 23.05 165.301 23.05L168.251 23.075C168.434 23.075 168.593 23.1583 168.726 23.325C168.876 23.4917 168.934 23.6583 168.901 23.825L166.476 34.35C166.476 34.5333 166.409 34.6917 166.276 34.825C166.143 34.9417 165.993 35 165.826 35H162.426ZM180.357 35C180.174 35 180.015 34.9417 179.882 34.825C179.765 34.6917 179.707 34.5333 179.707 34.35V21.375C179.707 21.1917 179.765 21.0417 179.882 20.925C180.015 20.7917 180.174 20.725 180.357 20.725H186.607C188.157 20.725 189.457 20.925 190.507 21.325C191.557 21.7083 192.349 22.3667 192.882 23.3C193.415 24.2167 193.682 25.4583 193.682 27.025V34.35C193.682 34.5333 193.615 34.6917 193.482 34.825C193.365 34.9417 193.215 35 193.032 35H189.507C189.34 35 189.19 34.9417 189.057 34.825C188.924 34.7083 188.857 34.5583 188.857 34.375V26.975C188.857 26.175 188.657 25.575 188.257 25.175C187.874 24.7583 187.282 24.55 186.482 24.55H184.532V34.35C184.532 34.5333 184.465 34.6917 184.332 34.825C184.199 34.9417 184.049 35 183.882 35H180.357ZM199.885 24.75V25.325C199.902 25.5583 199.952 25.75 200.035 25.9C200.119 26.05 200.227 26.15 200.36 26.2L200.985 26.425C201.119 26.4917 201.219 26.6 201.285 26.75C201.369 26.8833 201.41 27.0333 201.41 27.2L201.435 28.65C201.435 28.95 201.319 29.175 201.085 29.325C200.852 29.475 200.56 29.5333 200.21 29.5L199.16 29.35C198.594 29.2833 198.069 29.0583 197.585 28.675C197.119 28.2917 196.735 27.7833 196.435 27.15C196.152 26.5 196.01 25.7667 196.01 24.95V21.375C196.044 21.1917 196.119 21.0417 196.235 20.925C196.352 20.7917 196.494 20.725 196.66 20.725H201.835C203.452 20.725 204.752 21 205.735 21.55C206.735 22.0833 207.477 22.8417 207.96 23.825C208.444 24.7917 208.719 25.9167 208.785 27.2C208.802 27.45 208.81 27.675 208.81 27.875C208.81 28.0583 208.802 28.275 208.785 28.525C208.719 29.8083 208.444 30.9417 207.96 31.925C207.477 32.8917 206.735 33.65 205.735 34.2C204.752 34.7333 203.452 35 201.835 35H196.96C196.777 35 196.619 34.9417 196.485 34.825C196.369 34.6917 196.31 34.5333 196.31 34.35V31.625C196.31 31.4417 196.369 31.2917 196.485 31.175C196.619 31.0417 196.777 30.975 196.96 30.975H201.71C202.46 30.975 203.094 30.7667 203.61 30.35C204.144 29.9333 204.427 29.3333 204.46 28.55C204.477 28.3 204.485 28.075 204.485 27.875C204.485 27.6583 204.477 27.425 204.46 27.175C204.427 26.375 204.144 25.775 203.61 25.375C203.094 24.9583 202.46 24.75 201.71 24.75H199.885ZM211.035 35C210.852 35 210.693 34.9417 210.56 34.825C210.443 34.6917 210.385 34.5333 210.385 34.35V31.825C210.385 31.6417 210.443 31.4917 210.56 31.375C210.693 31.2417 210.852 31.175 211.035 31.175H217.01V27C217.01 26.2 216.81 25.6 216.41 25.2C216.027 24.7833 215.427 24.575 214.61 24.575H211.285C211.102 24.575 210.943 24.5167 210.81 24.4C210.693 24.2667 210.635 24.1083 210.635 23.925V21.375C210.635 21.1917 210.693 21.0417 210.81 20.925C210.943 20.7917 211.102 20.725 211.285 20.725H214.735C216.268 20.725 217.577 20.925 218.66 21.325C219.743 21.725 220.577 22.3833 221.16 23.3C221.743 24.2167 222.035 25.45 222.035 27V31.175H222.885C223.068 31.175 223.218 31.2417 223.335 31.375C223.468 31.4917 223.535 31.6417 223.535 31.825V34.35C223.535 34.5333 223.468 34.6917 223.335 34.825C223.218 34.9417 223.068 35 222.885 35H211.035ZM235.806 38.1C235.572 38.1 235.389 38.0417 235.256 37.925C235.139 37.8083 235.047 37.6833 234.981 37.55L228.806 21.55C228.789 21.4667 228.772 21.4083 228.756 21.375C228.756 21.325 228.756 21.2833 228.756 21.25C228.756 21.1167 228.806 21 228.906 20.9C229.022 20.7833 229.156 20.725 229.306 20.725H232.881C233.114 20.725 233.289 20.7833 233.406 20.9C233.539 21.0167 233.639 21.1583 233.706 21.325L235.831 26.925C236.331 26.725 236.739 26.4 237.056 25.95C237.372 25.5 237.531 24.8917 237.531 24.125V21.425C237.531 21.2083 237.589 21.0417 237.706 20.925C237.839 20.7917 237.997 20.725 238.181 20.725H241.281C241.464 20.725 241.614 20.8 241.731 20.95C241.864 21.0833 241.931 21.2417 241.931 21.425V24.325C241.931 25.4917 241.714 26.5083 241.281 27.375C240.864 28.2417 240.306 28.975 239.606 29.575C238.922 30.1583 238.181 30.625 237.381 30.975L239.781 37.25C239.847 37.4167 239.881 37.525 239.881 37.575C239.881 37.725 239.822 37.85 239.706 37.95C239.606 38.05 239.481 38.1 239.331 38.1H235.806ZM244.639 35C244.456 35 244.297 34.9417 244.164 34.825C244.047 34.6917 243.989 34.5333 243.989 34.35V21.375C243.989 21.1917 244.047 21.0417 244.164 20.925C244.297 20.7917 244.456 20.725 244.639 20.725H248.364C248.531 20.725 248.681 20.7917 248.814 20.925C248.947 21.0417 249.014 21.1917 249.014 21.375V34.35C249.014 34.5333 248.947 34.6917 248.814 34.825C248.681 34.9417 248.531 35 248.364 35H244.639ZM252.504 35C252.321 35 252.162 34.9417 252.029 34.825C251.912 34.6917 251.854 34.5333 251.854 34.35V31.725C251.854 31.5417 251.912 31.3917 252.029 31.275C252.162 31.1417 252.321 31.075 252.504 31.075H258.079L251.004 21.6C250.971 21.55 250.937 21.4917 250.904 21.425C250.871 21.3583 250.854 21.2917 250.854 21.225C250.854 21.075 250.904 20.9583 251.004 20.875C251.121 20.775 251.254 20.725 251.404 20.725H255.079C255.346 20.725 255.537 20.7833 255.654 20.9C255.787 21.0167 255.879 21.1083 255.929 21.175L263.279 31.125C263.362 31.225 263.437 31.3417 263.504 31.475C263.587 31.5917 263.629 31.7583 263.629 31.975V34.35C263.629 34.5333 263.562 34.6917 263.429 34.825C263.312 34.9417 263.162 35 262.979 35H252.504ZM261.179 29.025L258.779 25.8C259.262 25.4333 259.587 24.975 259.754 24.425C259.921 23.8583 260.004 23.25 260.004 22.6V21.425C260.004 21.2083 260.062 21.0417 260.179 20.925C260.312 20.7917 260.471 20.725 260.654 20.725H263.779C263.946 20.725 264.096 20.8 264.229 20.95C264.362 21.0833 264.429 21.2417 264.429 21.425V23.5C264.429 24.6 264.154 25.6333 263.604 26.6C263.054 27.5667 262.246 28.375 261.179 29.025ZM267.465 29.05C267.281 29.05 267.123 28.9917 266.99 28.875C266.873 28.7417 266.815 28.5833 266.815 28.4V21.375C266.815 21.1917 266.873 21.0417 266.99 20.925C267.123 20.7917 267.281 20.725 267.465 20.725H271.19C271.356 20.725 271.506 20.7917 271.64 20.925C271.773 21.0417 271.84 21.1917 271.84 21.375V28.4C271.84 28.5833 271.773 28.7417 271.64 28.875C271.506 28.9917 271.356 29.05 271.19 29.05H267.465ZM275.083 39.775C274.9 39.775 274.742 39.7083 274.608 39.575C274.492 39.4583 274.433 39.3083 274.433 39.125V27.375C274.433 27.1917 274.492 27.0417 274.608 26.925C274.742 26.7917 274.9 26.725 275.083 26.725H278.483C278.65 26.725 278.8 26.7917 278.933 26.925C279.067 27.0417 279.133 27.1917 279.133 27.375V39.125C279.133 39.3083 279.067 39.4583 278.933 39.575C278.8 39.7083 278.65 39.775 278.483 39.775H275.083ZM281.508 35.35C281.342 35.3833 281.183 35.3167 281.033 35.15C280.883 34.9833 280.808 34.8083 280.808 34.625V31.675C280.808 31.5083 280.875 31.3417 281.008 31.175C281.142 31.0083 281.292 30.8917 281.458 30.825L282.208 30.525C282.592 30.3583 282.942 30.1417 283.258 29.875C283.592 29.6083 283.858 29.2583 284.058 28.825C284.258 28.375 284.358 27.8083 284.358 27.125C284.358 26.5583 284.3 26.1083 284.183 25.775C284.067 25.425 283.85 25.1667 283.533 25C283.233 24.8333 282.8 24.75 282.233 24.75H275.083C274.917 24.75 274.767 24.6917 274.633 24.575C274.5 24.4417 274.433 24.2833 274.433 24.1V21.325C274.433 21.1583 274.5 21.0167 274.633 20.9C274.767 20.7833 274.917 20.725 275.083 20.725H283.283C284.75 20.725 285.925 20.975 286.808 21.475C287.708 21.975 288.358 22.6917 288.758 23.625C289.158 24.5417 289.358 25.65 289.358 26.95C289.358 28.05 289.167 29.0583 288.783 29.975C288.417 30.875 287.908 31.6667 287.258 32.35C286.608 33.0167 285.875 33.5833 285.058 34.05C284.242 34.5 283.392 34.8417 282.508 35.075L281.508 35.35Z" fill="white"/>
<rect x="42" y="89" width="312" height="67" rx="12" fill="#F8A35F"/>
<path d="M61.0967 105.55C60.9134 105.55 60.755 105.492 60.6217 105.375C60.505 105.242 60.4467 105.083 60.4467 104.9V102.375C60.4467 102.192 60.505 102.042 60.6217 101.925C60.755 101.792 60.9134 101.725 61.0967 101.725H68.5467C70.08 101.725 71.3717 101.933 72.4217 102.35C73.4717 102.767 74.2634 103.425 74.7967 104.325C75.3467 105.208 75.6217 106.383 75.6217 107.85V115.35C75.6217 115.533 75.555 115.692 75.4217 115.825C75.305 115.942 75.155 116 74.9717 116H71.4467C71.28 116 71.13 115.942 70.9967 115.825C70.8634 115.708 70.7967 115.558 70.7967 115.375V107.975C70.7967 107.175 70.605 106.575 70.2217 106.175C69.8384 105.758 69.2384 105.55 68.4217 105.55H61.0967ZM64.5717 103.625H65.8967C66.4467 103.625 66.8134 103.725 66.9967 103.925C67.1967 104.125 67.2467 104.333 67.1467 104.55C66.98 105 66.8467 105.45 66.7467 105.9C66.6467 106.333 66.5717 106.792 66.5217 107.275C66.4884 107.742 66.4717 108.267 66.4717 108.85L66.7217 115.35C66.7217 115.533 66.655 115.692 66.5217 115.825C66.3884 115.942 66.23 116 66.0467 116H60.1967C60.0134 116 59.855 115.933 59.7217 115.8C59.605 115.667 59.5467 115.517 59.5467 115.35V113.025C59.5467 112.842 59.605 112.692 59.7217 112.575C59.855 112.442 60.0134 112.375 60.1967 112.375H62.2467V108.875C62.2467 108.392 62.2634 107.917 62.2967 107.45C62.3467 106.983 62.4217 106.508 62.5217 106.025C62.6217 105.542 62.7634 105.05 62.9467 104.55C63.0467 104.3 63.205 104.083 63.4217 103.9C63.655 103.717 64.0384 103.625 64.5717 103.625ZM78.8334 116C78.6501 116 78.4917 115.942 78.3584 115.825C78.2417 115.692 78.1834 115.533 78.1834 115.35V102.375C78.1834 102.192 78.2417 102.042 78.3584 101.925C78.4917 101.792 78.6501 101.725 78.8334 101.725H82.5584C82.7251 101.725 82.8751 101.792 83.0084 101.925C83.1417 102.042 83.2084 102.192 83.2084 102.375V115.35C83.2084 115.533 83.1417 115.692 83.0084 115.825C82.8751 115.942 82.7251 116 82.5584 116H78.8334ZM89.5482 105.75V106.325C89.5649 106.558 89.6149 106.75 89.6982 106.9C89.7816 107.05 89.8899 107.15 90.0232 107.2L90.6482 107.425C90.7816 107.492 90.8816 107.6 90.9482 107.75C91.0316 107.883 91.0732 108.033 91.0732 108.2L91.0982 109.65C91.0982 109.95 90.9816 110.175 90.7482 110.325C90.5149 110.475 90.2232 110.533 89.8732 110.5L88.8232 110.35C88.2566 110.283 87.7316 110.058 87.2482 109.675C86.7816 109.292 86.3982 108.783 86.0982 108.15C85.8149 107.5 85.6732 106.767 85.6732 105.95V102.375C85.7066 102.192 85.7816 102.042 85.8982 101.925C86.0149 101.792 86.1566 101.725 86.3232 101.725H91.4982C93.1149 101.725 94.4149 102 95.3982 102.55C96.3982 103.083 97.1399 103.842 97.6232 104.825C98.1066 105.792 98.3816 106.917 98.4482 108.2C98.4649 108.45 98.4732 108.675 98.4732 108.875C98.4732 109.058 98.4649 109.275 98.4482 109.525C98.3816 110.808 98.1066 111.942 97.6232 112.925C97.1399 113.892 96.3982 114.65 95.3982 115.2C94.4149 115.733 93.1149 116 91.4982 116H86.6232C86.4399 116 86.2816 115.942 86.1482 115.825C86.0316 115.692 85.9732 115.533 85.9732 115.35V112.625C85.9732 112.442 86.0316 112.292 86.1482 112.175C86.2816 112.042 86.4399 111.975 86.6232 111.975H91.3732C92.1232 111.975 92.7566 111.767 93.2732 111.35C93.8066 110.933 94.0899 110.333 94.1232 109.55C94.1399 109.3 94.1482 109.075 94.1482 108.875C94.1482 108.658 94.1399 108.425 94.1232 108.175C94.0899 107.375 93.8066 106.775 93.2732 106.375C92.7566 105.958 92.1232 105.75 91.3732 105.75H89.5482ZM101.244 110.05C101.06 110.05 100.902 109.992 100.769 109.875C100.652 109.742 100.594 109.583 100.594 109.4V102.375C100.594 102.192 100.652 102.042 100.769 101.925C100.902 101.792 101.06 101.725 101.244 101.725H104.969C105.135 101.725 105.285 101.792 105.419 101.925C105.552 102.042 105.619 102.192 105.619 102.375V109.4C105.619 109.583 105.552 109.742 105.419 109.875C105.285 109.992 105.135 110.05 104.969 110.05H101.244ZM108.788 110.05C108.604 110.05 108.446 109.992 108.313 109.875C108.196 109.742 108.138 109.583 108.138 109.4V102.375C108.138 102.192 108.196 102.042 108.313 101.925C108.446 101.792 108.604 101.725 108.788 101.725H112.513C112.679 101.725 112.829 101.792 112.963 101.925C113.096 102.042 113.163 102.192 113.163 102.375V109.4C113.163 109.583 113.096 109.742 112.963 109.875C112.829 109.992 112.679 110.05 112.513 110.05H108.788ZM115.907 117.425C115.723 117.442 115.565 117.383 115.432 117.25C115.298 117.133 115.232 116.983 115.232 116.8V114.225C115.232 114.042 115.29 113.892 115.407 113.775C115.523 113.658 115.665 113.575 115.832 113.525L121.407 112.325C122.323 112.125 123.015 111.867 123.482 111.55C123.965 111.233 124.29 110.825 124.457 110.325C124.623 109.825 124.707 109.217 124.707 108.5V102.35C124.707 102.167 124.765 102.017 124.882 101.9C125.015 101.783 125.173 101.725 125.357 101.725H128.882C129.065 101.725 129.215 101.792 129.332 101.925C129.465 102.042 129.532 102.192 129.532 102.375V109.925C129.532 111.075 129.257 112.075 128.707 112.925C128.173 113.775 127.39 114.475 126.357 115.025C125.323 115.558 124.065 115.942 122.582 116.175L115.907 117.425ZM119.107 115.4L115.582 102.725C115.548 102.592 115.515 102.492 115.482 102.425C115.465 102.358 115.457 102.292 115.457 102.225C115.457 102.092 115.507 101.975 115.607 101.875C115.707 101.775 115.823 101.725 115.957 101.725H119.857C120.173 101.725 120.365 101.85 120.432 102.1L123.407 114.825L119.107 115.4ZM143.757 116C143.574 116 143.416 115.942 143.282 115.825C143.166 115.708 143.107 115.558 143.107 115.375V107.975C143.107 107.175 142.907 106.575 142.507 106.175C142.124 105.758 141.524 105.55 140.707 105.55H136.757C136.574 105.55 136.416 105.492 136.282 105.375C136.166 105.242 136.107 105.083 136.107 104.9V102.375C136.107 102.192 136.166 102.042 136.282 101.925C136.416 101.792 136.574 101.725 136.757 101.725H140.857C142.391 101.725 143.682 101.917 144.732 102.3C145.782 102.683 146.574 103.317 147.107 104.2C147.657 105.083 147.932 106.292 147.932 107.825V115.35C147.932 115.533 147.866 115.692 147.732 115.825C147.616 115.942 147.466 116 147.282 116H143.757ZM151.648 105.55C151.465 105.55 151.307 105.492 151.173 105.375C151.057 105.242 150.998 105.083 150.998 104.9V102.375C150.998 102.192 151.057 102.042 151.173 101.925C151.307 101.792 151.465 101.725 151.648 101.725H159.098C160.632 101.725 161.923 101.933 162.973 102.35C164.023 102.767 164.815 103.425 165.348 104.325C165.898 105.208 166.173 106.383 166.173 107.85V115.35C166.173 115.533 166.107 115.692 165.973 115.825C165.857 115.942 165.707 116 165.523 116H161.998C161.832 116 161.682 115.942 161.548 115.825C161.415 115.708 161.348 115.558 161.348 115.375V107.975C161.348 107.175 161.157 106.575 160.773 106.175C160.39 105.758 159.79 105.55 158.973 105.55H151.648ZM155.123 103.625H156.448C156.998 103.625 157.365 103.725 157.548 103.925C157.748 104.125 157.798 104.333 157.698 104.55C157.532 105 157.398 105.45 157.298 105.9C157.198 106.333 157.123 106.792 157.073 107.275C157.04 107.742 157.023 108.267 157.023 108.85L157.273 115.35C157.273 115.533 157.207 115.692 157.073 115.825C156.94 115.942 156.782 116 156.598 116H150.748C150.565 116 150.407 115.933 150.273 115.8C150.157 115.667 150.098 115.517 150.098 115.35V113.025C150.098 112.842 150.157 112.692 150.273 112.575C150.407 112.442 150.565 112.375 150.748 112.375H152.798V108.875C152.798 108.392 152.815 107.917 152.848 107.45C152.898 106.983 152.973 106.508 153.073 106.025C153.173 105.542 153.315 105.05 153.498 104.55C153.598 104.3 153.757 104.083 153.973 103.9C154.207 103.717 154.59 103.625 155.123 103.625ZM169.385 116C169.202 116 169.043 115.942 168.91 115.825C168.793 115.692 168.735 115.533 168.735 115.35V102.375C168.735 102.192 168.793 102.042 168.91 101.925C169.043 101.792 169.202 101.725 169.385 101.725H173.11C173.277 101.725 173.427 101.792 173.56 101.925C173.693 102.042 173.76 102.192 173.76 102.375V115.35C173.76 115.533 173.693 115.692 173.56 115.825C173.427 115.942 173.277 116 173.11 116H169.385ZM177.025 110.05C176.842 110.05 176.683 109.992 176.55 109.875C176.433 109.742 176.375 109.583 176.375 109.4V102.375C176.375 102.192 176.433 102.042 176.55 101.925C176.683 101.792 176.842 101.725 177.025 101.725H180.75C180.917 101.725 181.067 101.792 181.2 101.925C181.333 102.042 181.4 102.192 181.4 102.375V109.4C181.4 109.583 181.333 109.742 181.2 109.875C181.067 109.992 180.917 110.05 180.75 110.05H177.025ZM188.774 117.875C188.624 117.875 188.499 117.817 188.399 117.7C188.299 117.6 188.258 117.475 188.274 117.325L189.099 111.85C189.133 111.617 189.224 111.408 189.374 111.225C189.541 111.025 189.783 110.925 190.099 110.925H193.549C193.699 110.925 193.824 110.983 193.924 111.1C194.024 111.2 194.074 111.317 194.074 111.45C194.074 111.533 194.066 111.608 194.049 111.675L191.899 117.125C191.833 117.292 191.724 117.458 191.574 117.625C191.441 117.792 191.216 117.875 190.899 117.875H188.774ZM210.93 116C210.747 116 210.589 115.942 210.455 115.825C210.339 115.708 210.28 115.558 210.28 115.375V107.975C210.28 107.175 210.08 106.575 209.68 106.175C209.297 105.758 208.697 105.55 207.88 105.55H201.88C201.697 105.55 201.539 105.492 201.405 105.375C201.289 105.242 201.23 105.083 201.23 104.9V102.375C201.23 102.192 201.289 102.042 201.405 101.925C201.539 101.792 201.697 101.725 201.88 101.725H208.005C210.289 101.725 212.039 102.217 213.255 103.2C214.489 104.183 215.105 105.792 215.105 108.025V115.35C215.105 115.533 215.039 115.692 214.905 115.825C214.789 115.942 214.639 116 214.455 116H210.93ZM201.88 116C201.697 116 201.539 115.942 201.405 115.825C201.289 115.692 201.23 115.533 201.23 115.35V108.375C201.23 108.192 201.289 108.042 201.405 107.925C201.539 107.792 201.697 107.725 201.88 107.725H205.405C205.572 107.725 205.722 107.792 205.855 107.925C205.989 108.042 206.055 108.192 206.055 108.375V115.35C206.055 115.533 205.989 115.692 205.855 115.825C205.722 115.942 205.572 116 205.405 116H201.88ZM218.236 110.05C218.053 110.05 217.894 109.992 217.761 109.875C217.644 109.742 217.586 109.583 217.586 109.4V102.375C217.586 102.192 217.644 102.042 217.761 101.925C217.894 101.792 218.053 101.725 218.236 101.725H221.961C222.128 101.725 222.278 101.792 222.411 101.925C222.544 102.042 222.611 102.192 222.611 102.375V109.4C222.611 109.583 222.544 109.742 222.411 109.875C222.278 109.992 222.128 110.05 221.961 110.05H218.236ZM231.355 116C231.172 116 231.013 115.942 230.88 115.825C230.763 115.692 230.705 115.533 230.705 115.35L229.205 107.925C229.088 107.358 228.955 106.908 228.805 106.575C228.655 106.225 228.447 105.967 228.18 105.8C227.913 105.633 227.547 105.55 227.08 105.55H226.205C226.022 105.55 225.863 105.492 225.73 105.375C225.613 105.242 225.555 105.083 225.555 104.9V102.175C225.555 101.992 225.613 101.842 225.73 101.725C225.863 101.592 226.022 101.525 226.205 101.525H227.18C228.68 101.525 229.888 101.733 230.805 102.15C231.738 102.567 232.463 103.233 232.98 104.15C233.513 105.067 233.922 106.275 234.205 107.775L235.73 115.35C235.763 115.533 235.705 115.692 235.555 115.825C235.405 115.942 235.238 116 235.055 116H231.355ZM229.155 114.775C228.472 115.158 227.855 115.467 227.305 115.7C226.755 115.917 226.188 116.083 225.605 116.2C225.438 116.217 225.297 116.2 225.18 116.15C225.063 116.1 225.005 115.992 225.005 115.825V112.675C225.005 112.392 225.18 112.183 225.53 112.05C225.647 112 225.872 111.925 226.205 111.825C226.538 111.725 226.897 111.617 227.28 111.5C227.663 111.383 227.988 111.267 228.255 111.15C228.622 111 228.963 110.792 229.28 110.525C229.597 110.258 229.88 109.95 230.13 109.6C230.38 109.25 230.58 108.883 230.73 108.5L232.18 108.625C232.08 109.742 231.905 110.692 231.655 111.475C231.422 112.258 231.097 112.917 230.68 113.45C230.263 113.983 229.755 114.425 229.155 114.775ZM243.367 116C243.183 116 243.025 115.942 242.892 115.825C242.775 115.708 242.717 115.558 242.717 115.375V107.975C242.717 107.175 242.517 106.575 242.117 106.175C241.733 105.758 241.133 105.55 240.317 105.55H236.367C236.183 105.55 236.025 105.492 235.892 105.375C235.775 105.242 235.717 105.083 235.717 104.9V102.375C235.717 102.192 235.775 102.042 235.892 101.925C236.025 101.792 236.183 101.725 236.367 101.725H240.467C242 101.725 243.292 101.917 244.342 102.3C245.392 102.683 246.183 103.317 246.717 104.2C247.267 105.083 247.542 106.292 247.542 107.825V115.35C247.542 115.533 247.475 115.692 247.342 115.825C247.225 115.942 247.075 116 246.892 116H243.367ZM250.258 116C250.074 116 249.916 115.942 249.783 115.825C249.666 115.692 249.608 115.533 249.608 115.35V112.825C249.608 112.642 249.666 112.492 249.783 112.375C249.916 112.242 250.074 112.175 250.258 112.175H258.708V115.375C258.708 115.558 258.641 115.708 258.508 115.825C258.391 115.942 258.241 116 258.058 116H250.258ZM254.983 116C254.799 116 254.641 115.942 254.508 115.825C254.391 115.692 254.333 115.533 254.333 115.35L254.033 107.675C253.999 107.125 253.916 106.683 253.783 106.35C253.666 106 253.466 105.742 253.183 105.575C252.916 105.392 252.541 105.3 252.058 105.3H250.708C250.524 105.3 250.366 105.242 250.233 105.125C250.116 104.992 250.058 104.833 250.058 104.65V102.175C250.058 101.992 250.116 101.842 250.233 101.725C250.366 101.592 250.524 101.525 250.708 101.525H252.158C253.308 101.525 254.308 101.642 255.158 101.875C256.008 102.108 256.716 102.475 257.283 102.975C257.849 103.458 258.274 104.1 258.558 104.9C258.841 105.7 258.999 106.658 259.033 107.775L259.358 115.35C259.358 115.533 259.291 115.692 259.158 115.825C259.024 115.942 258.866 116 258.683 116H254.983ZM271.21 116C270.91 116 270.685 115.933 270.535 115.8C270.401 115.65 270.31 115.533 270.26 115.45L261.36 102.575C261.293 102.492 261.26 102.392 261.26 102.275C261.26 102.125 261.31 102 261.41 101.9C261.51 101.783 261.635 101.725 261.785 101.725H265.285C265.585 101.725 265.801 101.8 265.935 101.95C266.068 102.1 266.168 102.217 266.235 102.3L275.285 115.15C275.351 115.217 275.385 115.275 275.385 115.325C275.385 115.375 275.385 115.417 275.385 115.45C275.385 115.6 275.326 115.733 275.21 115.85C275.11 115.95 274.993 116 274.86 116H271.21ZM261.885 116C261.701 116 261.543 115.933 261.41 115.8C261.293 115.65 261.235 115.483 261.235 115.3V112.4C261.235 111.4 261.318 110.542 261.485 109.825C261.668 109.108 261.968 108.467 262.385 107.9C262.818 107.317 263.426 106.75 264.21 106.2L266.485 109.475C266.151 109.742 265.91 110.05 265.76 110.4C265.61 110.75 265.518 111.092 265.485 111.425C265.451 111.758 265.435 112.058 265.435 112.325V115.3C265.435 115.517 265.368 115.692 265.235 115.825C265.118 115.942 264.968 116 264.785 116H261.885ZM271.785 111.05L269.435 107.825C269.868 107.608 270.168 107.358 270.335 107.075C270.518 106.775 270.626 106.475 270.66 106.175C270.71 105.875 270.735 105.6 270.735 105.35V102.425C270.735 102.208 270.793 102.042 270.91 101.925C271.043 101.792 271.201 101.725 271.385 101.725H274.485C274.668 101.725 274.818 101.8 274.935 101.95C275.068 102.083 275.135 102.242 275.135 102.425V105.45C275.135 106.117 275.043 106.775 274.86 107.425C274.676 108.075 274.343 108.708 273.86 109.325C273.376 109.925 272.685 110.5 271.785 111.05ZM283.973 105.55C283.789 105.55 283.631 105.492 283.498 105.375C283.381 105.242 283.323 105.083 283.323 104.9V102.375C283.323 102.192 283.381 102.042 283.498 101.925C283.631 101.792 283.789 101.725 283.973 101.725H291.423C292.956 101.725 294.248 101.933 295.298 102.35C296.348 102.767 297.139 103.425 297.673 104.325C298.223 105.208 298.498 106.383 298.498 107.85V115.35C298.498 115.533 298.431 115.692 298.298 115.825C298.181 115.942 298.031 116 297.848 116H294.323C294.156 116 294.006 115.942 293.873 115.825C293.739 115.708 293.673 115.558 293.673 115.375V107.975C293.673 107.175 293.481 106.575 293.098 106.175C292.714 105.758 292.114 105.55 291.298 105.55H283.973ZM287.448 103.625H288.773C289.323 103.625 289.689 103.725 289.873 103.925C290.073 104.125 290.123 104.333 290.023 104.55C289.856 105 289.723 105.45 289.623 105.9C289.523 106.333 289.448 106.792 289.398 107.275C289.364 107.742 289.348 108.267 289.348 108.85L289.598 115.35C289.598 115.533 289.531 115.692 289.398 115.825C289.264 115.942 289.106 116 288.923 116H283.073C282.889 116 282.731 115.933 282.598 115.8C282.481 115.667 282.423 115.517 282.423 115.35V113.025C282.423 112.842 282.481 112.692 282.598 112.575C282.731 112.442 282.889 112.375 283.073 112.375H285.123V108.875C285.123 108.392 285.139 107.917 285.173 107.45C285.223 106.983 285.298 106.508 285.398 106.025C285.498 105.542 285.639 105.05 285.823 104.55C285.923 104.3 286.081 104.083 286.298 103.9C286.531 103.717 286.914 103.625 287.448 103.625ZM301.709 116C301.526 116 301.368 115.942 301.234 115.825C301.118 115.692 301.059 115.533 301.059 115.35V102.375C301.059 102.192 301.118 102.042 301.234 101.925C301.368 101.792 301.526 101.725 301.709 101.725H305.434C305.601 101.725 305.751 101.792 305.884 101.925C306.018 102.042 306.084 102.192 306.084 102.375V115.35C306.084 115.533 306.018 115.692 305.884 115.825C305.751 115.942 305.601 116 305.434 116H301.709ZM309.424 116C309.241 116 309.083 115.942 308.949 115.825C308.833 115.692 308.774 115.533 308.774 115.35V102.375C308.774 102.192 308.833 102.042 308.949 101.925C309.083 101.792 309.241 101.725 309.424 101.725H315.674C317.224 101.725 318.524 101.925 319.574 102.325C320.624 102.708 321.416 103.367 321.949 104.3C322.483 105.217 322.749 106.458 322.749 108.025V115.35C322.749 115.533 322.683 115.692 322.549 115.825C322.433 115.942 322.283 116 322.099 116H318.574C318.408 116 318.258 115.942 318.124 115.825C317.991 115.708 317.924 115.558 317.924 115.375V107.975C317.924 107.175 317.724 106.575 317.324 106.175C316.941 105.758 316.349 105.55 315.549 105.55H313.599V115.35C313.599 115.533 313.533 115.692 313.399 115.825C313.266 115.942 313.116 116 312.949 116H309.424ZM328.953 105.75V106.325C328.969 106.558 329.019 106.75 329.103 106.9C329.186 107.05 329.294 107.15 329.428 107.2L330.053 107.425C330.186 107.492 330.286 107.6 330.353 107.75C330.436 107.883 330.478 108.033 330.478 108.2L330.503 109.65C330.503 109.95 330.386 110.175 330.153 110.325C329.919 110.475 329.628 110.533 329.278 110.5L328.228 110.35C327.661 110.283 327.136 110.058 326.653 109.675C326.186 109.292 325.803 108.783 325.503 108.15C325.219 107.5 325.078 106.767 325.078 105.95V102.375C325.111 102.192 325.186 102.042 325.303 101.925C325.419 101.792 325.561 101.725 325.728 101.725H330.903C332.519 101.725 333.819 102 334.803 102.55C335.803 103.083 336.544 103.842 337.028 104.825C337.511 105.792 337.786 106.917 337.853 108.2C337.869 108.45 337.878 108.675 337.878 108.875C337.878 109.058 337.869 109.275 337.853 109.525C337.786 110.808 337.511 111.942 337.028 112.925C336.544 113.892 335.803 114.65 334.803 115.2C333.819 115.733 332.519 116 330.903 116H326.028C325.844 116 325.686 115.942 325.553 115.825C325.436 115.692 325.378 115.533 325.378 115.35V112.625C325.378 112.442 325.436 112.292 325.553 112.175C325.686 112.042 325.844 111.975 326.028 111.975H330.778C331.528 111.975 332.161 111.767 332.678 111.35C333.211 110.933 333.494 110.333 333.528 109.55C333.544 109.3 333.553 109.075 333.553 108.875C333.553 108.658 333.544 108.425 333.528 108.175C333.494 107.375 333.211 106.775 332.678 106.375C332.161 105.958 331.528 105.75 330.778 105.75H328.953ZM121.924 135.55C121.741 135.55 121.583 135.492 121.449 135.375C121.333 135.242 121.274 135.083 121.274 134.9V132.375C121.274 132.192 121.333 132.042 121.449 131.925C121.583 131.792 121.741 131.725 121.924 131.725H129.374C130.908 131.725 132.199 131.933 133.249 132.35C134.299 132.767 135.091 133.425 135.624 134.325C136.174 135.208 136.449 136.383 136.449 137.85V145.35C136.449 145.533 136.383 145.692 136.249 145.825C136.133 145.942 135.983 146 135.799 146H132.274C132.108 146 131.958 145.942 131.824 145.825C131.691 145.708 131.624 145.558 131.624 145.375V137.975C131.624 137.175 131.433 136.575 131.049 136.175C130.666 135.758 130.066 135.55 129.249 135.55H121.924ZM125.399 133.625H126.724C127.274 133.625 127.641 133.725 127.824 133.925C128.024 134.125 128.074 134.333 127.974 134.55C127.808 135 127.674 135.45 127.574 135.9C127.474 136.333 127.399 136.792 127.349 137.275C127.316 137.742 127.299 138.267 127.299 138.85L127.549 145.35C127.549 145.533 127.483 145.692 127.349 145.825C127.216 145.942 127.058 146 126.874 146H121.024C120.841 146 120.683 145.933 120.549 145.8C120.433 145.667 120.374 145.517 120.374 145.35V143.025C120.374 142.842 120.433 142.692 120.549 142.575C120.683 142.442 120.841 142.375 121.024 142.375H123.074V138.875C123.074 138.392 123.091 137.917 123.124 137.45C123.174 136.983 123.249 136.508 123.349 136.025C123.449 135.542 123.591 135.05 123.774 134.55C123.874 134.3 124.033 134.083 124.249 133.9C124.483 133.717 124.866 133.625 125.399 133.625ZM139.661 146C139.478 146 139.319 145.942 139.186 145.825C139.069 145.692 139.011 145.533 139.011 145.35V132.375C139.011 132.192 139.069 132.042 139.186 131.925C139.319 131.792 139.478 131.725 139.661 131.725H143.386C143.553 131.725 143.703 131.792 143.836 131.925C143.969 132.042 144.036 132.192 144.036 132.375V145.35C144.036 145.533 143.969 145.692 143.836 145.825C143.703 145.942 143.553 146 143.386 146H139.661ZM146.876 147.425C146.693 147.442 146.534 147.383 146.401 147.25C146.268 147.133 146.201 146.983 146.201 146.8V144.225C146.201 144.042 146.259 143.892 146.376 143.775C146.493 143.658 146.634 143.575 146.801 143.525L152.376 142.325C153.293 142.125 153.984 141.867 154.451 141.55C154.934 141.233 155.259 140.825 155.426 140.325C155.593 139.825 155.676 139.217 155.676 138.5V132.35C155.676 132.167 155.734 132.017 155.851 131.9C155.984 131.783 156.143 131.725 156.326 131.725H159.851C160.034 131.725 160.184 131.792 160.301 131.925C160.434 132.042 160.501 132.192 160.501 132.375V139.925C160.501 141.075 160.226 142.075 159.676 142.925C159.143 143.775 158.359 144.475 157.326 145.025C156.293 145.558 155.034 145.942 153.551 146.175L146.876 147.425ZM150.076 145.4L146.551 132.725C146.518 132.592 146.484 132.492 146.451 132.425C146.434 132.358 146.426 132.292 146.426 132.225C146.426 132.092 146.476 131.975 146.576 131.875C146.676 131.775 146.793 131.725 146.926 131.725H150.826C151.143 131.725 151.334 131.85 151.401 132.1L154.376 144.825L150.076 145.4ZM163.634 140.05C163.451 140.05 163.292 139.992 163.159 139.875C163.042 139.742 162.984 139.583 162.984 139.4V132.375C162.984 132.192 163.042 132.042 163.159 131.925C163.292 131.792 163.451 131.725 163.634 131.725H167.359C167.526 131.725 167.676 131.792 167.809 131.925C167.942 132.042 168.009 132.192 168.009 132.375V139.4C168.009 139.583 167.942 139.742 167.809 139.875C167.676 139.992 167.526 140.05 167.359 140.05H163.634ZM171.403 146C171.22 146 171.061 145.942 170.928 145.825C170.811 145.692 170.753 145.533 170.753 145.35V142.725C170.753 142.542 170.811 142.392 170.928 142.275C171.061 142.142 171.22 142.075 171.403 142.075H176.978L169.903 132.6C169.87 132.55 169.836 132.492 169.803 132.425C169.77 132.358 169.753 132.292 169.753 132.225C169.753 132.075 169.803 131.958 169.903 131.875C170.02 131.775 170.153 131.725 170.303 131.725H173.978C174.245 131.725 174.436 131.783 174.553 131.9C174.686 132.017 174.778 132.108 174.828 132.175L182.178 142.125C182.261 142.225 182.336 142.342 182.403 142.475C182.486 142.592 182.528 142.758 182.528 142.975V145.35C182.528 145.533 182.461 145.692 182.328 145.825C182.211 145.942 182.061 146 181.878 146H171.403ZM180.078 140.025L177.678 136.8C178.161 136.433 178.486 135.975 178.653 135.425C178.82 134.858 178.903 134.25 178.903 133.6V132.425C178.903 132.208 178.961 132.042 179.078 131.925C179.211 131.792 179.37 131.725 179.553 131.725H182.678C182.845 131.725 182.995 131.8 183.128 131.95C183.261 132.083 183.328 132.242 183.328 132.425V134.5C183.328 135.6 183.053 136.633 182.503 137.6C181.953 138.567 181.145 139.375 180.078 140.025ZM189.438 135.75V136.325C189.455 136.558 189.505 136.75 189.588 136.9C189.672 137.05 189.78 137.15 189.913 137.2L190.538 137.425C190.672 137.492 190.772 137.6 190.838 137.75C190.922 137.883 190.963 138.033 190.963 138.2L190.988 139.65C190.988 139.95 190.872 140.175 190.638 140.325C190.405 140.475 190.113 140.533 189.763 140.5L188.713 140.35C188.147 140.283 187.622 140.058 187.138 139.675C186.672 139.292 186.288 138.783 185.988 138.15C185.705 137.5 185.563 136.767 185.563 135.95V132.375C185.597 132.192 185.672 132.042 185.788 131.925C185.905 131.792 186.047 131.725 186.213 131.725H191.388C193.005 131.725 194.305 132 195.288 132.55C196.288 133.083 197.03 133.842 197.513 134.825C197.997 135.792 198.272 136.917 198.338 138.2C198.355 138.45 198.363 138.675 198.363 138.875C198.363 139.058 198.355 139.275 198.338 139.525C198.272 140.808 197.997 141.942 197.513 142.925C197.03 143.892 196.288 144.65 195.288 145.2C194.305 145.733 193.005 146 191.388 146H186.513C186.33 146 186.172 145.942 186.038 145.825C185.922 145.692 185.863 145.533 185.863 145.35V142.625C185.863 142.442 185.922 142.292 186.038 142.175C186.172 142.042 186.33 141.975 186.513 141.975H191.263C192.013 141.975 192.647 141.767 193.163 141.35C193.697 140.933 193.98 140.333 194.013 139.55C194.03 139.3 194.038 139.075 194.038 138.875C194.038 138.658 194.03 138.425 194.013 138.175C193.98 137.375 193.697 136.775 193.163 136.375C192.647 135.958 192.013 135.75 191.263 135.75H189.438ZM203.862 146.35C203.696 146.383 203.537 146.317 203.387 146.15C203.254 145.983 203.187 145.808 203.187 145.625V142.675C203.187 142.508 203.254 142.342 203.387 142.175C203.521 142.008 203.671 141.892 203.837 141.825L204.562 141.525C204.962 141.358 205.321 141.142 205.637 140.875C205.971 140.608 206.237 140.258 206.437 139.825C206.637 139.375 206.737 138.808 206.737 138.125C206.737 137.558 206.671 137.108 206.537 136.775C206.421 136.425 206.204 136.167 205.887 136C205.587 135.833 205.162 135.75 204.612 135.75H204.087C203.921 135.75 203.771 135.692 203.637 135.575C203.504 135.442 203.437 135.283 203.437 135.1V132.325C203.437 132.158 203.504 132.017 203.637 131.9C203.771 131.783 203.921 131.725 204.087 131.725H205.637C207.121 131.725 208.304 131.975 209.187 132.475C210.071 132.975 210.712 133.692 211.112 134.625C211.512 135.542 211.712 136.65 211.712 137.95C211.712 139.05 211.521 140.058 211.137 140.975C210.771 141.875 210.262 142.667 209.612 143.35C208.962 144.017 208.229 144.583 207.412 145.05C206.612 145.5 205.771 145.842 204.887 146.075L203.862 146.35ZM205.112 135.75H200.362C200.179 135.75 200.021 135.692 199.887 135.575C199.771 135.442 199.712 135.283 199.712 135.1V128.9C199.712 128.717 199.771 128.567 199.887 128.45C200.021 128.317 200.179 128.25 200.362 128.25H203.562C203.746 128.25 203.896 128.317 204.012 128.45C204.146 128.567 204.212 128.717 204.212 128.9V131.725H205.137L205.112 135.75ZM219.544 149.1C219.361 149.1 219.202 149.033 219.069 148.9C218.952 148.783 218.894 148.633 218.894 148.45V132.375C218.894 132.192 218.952 132.042 219.069 131.925C219.202 131.792 219.361 131.725 219.544 131.725H223.069C223.236 131.725 223.386 131.792 223.519 131.925C223.652 132.042 223.719 132.192 223.719 132.375V148.45C223.719 148.633 223.652 148.783 223.519 148.9C223.386 149.033 223.236 149.1 223.069 149.1H219.544ZM227.063 146C226.88 146 226.722 145.942 226.588 145.825C226.472 145.692 226.413 145.533 226.413 145.35V132.375C226.413 132.192 226.472 132.042 226.588 131.925C226.722 131.792 226.88 131.725 227.063 131.725H230.788C230.955 131.725 231.105 131.792 231.238 131.925C231.372 132.042 231.438 132.192 231.438 132.375V145.35C231.438 145.533 231.372 145.692 231.238 145.825C231.105 145.942 230.955 146 230.788 146H227.063ZM234.578 146C234.395 146 234.237 145.942 234.103 145.825C233.987 145.692 233.928 145.533 233.928 145.35V142.625C233.928 142.442 233.987 142.292 234.103 142.175C234.237 142.042 234.395 141.975 234.578 141.975H238.228C239.045 141.975 239.67 141.767 240.103 141.35C240.553 140.933 240.795 140.333 240.828 139.55C240.845 139.283 240.853 139.058 240.853 138.875C240.853 138.675 240.845 138.442 240.828 138.175C240.795 137.375 240.553 136.775 240.103 136.375C239.67 135.958 239.045 135.75 238.228 135.75H234.578C234.395 135.75 234.237 135.692 234.103 135.575C233.987 135.442 233.928 135.283 233.928 135.1V132.375C233.928 132.192 233.987 132.042 234.103 131.925C234.237 131.792 234.395 131.725 234.578 131.725H238.353C240.02 131.725 241.362 132 242.378 132.55C243.395 133.083 244.145 133.842 244.628 134.825C245.112 135.792 245.387 136.917 245.453 138.2C245.47 138.483 245.478 138.708 245.478 138.875C245.478 139.025 245.47 139.242 245.453 139.525C245.387 140.808 245.112 141.942 244.628 142.925C244.145 143.892 243.395 144.65 242.378 145.2C241.362 145.733 240.02 146 238.353 146H234.578ZM248.253 140.05C248.07 140.05 247.911 139.992 247.778 139.875C247.661 139.742 247.603 139.583 247.603 139.4V132.375C247.603 132.192 247.661 132.042 247.778 131.925C247.911 131.792 248.07 131.725 248.253 131.725H251.978C252.145 131.725 252.295 131.792 252.428 131.925C252.561 132.042 252.628 132.192 252.628 132.375V139.4C252.628 139.583 252.561 139.742 252.428 139.875C252.295 139.992 252.145 140.05 251.978 140.05H248.253ZM262.047 146.25C259.664 146.25 257.905 145.683 256.772 144.55C255.639 143.417 255.072 141.892 255.072 139.975V132.375C255.072 132.192 255.13 132.042 255.247 131.925C255.38 131.792 255.539 131.725 255.722 131.725H262.222C263.955 131.725 265.322 131.975 266.322 132.475C267.339 132.975 268.072 133.683 268.522 134.6C268.972 135.5 269.23 136.567 269.297 137.8C269.314 137.967 269.322 138.2 269.322 138.5C269.322 138.783 269.322 139.075 269.322 139.375C269.322 139.658 269.314 139.883 269.297 140.05C269.23 141.317 268.964 142.417 268.497 143.35C268.03 144.267 267.28 144.983 266.247 145.5C265.214 146 263.814 146.25 262.047 146.25ZM262.022 142.225C263.039 142.225 263.73 142.05 264.097 141.7C264.464 141.35 264.664 140.758 264.697 139.925C264.714 139.758 264.722 139.55 264.722 139.3C264.722 139.05 264.722 138.8 264.722 138.55C264.722 138.3 264.714 138.092 264.697 137.925C264.664 137.125 264.455 136.533 264.072 136.15C263.705 135.75 263.047 135.55 262.097 135.55H259.472V139.875C259.472 140.708 259.697 141.308 260.147 141.675C260.614 142.042 261.239 142.225 262.022 142.225ZM272.181 146C271.997 146 271.839 145.942 271.706 145.825C271.589 145.692 271.531 145.533 271.531 145.35V132.375C271.531 132.192 271.589 132.042 271.706 131.925C271.839 131.792 271.997 131.725 272.181 131.725H275.906C276.072 131.725 276.222 131.792 276.356 131.925C276.489 132.042 276.556 132.192 276.556 132.375V145.35C276.556 145.533 276.489 145.692 276.356 145.825C276.222 145.942 276.072 146 275.906 146H272.181Z" fill="white"/>
<rect x="189" y="58" width="9" height="27" rx="1" fill="#365582"/>
<rect x="203" y="58" width="9" height="27" rx="1" fill="#365582"/>
<defs>
<filter id="filter0_d_253_4" x="-3" y="166" width="212" height="185" filterUnits="userSpaceOnUse" color-interpolation-filters="sRGB">
<feFlood flood-opacity="0" result="BackgroundImageFix"/>
<feColorMatrix in="SourceAlpha" type="matrix" values="0 0 0 0 0 0 0 0 0 0 0 0 0 0 0 0 0 0 127 0" result="hardAlpha"/>
<feOffset dy="4"/>
<feGaussianBlur stdDeviation="2"/>
<feComposite in2="hardAlpha" operator="out"/>
<feColorMatrix type="matrix" values="0 0 0 0 0 0 0 0 0 0 0 0 0 0 0 0 0 0 0.25 0"/>
<feBlend mode="normal" in2="BackgroundImageFix" result="effect1_dropShadow_253_4"/>
<feBlend mode="normal" in="SourceGraphic" in2="effect1_dropShadow_253_4" result="shape"/>
</filter>
</defs>
</svg>
