<svg width="56" height="54" viewBox="0 0 56 54" fill="none" xmlns="http://www.w3.org/2000/svg">
<ellipse cx="28" cy="27" rx="28" ry="27" fill="white"/>
<path fill-rule="evenodd" clip-rule="evenodd" d="M27.6267 50.958C30.8625 50.958 34.0666 50.3383 37.056 49.1343C40.0455 47.9303 42.7618 46.1656 45.0498 43.9409C47.3378 41.7162 49.1528 39.0751 50.3911 36.1685C51.6294 33.2618 52.2667 30.1464 52.2667 27.0002C52.2667 23.8541 51.6294 20.7387 50.3911 17.832C49.1528 14.9253 47.3378 12.2842 45.0498 10.0595C42.7618 7.83486 40.0455 6.07014 37.056 4.86616C34.0666 3.66217 30.8625 3.04248 27.6267 3.04248C21.0918 3.04248 14.8245 5.56659 10.2036 10.0595C5.58269 14.5525 2.98669 20.6462 2.98669 27.0002C2.98669 33.3542 5.58269 39.448 10.2036 43.9409C14.8245 48.4339 21.0918 50.958 27.6267 50.958ZM26.9915 36.6898L40.6804 20.718L36.4752 17.3106L24.7027 31.0438L18.6112 25.1182L14.74 28.8822L22.9533 36.8682L25.0723 38.9285L26.9915 36.6898Z" fill="#91BF5C"/>
</svg>
