<svg width="291" height="284" viewBox="0 0 291 284" fill="none" xmlns="http://www.w3.org/2000/svg">
<g filter="url(#filter0_d_21_691)">
<path d="M9.48236 188.015C5.88236 182.815 23.3157 162.848 32.4824 153.515C76.4824 112.515 165.782 29.8149 170.982 27.0149C176.182 24.2149 179.149 25.8482 179.982 27.0149C188.816 34.3482 210.7 53.6 217.5 54C224.3 54.4 232 45.5149 236.982 37.0149C244.982 13.8149 260.649 8.68157 267.482 9.0149C297.982 9.0149 285 39 278.982 45.5149C272.965 52.0298 238 70 241.5 76C245 82 280.982 108.015 281.482 114.515C281.982 121.015 119.982 278.515 110.482 275.015C100.982 271.515 13.9824 194.515 9.48236 188.015Z" fill="#8A4800"/>
<path d="M9.48236 179.015C5.88236 173.815 23.3157 153.848 32.4824 144.515C76.4824 103.515 165.782 20.8149 170.982 18.0149C176.182 15.2149 179.149 16.8482 179.982 18.0149C188.816 25.3482 210.7 44.6 217.5 45C224.3 45.4 232 36.5149 236.982 28.0149C244.982 4.8149 260.649 -0.318429 267.482 0.0149044C297.982 0.0149044 285 30 278.982 36.5149C272.965 43.0298 238 61 241.5 67C245 73 280.982 99.0149 281.482 105.515C281.982 112.015 119.982 269.515 110.482 266.015C100.982 262.515 13.9824 185.515 9.48236 179.015Z" fill="#F6A132"/>
<path d="M24.0001 198C18.4001 180.8 121.667 70.5 174 17.5C132 41.5 43.1667 136.5 4 181L24.0001 198Z" fill="#FFB95D"/>
<path d="M66.4303 205.979C77.5108 213.729 163.228 207.44 194.274 176.891C196.404 174.603 198.561 170.658 198.306 166.109C198.201 164.24 197.69 162.268 196.602 160.268C194.99 165.809 189.215 178.238 179.013 183.629C166.26 190.368 101.344 204.295 91.1001 201.262C82.9047 198.836 67.8728 192.165 61.3812 189.133C61.1293 190.686 60.9809 192.277 60.984 193.85C60.9932 198.58 62.3729 203.142 66.4303 205.979Z" fill="#C54B1A"/>
<path d="M105.003 171.907C103.853 172.042 102.701 172.176 101.553 172.305L100.251 180.372L98.8356 189.133C99.7416 190.518 101.888 192.996 103.226 191.828C104.065 191.096 105.277 185.78 106.304 180.372C106.916 177.156 107.462 173.907 107.825 171.57C106.888 171.683 105.946 171.796 105.003 171.907Z" fill="#84240E"/>
<path d="M120.578 170.021C120.054 172.239 119.277 175.793 118.736 178.912C118.272 181.592 117.981 183.951 118.174 184.865C118.592 186.842 119.951 187.336 120.578 187.336L122.512 178.459L124.446 169.582C123.223 169.715 121.928 169.863 120.578 170.021Z" fill="#84240E"/>
<path d="M139.708 164.415C139.149 166.819 138.341 170.507 137.738 173.747C137.138 176.968 136.74 179.745 136.99 180.372C137.492 181.63 140.126 183.068 141.381 183.629C141.927 180.531 142.778 175.423 143.422 170.911C143.929 167.36 144.308 164.178 144.308 162.633C142.826 163.2 141.294 163.793 139.708 164.415Z" fill="#84240E"/>
<path d="M159.674 157.055C158.28 162.506 155.764 174.105 156.852 176.891C158.21 180.372 160.51 181.832 161.242 180.372C161.827 179.204 163.507 163.327 164.273 155.534C162.833 155.996 161.302 156.502 159.674 157.055Z" fill="#84240E"/>
<path d="M144.308 162.633C144.308 164.178 143.929 167.36 143.422 170.911C144.308 170.911 156.852 163.985 156.852 158.027C153.143 159.323 148.98 160.845 144.308 162.633Z" fill="#E6975E"/>
<path d="M127.687 169.253C126.677 169.348 125.592 169.458 124.446 169.582L122.512 178.459C124.77 178.798 130.977 178.33 137.738 173.747C138.341 170.507 139.149 166.819 139.708 164.415C135.998 165.869 131.999 167.477 127.687 169.253Z" fill="#E6975E"/>
<path d="M120.578 170.021C118.268 170.293 115.795 170.596 113.235 170.911L113.233 170.911C111.464 171.128 109.653 171.35 107.825 171.57C107.462 173.907 106.916 177.156 106.304 180.372C109.695 179.511 116.928 178.014 118.736 178.912C119.277 175.793 120.054 172.239 120.578 170.021Z" fill="#E6975E"/>
<path d="M100.251 180.372L101.553 172.305C99.4064 172.547 97.275 172.776 95.1988 172.98C95.5259 175.139 96.9467 179.407 100.251 180.372Z" fill="#E6975E"/>
<path d="M68.8346 179.586C68.1028 179.923 64.6532 184.416 66.4303 186.213C67.5137 187.308 68.597 186.108 69.8462 184.724C70.646 183.838 71.5139 182.876 72.4932 182.394C73.5006 181.898 74.9292 181.565 76.2514 181.257C78.2221 180.797 79.9563 180.393 79.706 179.586C79.2879 178.238 75.1066 176.891 74.6884 176.891C74.3539 176.891 70.6465 178.688 68.8346 179.586Z" fill="#E6975E"/>
<path fill-rule="evenodd" clip-rule="evenodd" d="M73.1204 172.735C74.8219 173.846 79.3982 174.042 85.3508 173.747C87.1548 173.657 89.0851 173.522 91.1001 173.354C92.4333 173.243 93.8036 173.117 95.1988 172.98L73.1204 172.735Z" fill="#84240E"/>
<path fill-rule="evenodd" clip-rule="evenodd" d="M73.1204 172.735C71.5873 173.072 67.7265 174.779 64.5487 178.912C64.0367 179.988 63.5009 181.286 63.0049 182.731C62.3423 184.662 61.7506 186.856 61.3812 189.133C67.8728 192.165 82.9047 198.836 91.1001 201.262C101.344 204.295 166.26 190.368 179.013 183.629C189.215 178.238 194.99 165.809 196.602 160.268C195.407 158.072 193.516 155.84 190.706 153.67C189.361 152.632 187.806 151.609 186.016 150.61C184.357 150.61 179.197 150.746 164.273 155.534C163.507 163.327 161.827 179.204 161.242 180.372C160.51 181.832 158.21 180.372 156.852 176.891C155.764 174.105 158.28 162.506 159.674 157.055C158.764 157.364 157.823 157.688 156.852 158.027C156.852 163.985 144.308 170.911 143.422 170.911C142.778 175.423 141.927 180.531 141.381 183.629C140.126 183.068 137.492 181.63 136.99 180.372C136.74 179.745 137.138 176.968 137.738 173.747C130.977 178.33 124.77 178.798 122.512 178.459L120.578 187.336C119.951 187.336 118.592 186.842 118.174 184.865C117.981 183.951 118.272 181.592 118.736 178.912C116.928 178.014 109.695 179.511 106.304 180.372C105.277 185.78 104.065 191.096 103.226 191.828C101.888 192.996 99.7416 190.518 98.8356 189.133L100.251 180.372C96.9467 179.407 95.5259 175.139 95.1988 172.98C93.8036 173.117 92.4333 173.243 91.1001 173.354C90.1245 179.175 87.8387 191.02 86.5007 191.828C85.2742 192.569 84.2164 190.774 83.2036 189.055C82.8352 188.43 82.4727 187.815 82.1103 187.336C81.0231 185.898 83.8177 177.677 85.3508 173.747C79.3982 174.042 74.8219 173.846 73.1204 172.735ZM66.4303 186.213C64.6532 184.416 68.1028 179.923 68.8346 179.586C70.6465 178.688 74.3539 176.891 74.6884 176.891C75.1066 176.891 79.2879 178.238 79.706 179.586C79.9563 180.393 78.2221 180.797 76.2514 181.257C74.9292 181.565 73.5006 181.898 72.4932 182.394C71.5139 182.876 70.646 183.838 69.8462 184.724C68.597 186.108 67.5137 187.308 66.4303 186.213Z" fill="#D65E21"/>
<path d="M85.3508 173.747C83.8177 177.677 81.0231 185.898 82.1103 187.336C82.4727 187.815 82.8352 188.43 83.2036 189.055C84.2164 190.774 85.2742 192.569 86.5007 191.828C87.8387 191.02 90.1245 179.175 91.1001 173.354C89.0851 173.522 87.1548 173.657 85.3508 173.747Z" fill="#84240E"/>
<path d="M61.3812 189.133C61.7506 186.856 62.3423 184.662 63.0049 182.731C63.0437 182.619 61.5173 177.228 59.5311 177.115C57.5727 177.005 57.2405 179.514 57.432 180.123C57.4723 180.17 57.5101 180.216 57.545 180.26C57.5799 180.41 57.6077 180.597 57.4405 180.148C57.4375 180.14 57.4347 180.132 57.432 180.123C56.7877 179.372 55.4838 178.319 54.6181 179.249C53.4682 180.485 52.1093 182.282 54.8272 185.202C53.8515 184.977 51.7121 184.663 50.9594 185.202C50.0186 185.876 48.6597 187.897 49.0778 188.459C49.496 189.02 51.3776 190.031 52.2138 190.143C53.0501 190.256 55.6634 190.368 55.6634 190.817C55.6634 191.267 54.3045 191.154 54.3045 192.165C54.3045 193.176 54.0954 194.636 54.7226 194.973C55.3498 195.31 57.0223 195.871 57.545 195.422C57.9632 195.063 60.0119 194.224 60.984 193.85C60.9809 192.277 61.1293 190.686 61.3812 189.133Z" fill="#B23215"/>
<path d="M195.529 153.53C194.693 152.519 194.065 150.61 193.334 150.048C192.774 149.618 191.403 152.17 190.706 153.67C193.516 155.84 195.407 158.072 196.602 160.268C197.69 162.268 198.201 164.24 198.306 166.109C201.674 167.456 202.219 165.323 202.219 164.199C202.219 163.301 200.825 162.702 200.128 162.515C200.581 162.515 201.843 162.38 203.264 161.841C205.041 161.167 203.16 158.247 202.219 157.573C201.278 156.899 199.71 156.675 200.128 156.338C200.546 156.001 202.323 153.193 202.533 152.631C202.742 152.07 201.592 150.61 199.188 150.61C196.783 150.61 196.365 154.541 195.529 153.53Z" fill="#B23215"/>
<path d="M205.954 127.937C201.262 140.618 127.232 184.283 84.3126 176.863C81.2592 176.196 77.2391 174.182 74.8567 170.299C73.8778 168.703 73.1755 166.791 72.9303 164.528C77.4117 168.163 89.2385 175.088 100.695 173.707C115.015 171.979 176.3 146.443 182.991 138.115C188.345 131.452 196.898 117.405 200.506 111.215C201.597 112.348 202.626 113.571 203.519 114.865C206.207 118.758 207.672 123.293 205.954 127.937Z" fill="#C54B1A"/>
<path d="M154.841 121.909C155.864 121.365 156.886 120.819 157.903 120.271L163.57 126.159L169.724 132.553C169.768 134.207 169.416 137.467 167.651 137.269C166.544 137.145 162.52 133.467 158.595 129.608C156.26 127.313 153.96 124.954 152.33 123.24C153.165 122.799 154.003 122.355 154.841 121.909Z" fill="#84240E"/>
<path d="M140.966 129.233C142.661 130.757 145.324 133.235 147.546 135.49C149.454 137.428 151.037 139.201 151.399 140.062C152.181 141.925 151.346 143.105 150.83 143.463L144.184 137.269L137.538 131.076C138.619 130.487 139.767 129.871 140.966 129.233Z" fill="#84240E"/>
<path d="M122.051 135.523C123.88 137.181 126.645 139.752 128.986 142.07C131.315 144.376 133.224 146.432 133.375 147.09C133.68 148.409 132.334 151.091 131.623 152.268C129.408 150.032 125.799 146.319 122.699 142.978C120.259 140.348 118.136 137.949 117.255 136.679C118.796 136.301 120.394 135.916 122.051 135.523Z" fill="#84240E"/>
<path d="M101.448 140.849C105.7 144.535 114.375 152.635 115.069 155.543C115.935 159.179 114.877 161.689 113.444 160.906C112.297 160.279 101.872 148.187 96.8022 142.219C98.2492 141.779 99.7956 141.322 101.448 140.849Z" fill="#84240E"/>
<path d="M117.255 136.679C118.136 137.949 120.259 140.348 122.699 142.978C121.971 143.482 107.716 144.936 104.322 140.04C108.108 138.992 112.397 137.871 117.255 136.679Z" fill="#E6975E"/>
<path d="M134.687 132.651C135.571 132.153 136.525 131.627 137.538 131.076L144.184 137.269C142.521 138.834 137.154 141.985 128.986 142.07C126.645 139.752 123.88 137.181 122.051 135.523C125.928 134.605 130.131 133.648 134.687 132.651Z" fill="#E6975E"/>
<path d="M140.966 129.233C143.02 128.14 145.225 126.98 147.509 125.78L147.51 125.779C149.087 124.95 150.702 124.101 152.33 123.24C153.96 124.954 156.26 127.313 158.595 129.608C155.318 130.832 148.52 133.722 147.546 135.49C145.324 133.235 142.661 130.757 140.966 129.233Z" fill="#E6975E"/>
<path d="M163.57 126.159L157.903 120.271C159.806 119.247 161.688 118.221 163.51 117.206C164.471 119.166 165.735 123.484 163.57 126.159Z" fill="#E6975E"/>
<path d="M188.941 107.615C189.735 107.475 195.129 109.202 194.692 111.691C194.426 113.209 192.852 112.84 191.037 112.414C189.875 112.141 188.614 111.846 187.534 112.007C186.424 112.173 185.06 112.714 183.797 113.213C181.916 113.958 180.26 114.614 180.007 113.809C179.582 112.463 182.251 108.973 182.595 108.735C182.87 108.544 186.94 107.909 188.941 107.615Z" fill="#E6975E"/>
<path fill-rule="evenodd" clip-rule="evenodd" d="M181.516 104.426C180.751 106.309 177.101 109.077 172.041 112.225C170.507 113.179 168.844 114.168 167.092 115.178C165.933 115.846 164.735 116.523 163.51 117.206L181.516 104.426Z" fill="#84240E"/>
<path fill-rule="evenodd" clip-rule="evenodd" d="M181.516 104.426C182.968 103.83 187.113 103.033 192.08 104.62C193.113 105.212 194.293 105.973 195.524 106.879C197.169 108.088 198.905 109.554 200.506 111.215C196.898 117.405 188.345 131.452 182.991 138.115C176.3 146.443 115.015 171.979 100.695 173.707C89.2385 175.088 77.4117 168.163 72.9303 164.528C72.661 162.041 72.9434 159.13 74.0169 155.746C74.5305 154.127 75.2252 152.4 76.1273 150.559C77.4913 149.614 81.8087 146.786 96.8022 142.219C101.872 148.187 112.297 160.279 113.444 160.906C114.877 161.689 115.935 159.179 115.069 155.543C114.375 152.635 105.7 144.535 101.448 140.849C102.373 140.584 103.33 140.315 104.322 140.04C107.716 144.936 121.971 143.482 122.699 142.978C125.799 146.319 129.408 150.032 131.623 152.268C132.334 151.091 133.68 148.409 133.375 147.09C133.224 146.432 131.315 144.376 128.986 142.07C137.154 141.985 142.521 138.834 144.184 137.269L150.83 143.463C151.346 143.105 152.181 141.925 151.399 140.062C151.037 139.201 149.454 137.428 147.546 135.49C148.52 133.722 155.318 130.832 158.595 129.608C162.52 133.467 166.544 137.145 167.651 137.269C169.416 137.467 169.768 134.207 169.724 132.553L163.57 126.159C165.735 123.484 164.471 119.166 163.51 117.206C164.735 116.523 165.933 115.846 167.092 115.178C171.21 119.406 179.836 127.838 181.397 127.741C182.827 127.651 182.674 125.573 182.527 123.583C182.473 122.86 182.421 122.148 182.446 121.547C182.52 119.747 175.54 114.582 172.041 112.225C177.101 109.077 180.751 106.309 181.516 104.426ZM194.692 111.691C195.129 109.202 189.735 107.475 188.941 107.615C186.94 107.909 182.87 108.544 182.595 108.735C182.251 108.973 179.582 112.463 180.007 113.809C180.26 114.614 181.916 113.958 183.797 113.213C185.06 112.714 186.424 112.173 187.534 112.007C188.614 111.846 189.875 112.141 191.037 112.414C192.852 112.84 194.426 113.209 194.692 111.691Z" fill="#D65E21"/>
<path d="M172.041 112.225C175.54 114.582 182.52 119.747 182.446 121.547C182.421 122.148 182.473 122.86 182.527 123.583C182.674 125.573 182.827 127.651 181.397 127.741C179.836 127.838 171.21 119.406 167.092 115.178C168.844 114.168 170.507 113.179 172.041 112.225Z" fill="#84240E"/>
<path d="M200.506 111.215C198.905 109.554 197.169 108.088 195.524 106.879C195.428 106.808 193.611 101.508 195.18 100.284C196.726 99.0777 198.429 100.951 198.618 101.56C198.612 101.622 198.607 101.681 198.604 101.737C198.66 101.88 198.744 102.05 198.626 101.586C198.623 101.577 198.621 101.569 198.618 101.56C198.72 100.576 199.192 98.968 200.433 99.2392C202.082 99.5995 204.223 100.302 203.653 104.25C204.326 103.51 205.906 102.033 206.831 102.047C207.988 102.065 210.257 102.952 210.233 103.652C210.209 104.352 209.239 106.254 208.616 106.823C207.992 107.392 205.909 108.973 206.164 109.342C206.42 109.711 207.473 108.845 208.049 109.675C208.625 110.506 209.629 111.587 209.305 112.221C208.982 112.856 207.927 114.27 207.241 114.198C206.693 114.141 204.532 114.619 203.519 114.865C202.626 113.571 201.597 112.348 200.506 111.215Z" fill="#B23215"/>
<path d="M69.9729 158.378C70.0844 157.071 69.5121 155.145 69.7936 154.266C70.009 153.594 72.5892 154.911 74.0169 155.746C72.9434 159.13 72.661 162.041 72.9303 164.528C73.1755 166.791 73.8778 168.703 74.8567 170.299C72.8562 173.325 71.193 171.882 70.5531 170.959C70.0413 170.22 70.8455 168.934 71.3116 168.383C70.9393 168.641 69.8259 169.249 68.3504 169.616C66.506 170.074 66.3888 166.602 66.7781 165.513C67.1674 164.423 68.3281 163.345 67.7925 163.306C67.2569 163.268 64.1968 161.972 63.705 161.63C63.2133 161.288 63.3265 159.433 65.3025 158.063C67.2784 156.693 69.8615 159.686 69.9729 158.378Z" fill="#B23215"/>
<path d="M202.514 79.6956C199.764 92.9346 133.065 147.141 89.5195 146.198C86.4008 145.993 82.1256 144.601 79.1912 141.116C77.9855 139.684 77.0062 137.898 76.4265 135.696C81.3995 138.623 94.1261 143.709 105.248 140.636C119.152 136.795 175.948 102.413 181.324 93.1806C185.625 85.7947 191.99 70.6306 194.635 63.9718C195.884 64.9293 197.083 65.9858 198.159 67.1325C201.397 70.5816 203.521 74.8478 202.514 79.6956Z" fill="#C54B1A"/>
<path d="M151.074 81.35C152.004 80.6597 152.934 79.9668 153.858 79.2741L160.338 84.2519L167.376 89.6574C167.666 91.2869 167.804 94.5626 166.029 94.6301C164.916 94.6724 160.389 91.6347 155.932 88.4035C153.282 86.4819 150.656 84.4918 148.789 83.0405C149.549 82.4799 150.311 81.9158 151.074 81.35Z" fill="#84240E"/>
<path d="M138.445 90.659C140.348 91.9135 143.351 93.9675 145.883 95.8665C148.059 97.4984 149.888 99.0159 150.374 99.8134C151.425 101.539 150.775 102.83 150.319 103.26L142.824 98.1263L135.329 92.992C136.311 92.2493 137.354 91.4692 138.445 90.659Z" fill="#84240E"/>
<path d="M120.677 99.6974C122.733 101.064 125.85 103.194 128.511 105.138C131.157 107.071 133.351 108.819 133.599 109.447C134.096 110.707 133.165 113.56 132.637 114.829C130.115 112.948 125.992 109.815 122.429 106.972C119.625 104.736 117.168 102.679 116.108 101.555C117.575 100.951 119.097 100.332 120.677 99.6974Z" fill="#84240E"/>
<path d="M101.099 108.033C105.852 111.044 115.637 117.761 116.756 120.534C118.155 124 117.482 126.64 115.948 126.079C114.721 125.63 102.61 115.226 96.7084 110.08C98.0736 109.429 99.5347 108.747 101.099 108.033Z" fill="#84240E"/>
<path d="M116.108 101.555C117.168 102.679 119.625 104.736 122.429 106.972C121.785 107.579 107.905 111.141 103.82 106.805C107.408 105.205 111.481 103.458 116.108 101.555Z" fill="#E6975E"/>
<path d="M132.745 94.9749C133.545 94.3506 134.41 93.6877 135.329 92.992L142.824 98.1263C141.413 99.9213 136.575 103.837 128.511 105.138C125.85 103.194 122.733 101.064 120.677 99.6974C124.375 98.2117 128.388 96.6387 132.745 94.9749Z" fill="#E6975E"/>
<path d="M138.445 90.659C140.313 89.2722 142.321 87.7971 144.4 86.2698L144.401 86.269C145.837 85.2138 147.308 84.1337 148.789 83.0405C150.656 84.4918 153.282 86.4819 155.932 88.4035C152.874 90.102 146.583 93.9725 145.883 95.8665C143.351 93.9675 140.348 91.9135 138.445 90.659Z" fill="#E6975E"/>
<path d="M160.338 84.2519L153.858 79.2741C155.586 77.978 157.295 76.6827 158.945 75.4074C160.188 77.2031 162.081 81.2839 160.338 84.2519Z" fill="#E6975E"/>
<path d="M182.664 62.1352C183.427 61.8786 189.019 62.7826 188.958 65.3091C188.921 66.8494 187.309 66.7188 185.451 66.5682C184.261 66.4718 182.97 66.3672 181.927 66.6878C180.853 67.0176 179.585 67.7549 178.411 68.4372C176.662 69.4543 175.123 70.3493 174.752 69.5907C174.132 68.323 176.251 64.4746 176.555 64.1879C176.798 63.9585 180.729 62.7238 182.664 62.1352Z" fill="#E6975E"/>
<path fill-rule="evenodd" clip-rule="evenodd" d="M174.846 60.0882C174.37 62.0637 171.174 65.3447 166.639 69.2117C165.264 70.3836 163.767 71.6093 162.185 72.8689C161.138 73.7022 160.055 74.5503 158.945 75.4074L174.846 60.0882Z" fill="#84240E"/>
<path fill-rule="evenodd" clip-rule="evenodd" d="M174.846 60.0882C176.193 59.282 180.174 57.8768 185.321 58.7056C186.431 59.137 187.711 59.7143 189.063 60.4261C190.87 61.3771 192.805 62.5681 194.635 63.9718C191.99 70.6306 185.625 85.7947 181.324 93.1806C175.948 102.413 119.152 136.795 105.248 140.636C94.1261 143.709 81.3995 138.623 76.4265 135.696C75.7898 133.278 75.6353 130.357 76.1927 126.851C76.4594 125.174 76.889 123.362 77.5067 121.407C78.7147 120.269 82.5627 116.83 96.7084 110.08C102.61 115.226 114.721 125.63 115.948 126.079C117.482 126.64 118.155 124 116.756 120.534C115.637 117.761 105.852 111.044 101.099 108.033C101.973 107.633 102.88 107.224 103.82 106.805C107.905 111.141 121.785 107.579 122.429 106.972C125.992 109.815 130.115 112.948 132.637 114.829C133.165 113.56 134.096 110.707 133.599 109.447C133.351 108.819 131.157 107.071 128.511 105.138C136.575 103.837 141.413 99.9213 142.824 98.1263L150.319 103.26C150.775 102.83 151.425 101.539 150.374 99.8134C149.888 99.0159 148.059 97.4984 145.883 95.8665C146.583 93.9725 152.874 90.102 155.932 88.4035C160.389 91.6347 164.916 94.6724 166.029 94.6301C167.804 94.5626 167.666 91.2869 167.376 89.6574L160.338 84.2519C162.081 81.2839 160.188 77.2031 158.945 75.4074C160.055 74.5503 161.138 73.7022 162.185 72.8689C166.887 76.4364 176.673 83.4892 178.202 83.1601C179.603 82.8585 179.141 80.8265 178.7 78.8809C178.539 78.1732 178.381 77.477 178.316 76.8796C178.122 75.0878 170.45 71.0211 166.639 69.2117C171.174 65.3447 174.37 62.0637 174.846 60.0882ZM188.958 65.3091C189.019 62.7826 183.427 61.8786 182.664 62.1352C180.729 62.7238 176.798 63.9585 176.555 64.1879C176.251 64.4746 174.132 68.323 174.752 69.5907C175.123 70.3493 176.662 69.4543 178.411 68.4372C179.585 67.7549 180.853 67.0176 181.927 66.6878C182.97 66.3672 184.261 66.4718 185.451 66.5682C187.309 66.7188 188.921 66.8494 188.958 65.3091Z" fill="#D65E21"/>
<path d="M166.639 69.2117C170.45 71.0211 178.122 75.0878 178.316 76.8796C178.381 77.477 178.539 78.1732 178.7 78.8809C179.141 80.8265 179.603 82.8585 178.202 83.1601C176.673 83.4892 166.887 76.4364 162.185 72.8689C163.767 71.6093 165.264 70.3836 166.639 69.2117Z" fill="#84240E"/>
<path d="M194.635 63.9718C192.805 62.5681 190.87 61.3771 189.063 60.4261C188.958 60.3709 186.372 55.4005 187.74 53.9567C189.09 52.5331 191.053 54.132 191.331 54.7062C191.334 54.7681 191.338 54.8274 191.343 54.8834C191.42 55.0163 191.528 55.1717 191.342 54.73C191.338 54.7223 191.335 54.7144 191.331 54.7062C191.285 53.7175 191.512 52.0573 192.78 52.1405C194.464 52.2511 196.685 52.6271 196.71 56.6162C197.266 55.7836 198.607 54.0876 199.525 53.9638C200.671 53.809 203.047 54.3484 203.128 55.0439C203.208 55.7393 202.532 57.7654 202.001 58.4206C201.469 59.0759 199.644 60.9498 199.952 61.2768C200.26 61.6037 201.172 60.5901 201.865 61.3257C202.559 62.0614 203.712 62.9807 203.487 63.656C203.261 64.3314 202.429 65.887 201.74 65.9185C201.19 65.9437 199.124 66.7383 198.159 67.1325C197.083 65.9858 195.884 64.9293 194.635 63.9718Z" fill="#B23215"/>
<path d="M72.586 130.056C72.5015 128.747 71.6486 126.927 71.796 126.017C71.9089 125.32 74.6565 126.237 76.1927 126.851C75.6353 130.357 75.7898 133.278 76.4265 135.696C77.0062 137.898 77.9855 139.684 79.1912 141.116C77.664 144.407 75.8042 143.227 75.034 142.409C74.4178 141.756 75.0214 140.364 75.4002 139.75C75.0706 140.06 74.0601 140.827 72.6557 141.41C70.9002 142.138 70.2671 138.722 70.4897 137.587C70.7123 136.451 71.6994 135.212 71.164 135.254C70.6287 135.295 67.4098 134.471 66.8725 134.205C66.3352 133.94 66.1708 132.089 67.9207 130.44C69.6705 128.791 72.6706 131.365 72.586 130.056Z" fill="#B23215"/>
</g>
<defs>
<filter id="filter0_d_21_691" x="0" y="0" width="290.932" height="283.072" filterUnits="userSpaceOnUse" color-interpolation-filters="sRGB">
<feFlood flood-opacity="0" result="BackgroundImageFix"/>
<feColorMatrix in="SourceAlpha" type="matrix" values="0 0 0 0 0 0 0 0 0 0 0 0 0 0 0 0 0 0 127 0" result="hardAlpha"/>
<feOffset dy="4"/>
<feGaussianBlur stdDeviation="2"/>
<feComposite in2="hardAlpha" operator="out"/>
<feColorMatrix type="matrix" values="0 0 0 0 0 0 0 0 0 0 0 0 0 0 0 0 0 0 0.25 0"/>
<feBlend mode="normal" in2="BackgroundImageFix" result="effect1_dropShadow_21_691"/>
<feBlend mode="normal" in="SourceGraphic" in2="effect1_dropShadow_21_691" result="shape"/>
</filter>
</defs>
</svg>
