<svg width="174" height="194" viewBox="0 0 174 194" fill="none" xmlns="http://www.w3.org/2000/svg">
<g filter="url(#filter0_d_21_665)">
<circle cx="122" cy="101" r="48" fill="#F99C1A"/>
<path d="M157 132.5C117.4 131.3 87.5 98.3333 77.5001 82L69.0001 113C64.6667 118 64.7001 131.1 99.5 143.5C134.3 155.9 152.333 141.333 157 132.5Z" fill="#FFBD2E"/>
<circle cx="52" cy="137" r="48" fill="#F99C1A"/>
<path d="M55 185.5C95.8 180.7 84.3333 122.5 73.5 94C94.7 98.4 100.333 129.5 100.5 144.5C93.3 176.1 67.1667 185 55 185.5Z" fill="#D9983D"/>
<path d="M49.5 185.5C8.7 180.7 20.1667 122.5 31 94C9.8 98.4 4.16667 129.5 4 144.5C11.2 176.1 37.3333 185 49.5 185.5Z" fill="#FFBD2E"/>
<circle cx="52.5" cy="136.5" r="42.5" fill="#FFDB7B"/>
<path d="M26.2692 162.947L45.3174 143.752C46.0998 143.226 47.7841 142.606 48.2613 144.33C48.8579 146.485 45.1262 170.719 44.7415 172.682C31.7189 172.575 27.0006 166.147 26.2692 162.947Z" fill="#EBA131"/>
<path d="M74.0214 166.289L57.0591 145.229C56.3352 144.625 54.7242 143.833 54.0713 145.498C53.2552 147.58 54.4621 172.071 54.6419 174.063C67.6059 175.302 72.9633 169.396 74.0214 166.289Z" fill="#EBA131"/>
<path d="M89.1972 147.328L63.4677 139.007C62.5311 138.899 60.7497 139.119 61.1162 140.87C61.5744 143.059 76.0047 162.883 77.2467 164.451C88.77 158.384 90.0151 150.508 89.1972 147.328Z" fill="#EBA131"/>
<path d="M88.8543 122.208L63.1792 130.696C62.3595 131.162 61.0525 132.392 62.3827 133.589C64.0454 135.084 87.4006 142.553 89.3288 143.084C95.0411 131.38 91.3926 124.29 88.8543 122.208Z" fill="#EBA131"/>
<path d="M70.8671 103.337L55.1398 125.335C54.7525 126.195 54.4228 127.959 56.2025 128.14C58.427 128.367 81.6926 120.623 83.5629 119.915C81.273 107.095 74.1449 103.521 70.8671 103.337Z" fill="#EBA131"/>
<path d="M41.7296 100.227L48.4488 126.421C48.8576 127.27 49.9963 128.658 51.2802 127.412C52.8851 125.855 61.9275 103.063 62.5886 101.176C51.3015 94.6794 43.9796 97.8366 41.7296 100.227Z" fill="#EBA131"/>
<path d="M94.7235 51.5668C91.353 44.0167 89.6225 30.1514 100.5 14L104.5 0C113.833 12.8333 129.7 42.6 118.5 59C110.822 70.2421 107.092 69.2824 105.505 65.3657L107.5 78C98.3333 76 79 70.3 75 63.5C71 56.7 67.6667 37 66.5 28C80.1679 33.0004 89.923 44.1362 94.7235 51.5668Z" fill="#21A04B"/>
<path d="M19.1364 119.312L43.0288 131.977C43.9322 132.247 45.7249 132.339 45.6682 130.551C45.5973 128.316 34.8309 106.286 33.8802 104.526C21.478 108.499 18.8834 116.039 19.1364 119.312Z" fill="#EBA131"/>
<path d="M20.5711 152.515L44.3352 139.61C45.0594 139.007 46.1275 137.564 44.6064 136.623C42.705 135.446 18.3958 132.235 16.404 132.054C12.8565 144.585 17.7039 150.916 20.5711 152.515Z" fill="#EBA131"/>
<circle cx="53.5" cy="135.5" r="3.5" fill="#FFEFE1"/>
<path d="M104.5 1C104.825 21.9651 105.752 63.6591 106.911 66.8333C107.127 67.1005 107.172 67.1723 107 67C106.97 66.9701 106.94 66.9142 106.911 66.8333C105.246 64.7733 93.4425 51.098 93 48C92.5 44.5 89.5 37.5 104.5 1Z" fill="#457B53"/>
<path d="M80 60.5C78 57.3 69.8333 37.5 66 28C68.6667 39.5 74.4 63.4 76 67C77.6 70.6 97.3333 75.1667 107 77C98.8333 72.8333 82 63.7 80 60.5Z" fill="#457B53"/>
</g>
<defs>
<filter id="filter0_d_21_665" x="0" y="0" width="174" height="193.5" filterUnits="userSpaceOnUse" color-interpolation-filters="sRGB">
<feFlood flood-opacity="0" result="BackgroundImageFix"/>
<feColorMatrix in="SourceAlpha" type="matrix" values="0 0 0 0 0 0 0 0 0 0 0 0 0 0 0 0 0 0 127 0" result="hardAlpha"/>
<feOffset dy="4"/>
<feGaussianBlur stdDeviation="2"/>
<feComposite in2="hardAlpha" operator="out"/>
<feColorMatrix type="matrix" values="0 0 0 0 0 0 0 0 0 0 0 0 0 0 0 0 0 0 0.25 0"/>
<feBlend mode="normal" in2="BackgroundImageFix" result="effect1_dropShadow_21_665"/>
<feBlend mode="normal" in="SourceGraphic" in2="effect1_dropShadow_21_665" result="shape"/>
</filter>
</defs>
</svg>
