<svg width="161" height="151" viewBox="0 0 161 151" fill="none" xmlns="http://www.w3.org/2000/svg">
<ellipse cx="79.1977" cy="73.814" rx="79.1977" ry="73.814" transform="matrix(0.999854 0.017111 -0.0178007 0.999842 2.62793 0)" fill="#D9D9D9"/>
<ellipse cx="70.5909" cy="66.8441" rx="70.5909" ry="66.8441" transform="matrix(0.999844 0.017637 -0.0172697 0.999851 10.8799 7.15771)" fill="#EEEEF0"/>
<path fill-rule="evenodd" clip-rule="evenodd" d="M22.7703 52.6756C22.439 54.7194 17.6212 68.3053 28.8496 87.7076C27.5097 89.6982 25.1995 94.0237 26.6778 95.4009C28.5257 97.1224 28.886 100.198 32.3456 100.126C35.8052 100.054 39.1723 99.0045 40.5353 99.3977C41.8983 99.7908 57.3644 109.838 66.6785 112.524C75.9925 115.21 95.6244 115.286 103.121 117.449C110.618 119.611 107.54 120.506 110.947 121.489C114.355 122.472 116.627 121.82 116.61 113.614C121.165 112.273 131.454 107.674 136.175 100.003C142.075 90.4135 146.603 78.2891 141.837 66.4554C137.07 54.6217 120.922 46.9928 117.7 46.6578C114.478 46.3228 89.4858 46.9589 88.0603 48.0928C85.2769 44.3186 78.6528 36.2515 74.4236 34.1761C69.1371 31.5817 39.902 28.9735 38.0625 32.0085C36.2231 35.0435 25.7292 39.1479 22.7703 52.6756ZM37.3696 60.5708C37.0561 59.2444 38.1076 56.9408 38.6726 55.9549C39.3085 56.1383 42.126 54.0192 43.4552 52.9368C46.613 50.1631 54.9793 44.9221 63.1827 46.1471C73.437 47.6784 77.1728 54.4608 77.441 55.2512C77.7091 56.0417 71.9527 66.8608 70.7543 68.0603C69.5558 69.2598 64.4026 69.6751 61.81 70.5913C59.7358 71.3242 48.613 76.2932 43.3109 78.686C43.0462 77.7381 42.1948 75.4166 40.9066 73.7139C39.2964 71.5856 37.7613 62.2289 37.3696 60.5708ZM91.3348 71.738C90.716 69.7529 92.7943 63.0866 93.9109 60.0015C100.572 59.0307 115.382 58.6113 121.328 64.7C128.76 72.3109 126.476 78.6643 126.587 82.6186C126.699 86.5729 117.371 93.5097 115.75 94.4682C114.128 95.4267 110.534 96.4105 109.914 95.9941C109.295 95.5777 98.8074 82.6883 97.6105 79.966C96.4136 77.2438 92.1084 74.2193 91.3348 71.738ZM64.0971 84.6812C59.8503 85.453 58.3539 88.0561 58.1365 89.2612C59.4987 91.7459 82.6125 96.3998 93.9991 98.4162L78.2263 80.3178C75.2861 81.4507 68.3439 83.9093 64.0971 84.6812Z" fill="#E6B070"/>
<path d="M56.6848 89.4256C54.228 86.8154 50.661 81.4366 56.0479 80.8034C61.4348 80.1702 73.5299 76.4563 78.9041 74.6784C80.7006 75.7116 85.105 78.8202 88.3502 82.9889C91.5954 87.1577 96.4037 96.0876 98.4022 100.032L93.2908 98.5573L78.4683 80.1388L60.6932 85.2334C59.8528 86.6153 57.8746 89.3884 56.6848 89.4256Z" fill="#D06504"/>
<path fill-rule="evenodd" clip-rule="evenodd" d="M23.2687 56.3739C24.5872 64.7569 27.6557 82.4317 29.381 86.067C31.5376 90.6112 24.2671 91.1289 26.806 95.1891C29.3449 99.2492 37.6176 97.3566 39.5591 97.4411C41.5006 97.5257 60.3953 107.611 65.899 109.436C71.4026 111.261 103.56 113.523 105.491 114.08C107.422 114.637 109.269 118.973 111.768 119.694C114.267 120.415 114.424 114.636 115.86 113.03C117.296 111.424 127.759 108.736 133.091 100.291C138.423 91.8449 142.844 88.366 141.733 77.9431C140.622 67.5202 136.784 58.9254 129.979 55.1802C123.175 51.435 110.897 49.6765 107.376 48.6609C104.559 47.8484 95.6612 49.4024 91.5644 50.2809L86.1003 53.1024C83.6961 48.1303 77.4937 37.6415 71.9178 35.4628C66.3419 33.2841 52.0181 33.2889 45.5532 33.5636C39.4281 36.5511 26.3959 45.2955 23.2687 56.3739ZM33.117 65.8701C32.1683 62.2687 41.5821 47.6314 41.9544 46.3125C50.7661 39.4647 59.6473 39.768 69.5289 43.9254C77.4342 47.2513 82.1547 54.8961 83.5268 58.3028L90.0132 55.7761C102.923 52.2498 120.724 60.1175 125.774 61.8115C130.823 63.5055 133.935 81.6365 133.634 83.5704C133.334 85.5043 123.618 107.304 93.9382 106.707C64.2582 106.11 42.9408 85.4616 41.0098 84.9046C39.0789 84.3477 34.0657 69.4716 33.117 65.8701Z" fill="#E18C18"/>
<path d="M28.6508 87.7718C27.4152 90.4815 25.7663 95.3954 27.2354 97.5722C28.829 99.9335 30.8315 100.353 31.6335 100.267C30.1119 97.2823 27.5586 90.9075 28.6508 87.7718Z" fill="#D06504"/>
<path d="M116.176 114.073C114.706 116.382 111.489 121.017 110.391 121.08C109.292 121.144 111.826 121.653 113.23 121.899C113.798 122.063 115.139 121.927 115.957 120.071C116.776 118.216 116.444 115.299 116.176 114.073Z" fill="#D06504"/>
<path d="M110.875 96.7367C115.871 94.8497 126.096 89.5505 127.032 83.45C127.968 77.3494 125.822 69.75 124.632 66.7128C122.251 64.5602 116.747 60.1836 113.781 59.8987C110.815 59.6138 99.3817 59.7074 94.0357 59.7898C96.0639 58.1165 101.236 54.7353 105.697 54.5958C111.274 54.4214 129.303 59.7403 130.913 61.8686C132.523 63.9969 134.47 77.9885 134.386 81.7676C134.301 85.5466 127.686 100.278 123.452 101.79C120.064 103 114.142 104.454 111.605 105.029L110.875 96.7367Z" fill="#D06504"/>
<path d="M36.4113 83.3417C34.3486 76.2892 30.7525 61.0057 32.8694 56.2916C35.5154 50.399 47.8821 37.9208 53.107 39.4278C58.332 40.9347 72.6243 42.0856 76.7328 46.2419C80.0197 49.567 82.8225 54.6937 83.8131 56.8414C78.9126 53.1698 68.1636 45.7909 64.3715 45.648C59.6314 45.4694 42.4654 51.4526 39.428 54.3799C36.9982 56.7218 40.2131 71.3249 42.1243 78.3338L36.4113 83.3417Z" fill="#D06504"/>
<ellipse cx="1.18216" cy="1.48459" rx="1.18216" ry="1.48459" transform="matrix(0.960834 0.277124 -0.271671 0.96239 44.3979 82.9109)" fill="#FAFDF9"/>
<ellipse cx="1.1733" cy="1.49641" rx="1.1733" ry="1.49641" transform="matrix(0.728175 0.688762 -0.703885 0.706918 49.3362 77.3014)" fill="#FAFDF9"/>
<ellipse cx="1.1733" cy="1.49641" rx="1.1733" ry="1.49641" transform="matrix(0.728175 0.688762 -0.703885 0.706918 27.6704 55.2675)" fill="#FAFDF9"/>
<ellipse cx="1.1733" cy="1.49641" rx="1.1733" ry="1.49641" transform="matrix(0.728175 0.688762 -0.703885 0.706918 37.5024 47.4069)" fill="#FAFDF9"/>
<ellipse cx="1.1733" cy="1.49641" rx="1.1733" ry="1.49641" transform="matrix(0.728175 0.688762 -0.703885 0.706918 63.5923 38.5294)" fill="#FAFDF9"/>
<ellipse cx="1.1733" cy="1.49641" rx="1.1733" ry="1.49641" transform="matrix(0.728175 0.688762 -0.703885 0.706918 56.4631 96.8503)" fill="#FAFDF9"/>
<ellipse cx="1.1733" cy="1.49641" rx="1.1733" ry="1.49641" transform="matrix(0.728175 0.688762 -0.703885 0.706918 67.3716 97.3813)" fill="#FAFDF9"/>
<ellipse cx="1.1733" cy="1.49641" rx="1.1733" ry="1.49641" transform="matrix(0.728175 0.688762 -0.703885 0.706918 61.3267 78.7611)" fill="#FAFDF9"/>
<ellipse cx="1.1733" cy="1.49641" rx="1.1733" ry="1.49641" transform="matrix(0.728175 0.688762 -0.703885 0.706918 55.1487 78.8806)" fill="#FAFDF9"/>
<ellipse cx="1.1733" cy="1.49641" rx="1.1733" ry="1.49641" transform="matrix(0.728175 0.688762 -0.703885 0.706918 79.9602 71.0619)" fill="#FAFDF9"/>
<ellipse cx="1.1733" cy="1.49641" rx="1.1733" ry="1.49641" transform="matrix(0.728175 0.688762 -0.703885 0.706918 87.77 64.2815)" fill="#FAFDF9"/>
<ellipse cx="1.1733" cy="1.49641" rx="1.1733" ry="1.49641" transform="matrix(0.728175 0.688762 -0.703885 0.706918 79.637 100.92)" fill="#FAFDF9"/>
<ellipse cx="1.1733" cy="1.49641" rx="1.1733" ry="1.49641" transform="matrix(-0.978112 0.196635 0.228837 0.975934 118.663 98.1503)" fill="#FAFDF9"/>
<ellipse cx="1.1733" cy="1.49641" rx="1.1733" ry="1.49641" transform="matrix(-0.978112 0.196635 0.228837 0.975934 123.183 100.405)" fill="#FAFDF9"/>
<ellipse cx="1.1733" cy="1.49641" rx="1.1733" ry="1.49641" transform="matrix(-0.978112 0.196635 0.228837 0.975934 124.468 94.1195)" fill="#FAFDF9"/>
<ellipse cx="1.1733" cy="1.49641" rx="1.1733" ry="1.49641" transform="matrix(-0.978112 0.196635 0.228837 0.975934 132.213 90.1733)" fill="#FAFDF9"/>
<ellipse cx="1.1733" cy="1.49641" rx="1.1733" ry="1.49641" transform="matrix(-0.978112 0.196635 0.228837 0.975934 128.698 99.1437)" fill="#FAFDF9"/>
<ellipse cx="1.1733" cy="1.49641" rx="1.1733" ry="1.49641" transform="matrix(-0.978112 0.196635 0.228837 0.975934 137.343 75.4895)" fill="#FAFDF9"/>
<ellipse cx="1.1733" cy="1.49641" rx="1.1733" ry="1.49641" transform="matrix(-0.978112 0.196635 0.228837 0.975934 137.711 84.6276)" fill="#FAFDF9"/>
<ellipse cx="1.1733" cy="1.49641" rx="1.1733" ry="1.49641" transform="matrix(-0.978112 0.196635 0.228837 0.975934 134.305 81.0311)" fill="#FAFDF9"/>
<ellipse cx="1.1733" cy="1.49641" rx="1.1733" ry="1.49641" transform="matrix(-0.978112 0.196635 0.228837 0.975934 131.745 70.0717)" fill="#FAFDF9"/>
<ellipse cx="1.67979" cy="1.31144" rx="1.67979" ry="1.31144" transform="matrix(-0.978112 0.196635 0.228837 0.975934 130.204 57.9694)" fill="#FAFDF9"/>
<ellipse cx="1.67979" cy="1.31144" rx="1.67979" ry="1.31144" transform="matrix(-0.978112 0.196635 0.228837 0.975934 92.8789 52.6814)" fill="#FAFDF9"/>
<ellipse cx="1.67979" cy="1.31144" rx="1.67979" ry="1.31144" transform="matrix(-0.978112 0.196635 0.228837 0.975934 105.994 51.4724)" fill="#FAFDF9"/>
<ellipse cx="1.67979" cy="1.31144" rx="1.67979" ry="1.31144" transform="matrix(0.728175 0.688762 -0.703885 0.706918 112.074 50.6115)" fill="#FAFDF9"/>
<ellipse cx="1.67979" cy="1.31144" rx="1.67979" ry="1.31144" transform="matrix(0.728175 0.688762 -0.703885 0.706918 80.7646 47.5239)" fill="#FAFDF9"/>
<ellipse cx="1.67979" cy="1.31144" rx="1.67979" ry="1.31144" transform="matrix(0.728175 0.688762 -0.703885 0.706918 73.9109 42.2188)" fill="#FAFDF9"/>
<ellipse cx="1.67979" cy="1.31144" rx="1.67979" ry="1.31144" transform="matrix(0.728175 0.688762 -0.703885 0.706918 53.3013 36.0369)" fill="#FAFDF9"/>
<ellipse cx="1.67979" cy="1.31144" rx="1.67979" ry="1.31144" transform="matrix(0.728175 0.688762 -0.703885 0.706918 95.8707 85.3965)" fill="#FAFDF9"/>
<ellipse cx="1.67979" cy="1.31144" rx="1.67979" ry="1.31144" transform="matrix(0.728175 0.688762 -0.703885 0.706918 97.6025 94.9283)" fill="#FAFDF9"/>
<ellipse cx="1.67979" cy="1.31144" rx="1.67979" ry="1.31144" transform="matrix(0.728175 0.688762 -0.703885 0.706918 81.8584 103.699)" fill="#FAFDF9"/>
<ellipse cx="1.67979" cy="1.31144" rx="1.67979" ry="1.31144" transform="matrix(0.728175 0.688762 -0.703885 0.706918 99.5393 105.471)" fill="#FAFDF9"/>
<ellipse cx="1.67979" cy="1.31144" rx="1.67979" ry="1.31144" transform="matrix(0.728175 0.688762 -0.703885 0.706918 110.506 108.396)" fill="#FAFDF9"/>
<ellipse cx="1.65385" cy="1.60245" rx="1.65385" ry="1.60245" transform="matrix(-0.978112 0.196635 0.228837 0.975934 120.071 54.5183)" fill="#FAFDF9"/>
<ellipse cx="1.44705" cy="1.49365" rx="1.44705" ry="1.49365" transform="matrix(-0.978112 0.196635 0.228837 0.975934 36.1729 84.952)" fill="#FAFDF9"/>
<ellipse cx="1.44705" cy="1.49365" rx="1.44705" ry="1.49365" transform="matrix(-0.978112 0.196635 0.228837 0.975934 31.8752 68.8405)" fill="#FAFDF9"/>
<ellipse cx="1.44705" cy="1.49365" rx="1.44705" ry="1.49365" transform="matrix(-0.978112 0.196635 0.228837 0.975934 44.2393 39.8409)" fill="#FAFDF9"/>
<ellipse cx="1.1733" cy="1.49641" rx="1.1733" ry="1.49641" transform="matrix(0.728175 0.688762 -0.703885 0.706918 54.5928 75.6307)" fill="#FAFDF9"/>
<ellipse cx="1.1733" cy="1.49641" rx="1.1733" ry="1.49641" transform="matrix(0.728175 0.688762 -0.703885 0.706918 79.4045 67.8109)" fill="#FAFDF9"/>
<ellipse cx="1.1733" cy="1.49641" rx="1.1733" ry="1.49641" transform="matrix(0.728175 0.688762 -0.703885 0.706918 87.2107 61.0302)" fill="#FAFDF9"/>
<ellipse cx="1.1733" cy="1.49641" rx="1.1733" ry="1.49641" transform="matrix(0.728175 0.688762 -0.703885 0.706918 114.338 98.0914)" fill="#FAFDF9"/>
<ellipse cx="1.1733" cy="1.49641" rx="1.1733" ry="1.49641" transform="matrix(-0.978112 0.196635 0.228837 0.975934 120.832 95.6862)" fill="#FAFDF9"/>
<ellipse cx="1.1733" cy="1.49641" rx="1.1733" ry="1.49641" transform="matrix(0.728175 0.688762 -0.703885 0.706918 51.9683 83.1931)" fill="#FAFDF9"/>
<ellipse cx="1.1733" cy="1.49641" rx="1.1733" ry="1.49641" transform="matrix(0.728175 0.688762 -0.703885 0.706918 71.7256 101.965)" fill="#FAFDF9"/>
<ellipse cx="1.1733" cy="1.49641" rx="1.1733" ry="1.49641" transform="matrix(0.728175 0.688762 -0.703885 0.706918 84.5894 68.5935)" fill="#FAFDF9"/>
<ellipse cx="1.1733" cy="1.49641" rx="1.1733" ry="1.49641" transform="matrix(0.728175 0.688762 -0.703885 0.706918 84.645 73.6019)" fill="#FAFDF9"/>
<ellipse cx="1.1733" cy="1.49641" rx="1.1733" ry="1.49641" transform="matrix(0.728175 0.688762 -0.703885 0.706918 90.246 76.4047)" fill="#FAFDF9"/>
<ellipse cx="1.1733" cy="1.49641" rx="1.1733" ry="1.49641" transform="matrix(0.728175 0.688762 -0.703885 0.706918 111.713 105.654)" fill="#FAFDF9"/>
<ellipse cx="1.1733" cy="1.49641" rx="1.1733" ry="1.49641" transform="matrix(-0.978112 0.196635 0.228837 0.975934 119.112 103.509)" fill="#FAFDF9"/>
</svg>
