<svg width="177" height="176" viewBox="0 0 177 176" fill="none" xmlns="http://www.w3.org/2000/svg">
<g filter="url(#filter0_d_26_701)">
<path d="M5 109.5C14.2 103.9 39.1667 36.5 50.5 3.5C51.3281 1.1 53.845 0.166667 55 0L171.5 51.5L120.5 167C117.3 162.6 42.1667 126.833 5 109.5Z" fill="#F2F2F2"/>
<path d="M120.5 168L169 53C133 117 69 128.333 41.5 126L120.5 168Z" fill="#D9D9D9"/>
<path d="M36.9461 125.444C6.14614 124.644 2.44614 110.444 4.44614 103.444C6.94615 98.1111 12.6462 86.0444 15.4462 80.4445C18.2462 74.8445 32.9462 68.7778 39.9462 66.4445C46.6128 63.6111 60.8462 57.8445 64.4462 57.4445C68.9462 56.9445 77.9462 49.4444 80.9462 49.4444C83.9462 49.4444 139.446 34.9444 162.946 49.4444C181.746 61.0444 167.779 79.6111 158.446 87.4444C130.779 100.444 67.7461 126.244 36.9461 125.444Z" fill="#C2802D"/>
<path d="M11.5338 117.413C5.13377 111.413 8.8671 95.246 11.5338 87.9127C13.5338 85.5127 23.7004 77.9127 28.5338 74.4127C26.7004 76.746 22.1338 83.3127 18.5338 90.9127C14.9338 98.5127 12.3671 111.746 11.5338 117.413Z" fill="#DBAD40"/>
<path d="M28.5338 86.9127C28.5338 83.7127 36.8671 71.9127 41.0338 66.4127C43.0338 64.9127 65.0338 56.4127 64.0338 57.4127C63.0338 58.4127 51.0338 77.9127 50.0338 80.4127C49.2338 82.4127 46.0338 101.913 44.5338 111.413C42.3671 114.246 37.1338 119.813 33.5338 119.413C29.0338 118.913 28.5338 112.913 28.5338 105.413V86.9127Z" fill="#DBAD40"/>
<path d="M64.0338 80.4127C64.0338 78.8127 74.0338 60.0794 79.0338 50.9127C85.4338 48.9127 93.3671 48.4127 96.5338 48.4127C92.3671 56.5794 83.7337 74.0127 82.5338 78.4127C81.0338 83.9127 76.0338 111.413 71.0338 115.413C66.0338 119.413 62.5338 116.413 61.0338 113.913C59.5338 111.413 61.0338 102.913 62.0338 97.9127C63.0338 92.9127 64.0338 82.4127 64.0338 80.4127Z" fill="#DBAD40"/>
<path d="M92.0338 108.913C91.2337 102.113 107.7 63.0794 116.034 44.4127C118.834 43.2127 125.2 43.9127 128.034 44.4127C133.534 62.9127 121.534 91.9127 121.034 92.9127C120.534 93.9127 93.0338 117.413 92.0338 108.913Z" fill="#DBAD40"/>
<path d="M143.534 76.9127C146.734 72.5127 146.534 52.7461 146.034 43.4127C149.634 42.2127 153.534 43.9127 155.034 44.9127C171.534 65.4127 154.034 85.9127 151.534 89.9127C149.034 93.9127 129.034 98.4127 129.034 97.4127C129.034 96.4127 139.534 82.4127 143.534 76.9127Z" fill="#DBAD40"/>
<path d="M51.9792 62.4999C51.0839 63.151 49.9237 63.8684 48.63 64.7641C40.2572 72.8614 36.7205 96.1402 35.9792 108C31.7931 78.6971 41.9763 69.3712 48.63 64.7641C49.6704 63.7579 50.7855 62.9862 51.9792 62.4999Z" fill="#EFC753"/>
<path d="M89.4792 50.5C80.8125 52.8333 65.1792 66.7 71.9792 103.5C73.3125 90.3333 78.6792 61.3 89.4792 50.5Z" fill="#EFC753"/>
<path d="M102.979 106C106.579 101.2 117.813 62 122.979 43C126.979 44 122.979 57 118.979 77C114.979 97 98.4792 112 102.979 106Z" fill="#EFC753"/>
<path d="M147.479 80C151.879 70.8 152.979 53.5 152.979 46C155.479 49 160.979 47 152.979 71.5C146.579 91.1 140.646 95 138.479 94.5C139.646 93.5 143.079 89.2 147.479 80Z" fill="#EFC753"/>
</g>
<defs>
<filter id="filter0_d_26_701" x="0" y="0" width="176.255" height="176" filterUnits="userSpaceOnUse" color-interpolation-filters="sRGB">
<feFlood flood-opacity="0" result="BackgroundImageFix"/>
<feColorMatrix in="SourceAlpha" type="matrix" values="0 0 0 0 0 0 0 0 0 0 0 0 0 0 0 0 0 0 127 0" result="hardAlpha"/>
<feOffset dy="4"/>
<feGaussianBlur stdDeviation="2"/>
<feComposite in2="hardAlpha" operator="out"/>
<feColorMatrix type="matrix" values="0 0 0 0 0 0 0 0 0 0 0 0 0 0 0 0 0 0 0.25 0"/>
<feBlend mode="normal" in2="BackgroundImageFix" result="effect1_dropShadow_26_701"/>
<feBlend mode="normal" in="SourceGraphic" in2="effect1_dropShadow_26_701" result="shape"/>
</filter>
</defs>
</svg>
