<svg width="402" height="874" viewBox="0 0 402 874" fill="none" xmlns="http://www.w3.org/2000/svg">
<g clip-path="url(#clip0_134_464)">
<rect width="402" height="874" fill="#E3F4FF"/>
<g opacity="0.29">
<rect x="-5" y="674" width="435" height="169" fill="#DAEE6F"/>
<path d="M1.5 830H27.5H41.5C49 830 44.5 837.5 58 830C71.5 822.5 75 820 77.5 821.5C85 821.5 82 817.5 90.5 821.5C97.3 824.7 105.333 824.833 108.5 824.5C119.667 819.167 143.2 809 148 811C154 813.5 171.5 811 178 811C184.5 811 192.5 804.5 198 804.5C203.5 804.5 225 809.5 228 804.5C231 799.5 241 792 234.5 792C228 792 197 800 189 800C181 800 168 792 173 792C178 792 219 792 208.5 787C200.1 783 184.667 781 178 780.5C182.5 779.667 192.8 778 198 778C204.5 778 224.5 785.5 232 783C239.5 780.5 246 780.5 255 780.5C262.2 780.5 280.667 776.833 289 775C291.5 776 297.8 778.5 303 780.5C309.5 783 323 785.5 331 783C339 780.5 355.5 775 359.5 775C363.5 775 388 778 391.5 778C394.3 778 406.667 784 412.5 787C411.667 796.333 409.2 815 406 815C402 815 368.5 803 354 807C339.5 811 345.5 818 326.5 818.5C307.5 819 294.5 811 289 811C283.613 811 282.063 811.959 272.134 818.107L271.5 818.5C270.481 819.131 269.646 819.743 268.957 820.33C276.865 819.226 286.248 818.5 292 818.5C305.5 818.5 294.5 814.5 310.5 818.5C326.5 822.5 338 819 343.5 815C349 811 378.5 820.5 381 821C383.5 821.5 382.5 813.5 403.5 821C420.3 827 428.167 910.5 430 951.5L-100 1011L1.5 830Z" fill="#25944D"/>
<path d="M84.7611 884.425C56.0503 891.592 -15.7092 925.968 -48 942.261C-28.5192 940.758 259.018 929.147 400.352 923.529L381.775 887.541C377.509 880.365 365.401 866.283 351.103 867.361C333.23 868.709 162.572 866.206 143.023 876.297C123.473 886.387 120.65 875.466 84.7611 884.425Z" fill="#165216"/>
<path d="M150.167 596.896C134.734 607.113 115.548 588.694 107.885 578.208C140.78 534.67 210.546 475.139 241.318 450.816L265.096 473.991C233.217 510.702 165.6 586.679 150.167 596.896Z" fill="#C3DB88"/>
<path d="M74.3504 700.738C45.674 710.589 26.18 751.673 20.0176 770.984C40.0112 760.664 59.4457 741.63 61.7672 730.866C63.6245 722.255 92.9446 703.332 107.372 694.947C118.58 685.411 143.217 665.192 152.103 660.605C160.99 656.018 205.749 612.283 227.018 590.989L177.7 616.445L139.49 636.168C129.725 653.587 103.027 690.888 74.3504 700.738Z" fill="#7D985E"/>
<path d="M188.996 677.574C193.821 681.835 204.894 693.113 210.582 704.131C211.805 706.501 217.49 712.719 230.447 718.635C243.404 724.552 239.877 686.76 236.494 667.124C233.929 676.326 227.881 692.952 224.211 685.843L203.801 646.3L210.724 680.425L188.996 677.574Z" fill="#7D985E"/>
<path d="M203.244 707.356L220.214 740.234C365.866 686.661 301.283 679.634 250.784 682.817L243.862 701.02C231.163 704.761 205.262 711.266 203.244 707.356Z" fill="#C3DB88"/>
<path d="M-27 285H430V655.5C430 655.5 327.136 680.436 260.5 677C197.152 673.734 163.858 652.443 100.5 655.5C48.3103 658.018 -27 677 -27 677V285Z" fill="#E3F4FF"/>
<path d="M124 634.5C100.8 633.3 26.6667 655 -7.5 666L-31.5 685.5L396.5 676.5L414.5 613C385.333 620.167 316.1 634.5 272.5 634.5H177C169 635 147.2 635.7 124 634.5Z" fill="#A9E4F6"/>
<path d="M203.5 617.5C226.7 616.3 300.833 638 335 649L359 668.5L-69 659.5L-87 596C-57.8333 603.167 11.4 617.5 55 617.5H150.5C158.5 618 180.3 618.7 203.5 617.5Z" fill="#9DD3E7"/>
<path d="M391.5 708.53C347.5 696.03 -10 687.03 -22 685.53C-22 672.53 -21.5 646.63 -19.5 647.03C-17 647.53 -14.5 648.53 -11.5 649.53C-8.5 650.53 -4.5 655.03 -3 659.03C-1.5 663.03 -2 661.53 -0.5 663.53C0.700001 665.13 7.33333 665.53 10.5 665.53C14.3333 661.197 22.1 652.33 22.5 651.53C23 650.53 27.5 645.53 30.5 644.03C33.5 642.53 33 644.53 35.5 645.53C38 646.53 37 653.03 47 657.53C57 662.03 59.5 671.03 60.5 671.03C61.5 671.03 68 674.03 68.5 673.53C69 673.03 69.5 667.03 73 667.03C76.5 667.03 75.5 675.03 76.5 675.53C77.5 676.03 79 675.53 81.5 675.03C84 674.53 84 671.03 88 669.03C92 667.03 98 675.53 99 675.53C100 675.53 99.5 675.03 104.5 675.03C108.5 675.03 111.833 678.03 113 679.53C114 679.197 116 678.33 116 677.53C116 676.53 119.5 673.53 123 669.03C126.5 664.53 123.5 667.53 132.5 666.03C141.5 664.53 135 665.03 138.5 666.03C142 667.03 142.5 670.03 145 671.03C147.5 672.03 148 676.03 150.5 673.53C153 671.03 166.5 663.03 168.5 663.03C170.5 663.03 174 668.03 175 670.03C176 672.03 176 675.03 185 677.53C191 679.53 191.5 676.53 191 673.53C190.5 670.53 196.5 672.53 199.5 671.03C202.5 669.53 201 668.03 201.5 667.53C202 667.03 205 661.03 206 660.53C207 660.03 212.5 660.03 217 660.53C221.5 661.03 223.5 663.03 224 664.03C224.5 665.03 222.5 668.53 226 671.03C229 671.03 230.5 674.03 231 674.53C231.5 675.03 229.5 679.53 230.5 681.03C231.3 682.23 236.5 680.53 239 679.53C239.833 679.53 242.2 679.83 245 681.03C248.5 682.53 254.5 694.03 254.5 692.53C254.5 691.03 258.5 686.53 259.5 686.53C260.3 686.53 262.833 681.53 264 679.03C264.167 677.697 264.7 674.53 265.5 672.53L265.564 672.371C266.524 669.966 267.118 668.477 272.5 666.03C278 663.53 275 666.03 275.5 666.03C276 666.03 283 664.03 285 664.03C287 664.03 291.5 670.53 293.5 672.53C295.5 674.53 297.5 673.53 299.5 674.03C301.5 674.53 301.5 668.53 303 667.03C304.5 665.53 311.5 668.53 312.5 668.53H320C321.5 668.53 324 673.53 325 675.03C326 676.53 328.5 678.53 331 679.53C333.5 680.53 332 680.53 334 679.53C336 678.53 334.5 677.53 334 675.03C333.5 672.53 330.5 671.03 330.5 668.53C330.5 666.03 334 669.53 336 670.03C338 670.53 336.5 667.53 337 666.03C337.5 664.53 338 664.03 339 663.03C340 662.03 344.5 664.53 346 664.03C347.2 663.63 348.5 660.864 349 659.53C349.667 658.53 350.7 655.93 349.5 653.53C348 650.53 348.5 649.53 349 647.03C349.5 644.53 350 646.03 354.5 641.03C359 636.03 356.5 641.53 358 644.03C359.5 646.53 359.5 647.03 361 647.03C362.5 647.03 363 646.03 365 646.03C367 646.03 368 641.53 370.5 641.53H375.5C377.5 641.53 376.5 647.03 376.5 649.53C376.5 651.53 377.833 650.364 378.5 649.53C380 649.864 383 651.03 383 653.03C383 655.03 384.333 656.864 385 657.53L401.5 664.53C412.833 683.364 426.7 718.53 391.5 708.53Z" fill="#5F9B34"/>
<path d="M147.5 847.5C147.9 844.7 143 844 140.5 844C137 842.667 128.9 840 124.5 840C120.1 840 107.667 866.333 102 879.5L168.5 888C167 882.667 163.4 871.7 161 870.5C158 869 160 862 158 858C156 854 155.5 856 155 849.5C154.5 843 147 851 147.5 847.5Z" fill="#30254F"/>
<path d="M148 853C144.4 852.6 146.5 849.833 148 848.5C150.333 848.333 155.1 848.1 155.5 848.5C156 849 152.5 853.5 148 853Z" fill="#5E51C1"/>
<path d="M148.5 858.5C145.3 858.9 145.5 857 146 856C145.167 856 143.3 855.9 142.5 855.5C141.5 855 145 858.5 145.5 859.5C145.9 860.3 143.333 862.833 142 864L146 860.5L148 864C148 863 147.9 860.8 147.5 860C147.1 859.2 152 858.667 154.5 858.5C153.833 858.333 151.7 858.1 148.5 858.5Z" fill="#5E51C1"/>
<path d="M130 851.5C134.4 850.3 134.833 845.333 134.5 843C136 844 135 851 135 851.5C135 851.9 136.333 854.333 137 855.5L134.5 853L124.5 855C124.5 854.333 125.6 852.7 130 851.5Z" fill="#5E51C1"/>
<path d="M132.5 860L124.5 869.5C125.333 870.167 127 871.3 127 870.5C127 869.7 130.667 863.167 132.5 860Z" fill="#5E51C1"/>
<path d="M15 678.511C13.5 677.511 -0.5 672.011 -2 671.511V683.511C25.5 684.677 79.6 686.611 76 685.011C71.5 683.011 72 683.011 68 680.511C64 678.011 67.5 675.011 64.5 670.511C61.5 666.011 56 666.511 52.5 665.011C49 663.511 44.5 657.511 41 657.011C37.5 656.511 35 673.511 35.5 675.011C36 676.511 29.5 677.511 27 678.511C24.5 679.511 16.5 679.511 15 678.511Z" fill="#257348"/>
<path d="M89.5 677.011C85.5 675.511 91 683.011 91 685.011C95 685.011 107.5 687.511 107.5 685.011C107.5 682.511 108.5 683.511 107.5 682.511C106.5 681.511 100 677.011 98 677.011C96 677.011 93.5 678.511 89.5 677.011Z" fill="#257348"/>
<path d="M131 680.511C127 673.511 141 668.511 144 668.011L140.5 675.011C140.667 675.677 142.5 677.711 148.5 680.511C150.5 680.511 151.667 683.511 152 685.011C152.833 685.511 155.1 687.111 157.5 689.511C158.433 690.444 159.548 691.055 160.65 691.443C162.239 691.652 163.714 691.844 165 692.011C164.083 692.113 162.382 692.053 160.65 691.443C151.12 690.19 137.529 688.354 136.5 688.011C135 687.511 135 687.511 131 680.511Z" fill="#257348"/>
<path d="M173 677.511C173.8 677.511 174 675.177 174 674.011C175.5 675.177 178.7 678.111 179.5 680.511C180.5 683.511 181.5 682.511 181.5 683.511C181.5 684.511 183.5 686.011 186.5 688.011C189.5 690.011 190 688.011 192.5 688.011C194.5 688.011 198 690.677 199.5 692.011L165 690.511C165.833 689.677 167.5 687.811 167.5 687.011V680.511C167.5 679.511 172 677.511 173 677.511Z" fill="#257348"/>
<path d="M219.5 668.011C220.7 667.611 222 667.844 222.5 668.011L221 670.511H227C229 670.511 226.5 678.511 226 679.011C225.5 679.511 222.5 683.511 223 684.011C223.5 684.511 225 685.011 229.5 688.011C234 691.011 232 688.511 236.5 688.011C241 687.511 244.5 688.011 247.5 688.511C249.9 688.911 252.833 694.677 254 697.511C242.5 696.511 218.4 694.311 214 693.511C208.5 692.511 209 688.511 209.5 688.011C210 687.511 210.5 680.511 209.5 677.511C208.5 674.511 209.5 675.511 210.5 675.511C211.5 675.511 212 672.011 212.5 671.011C213 670.011 214 670.511 216 670.511C218 670.511 218 668.511 219.5 668.011Z" fill="#257348"/>
<path d="M281 679.011C280.6 679.011 282.167 676.344 283 675.011L285.5 677.511C286.667 678.511 289 681.111 289 683.511C289 686.511 291 685.511 292.5 685.511C294 685.511 300.5 688.011 303.5 688.011C306.5 688.011 308 688.511 308 690.511C308 692.511 311.5 692.011 314.5 693.511C317.5 695.011 316.5 695.011 320 696.011C322.8 696.811 320.5 698.344 319 699.011C319.5 699.511 320.7 700.811 321.5 702.011C322.3 703.211 288.833 700.511 272 699.011V693.511C272 691.511 273.5 690.511 276.5 688.511C279.5 686.511 278.5 688.511 279.5 688.011C280.5 687.511 282 685.511 283 684.011C284 682.511 281.5 679.011 281 679.011Z" fill="#257348"/>
<path d="M354 664.511C357.5 665.011 365 660.011 366 658.511L369.5 666.011L372.5 668.011C372 668.844 370.9 671.011 370.5 673.011C370 675.511 375.5 677.511 377 680.511C378.5 683.511 385 685.511 391.5 692.011C398 698.511 385.5 696.011 383 696.011C380.5 696.011 376.5 693.511 358.5 685.511C340.5 677.511 354 681.511 352.5 679.011C351 676.511 346.5 671.511 346 666.011C345.5 660.511 348 664.511 348.5 664.511C349 664.511 350.5 664.011 354 664.511Z" fill="#257348"/>
<path d="M330 703.511C327.2 702.311 336.833 694.344 342 690.511C344.167 689.677 348.8 688.111 350 688.511C351.5 689.011 352.5 690.511 352.5 693.511C352.5 696.511 356 693.511 361.5 695.011C365.9 696.211 369.333 701.177 370.5 703.511C358.167 704.011 332.8 704.711 330 703.511Z" fill="#257348"/>
<path d="M117 744C102.6 754 22.6667 739.833 -15.5 731.5L-71.5 794.5H45.5C106.5 785.5 117 782 135 765.5C149.4 752.3 240.333 726.667 284 715.5C260.667 716.667 206.4 721.5 176 731.5C138 744 135 731.5 117 744Z" fill="#7DBC90"/>
<path d="M211.358 871.705C217.16 878.37 212.366 886.738 205.284 892.903C198.203 899.068 191.517 900.695 185.714 894.03C179.912 887.365 180.949 876.965 188.03 870.8C195.112 864.635 205.556 865.04 211.358 871.705Z" fill="#FE8310"/>
<path d="M207.359 865.201C205.199 873.769 195.59 874.609 186.487 872.313C177.383 870.017 172.231 865.455 174.391 856.887C176.552 848.319 185.684 843.234 194.788 845.53C203.892 847.826 209.52 856.633 207.359 865.201Z" fill="#FE8310"/>
<path d="M180.805 841.899C187.038 848.163 182.811 856.832 176.155 863.454C169.5 870.077 162.937 872.145 156.704 865.881C150.471 859.617 150.813 849.171 157.469 842.548C164.124 835.926 174.572 835.635 180.805 841.899Z" fill="#FE8310"/>
<path d="M169.047 873.931C175.868 880.786 172.137 889.382 165.776 895.711C159.415 902.041 152.833 903.706 146.013 896.852C139.192 889.997 138.819 879.31 145.18 872.98C151.541 866.651 162.227 867.077 169.047 873.931Z" fill="#FE8310"/>
<path d="M191.817 876.903C198.638 883.758 194.907 892.354 188.546 898.683C182.185 905.013 175.603 906.678 168.782 899.824C161.962 892.969 161.589 882.281 167.95 875.952C174.311 869.623 184.996 870.049 191.817 876.903Z" fill="#FE8310"/>
<path d="M188.768 865.146C195.589 872.001 191.858 880.597 185.497 886.927C179.136 893.256 172.554 894.922 165.734 888.067C158.913 881.212 158.54 870.525 164.901 864.195C171.262 857.866 181.948 858.292 188.768 865.146Z" fill="#FE8310"/>
<path d="M190.634 897.151C213.871 889.119 210.618 874.671 206.086 868.451C216.273 872.841 214.318 880.952 212.067 884.458C205.486 897.612 195.036 898.401 190.634 897.151Z" fill="#C56D32"/>
<path d="M187.022 893.003C186.945 892.634 186.865 892.23 186.783 891.798C186.174 889.167 184.69 884.972 182.062 882.737C179.992 880.975 177.828 881.889 176.25 883.279C175.597 884.247 174.911 884.985 174.435 885.399C174.848 884.749 175.479 883.958 176.25 883.279C177.15 881.945 177.987 880.174 178.122 878.211C178.415 873.979 164.551 869.476 166.995 869.999C168.951 870.418 173.933 867.053 176.179 865.319C176.85 867.917 183.341 872.784 186.503 874.893C184.728 877.903 185.835 886.765 186.783 891.798C186.889 892.253 186.968 892.66 187.022 893.003C188.193 894.856 188.991 899.377 182.812 902.635C175.088 906.708 167.67 901.233 167.124 893.753C170.626 897.775 179.508 903.257 187.022 893.003Z" fill="#C56D32"/>
<path d="M183.894 846.006C181.374 845.548 177.402 852.763 175.731 856.428C185.027 840.91 199.397 847.315 205.421 852.457C194.028 837.847 187.044 846.578 183.894 846.006Z" fill="#C56D32"/>
<path d="M157.088 900.501C162.586 898.897 159.903 878.605 157.874 868.659C177.053 873.176 169.679 887.55 167.173 893.047C165.167 897.445 159.614 899.849 157.088 900.501Z" fill="#C56D32"/>
<path d="M197.763 886.304C194.405 889.757 193.3 884.223 193.167 881.024L199.578 875.443C200.372 877.625 201.121 882.851 197.763 886.304Z" fill="#FFB299"/>
<path d="M194.462 852.053C199.01 858.038 198.291 863.305 200.372 858.841C202.453 854.378 196.579 852.2 194.462 852.053Z" fill="#FFB299"/>
<path d="M159.182 890.723C158.288 887.259 151.158 876.937 147.705 872.209C150.345 869.911 156.463 868.562 157.825 869.365C159.187 870.168 160.3 895.053 159.182 890.723Z" fill="#FFB299"/>
<path d="M100.674 939.059C97.4742 936.659 93.0075 899.725 91.1742 881.559C86.5075 877.892 79.3742 869.659 88.1742 866.059C91.3984 864.74 99.6918 865.698 110.674 867.471C112.008 846.834 120.574 803.659 144.174 796.059C173.674 786.559 188.174 844.059 187.674 846.059C187.274 847.659 183.841 852.059 182.174 854.059C179.841 851.392 175.174 845.559 175.174 843.559C175.174 841.059 175.674 812.059 151.674 804.059C132.474 797.659 123.008 844.79 120.674 869.155C146.878 873.664 182.171 879.98 203.674 874.059C208.841 870.392 219.874 863.359 222.674 864.559C226.174 866.059 235.674 868.559 235.174 870.559C234.774 872.159 230.674 875.892 228.674 877.559C229.829 882.177 223.361 919.259 219.604 939.279C233.235 927.124 225.143 935.59 219.174 941.559C219.313 940.827 219.456 940.067 219.604 939.279C219.152 939.683 218.675 940.109 218.174 940.559C198.674 958.059 104.674 942.059 100.674 939.059Z" fill="#E08F62"/>
<path d="M92.8343 881C94.501 903.833 120.934 947.2 213.334 938C181.668 946.333 114.734 958 100.334 938C97.8343 921.833 92.8343 887.8 92.8343 881C87.8343 879.5 79.6343 875.3 86.8343 870.5C92.8343 873 166.334 886 189.834 883.5C208.634 881.5 228.001 872.667 235.334 868.5C235.668 869.333 235.334 872 231.334 876C226.334 881 174.334 905 92.8343 881Z" fill="#7F473A"/>
<path d="M142.711 798.507C130.71 805.066 119.198 847.489 114.834 868.5C112.128 824.431 131.62 803.898 142.711 798.507C143.085 798.303 143.46 798.133 143.834 798C143.471 798.151 143.096 798.32 142.711 798.507Z" fill="#7F473A"/>
<path d="M182.334 852.5C174.835 827 166.334 812 165.334 811C166.534 808.6 170.501 814 172.334 817C182.834 831.5 189.834 878 182.334 852.5Z" fill="#7F473A"/>
</g>
<path d="M-35.3982 874.182H915V821.939C610.612 825.513 -5.61188 832.309 -35.3982 830.906V874.182Z" fill="#905C30"/>
<path d="M915 787.63H-35.3982V830.906C-5.61188 832.309 610.612 825.513 915 821.939V787.63Z" fill="#7A5230"/>
<path fill-rule="evenodd" clip-rule="evenodd" d="M263.517 789.53L399.241 792.726L364.568 772.795L348.446 779.487L320.426 772.795L298.546 786.18L272.445 779.487L263.517 789.53ZM399.663 792.736L914.233 804.85V792.873L890.818 779.487L876.232 792.873C873.929 788.411 866.943 779.487 857.424 779.487C852.326 779.487 844.551 784.401 837.328 788.966C827.692 795.056 819.039 800.524 819.039 792.873C819.039 782.165 799.591 779.487 789.867 779.487L779.887 792.873L759.16 779.487L737.281 788.646L709.644 779.487L678.936 792.873L650.916 768.568L627.501 788.646L614.45 779.487L595.642 788.646L573.379 779.487L563.399 792.873L544.207 779.487L519.641 788.646L497.378 768.568L472.812 788.646L449.397 779.487L428.67 788.646L415.619 779.487L399.663 792.736Z" fill="#89EB4F"/>
<path d="M260.546 792.873H291.253C303.153 792.873 345.759 806.259 357.275 806.259C366.487 806.259 375.699 797.335 379.154 792.873L415.619 816.826C415.491 813.304 417.922 806.259 428.67 806.259C442.104 806.259 450.549 816.826 459.377 816.826C466.44 816.826 478.953 809.781 484.327 806.259L519.641 816.826H544.207C561.864 816.826 601.4 806.259 614.45 806.259C624.891 806.259 651.044 813.304 662.815 816.826C664.862 813.304 670.952 806.259 678.936 806.259C688.916 806.259 724.23 795.691 731.523 806.259C737.357 814.713 752.378 809.781 759.16 806.259L798.696 816.826C800.999 813.304 808.292 806.259 819.039 806.259C832.474 806.259 833.625 816.826 845.525 816.826C855.044 816.826 869.963 809.781 876.232 806.259L914.233 816.826V804.85L399.663 792.736L399.498 792.873L399.241 792.726L263.517 789.53L260.546 792.873Z" fill="#6CAE45"/>
<path fill-rule="evenodd" clip-rule="evenodd" d="M-32.4805 782.562L56.6079 784.659L31.007 768.568L-2.38749 779.487L-20.0443 758L-32.4805 782.562ZM61.0046 784.763L263.517 789.53L272.445 779.487H225.616L209.495 786.18L187.615 772.795L158.443 786.18L148.079 772.795L118.907 779.487L83.5936 768.568L61.0046 784.763Z" fill="#89EB4F"/>
<path d="M-37.7012 792.873L-20.0443 816.826C-17.9972 808.842 -11.5998 792.873 -2.38749 792.873C6.82477 792.873 13.9899 801.797 16.4209 806.259H31.007C39.298 806.259 53.142 813.304 59.0276 816.826C64.2735 808.842 76.5309 792.873 83.5936 792.873C90.6564 792.873 100.355 801.797 104.321 806.259C104.321 801.797 107.238 792.873 118.907 792.873C133.493 792.873 140.786 816.826 148.079 816.826C155.373 816.826 161.13 806.259 171.494 806.259H225.616C233.6 806.259 252.229 797.335 260.546 792.873L263.517 789.53L61.0046 784.763L59.0276 786.18L56.6079 784.659L-32.4805 782.562L-37.7012 792.873Z" fill="#6CAE45"/>
<path d="M280.433 831.587C285.166 831.297 295.544 831.413 299.195 834.196H317.449L331.646 826.369L344.83 842.894L352.436 831.587H397.057L406.184 842.894L434.072 809.845L502.018 826.369L533.455 837.676L543.089 826.369H565.4L568.442 837.676L577.569 826.369H620.669L601.908 855.94L633.852 821.151L676.445 823.76L681.009 842.024L692.164 828.979H726.644L730.193 847.243L736.278 826.369H755.546L767.209 833.327L802.703 826.369L824.506 833.327L851.38 826.369L872.169 828.979L877.747 843.764L885.86 826.369H913.748L914.762 900.295L868.113 896.816L865.071 885.51C864.394 887.54 862.738 892.12 861.521 894.207C860.304 896.295 834.309 895.077 821.464 894.207L819.435 885.51L817.407 894.207H774.307L770.251 881.162C770.589 886.09 770.758 895.599 768.73 894.207C766.701 892.816 701.291 895.367 668.839 896.816L305.786 903.774L290.068 898.556L261.672 911.602L267.25 826.369L280.433 831.587Z" fill="#FFCF82"/>
<path d="M394.395 872.728L405.724 842.715L434.859 810.416L534.805 838.428L541.684 827.566H565.153L578.101 857.579L534.805 838.428L482.606 882.446L394.395 872.728Z" fill="#CB9D73"/>
<path d="M352.312 872.728L344.624 842.715L330.866 827.566L296.876 849.575L352.312 872.728Z" fill="#CB9D73"/>
<path d="M568.795 899.31L601.166 854.72L634.346 821.278L676.834 824.708L682.903 842.715L691.805 830.139H725.795L707.182 852.148L682.903 842.715L657.815 875.3L568.795 899.31Z" fill="#CB9D73"/>
<path d="M731.865 893.308L756.548 827.566H737.125L731.865 849.575V893.308Z" fill="#CB9D73"/>
<path d="M768.687 832.997L805.509 827.566L826.955 832.997L785.277 857.579L768.687 832.997Z" fill="#CB9D73"/>
<path d="M863.373 864.439L889.27 827.566H912.334L895.34 860.723L863.373 864.439Z" fill="#CB9D73"/>
<path d="M264.505 872.728L296.876 832.997L268.956 827.566L264.505 872.728Z" fill="#CB9D73"/>
<path d="M291.211 899.596L299.304 849.575L354.335 873.013L291.211 899.596Z" fill="#EEB559"/>
<path d="M393.585 873.013L485.034 881.874L534.4 837.856L593.477 865.01L567.985 899.596L485.034 881.874L470.871 899.596L387.92 902.74L393.585 873.013Z" fill="#EEB559"/>
<path d="M658.625 873.013L682.094 841.572L707.586 852.148V873.013H658.625Z" fill="#EEB559"/>
<path d="M787.3 856.435L731.055 895.309L757.357 826.994L769.901 834.14L787.3 856.435L825.741 834.14L849.615 826.994H868.633L819.672 888.163L787.3 856.435Z" fill="#EEB559"/>
<path d="M868.633 895.309C865.396 895.309 864.587 875.11 864.587 865.01L894.53 861.008L914.762 899.596C900.734 898.167 871.87 895.309 868.633 895.309Z" fill="#EEB559"/>
<path d="M-368.239 831.985C-363.506 831.695 -353.129 831.811 -349.478 834.594H-331.224L-317.026 826.767L-303.843 843.291L-296.237 831.985H-251.616L-242.489 843.291L-214.601 810.242L-146.655 826.767L-115.217 838.073L-105.583 826.767H-83.2726L-80.2303 838.073L-71.1033 826.767H-28.0034L-46.7646 856.337L-14.8199 821.549L27.7729 824.158L32.3364 842.422L43.4917 829.376H77.9716L81.521 847.64L87.6057 826.767H106.874L118.536 833.725L154.03 826.767L175.834 833.725L202.708 826.767L223.497 829.376L229.075 844.161L237.188 826.767H265.076L266.09 900.693L219.441 897.214L216.398 885.908C215.722 887.937 214.066 892.517 212.849 894.605C211.632 896.692 185.637 895.475 172.791 894.605L170.763 885.908L168.735 894.605H125.635L121.579 881.559C121.917 886.487 122.086 895.996 120.057 894.605C118.029 893.213 52.6187 895.764 20.167 897.214L-342.886 904.172L-358.605 898.953L-387 911.999L-381.422 826.767L-368.239 831.985Z" fill="#FFCF82"/>
<path d="M-254.278 873.125L-242.948 843.113L-213.814 810.813L-113.868 838.825L-106.989 827.964H-83.5196L-70.571 857.976L-113.868 838.825L-166.066 882.844L-254.278 873.125Z" fill="#CB9D73"/>
<path d="M-296.36 873.125L-304.049 843.113L-317.806 827.964L-351.796 849.973L-296.36 873.125Z" fill="#CB9D73"/>
<path d="M-79.8778 899.708L-47.5065 855.118L-14.326 821.675L28.1613 825.105L34.2309 843.113L43.1329 830.536H77.1227L58.5093 852.545L34.2309 843.113L9.14313 875.698L-79.8778 899.708Z" fill="#CB9D73"/>
<path d="M83.1924 893.705L107.875 827.964H88.4527L83.1924 849.973V893.705Z" fill="#CB9D73"/>
<path d="M120.015 833.394L156.837 827.964L178.283 833.394L136.605 857.976L120.015 833.394Z" fill="#CB9D73"/>
<path d="M214.701 864.836L240.598 827.964H263.662L246.667 861.12L214.701 864.836Z" fill="#CB9D73"/>
<path d="M-384.167 873.125L-351.796 833.394L-379.716 827.964L-384.167 873.125Z" fill="#CB9D73"/>
<path d="M-357.461 899.993L-349.368 849.973L-294.337 873.411L-357.461 899.993Z" fill="#EEB559"/>
<path d="M-255.087 873.411L-163.638 882.272L-114.272 838.253L-55.1947 865.408L-80.687 899.993L-163.638 882.272L-177.801 899.993L-260.752 903.138L-255.087 873.411Z" fill="#EEB559"/>
<path d="M9.95245 873.411L33.4216 841.969L58.9139 852.545V873.411H9.95245Z" fill="#EEB559"/>
<path d="M138.628 856.833L82.3831 895.706L108.685 827.392L121.229 834.537L138.628 856.833L177.069 834.537L200.943 827.392H219.961L170.999 888.56L138.628 856.833Z" fill="#EEB559"/>
<path d="M219.961 895.706C216.724 895.706 215.914 875.507 215.914 865.408L245.858 861.406L266.09 899.993C252.062 898.564 223.198 895.706 219.961 895.706Z" fill="#EEB559"/>
</g>
<defs>
<clipPath id="clip0_134_464">
<rect width="402" height="874" fill="white"/>
</clipPath>
</defs>
</svg>
