<svg width="402" height="116" viewBox="0 0 402 116" fill="none" xmlns="http://www.w3.org/2000/svg">
<path d="M-35.3982 116.182H915V63.9387C610.612 67.5126 -5.61188 74.3094 -35.3982 72.9058V116.182Z" fill="#905C30"/>
<path d="M915 29.6299H-35.3982V72.9058C-5.61188 74.3094 610.612 67.5126 915 63.9387V29.6299Z" fill="#7A5230"/>
<path fill-rule="evenodd" clip-rule="evenodd" d="M263.517 31.5305L399.241 34.7257L364.568 14.7947L348.446 21.4875L320.426 14.7947L298.546 28.1803L272.445 21.4875L263.517 31.5305ZM399.663 34.7357L914.233 46.8498V34.8732L890.818 21.4875L876.232 34.8732C873.929 30.4113 866.943 21.4875 857.424 21.4875C852.326 21.4875 844.551 26.4012 837.328 30.9658C827.692 37.0557 819.039 42.5241 819.039 34.8732C819.039 24.1646 799.591 21.4875 789.867 21.4875L779.887 34.8732L759.16 21.4875L737.281 30.6461L709.644 21.4875L678.936 34.8732L650.916 10.5676L627.501 30.6461L614.45 21.4875L595.642 30.6461L573.379 21.4875L563.399 34.8732L544.207 21.4875L519.641 30.6461L497.378 10.5676L472.812 30.6461L449.397 21.4875L428.67 30.6461L415.619 21.4875L399.663 34.7357Z" fill="#89EB4F"/>
<path d="M260.546 34.8732H291.253C303.153 34.8732 345.759 48.2588 357.275 48.2588C366.487 48.2588 375.699 39.335 379.154 34.8732L415.619 58.8264C415.491 55.3039 417.922 48.2588 428.67 48.2588C442.104 48.2588 450.549 58.8264 459.377 58.8264C466.44 58.8264 478.953 51.7813 484.327 48.2588L519.641 58.8264H544.207C561.864 58.8264 601.4 48.2588 614.45 48.2588C624.891 48.2588 651.044 55.3039 662.815 58.8264C664.862 55.3039 670.952 48.2588 678.936 48.2588C688.916 48.2588 724.23 37.6912 731.523 48.2588C737.357 56.7129 752.378 51.7813 759.16 48.2588L798.696 58.8264C800.999 55.3039 808.292 48.2588 819.039 48.2588C832.474 48.2588 833.625 58.8264 845.525 58.8264C855.044 58.8264 869.963 51.7813 876.232 48.2588L914.233 58.8264V46.8498L399.663 34.7357L399.498 34.8732L399.241 34.7257L263.517 31.5305L260.546 34.8732Z" fill="#6CAE45"/>
<path fill-rule="evenodd" clip-rule="evenodd" d="M-32.4805 24.562L56.6079 26.6594L31.007 10.5676L-2.38749 21.4875L-20.0443 0L-32.4805 24.562ZM61.0046 26.7629L263.517 31.5305L272.445 21.4875H225.616L209.495 28.1803L187.615 14.7947L158.443 28.1803L148.079 14.7947L118.907 21.4875L83.5936 10.5676L61.0046 26.7629Z" fill="#89EB4F"/>
<path d="M-37.7012 34.8732L-20.0443 58.8264C-17.9972 50.842 -11.5998 34.8732 -2.38749 34.8732C6.82477 34.8732 13.9899 43.7969 16.4209 48.2588H31.007C39.298 48.2588 53.142 55.3039 59.0276 58.8264C64.2735 50.842 76.5309 34.8732 83.5936 34.8732C90.6564 34.8732 100.355 43.7969 104.321 48.2588C104.321 43.7969 107.238 34.8732 118.907 34.8732C133.493 34.8732 140.786 58.8264 148.079 58.8264C155.373 58.8264 161.13 48.2588 171.494 48.2588H225.616C233.6 48.2588 252.229 39.335 260.546 34.8732L263.517 31.5305L61.0046 26.7629L59.0276 28.1803L56.6079 26.6594L-32.4805 24.562L-37.7012 34.8732Z" fill="#6CAE45"/>
<path d="M280.433 73.5873C285.166 73.2974 295.544 73.4133 299.195 76.1964H317.449L331.646 68.3694L344.83 84.894L352.436 73.5873H397.057L406.184 84.894L434.072 51.8447L502.018 68.3694L533.455 79.6757L543.089 68.3694H565.4L568.442 79.6757L577.569 68.3694H620.669L601.908 97.9398L633.852 63.1511L676.445 65.7602L681.009 84.0243L692.164 70.9785H726.644L730.193 89.2426L736.278 68.3694H755.546L767.209 75.3271L802.703 68.3694L824.506 75.3271L851.38 68.3694L872.169 70.9785L877.747 85.7637L885.86 68.3694H913.748L914.762 142.295L868.113 138.816L865.071 127.51C864.394 129.54 862.738 134.12 861.521 136.207C860.304 138.295 834.309 137.077 821.464 136.207L819.435 127.51L817.407 136.207H774.307L770.251 123.162C770.589 128.09 770.758 137.599 768.73 136.207C766.701 134.816 701.291 137.367 668.839 138.816L305.786 145.774L290.068 140.556L261.672 153.602L267.25 68.3694L280.433 73.5873Z" fill="#FFCF82"/>
<path d="M394.395 114.728L405.724 84.7153L434.859 52.416L534.805 80.4278L541.684 69.5661H565.153L578.101 99.5787L534.805 80.4278L482.606 124.446L394.395 114.728Z" fill="#CB9D73"/>
<path d="M352.312 114.728L344.624 84.7153L330.866 69.5661L296.876 91.5753L352.312 114.728Z" fill="#CB9D73"/>
<path d="M568.795 141.31L601.166 96.7203L634.346 63.2777L676.834 66.7077L682.903 84.7153L691.805 72.1386H725.795L707.182 94.1478L682.903 84.7153L657.815 117.3L568.795 141.31Z" fill="#CB9D73"/>
<path d="M731.865 135.308L756.548 69.5661H737.125L731.865 91.5753V135.308Z" fill="#CB9D73"/>
<path d="M768.687 74.9969L805.509 69.5661L826.955 74.9969L785.277 99.5787L768.687 74.9969Z" fill="#CB9D73"/>
<path d="M863.373 106.439L889.27 69.5661H912.334L895.34 102.723L863.373 106.439Z" fill="#CB9D73"/>
<path d="M264.505 114.728L296.876 74.9969L268.956 69.5661L264.505 114.728Z" fill="#CB9D73"/>
<path d="M291.211 141.596L299.304 91.575L354.335 115.013L291.211 141.596Z" fill="#EEB559"/>
<path d="M393.585 115.013L485.034 123.874L534.4 79.8558L593.477 107.01L567.985 141.596L485.034 123.874L470.871 141.596L387.92 144.74L393.585 115.013Z" fill="#EEB559"/>
<path d="M658.625 115.013L682.094 83.5717L707.586 94.1475V115.013H658.625Z" fill="#EEB559"/>
<path d="M787.3 98.4351L731.055 137.309L757.357 68.9941L769.901 76.14L787.3 98.4351L825.741 76.14L849.615 68.9941H868.633L819.672 130.163L787.3 98.4351Z" fill="#EEB559"/>
<path d="M868.633 137.309C865.396 137.309 864.587 117.11 864.587 107.01L894.53 103.008L914.762 141.596C900.734 140.167 871.87 137.309 868.633 137.309Z" fill="#EEB559"/>
<path d="M-368.239 73.9847C-363.506 73.6948 -353.129 73.8108 -349.478 76.5939H-331.224L-317.026 68.7668L-303.843 85.2915L-296.237 73.9847H-251.616L-242.489 85.2915L-214.601 52.2422L-146.655 68.7668L-115.217 80.0732L-105.583 68.7668H-83.2726L-80.2303 80.0732L-71.1033 68.7668H-28.0034L-46.7646 98.3372L-14.8199 63.5485L27.7729 66.1577L32.3364 84.4217L43.4917 71.376H77.9716L81.521 89.64L87.6057 68.7668H106.874L118.536 75.7246L154.03 68.7668L175.834 75.7246L202.708 68.7668L223.497 71.376L229.075 86.1612L237.188 68.7668H265.076L266.09 142.693L219.441 139.214L216.398 127.908C215.722 129.937 214.066 134.517 212.849 136.605C211.632 138.692 185.637 137.475 172.791 136.605L170.763 127.908L168.735 136.605H125.635L121.579 123.559C121.917 128.487 122.086 137.996 120.057 136.605C118.029 135.213 52.6187 137.764 20.167 139.214L-342.886 146.172L-358.605 140.953L-387 153.999L-381.422 68.7668L-368.239 73.9847Z" fill="#FFCF82"/>
<path d="M-254.278 115.125L-242.948 85.1127L-213.814 52.8135L-113.868 80.8252L-106.989 69.9635H-83.5196L-70.571 99.9761L-113.868 80.8252L-166.066 124.844L-254.278 115.125Z" fill="#CB9D73"/>
<path d="M-296.36 115.125L-304.049 85.1127L-317.806 69.9635L-351.796 91.9728L-296.36 115.125Z" fill="#CB9D73"/>
<path d="M-79.8778 141.708L-47.5065 97.1178L-14.326 63.6752L28.1613 67.1052L34.2309 85.1127L43.1329 72.536H77.1227L58.5093 94.5453L34.2309 85.1127L9.14313 117.698L-79.8778 141.708Z" fill="#CB9D73"/>
<path d="M83.1924 135.705L107.875 69.9635H88.4527L83.1924 91.9728V135.705Z" fill="#CB9D73"/>
<path d="M120.015 75.3944L156.837 69.9635L178.283 75.3944L136.605 99.9761L120.015 75.3944Z" fill="#CB9D73"/>
<path d="M214.701 106.836L240.598 69.9635H263.662L246.667 103.12L214.701 106.836Z" fill="#CB9D73"/>
<path d="M-384.167 115.125L-351.796 75.3944L-379.716 69.9635L-384.167 115.125Z" fill="#CB9D73"/>
<path d="M-357.461 141.993L-349.368 91.9725L-294.337 115.411L-357.461 141.993Z" fill="#EEB559"/>
<path d="M-255.087 115.411L-163.638 124.272L-114.272 80.2533L-55.1947 107.408L-80.687 141.993L-163.638 124.272L-177.801 141.993L-260.752 145.138L-255.087 115.411Z" fill="#EEB559"/>
<path d="M9.95245 115.411L33.4216 83.9691L58.9139 94.545V115.411H9.95245Z" fill="#EEB559"/>
<path d="M138.628 98.8325L82.3831 137.706L108.685 69.3916L121.229 76.5375L138.628 98.8325L177.069 76.5375L200.943 69.3916H219.961L170.999 130.56L138.628 98.8325Z" fill="#EEB559"/>
<path d="M219.961 137.706C216.724 137.706 215.914 117.507 215.914 107.408L245.858 103.406L266.09 141.993C252.062 140.564 223.198 137.706 219.961 137.706Z" fill="#EEB559"/>
</svg>
