<svg width="65" height="63" viewBox="0 0 65 63" fill="none" xmlns="http://www.w3.org/2000/svg">
<rect width="65" height="63" rx="7" fill="#6CAE45"/>
<path d="M16 45.8857V27.3714C16 26.72 16.1509 26.1029 16.4526 25.52C16.7544 24.9371 17.1702 24.4571 17.7 24.08L30.45 14.8229C31.1937 14.2743 32.0437 14 33 14C33.9562 14 34.8062 14.2743 35.55 14.8229L48.3 24.08C48.8312 24.4571 49.2477 24.9371 49.5495 25.52C49.8512 26.1029 50.0014 26.72 50 27.3714V45.8857C50 47.0171 49.5835 47.986 48.7505 48.7924C47.9175 49.5989 46.9173 50.0014 45.75 50H39.375C38.7729 50 38.2686 49.8025 37.862 49.4075C37.4554 49.0126 37.2514 48.5243 37.25 47.9429V37.6571C37.25 37.0743 37.046 36.5861 36.638 36.1925C36.23 35.7989 35.7257 35.6014 35.125 35.6H30.875C30.2729 35.6 29.7686 35.7975 29.362 36.1925C28.9554 36.5874 28.7514 37.0757 28.75 37.6571V47.9429C28.75 48.5257 28.546 49.0146 28.138 49.4096C27.73 49.8046 27.2257 50.0014 26.625 50H20.25C19.0812 50 18.0811 49.5975 17.2495 48.7924C16.4179 47.9874 16.0014 47.0185 16 45.8857Z" fill="white"/>
</svg>
