<svg width="402" height="242" viewBox="0 0 402 242" fill="none" xmlns="http://www.w3.org/2000/svg">
<g filter="url(#filter0_d_251_2)">
<ellipse cx="73.5" cy="170" rx="161.5" ry="168" fill="#B6ED77"/>
</g>
<g filter="url(#filter1_d_251_2)">
<ellipse cx="298.5" cy="101.5" rx="106.5" ry="101.5" fill="#F8A35F"/>
</g>
<path d="M228.641 82.206C228.399 82.206 228.19 82.129 228.014 81.975C227.86 81.799 227.783 81.59 227.783 81.348V78.015C227.783 77.773 227.86 77.575 228.014 77.421C228.19 77.245 228.399 77.157 228.641 77.157H238.475C240.499 77.157 242.204 77.432 243.59 77.982C244.976 78.532 246.021 79.401 246.725 80.589C247.451 81.755 247.814 83.306 247.814 85.242V95.142C247.814 95.384 247.726 95.593 247.55 95.769C247.396 95.923 247.198 96 246.956 96H242.303C242.083 96 241.885 95.923 241.709 95.769C241.533 95.615 241.445 95.417 241.445 95.175V85.407C241.445 84.351 241.192 83.559 240.686 83.031C240.18 82.481 239.388 82.206 238.31 82.206H228.641ZM233.228 79.665H234.977C235.703 79.665 236.187 79.797 236.429 80.061C236.693 80.325 236.759 80.6 236.627 80.886C236.407 81.48 236.231 82.074 236.099 82.668C235.967 83.24 235.868 83.845 235.802 84.483C235.758 85.099 235.736 85.792 235.736 86.562L236.066 95.142C236.066 95.384 235.978 95.593 235.802 95.769C235.626 95.923 235.417 96 235.175 96H227.453C227.211 96 227.002 95.912 226.826 95.736C226.672 95.56 226.595 95.362 226.595 95.142V92.073C226.595 91.831 226.672 91.633 226.826 91.479C227.002 91.303 227.211 91.215 227.453 91.215H230.159V86.595C230.159 85.957 230.181 85.33 230.225 84.714C230.291 84.098 230.39 83.471 230.522 82.833C230.654 82.195 230.841 81.546 231.083 80.886C231.215 80.556 231.424 80.27 231.71 80.028C232.018 79.786 232.524 79.665 233.228 79.665ZM252.054 96C251.812 96 251.603 95.923 251.427 95.769C251.273 95.593 251.196 95.384 251.196 95.142V78.015C251.196 77.773 251.273 77.575 251.427 77.421C251.603 77.245 251.812 77.157 252.054 77.157H256.971C257.191 77.157 257.389 77.245 257.565 77.421C257.741 77.575 257.829 77.773 257.829 78.015V95.142C257.829 95.384 257.741 95.593 257.565 95.769C257.389 95.923 257.191 96 256.971 96H252.054ZM262.237 96C261.995 96 261.786 95.923 261.61 95.769C261.456 95.593 261.379 95.384 261.379 95.142V78.015C261.379 77.773 261.456 77.575 261.61 77.421C261.786 77.245 261.995 77.157 262.237 77.157H270.487C272.533 77.157 274.249 77.421 275.635 77.949C277.021 78.455 278.066 79.324 278.77 80.556C279.474 81.766 279.826 83.405 279.826 85.473V95.142C279.826 95.384 279.738 95.593 279.562 95.769C279.408 95.923 279.21 96 278.968 96H274.315C274.095 96 273.897 95.923 273.721 95.769C273.545 95.615 273.457 95.417 273.457 95.175V85.407C273.457 84.351 273.193 83.559 272.665 83.031C272.159 82.481 271.378 82.206 270.322 82.206H267.748V95.142C267.748 95.384 267.66 95.593 267.484 95.769C267.308 95.923 267.11 96 266.89 96H262.237ZM284.055 96C283.813 96 283.604 95.923 283.428 95.769C283.274 95.593 283.197 95.384 283.197 95.142V78.015C283.197 77.773 283.274 77.575 283.428 77.421C283.604 77.245 283.813 77.157 284.055 77.157H288.972C289.192 77.157 289.39 77.245 289.566 77.421C289.742 77.575 289.83 77.773 289.83 78.015V95.142C289.83 95.384 289.742 95.593 289.566 95.769C289.39 95.923 289.192 96 288.972 96H284.055ZM302.884 96C302.642 96 302.433 95.923 302.257 95.769C302.103 95.615 302.026 95.417 302.026 95.175V85.407C302.026 84.351 301.762 83.559 301.234 83.031C300.728 82.481 299.936 82.206 298.858 82.206H293.644C293.402 82.206 293.193 82.129 293.017 81.975C292.863 81.799 292.786 81.59 292.786 81.348V78.015C292.786 77.773 292.863 77.575 293.017 77.421C293.193 77.245 293.402 77.157 293.644 77.157H299.056C301.08 77.157 302.785 77.41 304.171 77.916C305.557 78.422 306.602 79.258 307.306 80.424C308.032 81.59 308.395 83.185 308.395 85.209V95.142C308.395 95.384 308.307 95.593 308.131 95.769C307.977 95.923 307.779 96 307.537 96H302.884ZM324.619 96C324.223 96 323.926 95.912 323.728 95.736C323.552 95.538 323.431 95.384 323.365 95.274L311.617 78.279C311.529 78.169 311.485 78.037 311.485 77.883C311.485 77.685 311.551 77.52 311.683 77.388C311.815 77.234 311.98 77.157 312.178 77.157H316.798C317.194 77.157 317.48 77.256 317.656 77.454C317.832 77.652 317.964 77.806 318.052 77.916L329.998 94.878C330.086 94.966 330.13 95.043 330.13 95.109C330.13 95.175 330.13 95.23 330.13 95.274C330.13 95.472 330.053 95.648 329.899 95.802C329.767 95.934 329.613 96 329.437 96H324.619ZM312.31 96C312.068 96 311.859 95.912 311.683 95.736C311.529 95.538 311.452 95.318 311.452 95.076V91.248C311.452 89.928 311.562 88.795 311.782 87.849C312.024 86.903 312.42 86.056 312.97 85.308C313.542 84.538 314.345 83.79 315.379 83.064L318.382 87.387C317.942 87.739 317.623 88.146 317.425 88.608C317.227 89.07 317.106 89.521 317.062 89.961C317.018 90.401 316.996 90.797 316.996 91.149V95.076C316.996 95.362 316.908 95.593 316.732 95.769C316.578 95.923 316.38 96 316.138 96H312.31ZM325.378 89.466L322.276 85.209C322.848 84.923 323.244 84.593 323.464 84.219C323.706 83.823 323.849 83.427 323.893 83.031C323.959 82.635 323.992 82.272 323.992 81.942V78.081C323.992 77.795 324.069 77.575 324.223 77.421C324.399 77.245 324.608 77.157 324.85 77.157H328.942C329.184 77.157 329.382 77.256 329.536 77.454C329.712 77.63 329.8 77.839 329.8 78.081V82.074C329.8 82.954 329.679 83.823 329.437 84.681C329.195 85.539 328.755 86.375 328.117 87.189C327.479 87.981 326.566 88.74 325.378 89.466ZM349.221 96.33C347.395 96.33 345.833 96.11 344.535 95.67C343.237 95.23 342.192 94.68 341.4 94.02C340.608 93.338 340.014 92.612 339.618 91.842C339.244 91.072 339.046 90.357 339.024 89.697C339.024 89.499 339.09 89.334 339.222 89.202C339.376 89.048 339.552 88.971 339.75 88.971H345.228C345.514 88.971 345.734 89.026 345.888 89.136C346.042 89.224 346.185 89.367 346.317 89.565C346.471 89.829 346.68 90.06 346.944 90.258C347.208 90.434 347.527 90.566 347.901 90.654C348.275 90.72 348.726 90.753 349.254 90.753C350.2 90.753 350.915 90.544 351.399 90.126C351.883 89.686 352.125 89.114 352.125 88.41C352.125 87.706 351.883 87.2 351.399 86.892C350.915 86.562 350.222 86.397 349.32 86.397H345.426C345.184 86.397 344.975 86.309 344.799 86.133C344.645 85.957 344.568 85.759 344.568 85.539V83.262C344.568 82.954 344.623 82.701 344.733 82.503C344.865 82.283 345.008 82.129 345.162 82.041L350.145 78.51H341.235C340.993 78.51 340.784 78.422 340.608 78.246C340.454 78.07 340.377 77.872 340.377 77.652V73.758C340.377 73.516 340.454 73.318 340.608 73.164C340.784 72.988 340.993 72.9 341.235 72.9H357.273C357.515 72.9 357.713 72.988 357.867 73.164C358.043 73.318 358.131 73.516 358.131 73.758V77.256C358.131 77.542 358.076 77.795 357.966 78.015C357.856 78.213 357.724 78.356 357.57 78.444L353.115 82.074L353.247 82.14C354.413 82.36 355.469 82.734 356.415 83.262C357.361 83.768 358.109 84.483 358.659 85.407C359.209 86.331 359.484 87.497 359.484 88.905C359.484 90.401 359.033 91.71 358.131 92.832C357.251 93.932 356.041 94.79 354.501 95.406C352.983 96.022 351.223 96.33 349.221 96.33ZM238.051 121.206C237.809 121.206 237.6 121.129 237.424 120.975C237.27 120.799 237.193 120.59 237.193 120.348V117.015C237.193 116.773 237.27 116.575 237.424 116.421C237.6 116.245 237.809 116.157 238.051 116.157H247.885C249.909 116.157 251.614 116.432 253 116.982C254.386 117.532 255.431 118.401 256.135 119.589C256.861 120.755 257.224 122.306 257.224 124.242V134.142C257.224 134.384 257.136 134.593 256.96 134.769C256.806 134.923 256.608 135 256.366 135H251.713C251.493 135 251.295 134.923 251.119 134.769C250.943 134.615 250.855 134.417 250.855 134.175V124.407C250.855 123.351 250.602 122.559 250.096 122.031C249.59 121.481 248.798 121.206 247.72 121.206H238.051ZM242.638 118.665H244.387C245.113 118.665 245.597 118.797 245.839 119.061C246.103 119.325 246.169 119.6 246.037 119.886C245.817 120.48 245.641 121.074 245.509 121.668C245.377 122.24 245.278 122.845 245.212 123.483C245.168 124.099 245.146 124.792 245.146 125.562L245.476 134.142C245.476 134.384 245.388 134.593 245.212 134.769C245.036 134.923 244.827 135 244.585 135H236.863C236.621 135 236.412 134.912 236.236 134.736C236.082 134.56 236.005 134.362 236.005 134.142V131.073C236.005 130.831 236.082 130.633 236.236 130.479C236.412 130.303 236.621 130.215 236.863 130.215H239.569V125.595C239.569 124.957 239.591 124.33 239.635 123.714C239.701 123.098 239.8 122.471 239.932 121.833C240.064 121.195 240.251 120.546 240.493 119.886C240.625 119.556 240.834 119.27 241.12 119.028C241.428 118.786 241.934 118.665 242.638 118.665ZM261.464 135C261.222 135 261.013 134.923 260.837 134.769C260.683 134.593 260.606 134.384 260.606 134.142V117.015C260.606 116.773 260.683 116.575 260.837 116.421C261.013 116.245 261.222 116.157 261.464 116.157H266.381C266.601 116.157 266.799 116.245 266.975 116.421C267.151 116.575 267.239 116.773 267.239 117.015V134.142C267.239 134.384 267.151 134.593 266.975 134.769C266.799 134.923 266.601 135 266.381 135H261.464ZM271.548 127.146C271.306 127.146 271.097 127.069 270.921 126.915C270.767 126.739 270.69 126.53 270.69 126.288V117.015C270.69 116.773 270.767 116.575 270.921 116.421C271.097 116.245 271.306 116.157 271.548 116.157H276.465C276.685 116.157 276.883 116.245 277.059 116.421C277.235 116.575 277.323 116.773 277.323 117.015V126.288C277.323 126.53 277.235 126.739 277.059 126.915C276.883 127.069 276.685 127.146 276.465 127.146H271.548ZM290.251 135C290.009 135 289.8 134.923 289.624 134.769C289.47 134.615 289.393 134.417 289.393 134.175V124.407C289.393 123.351 289.129 122.559 288.601 122.031C288.095 121.481 287.303 121.206 286.225 121.206H281.011C280.769 121.206 280.56 121.129 280.384 120.975C280.23 120.799 280.153 120.59 280.153 120.348V117.015C280.153 116.773 280.23 116.575 280.384 116.421C280.56 116.245 280.769 116.157 281.011 116.157H286.423C288.447 116.157 290.152 116.41 291.538 116.916C292.924 117.422 293.969 118.258 294.673 119.424C295.399 120.59 295.762 122.185 295.762 124.209V134.142C295.762 134.384 295.674 134.593 295.498 134.769C295.344 134.923 295.146 135 294.904 135H290.251ZM299.974 141.303C299.732 141.303 299.523 141.215 299.347 141.039C299.193 140.885 299.116 140.687 299.116 140.445V124.935C299.116 124.693 299.193 124.495 299.347 124.341C299.523 124.165 299.732 124.077 299.974 124.077H304.462C304.682 124.077 304.88 124.165 305.056 124.341C305.232 124.495 305.32 124.693 305.32 124.935V140.445C305.32 140.687 305.232 140.885 305.056 141.039C304.88 141.215 304.682 141.303 304.462 141.303H299.974ZM308.455 135.462C308.235 135.506 308.026 135.418 307.828 135.198C307.63 134.978 307.531 134.747 307.531 134.505V130.611C307.531 130.391 307.619 130.171 307.795 129.951C307.971 129.731 308.169 129.577 308.389 129.489L309.379 129.093C309.885 128.873 310.347 128.587 310.765 128.235C311.205 127.883 311.557 127.421 311.821 126.849C312.085 126.255 312.217 125.507 312.217 124.605C312.217 123.857 312.14 123.263 311.986 122.823C311.832 122.361 311.546 122.02 311.128 121.8C310.732 121.58 310.16 121.47 309.412 121.47H299.974C299.754 121.47 299.556 121.393 299.38 121.239C299.204 121.063 299.116 120.854 299.116 120.612V116.949C299.116 116.729 299.204 116.542 299.38 116.388C299.556 116.234 299.754 116.157 299.974 116.157H310.798C312.734 116.157 314.285 116.487 315.451 117.147C316.639 117.807 317.497 118.753 318.025 119.985C318.553 121.195 318.817 122.658 318.817 124.374C318.817 125.826 318.564 127.157 318.058 128.367C317.574 129.555 316.903 130.6 316.045 131.502C315.187 132.382 314.219 133.13 313.141 133.746C312.063 134.34 310.941 134.791 309.775 135.099L308.455 135.462ZM322.305 127.146C322.063 127.146 321.854 127.069 321.678 126.915C321.524 126.739 321.447 126.53 321.447 126.288V117.015C321.447 116.773 321.524 116.575 321.678 116.421C321.854 116.245 322.063 116.157 322.305 116.157H327.222C327.442 116.157 327.64 116.245 327.816 116.421C327.992 116.575 328.08 116.773 328.08 117.015V126.288C328.08 126.53 327.992 126.739 327.816 126.915C327.64 127.069 327.442 127.146 327.222 127.146H322.305ZM331.702 136.881C331.46 136.903 331.251 136.826 331.075 136.65C330.899 136.496 330.811 136.298 330.811 136.056V132.657C330.811 132.415 330.888 132.217 331.042 132.063C331.196 131.909 331.383 131.799 331.603 131.733L338.962 130.149C340.172 129.885 341.085 129.544 341.701 129.126C342.339 128.708 342.768 128.169 342.988 127.509C343.208 126.849 343.318 126.046 343.318 125.1V116.982C343.318 116.74 343.395 116.542 343.549 116.388C343.725 116.234 343.934 116.157 344.176 116.157H348.829C349.071 116.157 349.269 116.245 349.423 116.421C349.599 116.575 349.687 116.773 349.687 117.015V126.981C349.687 128.499 349.324 129.819 348.598 130.941C347.894 132.063 346.86 132.987 345.496 133.713C344.132 134.417 342.471 134.923 340.513 135.231L331.702 136.881ZM335.926 134.208L331.273 117.477C331.229 117.301 331.185 117.169 331.141 117.081C331.119 116.993 331.108 116.905 331.108 116.817C331.108 116.641 331.174 116.487 331.306 116.355C331.438 116.223 331.592 116.157 331.768 116.157H336.916C337.334 116.157 337.587 116.322 337.675 116.652L341.602 133.449L335.926 134.208Z" fill="white"/>
<path d="M68.5401 97.33C66.7141 97.33 65.1521 97.11 63.8541 96.67C62.5561 96.23 61.5111 95.68 60.7191 95.02C59.9271 94.338 59.3331 93.612 58.9371 92.842C58.5631 92.072 58.3651 91.357 58.3431 90.697C58.3431 90.499 58.4091 90.334 58.5411 90.202C58.6951 90.048 58.8711 89.971 59.0691 89.971H64.5471C64.8331 89.971 65.0531 90.026 65.2071 90.136C65.3611 90.224 65.5041 90.367 65.6361 90.565C65.7901 90.829 65.9991 91.06 66.2631 91.258C66.5271 91.434 66.8461 91.566 67.2201 91.654C67.5941 91.72 68.0451 91.753 68.5731 91.753C69.5191 91.753 70.2341 91.544 70.7181 91.126C71.2021 90.686 71.4441 90.114 71.4441 89.41C71.4441 88.706 71.2021 88.2 70.7181 87.892C70.2341 87.562 69.5411 87.397 68.6391 87.397H64.7451C64.5031 87.397 64.2941 87.309 64.1181 87.133C63.9641 86.957 63.8871 86.759 63.8871 86.539V84.262C63.8871 83.954 63.9421 83.701 64.0521 83.503C64.1841 83.283 64.3271 83.129 64.4811 83.041L69.4641 79.51H60.5541C60.3121 79.51 60.1031 79.422 59.9271 79.246C59.7731 79.07 59.6961 78.872 59.6961 78.652V74.758C59.6961 74.516 59.7731 74.318 59.9271 74.164C60.1031 73.988 60.3121 73.9 60.5541 73.9H76.5921C76.8341 73.9 77.0321 73.988 77.1862 74.164C77.3621 74.318 77.4501 74.516 77.4501 74.758V78.256C77.4501 78.542 77.3951 78.795 77.2851 79.015C77.1751 79.213 77.0431 79.356 76.8891 79.444L72.4341 83.074L72.5661 83.14C73.7321 83.36 74.7881 83.734 75.7341 84.262C76.6801 84.768 77.4281 85.483 77.9781 86.407C78.5281 87.331 78.8031 88.497 78.8031 89.905C78.8031 91.401 78.3521 92.71 77.4501 93.832C76.5701 94.932 75.3601 95.79 73.8201 96.406C72.3021 97.022 70.5421 97.33 68.5401 97.33ZM82.5517 89.905C82.3097 89.905 82.1007 89.828 81.9247 89.674C81.7707 89.498 81.6937 89.289 81.6937 89.047V85.153C81.6937 84.911 81.7707 84.713 81.9247 84.559C82.1007 84.383 82.3097 84.295 82.5517 84.295H93.1117C93.3537 84.295 93.5517 84.383 93.7057 84.559C93.8817 84.713 93.9697 84.911 93.9697 85.153V89.047C93.9697 89.289 93.8817 89.498 93.7057 89.674C93.5517 89.828 93.3537 89.905 93.1117 89.905H82.5517ZM104.327 97C104.085 97 103.876 96.923 103.7 96.769C103.546 96.593 103.469 96.384 103.469 96.142V93.271C103.469 93.117 103.502 92.864 103.568 92.512C103.656 92.16 103.898 91.841 104.294 91.555L106.208 89.74C108.232 88.244 109.915 86.979 111.257 85.945C112.599 84.889 113.6 83.976 114.26 83.206C114.942 82.436 115.283 81.721 115.283 81.061C115.283 80.533 115.151 80.082 114.887 79.708C114.645 79.312 114.15 79.114 113.402 79.114C112.852 79.114 112.412 79.235 112.082 79.477C111.752 79.719 111.499 80.016 111.323 80.368C111.169 80.72 111.048 81.061 110.96 81.391C110.872 81.677 110.718 81.875 110.498 81.985C110.278 82.095 110.025 82.15 109.739 82.15H104.591C104.371 82.15 104.195 82.084 104.063 81.952C103.931 81.798 103.865 81.622 103.865 81.424C103.887 80.258 104.129 79.202 104.591 78.256C105.075 77.288 105.735 76.441 106.571 75.715C107.407 74.989 108.397 74.439 109.541 74.065C110.707 73.669 111.983 73.471 113.369 73.471C115.305 73.471 116.966 73.768 118.352 74.362C119.738 74.956 120.805 75.792 121.553 76.87C122.301 77.948 122.675 79.235 122.675 80.731C122.675 81.875 122.411 82.942 121.883 83.932C121.355 84.922 120.607 85.868 119.639 86.77C118.671 87.65 117.527 88.563 116.207 89.509L114.59 91.093H122.312C122.554 91.093 122.752 91.181 122.906 91.357C123.082 91.533 123.17 91.742 123.17 91.984V96.142C123.17 96.384 123.082 96.593 122.906 96.769C122.752 96.923 122.554 97 122.312 97H104.327ZM41.2075 122.206C40.9655 122.206 40.7565 122.129 40.5805 121.975C40.4265 121.799 40.3495 121.59 40.3495 121.348V118.015C40.3495 117.773 40.4265 117.575 40.5805 117.421C40.7565 117.245 40.9655 117.157 41.2075 117.157H51.0415C53.0655 117.157 54.7705 117.432 56.1565 117.982C57.5425 118.532 58.5875 119.401 59.2915 120.589C60.0175 121.755 60.3805 123.306 60.3805 125.242V135.142C60.3805 135.384 60.2925 135.593 60.1165 135.769C59.9625 135.923 59.7645 136 59.5225 136H54.8695C54.6495 136 54.4515 135.923 54.2755 135.769C54.0995 135.615 54.0115 135.417 54.0115 135.175V125.407C54.0115 124.351 53.7585 123.559 53.2525 123.031C52.7465 122.481 51.9545 122.206 50.8765 122.206H41.2075ZM45.7945 119.665H47.5435C48.2695 119.665 48.7535 119.797 48.9955 120.061C49.2595 120.325 49.3255 120.6 49.1935 120.886C48.9735 121.48 48.7975 122.074 48.6655 122.668C48.5335 123.24 48.4345 123.845 48.3685 124.483C48.3245 125.099 48.3025 125.792 48.3025 126.562L48.6325 135.142C48.6325 135.384 48.5445 135.593 48.3685 135.769C48.1925 135.923 47.9835 136 47.7415 136H40.0195C39.7775 136 39.5685 135.912 39.3925 135.736C39.2385 135.56 39.1615 135.362 39.1615 135.142V132.073C39.1615 131.831 39.2385 131.633 39.3925 131.479C39.5685 131.303 39.7775 131.215 40.0195 131.215H42.7255V126.595C42.7255 125.957 42.7475 125.33 42.7915 124.714C42.8575 124.098 42.9565 123.471 43.0885 122.833C43.2205 122.195 43.4075 121.546 43.6495 120.886C43.7815 120.556 43.9905 120.27 44.2765 120.028C44.5845 119.786 45.0905 119.665 45.7945 119.665ZM64.62 136C64.378 136 64.169 135.923 63.993 135.769C63.839 135.593 63.762 135.384 63.762 135.142V118.015C63.762 117.773 63.839 117.575 63.993 117.421C64.169 117.245 64.378 117.157 64.62 117.157H69.537C69.757 117.157 69.955 117.245 70.131 117.421C70.307 117.575 70.395 117.773 70.395 118.015V135.142C70.395 135.384 70.307 135.593 70.131 135.769C69.955 135.923 69.757 136 69.537 136H64.62ZM74.8036 136C74.5616 136 74.3526 135.923 74.1766 135.769C74.0226 135.593 73.9456 135.384 73.9456 135.142V118.015C73.9456 117.773 74.0226 117.575 74.1766 117.421C74.3526 117.245 74.5616 117.157 74.8036 117.157H83.0536C85.0996 117.157 86.8156 117.421 88.2016 117.949C89.5876 118.455 90.6326 119.324 91.3366 120.556C92.0406 121.766 92.3926 123.405 92.3926 125.473V135.142C92.3926 135.384 92.3046 135.593 92.1286 135.769C91.9746 135.923 91.7766 136 91.5346 136H86.8816C86.6616 136 86.4636 135.923 86.2876 135.769C86.1116 135.615 86.0236 135.417 86.0236 135.175V125.407C86.0236 124.351 85.7596 123.559 85.2316 123.031C84.7256 122.481 83.9446 122.206 82.8886 122.206H80.3146V135.142C80.3146 135.384 80.2266 135.593 80.0506 135.769C79.8746 135.923 79.6766 136 79.4566 136H74.8036ZM96.621 136C96.379 136 96.17 135.923 95.994 135.769C95.84 135.593 95.763 135.384 95.763 135.142V118.015C95.763 117.773 95.84 117.575 95.994 117.421C96.17 117.245 96.379 117.157 96.621 117.157H101.538C101.758 117.157 101.956 117.245 102.132 117.421C102.308 117.575 102.396 117.773 102.396 118.015V135.142C102.396 135.384 102.308 135.593 102.132 135.769C101.956 135.923 101.758 136 101.538 136H96.621ZM115.451 136C115.209 136 115 135.923 114.824 135.769C114.67 135.615 114.593 135.417 114.593 135.175V125.407C114.593 124.351 114.329 123.559 113.801 123.031C113.295 122.481 112.503 122.206 111.425 122.206H106.211C105.969 122.206 105.76 122.129 105.584 121.975C105.43 121.799 105.353 121.59 105.353 121.348V118.015C105.353 117.773 105.43 117.575 105.584 117.421C105.76 117.245 105.969 117.157 106.211 117.157H111.623C113.647 117.157 115.352 117.41 116.738 117.916C118.124 118.422 119.169 119.258 119.873 120.424C120.599 121.59 120.962 123.185 120.962 125.209V135.142C120.962 135.384 120.874 135.593 120.698 135.769C120.544 135.923 120.346 136 120.104 136H115.451ZM137.186 136C136.79 136 136.493 135.912 136.295 135.736C136.119 135.538 135.998 135.384 135.932 135.274L124.184 118.279C124.096 118.169 124.052 118.037 124.052 117.883C124.052 117.685 124.118 117.52 124.25 117.388C124.382 117.234 124.547 117.157 124.745 117.157H129.365C129.761 117.157 130.047 117.256 130.223 117.454C130.399 117.652 130.531 117.806 130.619 117.916L142.565 134.878C142.653 134.966 142.697 135.043 142.697 135.109C142.697 135.175 142.697 135.23 142.697 135.274C142.697 135.472 142.62 135.648 142.466 135.802C142.334 135.934 142.18 136 142.004 136H137.186ZM124.877 136C124.635 136 124.426 135.912 124.25 135.736C124.096 135.538 124.019 135.318 124.019 135.076V131.248C124.019 129.928 124.129 128.795 124.349 127.849C124.591 126.903 124.987 126.056 125.537 125.308C126.109 124.538 126.912 123.79 127.946 123.064L130.949 127.387C130.509 127.739 130.19 128.146 129.992 128.608C129.794 129.07 129.673 129.521 129.629 129.961C129.585 130.401 129.563 130.797 129.563 131.149V135.076C129.563 135.362 129.475 135.593 129.299 135.769C129.145 135.923 128.947 136 128.705 136H124.877ZM137.945 129.466L134.843 125.209C135.415 124.923 135.811 124.593 136.031 124.219C136.273 123.823 136.416 123.427 136.46 123.031C136.526 122.635 136.559 122.272 136.559 121.942V118.081C136.559 117.795 136.636 117.575 136.79 117.421C136.966 117.245 137.175 117.157 137.417 117.157H141.509C141.751 117.157 141.949 117.256 142.103 117.454C142.279 117.63 142.367 117.839 142.367 118.081V122.074C142.367 122.954 142.246 123.823 142.004 124.681C141.762 125.539 141.322 126.375 140.684 127.189C140.046 127.981 139.133 128.74 137.945 129.466ZM50.9559 175C50.7139 175 50.5049 174.923 50.3289 174.769C50.1749 174.593 50.0979 174.384 50.0979 174.142V157.015C50.0979 156.773 50.1749 156.575 50.3289 156.421C50.5049 156.245 50.7139 156.157 50.9559 156.157H58.8099C60.7679 156.157 62.4179 156.41 63.7599 156.916C65.1239 157.422 66.1469 158.269 66.8289 159.457C67.5329 160.623 67.8849 162.218 67.8849 164.242V174.109C67.8849 174.329 67.7969 174.538 67.6209 174.736C67.4449 174.912 67.2359 175 66.9939 175H50.9559ZM55.7409 169.951H61.8129V164.407C61.8129 163.351 61.5489 162.559 61.0209 162.031C60.5149 161.481 59.7229 161.206 58.6449 161.206H55.7409V169.951ZM71.9975 167.146C71.7555 167.146 71.5465 167.069 71.3705 166.915C71.2165 166.739 71.1395 166.53 71.1395 166.288V157.015C71.1395 156.773 71.2165 156.575 71.3705 156.421C71.5465 156.245 71.7555 156.157 71.9975 156.157H76.9145C77.1345 156.157 77.3325 156.245 77.5085 156.421C77.6845 156.575 77.7725 156.773 77.7725 157.015V166.288C77.7725 166.53 77.6845 166.739 77.5085 166.915C77.3325 167.069 77.1345 167.146 76.9145 167.146H71.9975ZM81.9556 167.146C81.7136 167.146 81.5046 167.069 81.3286 166.915C81.1746 166.739 81.0976 166.53 81.0976 166.288V157.015C81.0976 156.773 81.1746 156.575 81.3286 156.421C81.5046 156.245 81.7136 156.157 81.9556 156.157H86.8726C87.0926 156.157 87.2906 156.245 87.4666 156.421C87.6426 156.575 87.7306 156.773 87.7306 157.015V166.288C87.7306 166.53 87.6426 166.739 87.4666 166.915C87.2906 167.069 87.0926 167.146 86.8726 167.146H81.9556ZM91.3856 175C91.1436 175 90.9346 174.923 90.7586 174.769C90.6046 174.593 90.5276 174.384 90.5276 174.142V170.809C90.5276 170.567 90.6046 170.369 90.7586 170.215C90.9346 170.039 91.1436 169.951 91.3856 169.951H102.54V174.175C102.54 174.417 102.452 174.615 102.276 174.769C102.122 174.923 101.924 175 101.682 175H91.3856ZM97.6226 175C97.3806 175 97.1716 174.923 96.9956 174.769C96.8416 174.593 96.7646 174.384 96.7646 174.142L96.3686 164.011C96.3246 163.285 96.2146 162.702 96.0386 162.262C95.8846 161.8 95.6206 161.459 95.2466 161.239C94.8946 160.997 94.3996 160.876 93.7616 160.876H91.9796C91.7376 160.876 91.5286 160.799 91.3526 160.645C91.1986 160.469 91.1216 160.26 91.1216 160.018V156.751C91.1216 156.509 91.1986 156.311 91.3526 156.157C91.5286 155.981 91.7376 155.893 91.9796 155.893H93.8936C95.4116 155.893 96.7316 156.047 97.8536 156.355C98.9756 156.663 99.9106 157.147 100.659 157.807C101.407 158.445 101.968 159.292 102.342 160.348C102.716 161.404 102.925 162.669 102.969 164.143L103.398 174.142C103.398 174.384 103.31 174.593 103.134 174.769C102.958 174.923 102.749 175 102.507 175H97.6226ZM106.931 167.146C106.689 167.146 106.48 167.069 106.304 166.915C106.15 166.739 106.073 166.53 106.073 166.288V157.015C106.073 156.773 106.15 156.575 106.304 156.421C106.48 156.245 106.689 156.157 106.931 156.157H111.848C112.068 156.157 112.266 156.245 112.442 156.421C112.618 156.575 112.706 156.773 112.706 157.015V166.288C112.706 166.53 112.618 166.739 112.442 166.915C112.266 167.069 112.068 167.146 111.848 167.146H106.931ZM116.394 175C116.152 175 115.943 174.923 115.767 174.769C115.613 174.593 115.536 174.384 115.536 174.142V170.809C115.536 170.567 115.613 170.369 115.767 170.215C115.943 170.039 116.152 169.951 116.394 169.951H124.281V164.44C124.281 163.384 124.017 162.592 123.489 162.064C122.983 161.514 122.191 161.239 121.113 161.239H116.724C116.482 161.239 116.273 161.162 116.097 161.008C115.943 160.832 115.866 160.623 115.866 160.381V157.015C115.866 156.773 115.943 156.575 116.097 156.421C116.273 156.245 116.482 156.157 116.724 156.157H121.278C123.302 156.157 125.029 156.421 126.459 156.949C127.889 157.477 128.989 158.346 129.759 159.556C130.529 160.766 130.914 162.394 130.914 164.44V169.951H132.036C132.278 169.951 132.476 170.039 132.63 170.215C132.806 170.369 132.894 170.567 132.894 170.809V174.142C132.894 174.384 132.806 174.593 132.63 174.769C132.476 174.923 132.278 175 132.036 175H116.394Z" fill="white"/>
<defs>
<filter id="filter0_d_251_2" x="-92" y="2" width="331" height="344" filterUnits="userSpaceOnUse" color-interpolation-filters="sRGB">
<feFlood flood-opacity="0" result="BackgroundImageFix"/>
<feColorMatrix in="SourceAlpha" type="matrix" values="0 0 0 0 0 0 0 0 0 0 0 0 0 0 0 0 0 0 127 0" result="hardAlpha"/>
<feOffset dy="4"/>
<feGaussianBlur stdDeviation="2"/>
<feComposite in2="hardAlpha" operator="out"/>
<feColorMatrix type="matrix" values="0 0 0 0 0 0 0 0 0 0 0 0 0 0 0 0 0 0 0.25 0"/>
<feBlend mode="normal" in2="BackgroundImageFix" result="effect1_dropShadow_251_2"/>
<feBlend mode="normal" in="SourceGraphic" in2="effect1_dropShadow_251_2" result="shape"/>
</filter>
<filter id="filter1_d_251_2" x="188" y="0" width="221" height="211" filterUnits="userSpaceOnUse" color-interpolation-filters="sRGB">
<feFlood flood-opacity="0" result="BackgroundImageFix"/>
<feColorMatrix in="SourceAlpha" type="matrix" values="0 0 0 0 0 0 0 0 0 0 0 0 0 0 0 0 0 0 127 0" result="hardAlpha"/>
<feOffset dy="4"/>
<feGaussianBlur stdDeviation="2"/>
<feComposite in2="hardAlpha" operator="out"/>
<feColorMatrix type="matrix" values="0 0 0 0 0 0 0 0 0 0 0 0 0 0 0 0 0 0 0.25 0"/>
<feBlend mode="normal" in2="BackgroundImageFix" result="effect1_dropShadow_251_2"/>
<feBlend mode="normal" in="SourceGraphic" in2="effect1_dropShadow_251_2" result="shape"/>
</filter>
</defs>
</svg>
