<svg width="360" height="112" viewBox="0 0 360 112" fill="none" xmlns="http://www.w3.org/2000/svg">
<rect x="262" y="4" width="98" height="44" rx="9" fill="#F8A35F"/>
<path d="M298.776 33C298.629 33 298.502 32.9533 298.396 32.86C298.302 32.7667 298.256 32.6467 298.256 32.5V26.58C298.256 25.94 298.096 25.46 297.776 25.14C297.469 24.8067 296.989 24.64 296.336 24.64H293.176C293.029 24.64 292.902 24.5933 292.796 24.5C292.702 24.3933 292.656 24.2667 292.656 24.12V22.1C292.656 21.9533 292.702 21.8333 292.796 21.74C292.902 21.6333 293.029 21.58 293.176 21.58H296.456C297.682 21.58 298.716 21.7333 299.556 22.04C300.396 22.3467 301.029 22.8533 301.456 23.56C301.896 24.2667 302.116 25.2333 302.116 26.46V32.48C302.116 32.6267 302.062 32.7533 301.956 32.86C301.862 32.9533 301.742 33 301.596 33H298.776ZM310.868 30.14C311.508 30.14 312.088 30.0067 312.608 29.74C313.128 29.4733 313.535 29.1133 313.828 28.66C314.135 28.2067 314.288 27.7 314.288 27.14V22.08C314.288 21.9333 314.335 21.8133 314.428 21.72C314.535 21.6267 314.662 21.58 314.808 21.58H317.308C317.442 21.58 317.562 21.6333 317.668 21.74C317.775 21.8333 317.828 21.9533 317.828 22.1V27.24C317.828 28.16 317.662 28.9867 317.328 29.72C317.008 30.4533 316.562 31.08 315.988 31.6C315.415 32.1067 314.755 32.5 314.008 32.78C313.262 33.0467 312.462 33.18 311.608 33.18H309.568C308.395 33.18 307.402 32.9667 306.588 32.54C305.775 32.1133 305.155 31.5533 304.728 30.86C304.315 30.1533 304.108 29.3933 304.108 28.58V22.1C304.108 21.9533 304.155 21.8333 304.248 21.74C304.355 21.6333 304.482 21.58 304.628 21.58H307.108C307.255 21.58 307.375 21.6267 307.468 21.72C307.575 21.8133 307.628 21.9333 307.628 22.08L307.648 26.68C307.648 27.7867 307.915 28.64 308.448 29.24C308.982 29.84 309.642 30.14 310.428 30.14H310.868ZM307.348 29.2V26.66C307.815 26.6467 308.188 26.5333 308.468 26.32C308.748 26.1067 308.942 25.7933 309.048 25.38C309.168 24.9533 309.228 24.4267 309.228 23.8V22.14C309.228 21.9667 309.282 21.8333 309.388 21.74C309.495 21.6333 309.615 21.58 309.748 21.58H312.228C312.375 21.58 312.495 21.64 312.588 21.76C312.695 21.8667 312.748 21.9933 312.748 22.14V23.82C312.748 25.0067 312.528 26 312.088 26.8C311.662 27.5867 311.042 28.1867 310.228 28.6C309.428 29 308.468 29.2 307.348 29.2ZM319.992 33C319.845 33 319.719 32.9533 319.612 32.86C319.519 32.7533 319.472 32.6267 319.472 32.48V30.46C319.472 30.3133 319.519 30.1933 319.612 30.1C319.719 29.9933 319.845 29.94 319.992 29.94H324.772V26.6C324.772 25.96 324.612 25.48 324.292 25.16C323.985 24.8267 323.505 24.66 322.852 24.66H320.192C320.045 24.66 319.919 24.6133 319.812 24.52C319.719 24.4133 319.672 24.2867 319.672 24.14V22.1C319.672 21.9533 319.719 21.8333 319.812 21.74C319.919 21.6333 320.045 21.58 320.192 21.58H322.952C324.179 21.58 325.225 21.74 326.092 22.06C326.959 22.38 327.625 22.9067 328.092 23.64C328.559 24.3733 328.792 25.36 328.792 26.6V29.94H329.472C329.619 29.94 329.739 29.9933 329.832 30.1C329.939 30.1933 329.992 30.3133 329.992 30.46V32.48C329.992 32.6267 329.939 32.7533 329.832 32.86C329.739 32.9533 329.619 33 329.472 33H319.992Z" fill="white"/>
<rect x="130" width="98" height="44" rx="9" fill="#F2C64B"/>
<path d="M167.585 20.78V21.36C167.585 21.5867 167.605 21.8 167.645 22C167.698 22.2 167.805 22.3267 167.965 22.38L168.465 22.56C168.571 22.6133 168.651 22.7 168.705 22.82C168.771 22.9267 168.805 23.0467 168.805 23.18L168.825 24.52C168.825 24.6933 168.745 24.8267 168.585 24.92C168.425 25.0133 168.265 25.0533 168.105 25.04L167.005 24.9C166.551 24.8467 166.131 24.66 165.745 24.34C165.371 24.02 165.065 23.5867 164.825 23.04C164.598 22.48 164.485 21.82 164.485 21.06V18.1C164.485 17.94 164.538 17.8133 164.645 17.72C164.751 17.6267 164.871 17.58 165.005 17.58H169.185C170.385 17.58 171.365 17.8 172.125 18.24C172.885 18.6667 173.451 19.2733 173.825 20.06C174.211 20.8333 174.431 21.7333 174.485 22.76V30.96C174.485 31.1067 174.431 31.2267 174.325 31.32C174.231 31.4267 174.111 31.48 173.965 31.48H171.305C171.158 31.48 171.031 31.4267 170.925 31.32C170.831 31.2267 170.785 31.1067 170.785 30.96V22.74C170.758 22.1 170.578 21.6133 170.245 21.28C169.925 20.9333 169.445 20.7667 168.805 20.78H167.585ZM177.043 29C176.897 29 176.77 28.9533 176.663 28.86C176.57 28.7533 176.523 28.6267 176.523 28.48V18.1C176.523 17.9533 176.57 17.8333 176.663 17.74C176.77 17.6333 176.897 17.58 177.043 17.58H180.023C180.157 17.58 180.277 17.6333 180.383 17.74C180.49 17.8333 180.543 17.9533 180.543 18.1V28.48C180.543 28.6267 180.49 28.7533 180.383 28.86C180.277 28.9533 180.157 29 180.023 29H177.043ZM182.815 30.14C182.669 30.1533 182.542 30.1067 182.435 30C182.329 29.9067 182.275 29.7867 182.275 29.64V27.58C182.275 27.4333 182.322 27.3133 182.415 27.22C182.509 27.1267 182.622 27.06 182.755 27.02L187.215 26.06C187.949 25.9 188.502 25.6933 188.875 25.44C189.262 25.1867 189.522 24.86 189.655 24.46C189.789 24.06 189.855 23.5733 189.855 23V18.08C189.855 17.9333 189.902 17.8133 189.995 17.72C190.102 17.6267 190.229 17.58 190.375 17.58H193.195C193.342 17.58 193.462 17.6333 193.555 17.74C193.662 17.8333 193.715 17.9533 193.715 18.1V24.14C193.715 25.06 193.495 25.86 193.055 26.54C192.629 27.22 192.002 27.78 191.175 28.22C190.349 28.6467 189.342 28.9533 188.155 29.14L182.815 30.14ZM185.375 28.52L182.555 18.38C182.529 18.2733 182.502 18.1933 182.475 18.14C182.462 18.0867 182.455 18.0333 182.455 17.98C182.455 17.8733 182.495 17.78 182.575 17.7C182.655 17.62 182.749 17.58 182.855 17.58H185.975C186.229 17.58 186.382 17.68 186.435 17.88L188.815 28.06L185.375 28.52Z" fill="white"/>
<rect y="2" width="98" height="44" rx="9" fill="#4BA1F2"/>
<path d="M26.4282 31C26.2815 31 26.1548 30.9533 26.0482 30.86C25.9548 30.7533 25.9082 30.6267 25.9082 30.48V20.1C25.9082 19.9533 25.9548 19.8333 26.0482 19.74C26.1548 19.6333 26.2815 19.58 26.4282 19.58H31.1882C32.3748 19.58 33.3748 19.7333 34.1882 20.04C35.0148 20.3467 35.6348 20.86 36.0482 21.58C36.4748 22.2867 36.6882 23.2533 36.6882 24.48V30.46C36.6882 30.5933 36.6348 30.72 36.5282 30.84C36.4215 30.9467 36.2948 31 36.1482 31H26.4282ZM29.3282 27.94H33.0082V24.58C33.0082 23.94 32.8482 23.46 32.5282 23.14C32.2215 22.8067 31.7415 22.64 31.0882 22.64H29.3282V27.94ZM39.1807 26.24C39.034 26.24 38.9073 26.1933 38.8007 26.1C38.7073 25.9933 38.6607 25.8667 38.6607 25.72V20.1C38.6607 19.9533 38.7073 19.8333 38.8007 19.74C38.9073 19.6333 39.034 19.58 39.1807 19.58H42.1607C42.294 19.58 42.414 19.6333 42.5207 19.74C42.6273 19.8333 42.6807 19.9533 42.6807 20.1V25.72C42.6807 25.8667 42.6273 25.9933 42.5207 26.1C42.414 26.1933 42.294 26.24 42.1607 26.24H39.1807ZM45.3958 31C45.2492 31 45.1225 30.9533 45.0158 30.86C44.9225 30.7533 44.8758 30.6267 44.8758 30.48V28.38C44.8758 28.2333 44.9225 28.1133 45.0158 28.02C45.1225 27.9133 45.2492 27.86 45.3958 27.86H49.8558L44.1958 20.28C44.1692 20.24 44.1425 20.1933 44.1158 20.14C44.0892 20.0867 44.0758 20.0333 44.0758 19.98C44.0758 19.86 44.1158 19.7667 44.1958 19.7C44.2892 19.62 44.3958 19.58 44.5158 19.58H47.4558C47.6692 19.58 47.8225 19.6267 47.9158 19.72C48.0225 19.8133 48.0958 19.8867 48.1358 19.94L54.0158 27.9C54.0825 27.98 54.1425 28.0733 54.1958 28.18C54.2625 28.2733 54.2958 28.4067 54.2958 28.58V30.48C54.2958 30.6267 54.2425 30.7533 54.1358 30.86C54.0425 30.9533 53.9225 31 53.7758 31H45.3958ZM52.3358 26.22L50.4158 23.64C50.8025 23.3467 51.0625 22.98 51.1958 22.54C51.3292 22.0867 51.3958 21.6 51.3958 21.08V20.14C51.3958 19.9667 51.4425 19.8333 51.5358 19.74C51.6425 19.6333 51.7692 19.58 51.9158 19.58H54.4158C54.5492 19.58 54.6692 19.64 54.7758 19.76C54.8825 19.8667 54.9358 19.9933 54.9358 20.14V21.8C54.9358 22.68 54.7158 23.5067 54.2758 24.28C53.8358 25.0533 53.1892 25.7 52.3358 26.22ZM57.3643 26.24C57.2176 26.24 57.0909 26.1933 56.9843 26.1C56.8909 25.9933 56.8443 25.8667 56.8443 25.72V20.1C56.8443 19.9533 56.8909 19.8333 56.9843 19.74C57.0909 19.6333 57.2176 19.58 57.3643 19.58H60.3443C60.4776 19.58 60.5976 19.6333 60.7043 19.74C60.8109 19.8333 60.8643 19.9533 60.8643 20.1V25.72C60.8643 25.8667 60.8109 25.9933 60.7043 26.1C60.5976 26.1933 60.4776 26.24 60.3443 26.24H57.3643ZM63.0994 31C62.9528 31 62.8261 30.9533 62.7194 30.86C62.6261 30.7533 62.5794 30.6267 62.5794 30.48V28.46C62.5794 28.3133 62.6261 28.1933 62.7194 28.1C62.8261 27.9933 62.9528 27.94 63.0994 27.94H67.8794V24.6C67.8794 23.96 67.7194 23.48 67.3994 23.16C67.0928 22.8267 66.6128 22.66 65.9594 22.66H63.2994C63.1528 22.66 63.0261 22.6133 62.9194 22.52C62.8261 22.4133 62.7794 22.2867 62.7794 22.14V20.1C62.7794 19.9533 62.8261 19.8333 62.9194 19.74C63.0261 19.6333 63.1528 19.58 63.2994 19.58H66.0594C67.2861 19.58 68.3328 19.74 69.1994 20.06C70.0661 20.38 70.7328 20.9067 71.1994 21.64C71.6661 22.3733 71.8994 23.36 71.8994 24.6V27.94H72.5794C72.7261 27.94 72.8461 27.9933 72.9394 28.1C73.0461 28.1933 73.0994 28.3133 73.0994 28.46V30.48C73.0994 30.6267 73.0461 30.7533 72.9394 30.86C72.8461 30.9533 72.7261 31 72.5794 31H63.0994Z" fill="white"/>
<rect x="198" y="68" width="98" height="44" rx="9" fill="#71D519"/>
<path d="M217.924 88.64C217.778 88.64 217.651 88.5933 217.544 88.5C217.451 88.3933 217.404 88.2667 217.404 88.12V86.1C217.404 85.9533 217.451 85.8333 217.544 85.74C217.651 85.6333 217.778 85.58 217.924 85.58H223.884C225.111 85.58 226.144 85.7467 226.984 86.08C227.824 86.4133 228.458 86.94 228.884 87.66C229.324 88.3667 229.544 89.3067 229.544 90.48V96.48C229.544 96.6267 229.491 96.7533 229.384 96.86C229.291 96.9533 229.171 97 229.024 97H226.204C226.071 97 225.951 96.9533 225.844 96.86C225.738 96.7667 225.684 96.6467 225.684 96.5V90.58C225.684 89.94 225.531 89.46 225.224 89.14C224.918 88.8067 224.438 88.64 223.784 88.64H217.924ZM220.704 87.1H221.764C222.204 87.1 222.498 87.18 222.644 87.34C222.804 87.5 222.844 87.6667 222.764 87.84C222.631 88.2 222.524 88.56 222.444 88.92C222.364 89.2667 222.304 89.6333 222.264 90.02C222.238 90.3933 222.224 90.8133 222.224 91.28L222.424 96.48C222.424 96.6267 222.371 96.7533 222.264 96.86C222.158 96.9533 222.031 97 221.884 97H217.204C217.058 97 216.931 96.9467 216.824 96.84C216.731 96.7333 216.684 96.6133 216.684 96.48V94.62C216.684 94.4733 216.731 94.3533 216.824 94.26C216.931 94.1533 217.058 94.1 217.204 94.1H218.844V91.3C218.844 90.9133 218.858 90.5333 218.884 90.16C218.924 89.7867 218.984 89.4067 219.064 89.02C219.144 88.6333 219.258 88.24 219.404 87.84C219.484 87.64 219.611 87.4667 219.784 87.32C219.971 87.1733 220.278 87.1 220.704 87.1ZM232.114 97C231.967 97 231.84 96.9533 231.734 96.86C231.64 96.7533 231.594 96.6267 231.594 96.48V86.1C231.594 85.9533 231.64 85.8333 231.734 85.74C231.84 85.6333 231.967 85.58 232.114 85.58H235.094C235.227 85.58 235.347 85.6333 235.454 85.74C235.56 85.8333 235.614 85.9533 235.614 86.1V96.48C235.614 96.6267 235.56 96.7533 235.454 96.86C235.347 96.9533 235.227 97 235.094 97H232.114ZM238.226 92.24C238.079 92.24 237.952 92.1933 237.846 92.1C237.752 91.9933 237.706 91.8667 237.706 91.72V86.1C237.706 85.9533 237.752 85.8333 237.846 85.74C237.952 85.6333 238.079 85.58 238.226 85.58H241.206C241.339 85.58 241.459 85.6333 241.566 85.74C241.672 85.8333 241.726 85.9533 241.726 86.1V91.72C241.726 91.8667 241.672 91.9933 241.566 92.1C241.459 92.1933 241.339 92.24 241.206 92.24H238.226ZM243.941 97C243.794 97 243.667 96.9533 243.561 96.86C243.467 96.7533 243.421 96.6267 243.421 96.48V94.46C243.421 94.3133 243.467 94.1933 243.561 94.1C243.667 93.9933 243.794 93.94 243.941 93.94H250.701V96.5C250.701 96.6467 250.647 96.7667 250.541 96.86C250.447 96.9533 250.327 97 250.181 97H243.941ZM247.721 97C247.574 97 247.447 96.9533 247.341 96.86C247.247 96.7533 247.201 96.6267 247.201 96.48L246.961 90.34C246.934 89.9 246.867 89.5467 246.761 89.28C246.667 89 246.507 88.7933 246.281 88.66C246.067 88.5133 245.767 88.44 245.381 88.44H244.301C244.154 88.44 244.027 88.3933 243.921 88.3C243.827 88.1933 243.781 88.0667 243.781 87.92V85.94C243.781 85.7933 243.827 85.6733 243.921 85.58C244.027 85.4733 244.154 85.42 244.301 85.42H245.461C246.381 85.42 247.181 85.5133 247.861 85.7C248.541 85.8867 249.107 86.18 249.561 86.58C250.014 86.9667 250.354 87.48 250.581 88.12C250.807 88.76 250.934 89.5267 250.961 90.42L251.221 96.48C251.221 96.6267 251.167 96.7533 251.061 96.86C250.954 96.9533 250.827 97 250.681 97H247.721ZM258.522 97.2C256.589 97.2 255.149 96.7533 254.202 95.86C253.256 94.9533 252.782 93.7333 252.782 92.2V86.1C252.782 85.9533 252.829 85.8333 252.922 85.74C253.029 85.6333 253.156 85.58 253.302 85.58H255.782C255.916 85.58 256.036 85.6333 256.142 85.74C256.249 85.8333 256.302 85.9533 256.302 86.1V92.1C256.302 92.7667 256.509 93.2467 256.922 93.54C257.336 93.8333 257.862 93.98 258.502 93.98C259.129 93.98 259.616 93.8333 259.962 93.54C260.309 93.2333 260.482 92.7667 260.482 92.14C260.482 91.9933 260.482 91.8467 260.482 91.7C260.482 91.5533 260.482 91.4067 260.482 91.26C260.482 91.1 260.482 90.9533 260.482 90.82C260.482 90.18 260.389 89.6733 260.202 89.3C260.016 88.9133 259.736 88.72 259.362 88.72C259.202 88.72 259.029 88.7467 258.842 88.8C258.656 88.84 258.502 88.8867 258.382 88.94C258.222 88.9933 258.076 88.98 257.942 88.9C257.822 88.82 257.762 88.6867 257.762 88.5V86.6C257.762 86.4667 257.789 86.3267 257.842 86.18C257.909 86.0333 258.022 85.92 258.182 85.84C258.342 85.7467 258.562 85.6733 258.842 85.62C259.136 85.5533 259.542 85.52 260.062 85.52C261.102 85.52 261.922 85.7 262.522 86.06C263.122 86.4067 263.556 86.9333 263.822 87.64C264.089 88.3333 264.222 89.1933 264.222 90.22C264.222 90.3533 264.222 90.56 264.222 90.84C264.222 91.1067 264.222 91.3733 264.222 91.64C264.236 91.9067 264.236 92.1067 264.222 92.24C264.169 93.2533 263.936 94.1333 263.522 94.88C263.122 95.6133 262.509 96.1867 261.682 96.6C260.869 97 259.816 97.2 258.522 97.2ZM266.508 100.82C266.362 100.82 266.235 100.767 266.128 100.66C266.035 100.567 265.988 100.447 265.988 100.3V90.9C265.988 90.7533 266.035 90.6333 266.128 90.54C266.235 90.4333 266.362 90.38 266.508 90.38H269.228C269.362 90.38 269.482 90.4333 269.588 90.54C269.695 90.6333 269.748 90.7533 269.748 90.9V100.3C269.748 100.447 269.695 100.567 269.588 100.66C269.482 100.767 269.362 100.82 269.228 100.82H266.508ZM271.648 97.28C271.515 97.3067 271.388 97.2533 271.268 97.12C271.148 96.9867 271.088 96.8467 271.088 96.7V94.34C271.088 94.2067 271.142 94.0733 271.248 93.94C271.355 93.8067 271.475 93.7133 271.608 93.66L272.208 93.42C272.515 93.2867 272.795 93.1133 273.048 92.9C273.315 92.6867 273.528 92.4067 273.688 92.06C273.848 91.7 273.928 91.2467 273.928 90.7C273.928 90.2467 273.882 89.8867 273.788 89.62C273.695 89.34 273.522 89.1333 273.268 89C273.028 88.8667 272.682 88.8 272.228 88.8H266.508C266.375 88.8 266.255 88.7533 266.148 88.66C266.042 88.5533 265.988 88.4267 265.988 88.28V86.06C265.988 85.9267 266.042 85.8133 266.148 85.72C266.255 85.6267 266.375 85.58 266.508 85.58H273.068C274.242 85.58 275.182 85.78 275.888 86.18C276.608 86.58 277.128 87.1533 277.448 87.9C277.768 88.6333 277.928 89.52 277.928 90.56C277.928 91.44 277.775 92.2467 277.468 92.98C277.175 93.7 276.768 94.3333 276.248 94.88C275.728 95.4133 275.142 95.8667 274.488 96.24C273.835 96.6 273.155 96.8733 272.448 97.06L271.648 97.28Z" fill="white"/>
<rect x="43" y="68" width="140" height="44" rx="9" fill="#FC7C8D"/>
<path d="M70.2432 97C70.0966 97 69.9699 96.9533 69.8632 96.86C69.7699 96.7533 69.7232 96.6267 69.7232 96.48V94.46C69.7232 94.3133 69.7699 94.1933 69.8632 94.1C69.9699 93.9933 70.0966 93.94 70.2432 93.94H75.0232V90.6C75.0232 89.96 74.8632 89.48 74.5432 89.16C74.2366 88.8267 73.7566 88.66 73.1032 88.66H70.4432C70.2966 88.66 70.1699 88.6133 70.0632 88.52C69.9699 88.4133 69.9232 88.2867 69.9232 88.14V86.1C69.9232 85.9533 69.9699 85.8333 70.0632 85.74C70.1699 85.6333 70.2966 85.58 70.4432 85.58H73.2032C74.4299 85.58 75.4766 85.74 76.3432 86.06C77.2099 86.38 77.8766 86.9067 78.3432 87.64C78.8099 88.3733 79.0432 89.36 79.0432 90.6V93.94H79.7232C79.8699 93.94 79.9899 93.9933 80.0832 94.1C80.1899 94.1933 80.2432 94.3133 80.2432 94.46V96.48C80.2432 96.6267 80.1899 96.7533 80.0832 96.86C79.9899 96.9533 79.8699 97 79.7232 97H70.2432ZM83.9565 97.28C83.8232 97.3067 83.6965 97.2533 83.5765 97.12C83.4699 96.9867 83.4165 96.8467 83.4165 96.7V94.34C83.4165 94.2067 83.4699 94.0733 83.5765 93.94C83.6832 93.8067 83.8032 93.7133 83.9365 93.66L84.5165 93.42C84.8365 93.2867 85.1232 93.1133 85.3765 92.9C85.6432 92.6867 85.8565 92.4067 86.0165 92.06C86.1765 91.7 86.2565 91.2467 86.2565 90.7C86.2565 90.2467 86.2032 89.8867 86.0965 89.62C86.0032 89.34 85.8299 89.1333 85.5765 89C85.3365 88.8667 84.9965 88.8 84.5565 88.8H84.1365C84.0032 88.8 83.8832 88.7533 83.7765 88.66C83.6699 88.5533 83.6165 88.4267 83.6165 88.28V86.06C83.6165 85.9267 83.6699 85.8133 83.7765 85.72C83.8832 85.6267 84.0032 85.58 84.1365 85.58H85.3765C86.5632 85.58 87.5099 85.78 88.2165 86.18C88.9232 86.58 89.4365 87.1533 89.7565 87.9C90.0765 88.6333 90.2365 89.52 90.2365 90.56C90.2365 91.44 90.0832 92.2467 89.7765 92.98C89.4832 93.7 89.0765 94.3333 88.5565 94.88C88.0365 95.4133 87.4499 95.8667 86.7965 96.24C86.1565 96.6 85.4832 96.8733 84.7765 97.06L83.9565 97.28ZM84.9565 88.8H81.1565C81.0099 88.8 80.8832 88.7533 80.7765 88.66C80.6832 88.5533 80.6365 88.4267 80.6365 88.28V83.32C80.6365 83.1733 80.6832 83.0533 80.7765 82.96C80.8832 82.8533 81.0099 82.8 81.1565 82.8H83.7165C83.8632 82.8 83.9832 82.8533 84.0765 82.96C84.1832 83.0533 84.2365 83.1733 84.2365 83.32V85.58H84.9765L84.9565 88.8ZM92.5173 97C92.3706 97 92.244 96.9533 92.1373 96.86C92.044 96.7533 91.9973 96.6267 91.9973 96.48V86.1C91.9973 85.9533 92.044 85.8333 92.1373 85.74C92.244 85.6333 92.3706 85.58 92.5173 85.58H97.5173C98.7573 85.58 99.7973 85.74 100.637 86.06C101.477 86.3667 102.111 86.8933 102.537 87.64C102.964 88.3733 103.177 89.3667 103.177 90.62V96.48C103.177 96.6267 103.124 96.7533 103.017 96.86C102.924 96.9533 102.804 97 102.657 97H99.8373C99.704 97 99.584 96.9533 99.4773 96.86C99.3706 96.7667 99.3173 96.6467 99.3173 96.5V90.58C99.3173 89.94 99.1573 89.46 98.8373 89.14C98.5306 88.8067 98.0573 88.64 97.4173 88.64H95.8573V96.48C95.8573 96.6267 95.804 96.7533 95.6973 96.86C95.5906 96.9533 95.4706 97 95.3373 97H92.5173ZM109.664 92.24C109.518 92.24 109.391 92.1933 109.284 92.1C109.191 91.9933 109.144 91.8667 109.144 91.72V86.1C109.144 85.9533 109.191 85.8333 109.284 85.74C109.391 85.6333 109.518 85.58 109.664 85.58H112.644C112.778 85.58 112.898 85.6333 113.004 85.74C113.111 85.8333 113.164 85.9533 113.164 86.1V91.72C113.164 91.8667 113.111 91.9933 113.004 92.1C112.898 92.1933 112.778 92.24 112.644 92.24H109.664ZM120.999 97C120.853 97 120.726 96.9533 120.619 96.86C120.526 96.7667 120.479 96.6467 120.479 96.5V90.58C120.479 89.94 120.319 89.46 119.999 89.14C119.693 88.8067 119.213 88.64 118.559 88.64H115.399C115.253 88.64 115.126 88.5933 115.019 88.5C114.926 88.3933 114.879 88.2667 114.879 88.12V86.1C114.879 85.9533 114.926 85.8333 115.019 85.74C115.126 85.6333 115.253 85.58 115.399 85.58H118.679C119.906 85.58 120.939 85.7333 121.779 86.04C122.619 86.3467 123.253 86.8533 123.679 87.56C124.119 88.2667 124.339 89.2333 124.339 90.46V96.48C124.339 96.6267 124.286 96.7533 124.179 96.86C124.086 96.9533 123.966 97 123.819 97H120.999ZM127.012 97C126.866 97 126.739 96.9533 126.632 96.86C126.539 96.7533 126.492 96.6267 126.492 96.48V94.38C126.492 94.2333 126.539 94.1133 126.632 94.02C126.739 93.9133 126.866 93.86 127.012 93.86H131.472L125.812 86.28C125.786 86.24 125.759 86.1933 125.732 86.14C125.706 86.0867 125.692 86.0333 125.692 85.98C125.692 85.86 125.732 85.7667 125.812 85.7C125.906 85.62 126.012 85.58 126.132 85.58H129.072C129.286 85.58 129.439 85.6267 129.532 85.72C129.639 85.8133 129.712 85.8867 129.752 85.94L135.632 93.9C135.699 93.98 135.759 94.0733 135.812 94.18C135.879 94.2733 135.912 94.4067 135.912 94.58V96.48C135.912 96.6267 135.859 96.7533 135.752 96.86C135.659 96.9533 135.539 97 135.392 97H127.012ZM133.952 92.22L132.032 89.64C132.419 89.3467 132.679 88.98 132.812 88.54C132.946 88.0867 133.012 87.6 133.012 87.08V86.14C133.012 85.9667 133.059 85.8333 133.152 85.74C133.259 85.6333 133.386 85.58 133.532 85.58H136.032C136.166 85.58 136.286 85.64 136.392 85.76C136.499 85.8667 136.552 85.9933 136.552 86.14V87.8C136.552 88.68 136.332 89.5067 135.892 90.28C135.452 91.0533 134.806 91.7 133.952 92.22ZM139.041 97C138.894 97 138.767 96.9533 138.661 96.86C138.567 96.7533 138.521 96.6267 138.521 96.48V86.1C138.521 85.9533 138.567 85.8333 138.661 85.74C138.767 85.6333 138.894 85.58 139.041 85.58H142.021C142.154 85.58 142.274 85.6333 142.381 85.74C142.487 85.8333 142.541 85.9533 142.541 86.1V96.48C142.541 96.6267 142.487 96.7533 142.381 96.86C142.274 96.9533 142.154 97 142.021 97H139.041ZM151.213 88.78L144.973 88.8C144.839 88.8 144.719 88.7533 144.613 88.66C144.506 88.5533 144.453 88.4267 144.453 88.28V86.1C144.453 85.9533 144.506 85.8333 144.613 85.74C144.719 85.6333 144.839 85.58 144.973 85.58H151.813C152.719 85.58 153.533 85.7467 154.253 86.08C154.986 86.4 155.559 86.92 155.973 87.64C156.399 88.36 156.613 89.3 156.613 90.46V96.48C156.613 96.6267 156.559 96.7533 156.453 96.86C156.359 96.9533 156.239 97 156.093 97H150.553C150.406 97 150.279 96.9533 150.173 96.86C150.079 96.7533 150.033 96.6267 150.033 96.48V94.46C150.033 94.3133 150.079 94.1933 150.173 94.1C150.279 93.9933 150.406 93.94 150.553 93.94H152.753V90.64C152.753 90.2267 152.686 89.8867 152.553 89.62C152.419 89.34 152.239 89.1333 152.013 89C151.786 88.8533 151.519 88.78 151.213 88.78ZM144.833 97C144.686 97 144.553 96.9533 144.433 96.86C144.326 96.7533 144.293 96.6267 144.333 96.48L146.613 87.96C146.653 87.8133 146.713 87.6933 146.793 87.6C146.886 87.4933 146.999 87.44 147.133 87.44L149.493 87.46C149.639 87.46 149.766 87.5267 149.873 87.66C149.993 87.7933 150.039 87.9267 150.013 88.06L148.073 96.48C148.073 96.6267 148.019 96.7533 147.913 96.86C147.806 96.9533 147.686 97 147.553 97H144.833Z" fill="white"/>
</svg>
