<svg width="390" height="521" viewBox="0 0 390 521" fill="none" xmlns="http://www.w3.org/2000/svg">
<path d="M2.32168 201.54V192.59C15.6945 185.431 254.611 184.897 372.397 185.525C380.569 190.047 381.374 202.168 380.755 207.664C369.456 208.449 348.066 210.113 352.895 210.49C358.931 210.961 378.433 213.316 378.433 213.787V216.614C379.826 217.556 382.891 219.911 384.005 221.795C385.12 223.679 381.684 228.861 379.826 231.216C380.136 233.257 380.755 237.716 380.755 239.224C380.755 240.731 355.99 242.678 343.608 243.463C355.681 244.876 380.383 247.797 382.612 248.174C385.398 248.645 382.612 272.668 384.005 277.378C385.12 281.147 383.541 284.915 382.612 286.328H12.5371L3.71468 280.205L2.32168 263.718C10.2154 262.933 25.817 261.269 25.0741 260.892C24.3312 260.515 8.04848 259.479 0 259.008L3.71468 249.587V239.224L36.2182 237.811L2.32168 233.571L3.71468 221.795L0 215.672L3.71468 205.309C3.25035 204.524 2.32168 202.671 2.32168 201.54Z" fill="#904820"/>
<path fill-rule="evenodd" clip-rule="evenodd" d="M2.36171 179.101V188.508C2.36171 189.696 3.29019 191.644 3.75443 192.469L0.0405273 203.361L3.75443 209.797L2.36171 222.174L36.251 226.63L3.75443 228.115V239.007L0.0405273 248.909C8.08731 249.404 24.3666 250.493 25.1093 250.889C25.8521 251.285 10.2538 253.034 2.36171 253.86L3.75443 271.188L12.5749 277.624C57.5131 265.905 286.011 201.632 297.152 171.672C242.977 172.825 7.63573 176.133 2.36171 179.101Z" fill="#D48C51"/>
<path d="M12.5749 277.624H382.572C383.501 276.139 385.079 272.178 383.965 268.217C382.572 263.266 385.358 238.017 382.572 237.522C380.344 237.126 355.646 234.056 343.576 232.571C355.956 231.746 380.715 229.699 380.715 228.115C380.715 226.531 380.096 221.844 379.787 219.699C381.644 217.223 385.079 211.777 383.965 209.797C382.851 207.816 379.787 205.341 378.394 204.351V201.38C378.394 200.885 358.896 198.41 352.861 197.915C348.033 197.519 369.419 195.769 380.715 194.944C381.334 189.168 380.53 176.428 372.359 171.675C301.05 171.275 380.316 169.901 297.152 171.672C286.011 201.632 57.5131 265.905 12.5749 277.624Z" fill="#E0A267"/>
<path d="M322.221 253.652H383.965V260.088H322.221V253.652Z" fill="#DFA063"/>
<path d="M7.933 312.128V303.178C21.3059 296.018 260.222 295.485 378.008 296.113C386.181 300.635 386.985 312.756 386.366 318.252C375.067 319.037 353.677 320.701 358.506 321.078C364.542 321.549 384.045 323.904 384.045 324.375V327.202C385.438 328.144 388.502 330.499 389.617 332.383C390.731 334.267 387.295 339.449 385.438 341.804C385.747 343.845 386.366 348.304 386.366 349.812C386.366 351.319 361.602 353.266 349.219 354.051C361.292 355.464 385.995 358.385 388.224 358.761C391.01 359.233 388.224 383.256 389.617 387.966C390.731 391.735 389.152 395.503 388.224 396.916H18.1484L9.32601 390.792L7.933 374.306C15.8267 373.521 31.4284 371.856 30.6854 371.48C29.9425 371.103 13.6598 370.067 5.61133 369.595L9.32601 360.175V349.812L41.8295 348.399L7.933 344.159L9.32601 332.383L5.61133 326.259L9.32601 315.897C8.86168 315.111 7.933 313.259 7.933 312.128Z" fill="#904820"/>
<path fill-rule="evenodd" clip-rule="evenodd" d="M7.97329 286.823V299.096C7.97329 300.284 8.90176 302.231 9.366 303.057L5.6521 313.948L9.366 320.385L7.97329 332.762L41.8626 337.218L9.366 338.703V349.595L5.6521 359.497C13.6989 359.992 29.9781 361.081 30.7209 361.477C31.4637 361.873 15.8653 363.622 7.97329 364.448L9.366 381.776L18.1865 388.212C63.1247 376.493 291.622 312.22 302.764 282.259C248.589 283.413 13.2473 283.854 7.97329 286.823Z" fill="#D48C51"/>
<path d="M18.1865 388.212H388.184C389.112 386.726 390.691 382.766 389.576 378.805C388.184 373.854 390.969 348.605 388.184 348.11C385.955 347.714 361.258 344.644 349.188 343.159C361.567 342.334 386.327 340.287 386.327 338.703C386.327 337.119 385.708 332.432 385.398 330.286C387.255 327.811 390.691 322.365 389.576 320.385C388.462 318.404 385.398 315.929 384.006 314.939V311.968C384.006 311.473 364.508 308.998 358.473 308.503C353.644 308.106 375.03 306.357 386.327 305.532C386.946 299.756 386.141 287.016 377.971 282.263C306.662 281.863 385.927 280.488 302.764 282.259C291.622 312.22 63.1247 376.493 18.1865 388.212Z" fill="#E0A267"/>
<path d="M327.833 364.239H389.576V370.675H327.833V364.239Z" fill="#DFA063"/>
<path d="M7.933 424.017V415.067C21.3059 407.907 260.222 407.373 378.008 408.001C386.181 412.523 386.985 424.645 386.366 430.14C375.067 430.925 353.677 432.59 358.506 432.967C364.542 433.438 384.045 435.793 384.045 436.264V439.09C385.438 440.032 388.502 442.388 389.617 444.272C390.731 446.156 387.295 451.337 385.438 453.693C385.747 455.734 386.366 460.193 386.366 461.7C386.366 463.208 361.602 465.155 349.219 465.94C361.292 467.353 385.995 470.273 388.224 470.65C391.01 471.121 388.224 495.144 389.617 499.855C390.731 503.623 389.152 507.392 388.224 508.805H18.1484L9.32601 502.681L7.933 486.195C15.8267 485.41 31.4284 483.745 30.6854 483.368C29.9425 482.991 13.6598 481.955 5.61133 481.484L9.32601 472.063V461.7L41.8295 460.287L7.933 456.048L9.32601 444.272L5.61133 438.148L9.32601 427.785C8.86168 427 7.933 425.147 7.933 424.017Z" fill="#904820"/>
<path fill-rule="evenodd" clip-rule="evenodd" d="M7.97329 398.714V410.986C7.97329 412.175 8.90176 414.122 9.366 414.947L5.6521 425.839L9.366 432.275L7.97329 444.652L41.8626 449.108L9.366 450.594V461.485L5.6521 471.387C13.6989 471.882 29.9781 472.972 30.7209 473.368C31.4637 473.764 15.8653 475.513 7.97329 476.338L9.366 493.666L18.1865 500.102C63.1247 488.384 291.622 424.111 302.764 394.15C248.589 395.304 13.2473 395.745 7.97329 398.714Z" fill="#D48C51"/>
<path d="M18.1865 500.102H388.184C389.112 498.617 390.691 494.656 389.576 490.696C388.184 485.745 390.969 460.495 388.184 460C385.955 459.604 361.258 456.535 349.188 455.049C361.567 454.224 386.327 452.178 386.327 450.594C386.327 449.009 385.708 444.322 385.398 442.177C387.255 439.702 390.691 434.256 389.576 432.275C388.462 430.295 385.398 427.819 384.006 426.829V423.859C384.006 423.364 364.508 420.888 358.473 420.393C353.644 419.997 375.03 418.248 386.327 417.423C386.946 411.647 386.141 398.906 377.971 394.153C306.662 393.754 385.927 392.379 302.764 394.15C291.622 424.111 63.1247 488.384 18.1865 500.102Z" fill="#E0A267"/>
<path d="M327.833 476.13H389.576V482.566H327.833V476.13Z" fill="#DFA063"/>
<path fill-rule="evenodd" clip-rule="evenodd" d="M34.5 0C31.4624 0 29 2.46243 29 5.5V511.5C29 514.538 31.4624 517 34.5 517V0Z" fill="#ECCB98"/>
<path d="M34.5 517C37.5376 517 40 514.538 40 511.5V5.5C40 2.46243 37.5376 0 34.5 0V517Z" fill="#E2A167"/>
<path d="M28.8235 374.949C30.6804 374.156 37.025 366.697 39.9652 363.066V368.512C38.4796 371.681 31.9184 377.754 28.8235 380.395V374.949Z" fill="#CA824D"/>
<path d="M28.8235 504.662C30.6804 503.87 37.025 496.411 39.9652 492.78V498.226C38.4796 501.395 31.9184 507.468 28.8235 510.108V504.662Z" fill="#CA824D"/>
<path d="M28.8235 301.675C30.6804 300.883 37.025 293.424 39.9652 289.793V295.239C38.4796 298.408 31.9184 304.481 28.8235 307.121V301.675Z" fill="#CA824D"/>
<path d="M28.8235 431.389C30.6804 430.597 37.025 423.137 39.9652 419.507V424.953C38.4796 428.121 31.9184 434.194 28.8235 436.835V431.389Z" fill="#CA824D"/>
<path d="M28.8235 140.278C30.6804 139.485 37.025 132.026 39.9652 128.396V133.841C38.4796 137.01 31.9184 143.083 28.8235 145.724V140.278Z" fill="#CA824D"/>
<path d="M28.8235 228.403C30.6804 227.61 37.025 220.151 39.9652 216.521V221.966C38.4796 225.135 31.9184 231.208 28.8235 233.849V228.403Z" fill="#CA824D"/>
<path d="M28.8235 67.0042C30.6804 66.2121 37.025 58.7527 39.9652 55.1221V60.568C38.4796 63.7366 31.9184 69.8097 28.8235 72.4502V67.0042Z" fill="#CA824D"/>
<path d="M28.8235 355.641C30.6804 354.849 37.025 347.389 39.9652 343.759V349.205C38.4796 352.373 31.9184 358.446 28.8235 361.087V355.641Z" fill="#CA824D"/>
<path d="M28.8235 485.355C30.6804 484.563 37.025 477.103 39.9652 473.473V478.919C38.4796 482.087 31.9184 488.16 28.8235 490.801V485.355Z" fill="#CA824D"/>
<path d="M28.8235 282.367C30.6804 281.575 37.025 274.116 39.9652 270.485V275.931C38.4796 279.1 31.9184 285.173 28.8235 287.813V282.367Z" fill="#CA824D"/>
<path d="M28.8235 412.081C30.6804 411.289 37.025 403.83 39.9652 400.199V405.645C38.4796 408.814 31.9184 414.887 28.8235 417.527V412.081Z" fill="#CA824D"/>
<path d="M28.8235 120.968C30.6804 120.176 37.025 112.717 39.9652 109.086V114.532C38.4796 117.7 31.9184 123.774 28.8235 126.414V120.968Z" fill="#CA824D"/>
<path d="M28.8235 209.095C30.6804 208.303 37.025 200.844 39.9652 197.213V202.659C38.4796 205.827 31.9184 211.901 28.8235 214.541V209.095Z" fill="#CA824D"/>
<path d="M28.8235 47.6956C30.6804 46.9035 37.025 39.4441 39.9652 35.8135V41.2594C38.4796 44.428 31.9184 50.5011 28.8235 53.1416V47.6956Z" fill="#CA824D"/>
<path d="M28.8235 338.808C30.6804 338.016 37.025 330.556 39.9652 326.926V332.372C38.4796 335.54 31.9184 341.613 28.8235 344.254V338.808Z" fill="#CA824D"/>
<path d="M28.8235 468.52C30.6804 467.728 37.025 460.268 39.9652 456.638V462.084C38.4796 465.252 31.9184 471.325 28.8235 473.966V468.52Z" fill="#CA824D"/>
<path d="M28.8235 265.534C30.6804 264.742 37.025 257.283 39.9652 253.652V259.098C38.4796 262.267 31.9184 268.34 28.8235 270.98V265.534Z" fill="#CA824D"/>
<path d="M28.8235 395.247C30.6804 394.455 37.025 386.996 39.9652 383.365V388.811C38.4796 391.98 31.9184 398.053 28.8235 400.693V395.247Z" fill="#CA824D"/>
<path d="M28.8235 104.136C30.6804 103.344 37.025 95.8846 39.9652 92.2539V97.6999C38.4796 100.868 31.9184 106.942 28.8235 109.582V104.136Z" fill="#CA824D"/>
<path d="M28.8235 192.261C30.6804 191.469 37.025 184.01 39.9652 180.379V185.825C38.4796 188.993 31.9184 195.067 28.8235 197.707V192.261Z" fill="#CA824D"/>
<path d="M28.8235 30.8626C30.6804 30.0704 37.025 22.6111 39.9652 18.9805V24.4264C38.4796 27.595 31.9184 33.6681 28.8235 36.3086V30.8626Z" fill="#CA824D"/>
<path d="M28.8235 320.986C30.6804 320.193 37.025 312.734 39.9652 309.104V314.549C38.4796 317.718 31.9184 323.791 28.8235 326.432V320.986Z" fill="#CA824D"/>
<path d="M28.8235 450.697C30.6804 449.904 37.025 442.445 39.9652 438.814V444.26C38.4796 447.429 31.9184 453.502 28.8235 456.143V450.697Z" fill="#CA824D"/>
<path d="M28.8235 159.586C30.6804 158.794 37.025 151.335 39.9652 147.704V153.15C38.4796 156.319 31.9184 162.392 28.8235 165.032V159.586Z" fill="#CA824D"/>
<path d="M28.8235 247.711C30.6804 246.919 37.025 239.46 39.9652 235.829V241.275C38.4796 244.444 31.9184 250.517 28.8235 253.157V247.711Z" fill="#CA824D"/>
<path d="M28.8235 86.3128C30.6804 85.5206 37.025 78.0613 39.9652 74.4307V79.8766C38.4796 83.0452 31.9184 89.1183 28.8235 91.7588V86.3128Z" fill="#CA824D"/>
<path d="M28.8235 174.438C30.6804 173.646 37.025 166.186 39.9652 162.556V168.002C38.4796 171.17 31.9184 177.243 28.8235 179.884V174.438Z" fill="#CA824D"/>
<path d="M41.4254 154.14C37.8663 154.47 30.8408 156.121 31.2122 160.081C31.5836 164.042 31.6764 168.993 31.6764 170.973C26.1056 169.653 17.1922 163.547 26.1056 149.685C24.7129 148.364 22.206 144.536 23.3201 139.783C24.4343 135.03 28.7362 134.172 30.7479 134.337L31.2122 147.378C34.447 146.013 37.9497 144.734 39.5684 144.734V133.842C45.882 136.614 49.0079 141.598 49.7817 143.744C50.1569 145.017 50.4254 146.228 50.5998 147.378C53.422 147.817 58.9736 149.289 58.6022 151.665C58.1379 154.636 58.6022 157.606 54.8883 156.616C51.9172 155.824 50.4844 155.626 50.1394 155.626C48.3556 161.487 43.624 164.559 40.4969 165.527V154.636L41.4254 154.14Z" fill="#ECC79B"/>
<path d="M44.6079 163.052C44.9792 162.26 41.9772 157.441 40.4297 155.131L41.3582 154.141L46.929 161.567L45.0721 163.052C44.7626 163.382 44.2365 163.844 44.6079 163.052Z" fill="#C2804B"/>
<path d="M40.4297 154.141L37.6443 145.229L39.9655 144.734C41.3582 142.259 44.3293 137.308 45.0721 137.308C45.8149 137.308 46.6196 138.628 46.929 139.288L40.4297 146.714L39.9655 144.734L40.1976 149.437C43.3699 149.025 49.9002 148.447 50.6429 149.437V153.15C47.6254 152.738 41.335 151.888 40.3137 151.789L40.4297 154.141Z" fill="#C2804B"/>
<path d="M52.4999 155.626L53.8926 148.695C55.0068 149.487 55.5948 149.025 55.7496 148.695L53.8926 156.616L52.4999 155.626Z" fill="#C2804B"/>
<path d="M34.8589 145.229V146.714L29.7523 148.378C31.0521 148.186 33.6983 153.13 34.8589 155.626L32.5377 156.616C32.5377 154.24 28.5143 150.84 26.5026 149.437L29.7523 147.801C27.5858 145.953 23.2529 141.862 23.2529 140.278C23.2529 138.694 23.8719 137.638 24.1814 137.308L31.145 146.714L29.7523 147.801L34.8589 145.229Z" fill="#C2804B"/>
<path d="M31.145 161.567C29.6594 161.171 24.6456 162.392 22.3245 163.052C22.4792 163.712 22.8815 165.033 23.2529 165.033C23.6243 165.033 28.669 164.372 31.145 164.042V161.567Z" fill="#C2804B"/>
<path fill-rule="evenodd" clip-rule="evenodd" d="M359.5 0C356.462 0 354 2.46244 354 5.50001V515.5C354 518.538 356.462 521 359.5 521V0Z" fill="#ECCB98"/>
<path d="M359.5 521C362.538 521 365 518.538 365 515.5V5.5C365 2.46243 362.538 0 359.5 0V521Z" fill="#E2A167"/>
<path d="M353.79 378.909C355.647 378.117 361.991 370.658 364.931 367.027V372.473C363.446 375.642 356.884 381.715 353.79 384.355V378.909Z" fill="#CA824D"/>
<path d="M353.79 508.623C355.647 507.831 361.991 500.372 364.931 496.741V502.187C363.446 505.356 356.884 511.429 353.79 514.069V508.623Z" fill="#CA824D"/>
<path d="M353.79 305.636C355.647 304.844 361.991 297.385 364.931 293.754V299.2C363.446 302.368 356.884 308.442 353.79 311.082V305.636Z" fill="#CA824D"/>
<path d="M353.79 435.35C355.647 434.558 361.991 427.098 364.931 423.468V428.914C363.446 432.082 356.884 438.155 353.79 440.796V435.35Z" fill="#CA824D"/>
<path d="M353.79 144.238C355.647 143.445 361.991 135.986 364.931 132.355V137.801C363.446 140.97 356.884 147.043 353.79 149.684V144.238Z" fill="#CA824D"/>
<path d="M353.79 232.364C355.647 231.571 361.991 224.112 364.931 220.481V225.927C363.446 229.096 356.884 235.169 353.79 237.81V232.364Z" fill="#CA824D"/>
<path d="M353.79 70.9642C355.647 70.172 361.991 62.7127 364.931 59.082V64.528C363.446 67.6966 356.884 73.7697 353.79 76.4101V70.9642Z" fill="#CA824D"/>
<path d="M353.79 359.601C355.647 358.809 361.991 351.349 364.931 347.719V353.165C363.446 356.333 356.884 362.406 353.79 365.047V359.601Z" fill="#CA824D"/>
<path d="M353.79 489.314C355.647 488.522 361.991 481.062 364.931 477.432V482.878C363.446 486.046 356.884 492.119 353.79 494.76V489.314Z" fill="#CA824D"/>
<path d="M353.79 286.327C355.647 285.535 361.991 278.076 364.931 274.445V279.891C363.446 283.06 356.884 289.133 353.79 291.773V286.327Z" fill="#CA824D"/>
<path d="M353.79 416.04C355.647 415.248 361.991 407.789 364.931 404.158V409.604C363.446 412.773 356.884 418.846 353.79 421.486V416.04Z" fill="#CA824D"/>
<path d="M353.79 124.929C355.647 124.137 361.991 116.678 364.931 113.047V118.493C363.446 121.661 356.884 127.734 353.79 130.375V124.929Z" fill="#CA824D"/>
<path d="M353.79 213.055C355.647 212.263 361.991 204.804 364.931 201.173V206.619C363.446 209.787 356.884 215.86 353.79 218.501V213.055Z" fill="#CA824D"/>
<path d="M353.79 51.6556C355.647 50.8634 361.991 43.4041 364.931 39.7734V45.2194C363.446 48.388 356.884 54.4611 353.79 57.1015V51.6556Z" fill="#CA824D"/>
<path d="M353.79 342.768C355.647 341.976 361.991 334.516 364.931 330.886V336.332C363.446 339.5 356.884 345.573 353.79 348.214V342.768Z" fill="#CA824D"/>
<path d="M353.79 472.482C355.647 471.69 361.991 464.23 364.931 460.6V466.046C363.446 469.214 356.884 475.287 353.79 477.928V472.482Z" fill="#CA824D"/>
<path d="M353.79 269.494C355.647 268.702 361.991 261.243 364.931 257.612V263.058C363.446 266.227 356.884 272.3 353.79 274.94V269.494Z" fill="#CA824D"/>
<path d="M353.79 399.208C355.647 398.416 361.991 390.957 364.931 387.326V392.772C363.446 395.941 356.884 402.014 353.79 404.654V399.208Z" fill="#CA824D"/>
<path d="M353.79 108.096C355.647 107.304 361.991 99.8445 364.931 96.2139V101.66C363.446 104.828 356.884 110.901 353.79 113.542V108.096Z" fill="#CA824D"/>
<path d="M353.79 196.221C355.647 195.429 361.991 187.97 364.931 184.339V189.785C363.446 192.953 356.884 199.026 353.79 201.667V196.221Z" fill="#CA824D"/>
<path d="M353.79 34.8235C355.647 34.0314 361.991 26.5721 364.931 22.9414V28.3874C363.446 31.5559 356.884 37.629 353.79 40.2695V34.8235Z" fill="#CA824D"/>
<path d="M353.79 324.945C355.647 324.152 361.991 316.693 364.931 313.062V318.508C363.446 321.677 356.884 327.75 353.79 330.391V324.945Z" fill="#CA824D"/>
<path d="M353.79 454.658C355.647 453.866 361.991 446.407 364.931 442.776V448.222C363.446 451.391 356.884 457.464 353.79 460.104V454.658Z" fill="#CA824D"/>
<path d="M353.79 163.546C355.647 162.754 361.991 155.295 364.931 151.664V157.11C363.446 160.279 356.884 166.352 353.79 168.992V163.546Z" fill="#CA824D"/>
<path d="M353.79 251.671C355.647 250.879 361.991 243.42 364.931 239.789V245.235C363.446 248.404 356.884 254.477 353.79 257.117V251.671Z" fill="#CA824D"/>
<path d="M353.79 90.2727C355.647 89.4806 361.991 82.0213 364.931 78.3906V83.8366C363.446 87.0052 356.884 93.0782 353.79 95.7187V90.2727Z" fill="#CA824D"/>
<path d="M353.79 178.398C355.647 177.606 361.991 170.146 364.931 166.516V171.962C363.446 175.13 356.884 181.203 353.79 183.844V178.398Z" fill="#CA824D"/>
<path d="M366.391 158.099C362.832 158.429 355.807 160.08 356.178 164.04C356.55 168.001 356.642 172.952 356.642 174.932C351.072 173.612 342.158 167.506 351.072 153.644C349.679 152.323 347.172 148.495 348.286 143.742C349.4 138.989 353.702 138.131 355.714 138.296L356.178 151.337C359.413 149.972 362.916 148.693 364.535 148.693V137.801C370.848 140.573 373.974 145.557 374.748 147.703C375.123 148.976 375.391 150.187 375.566 151.337C378.388 151.776 383.94 153.248 383.568 155.624C383.104 158.594 383.568 161.565 379.854 160.575C376.883 159.783 375.45 159.585 375.105 159.585C373.322 165.446 368.59 168.518 365.463 169.486V158.594L366.391 158.099Z" fill="#ECC79B"/>
<path d="M369.574 167.012C369.945 166.22 366.943 161.401 365.396 159.091L366.324 158.101L371.895 165.527L370.038 167.012C369.728 167.342 369.202 167.804 369.574 167.012Z" fill="#C2804B"/>
<path d="M365.396 158.101L362.61 149.189L364.931 148.694C366.324 146.218 369.295 141.268 370.038 141.268C370.781 141.268 371.585 142.588 371.895 143.248L365.396 150.674L364.931 148.694L365.163 153.397C368.336 152.985 374.866 152.407 375.609 153.397V157.11C372.591 156.698 366.301 155.848 365.279 155.749L365.396 158.101Z" fill="#C2804B"/>
<path d="M377.466 159.586L378.858 152.655C379.973 153.447 380.561 152.985 380.715 152.655L378.858 160.576L377.466 159.586Z" fill="#C2804B"/>
<path d="M359.825 149.189V150.674L354.718 152.338C356.018 152.146 358.664 157.09 359.825 159.586L357.504 160.576C357.504 158.2 353.48 154.8 351.468 153.397L354.718 151.761C352.552 149.913 348.219 145.822 348.219 144.238C348.219 142.654 348.838 141.598 349.147 141.268L356.111 150.674L354.718 151.761L359.825 149.189Z" fill="#C2804B"/>
<path d="M356.111 165.527C354.625 165.131 349.611 166.352 347.29 167.012C347.445 167.672 347.847 168.993 348.219 168.993C348.59 168.993 353.635 168.332 356.111 168.002V165.527Z" fill="#C2804B"/>
</svg>
