<svg width="179" height="172" viewBox="0 0 179 172" fill="none" xmlns="http://www.w3.org/2000/svg">
<g filter="url(#filter0_d_119_1391)">
<path fill-rule="evenodd" clip-rule="evenodd" d="M18.9915 21.7416C11.053 32.7798 12.8075 37.9086 14.6771 39.0932C14.7532 39.167 14.6144 39.371 14.3743 39.7237C13.9343 40.3701 13.1543 41.516 12.7356 43.2744C12.3878 44.7352 13.1618 46.0148 13.8852 47.2107C14.5075 48.2395 15.0924 49.2064 14.8928 50.1732C14.6771 51.2185 14.3535 52.3683 14.0299 53.5181C13.7064 54.6679 13.3828 55.8177 13.1671 56.863C12.9556 57.8878 13.5217 58.5107 14.103 59.1503C14.7075 59.8156 15.3285 60.4989 15.1085 61.6712C14.9208 62.6719 15.1824 63.1579 15.5378 63.8184C15.9991 64.6757 16.6186 65.8269 16.6186 68.7791C16.6186 73.0545 14.5976 75.5112 13.5078 76.8359C13.2654 77.1305 13.0691 77.3692 12.9513 77.5594C12.9061 77.6325 12.8598 77.7045 12.8133 77.7769C12.1951 78.739 11.5469 79.7478 12.9513 83.8311C13.6488 85.8588 14.1162 86.1918 14.2046 86.6016C14.3077 87.079 13.8964 87.6606 12.7356 91.148C11.2418 95.6359 12.2307 96.8154 13.1234 97.8801C13.5199 98.3529 13.8973 98.8031 14.0299 99.5102C14.1747 100.282 14.2709 100.7 14.2126 101.098C14.097 101.884 13.3756 102.587 11.2256 105.782C8.71837 109.507 10.0966 111.225 11.346 112.782C11.7091 113.234 12.0613 113.673 12.3042 114.144C12.7276 114.965 12.9848 115.206 13.1019 115.499C13.283 115.953 13.1287 116.532 12.7356 119.579C12.3254 122.76 13.0422 123.841 13.567 124.631C13.87 125.088 14.1089 125.448 14.0299 126.06C13.9281 126.85 13.8743 126.94 13.687 127.256C13.4776 127.609 13.1013 128.243 12.3042 130.45C11.4146 132.913 12.3218 133.708 13.1293 134.415C13.6925 134.908 14.2072 135.359 14.0299 136.304C13.5985 138.603 14.4614 140.903 16.4028 142.576C17.956 143.913 17.4814 145.084 17.05 145.502C15.7557 151.147 19.8544 153.237 21.3644 153.655C21.804 153.777 22.1887 153.775 22.6144 153.772C23.651 153.766 24.9304 153.758 27.836 155.537C30.6898 157.284 31.9749 156.091 32.9292 155.206C33.3454 154.819 33.6988 154.492 34.0919 154.492C34.3354 154.492 34.602 154.484 34.8842 154.476C36.1017 154.443 37.6118 154.401 38.8377 154.91C39.9213 155.36 42.5599 155.056 44.3625 154.849C45.0719 154.767 45.6518 154.701 45.9565 154.701C47.035 154.701 48.9765 155.955 51.5652 157.837C53.6361 159.342 55.3043 157.209 55.8796 155.955C58.3307 159.009 63.1976 157.932 65.5209 157.418C66.0601 157.298 66.4624 157.209 66.6656 157.209C67.0782 157.209 67.8381 156.842 68.6796 156.436C70.0378 155.779 71.6083 155.021 72.2743 155.537C73.3529 156.373 76.3729 157 77.0201 156.791C77.1389 156.753 77.294 156.637 77.4975 156.485C78.4026 155.809 80.2642 154.419 84.1389 155.955C86.38 156.844 89.006 157.266 91.608 157.684C94.5159 158.152 97.3937 158.615 99.6707 159.718C103.985 161.809 109.162 160.136 111.967 157.627C115.371 157.506 118.585 157.075 121.616 156.367C154.505 148.687 166.016 108.484 168.428 79.3099C168.538 77.9879 168.628 76.6885 168.701 75.4158C169.229 74.2375 170.044 73.0887 170.858 72.124C171.973 70.8038 171.168 69.5525 170.28 68.1724C169.644 67.1843 168.966 66.1303 168.919 64.9375L168.917 64.807C168.917 62.2374 170.413 60.4735 171.946 58.6665C172.16 58.4153 172.373 58.1633 172.584 57.9082C173.446 56.8644 171.887 54.9345 170.433 53.1335C168.974 51.3276 167.621 49.6513 168.917 49.1279C170.744 48.39 169.991 44.839 169.391 42.0054C169.141 40.8252 168.917 39.7694 168.917 39.0932C168.917 37.7513 169.945 35.6264 170.93 33.5908C171.633 32.138 172.314 30.7306 172.584 29.6858C172.862 28.6093 171.431 27.4558 169.844 26.1758C167.732 24.4728 165.343 22.5459 166.328 20.2783C168.054 16.3063 165.681 9.61646 164.602 9.61646C163.739 9.61646 162.229 8.78029 161.582 8.3622C159.209 7.73494 154.075 5.9787 152.522 3.97177C150.969 1.96484 148.855 3.13555 147.992 3.97177H139.795H132.676C131.431 3.97177 129.888 3.05385 128.285 2.10057C126.553 1.07091 124.752 0 123.184 0C121.583 0 118.406 1.8211 115.42 3.53254C112.774 5.04957 110.277 6.48043 109.162 6.48043C106.789 6.48043 102.475 5.2261 99.6707 3.97177C97.582 3.03753 95.2539 3.49496 93.7561 3.78926C93.2429 3.89009 92.8272 3.97177 92.5519 3.97177C92.1862 3.97177 91.5725 4.26017 90.7613 4.64139C89.1799 5.38453 86.8479 6.48043 84.1389 6.48043C81.7111 6.48043 78.2994 5.60026 75.5177 4.88261C73.6032 4.3887 71.9872 3.97177 71.1957 3.97177C70.2505 3.97177 68.8452 4.56634 67.4029 5.17657C65.8825 5.8198 64.321 6.48043 63.214 6.48043H56.9582C56.2616 6.48043 55.4301 6.50223 54.5725 6.52471C52.7744 6.57185 50.8618 6.62198 49.8394 6.48043C48.6314 6.31319 45.3093 4.73831 43.7993 3.97177C41.9297 5.36554 37.9317 8.44576 36.8962 9.61646C36.2375 10.3612 34.1262 10.1313 31.4152 9.8362C28.7992 9.5514 25.6249 9.20581 22.6587 9.61646C17.8266 10.2854 18.2005 17.9787 18.9915 21.7416Z" fill="#B2CF32"/>
<path d="M168.917 89.0574C171.505 85.5035 170.858 82.3677 168.917 80.0681C168.712 79.8261 168.551 79.5726 168.428 79.3099C166.016 108.484 154.505 148.687 121.616 156.367C123.972 156.922 129.734 155.165 132.676 154.074C135.049 154.77 140.614 156.457 143.893 157.627C147.992 159.091 150.149 154.283 154.032 151.565C157.915 148.847 161.582 151.147 166.328 151.565C171.074 151.983 168.917 142.366 168.917 139.649C168.917 136.931 170.858 135.468 174.094 132.75C177.33 130.032 170.858 126.896 170.858 125.224C170.858 123.551 168.917 117.28 172.584 114.98C175.518 113.141 172.656 104.179 170.858 99.9283C172.8 97.6287 166.328 92.6114 168.917 89.0574Z" fill="#92AB21"/>
<path d="M98.9167 153.446C96.2989 152.103 91.8836 145.888 89.3791 141.991C90.4036 144.195 90.7271 148.017 86.8364 152.191C80.7963 158.672 57.0671 146.547 48.2226 147.174C39.3781 147.801 30.5336 153.446 25.7877 152.191C21.0419 150.937 22.3362 137.976 24.7091 133.167C27.082 128.359 18.8847 123.133 17.5903 118.952C16.296 114.771 18.2375 114.562 21.4733 105.99C24.7091 97.4191 17.5903 89.8931 17.5903 85.2939C17.5903 80.6947 21.4733 70.8691 22.3362 62.2978C23.1991 53.7266 18.8847 44.11 18.2375 43.4829C17.5903 42.8557 14.5703 33.4482 17.5903 33.4482C20.6104 33.4482 39.8095 11.7065 54.2627 12.1246C68.7159 12.5427 63.5387 7.73447 71.9517 7.31636C80.3648 6.89825 83.1692 12.5425 98.0538 13.5878C112.938 14.6331 120.273 3.76224 126.529 5.22563C132.785 6.68901 154.572 22.7862 158.887 28.0126C163.201 33.239 164.711 29.476 166.868 34.0752C169.026 38.6744 162.554 53.7264 164.711 60.6252C166.868 67.524 166.868 70.4508 166.868 77.9768C166.868 85.5027 134.726 142.157 124.156 145.711C113.586 149.264 112.723 149.055 107.33 152.4C101.937 155.745 102.584 155.327 98.9167 153.446Z" fill="#40832F"/>
<path d="M172.693 76.3053C172.012 76.1529 169.963 74.9452 166.868 72.9247C167.54 75.4548 168.357 81.0946 166.257 83.4131C168.54 80.8922 170.698 78.5093 172.693 76.3053Z" fill="#FFC251"/>
<path fill-rule="evenodd" clip-rule="evenodd" d="M15.9418 74.0057C35.8718 50.96 68.614 12.5635 73.0303 5.22656C99.6224 24.9681 149.577 61.6349 166.868 72.9247C167.54 75.4548 168.357 81.0946 166.257 83.4131C139.74 112.695 96.2818 160.599 93.7394 163.063C79.6127 150.969 58.466 132.911 40.2409 117.441C36.2434 114.048 32.3865 110.779 28.775 107.726C18.05 95.5545 15.5869 81.0667 15.9418 74.0057Z" fill="#FFA807"/>
<path d="M10.6873 80.0682L4 87.1761C4.90991 87.6509 15.0766 96.1428 28.775 107.726C18.05 95.5545 15.5869 81.0667 15.9418 74.0057C14.0653 76.1755 12.3023 78.2093 10.6873 80.0682Z" fill="#FFC251"/>
<path fill-rule="evenodd" clip-rule="evenodd" d="M33.5537 68.9878C44.991 68.9878 54.2628 59.628 54.2628 48.0823C54.2628 36.5365 44.991 27.1768 33.5537 27.1768C26.5034 27.1768 20.276 30.7333 16.5359 36.1661C14.8741 46.2704 15.951 66.9808 33.5537 68.9878Z" fill="#FF2644"/>
<path d="M12.8446 48.0823C12.8446 59.628 22.1164 68.9878 33.5537 68.9878C15.951 66.9808 14.8741 46.2704 16.5359 36.1661C14.2087 39.5466 12.8446 43.6536 12.8446 48.0823Z" fill="#CC260F"/>
<path d="M99.1325 13.3795C100.786 10.2437 104.698 4.13929 107.114 4.80826C109.396 5.44006 109.584 9.05528 109.726 11.7769C109.772 12.6575 109.813 13.4445 109.918 14.0067C110.264 15.8464 114.377 16.0275 116.39 15.8882V4.80826C117.109 4.59921 118.979 4.5574 120.704 6.06259C121.189 6.48497 121.684 6.85467 122.165 7.21427C123.829 8.4565 125.331 9.57814 125.666 12.3342C125.679 12.4415 125.693 12.5535 125.707 12.6699C126.168 16.4111 127.19 24.7 120.704 25.7138C114.017 26.759 104.31 24.6685 104.094 24.0413C103.921 23.5396 100.714 16.7244 99.1325 13.3795Z" fill="#CC260F"/>
<path fill-rule="evenodd" clip-rule="evenodd" d="M132.785 20.9055C132.785 32.4513 123.513 41.811 112.076 41.811C100.638 41.811 91.3666 32.4513 91.3666 20.9055C91.3666 9.35971 100.638 0 112.076 0C123.513 0 132.785 9.35971 132.785 20.9055ZM99.1325 13.3795C100.786 10.2437 104.698 4.13929 107.114 4.80826C109.396 5.44006 109.584 9.05528 109.726 11.7769C109.772 12.6575 109.813 13.4445 109.918 14.0067C110.264 15.8464 114.377 16.0275 116.39 15.8882V4.80826C117.109 4.59921 118.979 4.5574 120.704 6.06259C121.189 6.48497 121.684 6.85467 122.165 7.21427C123.829 8.4565 125.331 9.57814 125.666 12.3342C125.679 12.4415 125.693 12.5535 125.707 12.6699C126.168 16.4111 127.19 24.7 120.704 25.7138C114.017 26.759 104.31 24.6685 104.094 24.0413C103.921 23.5396 100.714 16.7244 99.1325 13.3795ZM110.218 5.92896C110.655 5.09764 111.437 3.61013 111.86 2.92677C112.438 1.99318 112.5 2.06019 112.66 2.23412C112.679 2.25493 112.7 2.27727 112.723 2.2996C112.812 2.3862 112.939 2.72387 113.087 3.11947C113.296 3.67894 113.549 4.35429 113.801 4.59921C114.233 5.01732 115.311 7.07525 115.096 11.498C114.88 15.9208 111.429 14.0891 111.213 13.3795L111.205 13.3544C110.966 12.5674 109.515 7.79775 109.909 6.51093C109.938 6.46185 110.053 6.24189 110.218 5.92896Z" fill="#FF2644"/>
<path d="M115.096 11.498C115.311 7.07525 114.233 5.01732 113.801 4.59921C113.549 4.35429 113.296 3.67894 113.087 3.11947C112.939 2.72387 112.812 2.3862 112.723 2.2996C112.7 2.27727 112.679 2.25493 112.66 2.23412C112.5 2.06019 112.438 1.99318 111.86 2.92677C111.437 3.61013 110.655 5.09764 110.218 5.92896C110.053 6.24189 109.938 6.46185 109.909 6.51093C109.515 7.79775 110.966 12.5674 111.205 13.3544L111.213 13.3795C111.429 14.0891 114.88 15.9208 115.096 11.498Z" fill="#FD9B78"/>
<path fill-rule="evenodd" clip-rule="evenodd" d="M150.474 132.54C156.096 132.54 161.195 130.279 164.927 126.607C167.343 123.7 168.257 108.446 168.412 101.182C164.832 94.9336 158.139 90.7295 150.474 90.7295C139.036 90.7295 129.765 100.089 129.765 111.635C129.765 123.181 139.036 132.54 150.474 132.54Z" fill="#FF2644"/>
<path d="M171.183 111.635C171.183 107.827 170.174 104.257 168.412 101.182C168.257 108.446 167.343 123.7 164.927 126.607C168.786 122.81 171.183 117.505 171.183 111.635Z" fill="#CC260F"/>
<path fill-rule="evenodd" clip-rule="evenodd" d="M61.1658 157.209C72.6031 157.209 81.8749 147.85 81.8749 136.304C81.8749 124.758 72.6031 115.398 61.1658 115.398C49.7284 115.398 40.4567 124.758 40.4567 136.304C40.4567 147.85 49.7284 157.209 61.1658 157.209ZM58.7928 154.701C56.8945 154.534 56.4199 150.45 56.4199 148.429C59.44 145.572 65.6096 141.321 66.1273 147.175C66.7745 154.492 61.1658 154.91 58.7928 154.701Z" fill="#FF2644"/>
<path d="M56.4199 148.429C56.4199 150.45 56.8945 154.534 58.7928 154.701C61.1658 154.91 66.7745 154.492 66.1273 147.175C65.6096 141.321 59.44 145.572 56.4199 148.429Z" fill="#FD9B78"/>
<rect x="20.179" y="10.4531" width="144.101" height="139.649" rx="19" fill="#EEA449"/>
<path d="M160.828 74.0726C159.111 103.324 145.321 144.432 99.2542 146.339H141.828C152.322 146.339 160.828 137.832 160.828 127.339V74.0726Z" fill="#FFBB67"/>
<path d="M37.4189 66.3528C34.6412 63.9242 27.3569 69.0994 24.062 71.9906V113.19C25.6209 111.889 30.0407 108.072 35.2488 103.215C41.759 97.1438 39.5889 82.3988 37.4189 78.4957C36.4037 76.6698 37.0982 74.5593 37.7694 72.5192C38.5331 70.1982 39.2667 67.9684 37.4189 66.3528Z" fill="#63A45B"/>
<path d="M97.7463 68.0875C94.3789 65.8443 89.6943 65.026 87.409 68.3649C84.0181 73.3194 81.0064 78.4957 82.9899 78.4957H95.1422C96.8783 75.6045 99.8295 69.4752 97.7463 68.0875Z" fill="#70AB68"/>
<path fill-rule="evenodd" clip-rule="evenodd" d="M142.449 14.2158C152.6 14.2158 160.828 22.4444 160.828 32.5948V61.4622V74.0726C159.111 103.324 145.321 144.432 99.2542 146.339H92.4452H43.062C32.5686 146.339 24.062 137.832 24.062 127.339V113.19C25.6209 111.889 30.0407 108.072 35.2488 103.215C41.759 97.1438 39.5889 82.3988 37.4189 78.4957C36.4037 76.6698 37.0982 74.5593 37.7694 72.5192C38.5331 70.1982 39.2667 67.9684 37.4189 66.3528C34.6412 63.9242 27.3569 69.0994 24.062 71.9906V33.2158C24.062 22.7224 32.5686 14.2158 43.062 14.2158H142.449ZM142.449 14.2158C145.343 15.2596 151.477 18.3881 152.866 22.5514C154.602 27.7555 155.036 36.8627 148.959 43.3679C142.972 49.7779 140.356 40.1868 137.79 30.7766C137.751 30.6368 137.713 30.4972 137.675 30.3576C135.592 22.7249 139.99 16.4161 142.449 14.2158ZM97.7463 68.0875C94.3789 65.8443 89.6943 65.026 87.409 68.3649C84.0181 73.3194 81.0064 78.4957 82.9899 78.4957H95.1422C96.8783 75.6045 99.8295 69.4752 97.7463 68.0875Z" fill="#FDC580"/>
<path d="M142.449 14.2158C139.99 16.4161 135.592 22.7249 137.675 30.3576L137.79 30.7766C140.356 40.1868 142.972 49.7779 148.959 43.3679C155.036 36.8627 154.602 27.7555 152.866 22.5514C151.477 18.3881 145.343 15.2596 142.449 14.2158Z" fill="#70AB68"/>
</g>
<defs>
<filter id="filter0_d_119_1391" x="0" y="0" width="179" height="171.063" filterUnits="userSpaceOnUse" color-interpolation-filters="sRGB">
<feFlood flood-opacity="0" result="BackgroundImageFix"/>
<feColorMatrix in="SourceAlpha" type="matrix" values="0 0 0 0 0 0 0 0 0 0 0 0 0 0 0 0 0 0 127 0" result="hardAlpha"/>
<feOffset dy="4"/>
<feGaussianBlur stdDeviation="2"/>
<feComposite in2="hardAlpha" operator="out"/>
<feColorMatrix type="matrix" values="0 0 0 0 0 0 0 0 0 0 0 0 0 0 0 0 0 0 0.25 0"/>
<feBlend mode="normal" in2="BackgroundImageFix" result="effect1_dropShadow_119_1391"/>
<feBlend mode="normal" in="SourceGraphic" in2="effect1_dropShadow_119_1391" result="shape"/>
</filter>
</defs>
</svg>
