<svg width="354" height="300" viewBox="0 0 354 300" fill="none" xmlns="http://www.w3.org/2000/svg">
<g filter="url(#filter0_d_119_1383)">
<path d="M334.16 142.497C316.896 159.049 268.292 184.789 253.452 186.607C240.334 188.214 219.734 182.881 213.787 181.342C213.006 181.14 212.478 181.003 212.252 180.956C211.609 180.822 207.565 182.716 202.413 185.13C191.976 190.02 176.99 197.041 176.505 193.649C176.791 199.608 177.804 211.716 179.574 212.479C181.787 213.432 212.516 206.574 215.339 205.197C218.162 203.82 240.422 201.093 247.937 202.17C255.452 203.248 279.658 200.927 284.427 199.956C289.195 198.985 341.672 168.646 344.038 162.749C345.931 158.031 340.762 142.439 337.941 135.233C338.362 137.092 337.315 139.473 334.16 142.497Z" fill="#0D0C08"/>
<path d="M135.987 76.5464C149.252 113.891 175.926 189.595 176.505 193.649C176.99 197.041 191.976 190.02 202.413 185.13C207.565 182.716 211.609 180.822 212.252 180.956C212.478 181.003 213.006 181.14 213.787 181.342C219.734 182.881 240.334 188.214 253.452 186.607C268.292 184.789 316.896 159.049 334.16 142.497C311.874 148.983 273.573 159.685 246.882 165.974C233.255 169.185 222.654 171.245 218.758 171.007C207.23 170.302 158.774 107.739 135.987 76.5464Z" fill="#5A1C10"/>
<path d="M198.326 35.9759L227.218 79.4756C225.255 74.1327 223.219 68.6655 221.215 63.4325L198.326 35.9759Z" fill="#5A1C10"/>
<path fill-rule="evenodd" clip-rule="evenodd" d="M135.987 76.5464C158.774 107.739 207.23 170.302 218.758 171.007C222.654 171.245 233.255 169.185 246.882 165.974C273.573 159.685 311.874 148.983 334.16 142.497C337.315 139.473 338.362 137.092 337.941 135.233C336.057 126.917 304.796 129.04 301.335 130.729C297.1 132.794 270.415 133.614 265.723 131.16C261.031 128.706 242.435 117.449 240.662 115.604C240.123 115.044 237.178 106.907 233.2 95.9155C231.379 90.883 229.341 85.252 227.218 79.4756L198.326 35.9759L221.215 63.4325C214.535 45.9938 208.208 31.1561 206.09 32.189L198.326 35.9759L175.035 47.3365C173.762 47.9578 166.674 53.0705 158.833 58.8988C149.296 65.9871 138.646 74.1339 135.987 76.5464ZM158.833 58.8988C162.456 80.6565 214.803 130.657 240.523 152.937L234.935 146.855L233.963 146.652L158.833 58.8988Z" fill="#7C3F2F"/>
<path d="M233.963 146.652L158.833 58.8988C162.456 80.6565 214.803 130.657 240.523 152.937L234.935 146.855L233.963 146.652Z" fill="#5A1C10"/>
<path d="M202.847 195.708L177.534 210.087L200.978 191.876C220.097 192.263 258.952 192.869 261.424 192.205C263.896 191.541 304.992 175.245 325.231 167.181C314.834 176.317 260.203 196.866 257.285 196.257C254.95 195.77 220.02 195.688 202.847 195.708Z" fill="#363636"/>
<path d="M193.624 64.7361L208.999 47.0315C210.448 47.7597 205.282 55.1191 198.766 63.3997L217.226 58.6024L218.828 61.8864C212.615 63.2982 204.081 65.2126 195.893 67.0041C187.622 77.2614 178.471 87.6693 177.933 87.9317C177.098 88.3388 176.517 85.912 176.331 84.6477L190.667 68.1408C179.31 70.5942 169.855 72.5164 170.191 72.059L169.657 70.9643L193.624 64.7361Z" fill="#D6D6D6"/>
<path d="M206.541 84.183L219.413 67.6992C220.749 68.483 216.495 75.3973 211.079 83.1411L227.371 79.4014L228.973 82.6854C223.479 83.7463 215.932 85.1793 208.689 86.5102C201.802 96.0925 194.133 105.777 193.665 106.006C192.938 106.36 192.294 103.964 192.063 102.722L204.065 87.353C194.017 89.168 185.645 90.5619 185.923 90.1329L185.389 89.0383L206.541 84.183Z" fill="#D6D6D6"/>
<path d="M218.13 102.666L229.76 88.3997C230.921 89.0421 227.051 95.0053 222.143 101.696L236.547 98.2126L237.896 100.978C233.042 101.982 226.375 103.341 219.977 104.607C213.741 112.89 206.815 121.274 206.398 121.477C205.752 121.792 205.23 119.764 205.049 118.711L215.893 105.41C207.018 107.14 199.626 108.481 199.878 108.11L199.429 107.188L218.13 102.666Z" fill="#D6D6D6"/>
<path d="M230.215 118.453L242.471 103.882C243.66 104.51 239.562 110.585 234.378 117.409L249.325 113.662L250.674 116.427C245.64 117.519 238.726 118.998 232.092 120.38C225.51 128.831 218.213 137.396 217.779 137.607C217.106 137.936 216.599 135.9 216.43 134.842L227.857 121.256C218.655 123.145 210.992 124.618 211.259 124.241L210.81 123.319L230.215 118.453Z" fill="#D6D6D6"/>
<path d="M251.474 118.461C240.785 125.256 218.938 139.21 217.064 140.666L218.665 143.95L254.108 119.887L251.474 118.461Z" fill="#D6D6D6"/>
</g>
<defs>
<filter id="filter0_d_119_1383" x="131.987" y="32.1381" width="216.458" height="188.432" filterUnits="userSpaceOnUse" color-interpolation-filters="sRGB">
<feFlood flood-opacity="0" result="BackgroundImageFix"/>
<feColorMatrix in="SourceAlpha" type="matrix" values="0 0 0 0 0 0 0 0 0 0 0 0 0 0 0 0 0 0 127 0" result="hardAlpha"/>
<feOffset dy="4"/>
<feGaussianBlur stdDeviation="2"/>
<feComposite in2="hardAlpha" operator="out"/>
<feColorMatrix type="matrix" values="0 0 0 0 0 0 0 0 0 0 0 0 0 0 0 0 0 0 0.25 0"/>
<feBlend mode="normal" in2="BackgroundImageFix" result="effect1_dropShadow_119_1383"/>
<feBlend mode="normal" in="SourceGraphic" in2="effect1_dropShadow_119_1383" result="shape"/>
</filter>
</defs>
</svg>
