<svg width="402" height="874" viewBox="0 0 402 874" fill="none" xmlns="http://www.w3.org/2000/svg">
<g clip-path="url(#clip0_119_974)">
<rect width="402" height="874" fill="white"/>
<rect x="2" y="576" width="435" height="317" fill="#DAEE6F"/>
<path d="M75.7611 959.425C47.0503 966.592 -24.7092 1000.97 -57 1017.26C-37.5192 1015.76 250.018 1004.15 391.352 998.529L372.775 962.541C368.509 955.365 356.401 941.283 342.103 942.361C324.23 943.709 153.572 941.206 134.023 951.297C114.473 961.387 111.65 950.466 75.7611 959.425Z" fill="#165216"/>
<path d="M141.167 671.896C125.734 682.113 106.548 663.694 98.885 653.208C131.78 609.67 201.546 550.139 232.318 525.816L256.096 548.991C224.217 585.702 156.6 661.679 141.167 671.896Z" fill="#C3DB88"/>
<path d="M-36 -27H421V640.67C421 640.67 318.136 685.605 251.5 679.414C188.152 673.529 154.858 635.161 91.5 640.67C39.3103 645.207 -36 679.414 -36 679.414V-27Z" fill="#E3F4FF"/>
<path d="M121.5 623.021C98.3 621.68 24.1667 645.924 -10 658.214L-34 680L394 669.945L412 599C382.833 607.007 313.6 623.021 270 623.021H174.5C166.5 623.579 144.7 624.361 121.5 623.021Z" fill="#A9E4F6"/>
<path d="M201.5 597.283C224.7 595.76 298.833 623.297 333 637.255L357 662L-71 650.579L-89 570C-59.8333 579.094 9.39999 597.283 53 597.283H148.5C156.5 597.917 178.3 598.806 201.5 597.283Z" fill="#9DD3E7"/>
<path d="M389.5 702.53C345.5 690.03 -12 681.03 -24 679.53C-24 666.53 -23.5 640.63 -21.5 641.03C-19 641.53 -16.5 642.53 -13.5 643.53C-10.5 644.53 -6.5 649.03 -5 653.03C-3.5 657.03 -4 655.53 -2.5 657.53C-1.3 659.13 5.33333 659.53 8.5 659.53C12.3333 655.197 20.1 646.33 20.5 645.53C21 644.53 25.5 639.53 28.5 638.03C31.5 636.53 31 638.53 33.5 639.53C36 640.53 35 647.03 45 651.53C55 656.03 57.5 665.03 58.5 665.03C59.5 665.03 66 668.03 66.5 667.53C67 667.03 67.5 661.03 71 661.03C74.5 661.03 73.5 669.03 74.5 669.53C75.5 670.03 77 669.53 79.5 669.03C82 668.53 82 665.03 86 663.03C90 661.03 96 669.53 97 669.53C98 669.53 97.5 669.03 102.5 669.03C106.5 669.03 109.833 672.03 111 673.53C112 673.197 114 672.33 114 671.53C114 670.53 117.5 667.53 121 663.03C124.5 658.53 121.5 661.53 130.5 660.03C139.5 658.53 133 659.03 136.5 660.03C140 661.03 140.5 664.03 143 665.03C145.5 666.03 146 670.03 148.5 667.53C151 665.03 164.5 657.03 166.5 657.03C168.5 657.03 172 662.03 173 664.03C174 666.03 174 669.03 183 671.53C189 673.53 189.5 670.53 189 667.53C188.5 664.53 194.5 666.53 197.5 665.03C200.5 663.53 199 662.03 199.5 661.53C200 661.03 203 655.03 204 654.53C205 654.03 210.5 654.03 215 654.53C219.5 655.03 221.5 657.03 222 658.03C222.5 659.03 220.5 662.53 224 665.03C227 665.03 228.5 668.03 229 668.53C229.5 669.03 227.5 673.53 228.5 675.03C229.3 676.23 234.5 674.53 237 673.53C237.833 673.53 240.2 673.83 243 675.03C246.5 676.53 252.5 688.03 252.5 686.53C252.5 685.03 256.5 680.53 257.5 680.53C258.3 680.53 260.833 675.53 262 673.03C262.167 671.697 262.7 668.53 263.5 666.53L263.564 666.371C264.524 663.966 265.118 662.477 270.5 660.03C276 657.53 273 660.03 273.5 660.03C274 660.03 281 658.03 283 658.03C285 658.03 289.5 664.53 291.5 666.53C293.5 668.53 295.5 667.53 297.5 668.03C299.5 668.53 299.5 662.53 301 661.03C302.5 659.53 309.5 662.53 310.5 662.53H318C319.5 662.53 322 667.53 323 669.03C324 670.53 326.5 672.53 329 673.53C331.5 674.53 330 674.53 332 673.53C334 672.53 332.5 671.53 332 669.03C331.5 666.53 328.5 665.03 328.5 662.53C328.5 660.03 332 663.53 334 664.03C336 664.53 334.5 661.53 335 660.03C335.5 658.53 336 658.03 337 657.03C338 656.03 342.5 658.53 344 658.03C345.2 657.63 346.5 654.864 347 653.53C347.667 652.53 348.7 649.93 347.5 647.53C346 644.53 346.5 643.53 347 641.03C347.5 638.53 348 640.03 352.5 635.03C357 630.03 354.5 635.53 356 638.03C357.5 640.53 357.5 641.03 359 641.03C360.5 641.03 361 640.03 363 640.03C365 640.03 366 635.53 368.5 635.53H373.5C375.5 635.53 374.5 641.03 374.5 643.53C374.5 645.53 375.833 644.364 376.5 643.53C378 643.864 381 645.03 381 647.03C381 649.03 382.333 650.864 383 651.53L399.5 658.53C410.833 677.364 424.7 712.53 389.5 702.53Z" fill="#5F9B34"/>
<path d="M13 672.511C11.5 671.511 -2.5 666.011 -4 665.511V677.511C23.5 678.677 77.6 680.611 74 679.011C69.5 677.011 70 677.011 66 674.511C62 672.011 65.5 669.011 62.5 664.511C59.5 660.011 54 660.511 50.5 659.011C47 657.511 42.5 651.511 39 651.011C35.5 650.511 33 667.511 33.5 669.011C34 670.511 27.5 671.511 25 672.511C22.5 673.511 14.5 673.511 13 672.511Z" fill="#257348"/>
<path d="M87.5 671.011C83.5 669.511 89 677.011 89 679.011C93 679.011 105.5 681.511 105.5 679.011C105.5 676.511 106.5 677.511 105.5 676.511C104.5 675.511 98 671.011 96 671.011C94 671.011 91.5 672.511 87.5 671.011Z" fill="#257348"/>
<path d="M129 674.511C125 667.511 139 662.511 142 662.011L138.5 669.011C138.667 669.677 140.5 671.711 146.5 674.511C148.5 674.511 149.667 677.511 150 679.011C150.833 679.511 153.1 681.111 155.5 683.511C156.433 684.444 157.548 685.055 158.65 685.443C160.239 685.652 161.714 685.844 163 686.011C162.083 686.113 160.382 686.053 158.65 685.443C149.12 684.19 135.529 682.354 134.5 682.011C133 681.511 133 681.511 129 674.511Z" fill="#257348"/>
<path d="M171 671.511C171.8 671.511 172 669.177 172 668.011C173.5 669.177 176.7 672.111 177.5 674.511C178.5 677.511 179.5 676.511 179.5 677.511C179.5 678.511 181.5 680.011 184.5 682.011C187.5 684.011 188 682.011 190.5 682.011C192.5 682.011 196 684.677 197.5 686.011L163 684.511C163.833 683.677 165.5 681.811 165.5 681.011V674.511C165.5 673.511 170 671.511 171 671.511Z" fill="#257348"/>
<path d="M217.5 662.011C218.7 661.611 220 661.844 220.5 662.011L219 664.511H225C227 664.511 224.5 672.511 224 673.011C223.5 673.511 220.5 677.511 221 678.011C221.5 678.511 223 679.011 227.5 682.011C232 685.011 230 682.511 234.5 682.011C239 681.511 242.5 682.011 245.5 682.511C247.9 682.911 250.833 688.677 252 691.511C240.5 690.511 216.4 688.311 212 687.511C206.5 686.511 207 682.511 207.5 682.011C208 681.511 208.5 674.511 207.5 671.511C206.5 668.511 207.5 669.511 208.5 669.511C209.5 669.511 210 666.011 210.5 665.011C211 664.011 212 664.511 214 664.511C216 664.511 216 662.511 217.5 662.011Z" fill="#257348"/>
<path d="M279 673.011C278.6 673.011 280.167 670.344 281 669.011L283.5 671.511C284.667 672.511 287 675.111 287 677.511C287 680.511 289 679.511 290.5 679.511C292 679.511 298.5 682.011 301.5 682.011C304.5 682.011 306 682.511 306 684.511C306 686.511 309.5 686.011 312.5 687.511C315.5 689.011 314.5 689.011 318 690.011C320.8 690.811 318.5 692.344 317 693.011C317.5 693.511 318.7 694.811 319.5 696.011C320.3 697.211 286.833 694.511 270 693.011V687.511C270 685.511 271.5 684.511 274.5 682.511C277.5 680.511 276.5 682.511 277.5 682.011C278.5 681.511 280 679.511 281 678.011C282 676.511 279.5 673.011 279 673.011Z" fill="#257348"/>
<path d="M352 658.511C355.5 659.011 363 654.011 364 652.511L367.5 660.011L370.5 662.011C370 662.844 368.9 665.011 368.5 667.011C368 669.511 373.5 671.511 375 674.511C376.5 677.511 383 679.511 389.5 686.011C396 692.511 383.5 690.011 381 690.011C378.5 690.011 374.5 687.511 356.5 679.511C338.5 671.511 352 675.511 350.5 673.011C349 670.511 344.5 665.511 344 660.011C343.5 654.511 346 658.511 346.5 658.511C347 658.511 348.5 658.011 352 658.511Z" fill="#257348"/>
<path d="M328 697.511C325.2 696.311 334.833 688.344 340 684.511C342.167 683.677 346.8 682.111 348 682.511C349.5 683.011 350.5 684.511 350.5 687.511C350.5 690.511 354 687.511 359.5 689.011C363.9 690.211 367.333 695.177 368.5 697.511C356.167 698.011 330.8 698.711 328 697.511Z" fill="#257348"/>
<path d="M83.8343 956C85.501 978.833 111.934 1022.2 204.334 1013C172.668 1021.33 105.734 1033 91.3343 1013C88.8343 996.833 83.8343 962.8 83.8343 956C78.8343 954.5 70.6343 950.3 77.8343 945.5C83.8343 948 157.334 961 180.834 958.5C199.634 956.5 219.001 947.667 226.334 943.5C226.668 944.333 226.334 947 222.334 951C217.334 956 165.334 980 83.8343 956Z" fill="#7F473A"/>
<path d="M133.711 873.507C121.71 880.066 110.198 922.489 105.834 943.5C103.128 899.431 122.62 878.898 133.711 873.507C134.085 873.303 134.46 873.133 134.834 873C134.471 873.151 134.096 873.32 133.711 873.507Z" fill="#7F473A"/>
<path d="M173.334 927.5C165.835 902 157.334 887 156.334 886C157.534 883.6 161.501 889 163.334 892C173.834 906.5 180.834 953 173.334 927.5Z" fill="#7F473A"/>
<g filter="url(#filter0_d_119_974)">
<path d="M400 155C258.5 48 66.1119 90.7857 -3.96998 155L-14 0H413L400 155Z" fill="#E3F4FF"/>
</g>
</g>
<defs>
<filter id="filter0_d_119_974" x="-32" y="-20" width="463" height="191" filterUnits="userSpaceOnUse" color-interpolation-filters="sRGB">
<feFlood flood-opacity="0" result="BackgroundImageFix"/>
<feColorMatrix in="SourceAlpha" type="matrix" values="0 0 0 0 0 0 0 0 0 0 0 0 0 0 0 0 0 0 127 0" result="hardAlpha"/>
<feOffset dy="-2"/>
<feGaussianBlur stdDeviation="9"/>
<feComposite in2="hardAlpha" operator="out"/>
<feColorMatrix type="matrix" values="0 0 0 0 0.101331 0 0 0 0 0.379993 0 0 0 0 0.658654 0 0 0 0.38 0"/>
<feBlend mode="normal" in2="BackgroundImageFix" result="effect1_dropShadow_119_974"/>
<feBlend mode="normal" in="SourceGraphic" in2="effect1_dropShadow_119_974" result="shape"/>
</filter>
<clipPath id="clip0_119_974">
<rect width="402" height="874" fill="white"/>
</clipPath>
</defs>
</svg>
