<svg width="176" height="156" viewBox="0 0 176 156" fill="none" xmlns="http://www.w3.org/2000/svg">
<g filter="url(#filter0_d_119_1402)">
<path d="M76.3371 67.831L103.451 68.1253C103.451 68.1253 106.029 70.8142 108.395 68.219C110.774 65.6237 124.225 52.0854 126.006 50.2928C127.787 48.5001 130.365 45.6105 132.731 45.6105C135.097 45.6105 144.999 53.4767 149.558 57.0619C152.801 59.6171 161.041 66.8277 163.208 67.4163C165.387 68.0183 170.73 69.0082 170.73 71.4029C170.73 73.7975 163.208 72.9948 161.028 72.7942C158.848 72.5935 146.182 64.0317 144.201 62.8277C142.221 61.6371 136.081 56.9549 134.898 56.9549C133.715 56.9549 116.689 73.7841 116.689 73.7841C116.689 73.7841 127.375 69.9982 130.339 68.8076C133.303 67.617 136.479 66.2123 138.061 66.413C139.643 66.6136 150.727 78.9613 152.508 80.5533C154.289 82.1452 160.031 87.7237 161.613 88.7271C163.194 89.717 173.096 93.9043 171.9 96.4996C170.704 99.0948 158.542 95.1885 156.522 94.1718C154.143 92.9812 147.817 88.5933 143.989 84.3392C142.952 83.1887 137.649 77.57 135.868 77.1687C134.087 76.7674 115.081 84.2455 115.081 84.2455C115.081 84.2455 128.545 83.3492 130.711 84.5398C132.891 85.7304 139.217 99.7236 140.413 102.573C141.995 106.359 146.939 118.412 148.534 120.406C150.116 122.399 156.057 127.576 154.276 129.971C152.495 132.365 144.879 126.479 143.484 124.486C142.101 122.493 137.317 116.82 130.777 104.272C128.664 100.205 125.966 94.7069 124.77 93.9176C123.587 93.115 111.904 95.1083 111.904 95.1083C111.904 95.1083 110.721 104.473 111.107 107.456C111.505 110.439 116.848 134.947 117.832 139.924C118.815 144.9 118.815 147.295 117.034 147.897C115.253 148.499 113.074 146.506 110.695 140.927C109.512 138.145 102.454 118.011 101.497 115.335C99.7161 110.359 100.208 101.891 100.208 101.891L60.9195 95.3223C60.9195 95.3223 55.8689 95.523 55.0847 96.9143C54.2872 98.3055 50.6322 115.041 49.6353 118.426C48.6518 121.81 41.4215 135.161 40.624 136.151C39.8265 137.141 37.9126 140.084 35.6797 137.543C34.0981 135.75 37.2614 131.161 38.2582 127.389C38.2582 127.389 40.8367 121.409 41.2221 117.623C41.6208 113.837 44.3056 91.6167 45.3822 90.1317C46.9638 87.9378 52.5062 85.7438 52.5062 85.7438C52.5062 85.7438 48.4524 84.1519 45.9803 83.2556C44.2126 82.6134 40.8367 81.463 40.4379 81.5566C39.4012 81.8108 33.1145 92.1116 30.5361 95.6969C27.9576 99.2821 18.8532 109.436 17.6703 110.239C16.4874 111.041 13.5102 112.432 12.3273 110.038C11.1444 107.643 14.3077 105.851 16.0887 103.469C17.8697 101.075 24.7943 90.5197 26.9741 86.7338C29.1538 82.9479 35.281 70.6002 37.2614 69.7975C39.2417 68.9949 51.9081 74.9747 51.9081 74.9747C51.9081 74.9747 44.7841 69.0618 41.8202 66.6805C38.8563 64.2859 36.5038 60.6739 34.962 61.2358C33.4202 61.7976 26.1899 68.9012 23.0266 71.4965C19.8633 74.0918 12.1678 79.162 9.7621 80.1653C6.89123 81.3559 4.41909 80.5666 4.02036 78.9747C3.62162 77.3827 9.16401 73.5968 13.3241 70.0116C17.4842 66.4263 22.7608 59.9381 25.5918 57.1689C29.1538 53.6773 32.5164 50.0787 34.2974 48.7677C37.7265 46.2393 57.6499 66.0384 57.6499 66.0384C57.6499 66.0384 47.1632 51.2961 44.9835 48.3128C42.8037 45.3296 41.0227 41.7444 40.4379 40.3397C39.8398 38.9484 39.255 36.1525 41.4215 34.5605C43.6012 32.9686 46.5651 32.9686 49.7284 37.3431C52.2936 40.8882 71.8979 67.617 71.8979 67.617L76.3371 67.831Z" fill="#868686"/>
<path d="M105.365 70.1582C105.365 70.1582 125.288 53.5564 125.022 32.0449C124.757 10.5335 108.874 0.740944 96.7922 0.0453004C83.0758 -0.757366 62.7538 9.07529 61.8234 32.0449C60.9063 55.0145 70.7949 67.2418 70.7949 67.2418C70.7949 67.2418 59.9759 69.5027 57.7297 82.9072C56.4006 90.8669 60.069 106.934 78.5834 109.863C102.069 113.582 111.532 95.9505 110.774 83.6965C110.243 75.2016 105.365 70.1582 105.365 70.1582Z" fill="#616569"/>
<path d="M85.1359 59.8574C90.0669 59.9778 93.9612 60.7002 97.0048 62.145C104.288 65.5964 106.628 71.5228 105.883 71.2151C104.235 70.5195 97.8953 64.0714 83.6473 63.9376C75.9783 63.8707 70.9809 67.5228 69.9973 67.4292C69.16 67.3489 76.4302 59.6567 85.1359 59.8574Z" fill="#4E4D50"/>
<path d="M90.8509 48.6211C90.7712 48.6211 90.7047 48.6211 90.625 48.6077C89.6281 48.4873 88.9104 47.5642 89.0433 46.5609L89.7079 41.2499C89.8275 40.2466 90.7446 39.5376 91.7414 39.658C92.7383 39.7784 93.456 40.7014 93.3231 41.7048L92.6585 47.0157C92.5389 47.9388 91.7547 48.6211 90.8509 48.6211ZM104.607 52.5006C104.377 52.4818 104.152 52.4229 103.943 52.3267C103.506 52.1132 103.172 51.7342 103.012 51.2728C102.853 50.8115 102.881 50.3053 103.092 49.8652L105.764 44.3402C106.202 43.4305 107.305 43.0425 108.209 43.484C109.113 43.9255 109.498 45.0224 109.06 45.9455L106.388 51.4705C106.056 52.1796 105.338 52.5675 104.607 52.5006ZM76.5896 48.8886C75.7124 48.8886 74.9415 48.2599 74.7953 47.3636L73.8782 41.9188C73.7971 41.4383 73.9081 40.945 74.187 40.5465C74.4658 40.148 74.89 39.8767 75.3668 39.7917C76.3636 39.6178 77.3073 40.2867 77.4801 41.2901L78.3972 46.7348C78.4416 46.9994 78.4282 47.2707 78.3578 47.5296C78.2875 47.7884 78.1619 48.0288 77.9898 48.2338C77.8178 48.4388 77.6033 48.6037 77.3615 48.7167C77.1197 48.8298 76.8562 48.8885 76.5896 48.8886ZM84.3782 29.7584C83.3946 29.7584 82.5839 28.9691 82.5573 27.9658L82.4244 22.7886C82.3978 21.7719 83.1953 20.9291 84.2054 20.9023C85.2421 20.9157 86.0528 21.6783 86.0794 22.695L86.2123 27.8722C86.2389 28.8889 85.4414 29.7317 84.4313 29.7584H84.3782ZM101.936 31.8855C101.658 31.8861 101.383 31.8226 101.134 31.7C100.884 31.5773 100.665 31.3988 100.495 31.1779C100.324 30.9571 100.206 30.6999 100.149 30.426C100.093 30.1522 100.099 29.8689 100.168 29.5979L101.617 23.8856C101.869 22.8956 102.853 22.307 103.836 22.5612C104.82 22.8154 105.405 23.8187 105.152 24.7953L103.703 30.5076C103.491 31.337 102.746 31.8855 101.936 31.8855Z" fill="#888A8A"/>
<path d="M78.9948 84.6354C79.3436 81.3515 77.4193 78.4519 74.6968 78.159C71.9743 77.866 69.4846 80.2907 69.1358 83.5745C68.787 86.8584 70.7113 89.758 73.4338 90.0509C76.1562 90.3439 78.646 87.9192 78.9948 84.6354Z" fill="#050402"/>
<path d="M91.0903 92.2048C93.8283 92.2048 96.0478 89.5276 96.0478 86.225C96.0478 82.9224 93.8283 80.2451 91.0903 80.2451C88.3523 80.2451 86.1327 82.9224 86.1327 86.225C86.1327 89.5276 88.3523 92.2048 91.0903 92.2048Z" fill="#050402"/>
<path d="M101.318 88.1658C103.144 87.9782 104.419 85.8062 104.166 83.3145C103.913 80.8228 102.228 78.955 100.403 79.1426C98.5771 79.3303 97.3021 81.5023 97.5549 83.994C97.8077 86.4857 99.4926 88.3535 101.318 88.1658Z" fill="#050402"/>
<path d="M68.3862 79.7783C68.8826 77.324 67.8273 75.0356 66.0291 74.6671C64.2309 74.2986 62.3707 75.9895 61.8742 78.4438C61.3778 80.8981 62.4331 83.1864 64.2313 83.5549C66.0295 83.9234 67.8897 82.2326 68.3862 79.7783Z" fill="#050402"/>
</g>
<defs>
<filter id="filter0_d_119_1402" x="0" y="0" width="176" height="156" filterUnits="userSpaceOnUse" color-interpolation-filters="sRGB">
<feFlood flood-opacity="0" result="BackgroundImageFix"/>
<feColorMatrix in="SourceAlpha" type="matrix" values="0 0 0 0 0 0 0 0 0 0 0 0 0 0 0 0 0 0 127 0" result="hardAlpha"/>
<feOffset dy="4"/>
<feGaussianBlur stdDeviation="2"/>
<feComposite in2="hardAlpha" operator="out"/>
<feColorMatrix type="matrix" values="0 0 0 0 0 0 0 0 0 0 0 0 0 0 0 0 0 0 0.25 0"/>
<feBlend mode="normal" in2="BackgroundImageFix" result="effect1_dropShadow_119_1402"/>
<feBlend mode="normal" in="SourceGraphic" in2="effect1_dropShadow_119_1402" result="shape"/>
</filter>
</defs>
</svg>
