<svg width="213" height="166" viewBox="0 0 213 166" fill="none" xmlns="http://www.w3.org/2000/svg">
<g filter="url(#filter0_d_280_10)">
<path d="M38.758 125.948L31.666 129.216L32.0677 135.025L10.5563 152.531L12.379 156.486L34.9985 139.269C36.0917 140.23 38.5461 142.029 39.6185 141.535C40.6909 141.041 43.73 138.042 45.1155 136.604C43.3062 134.178 41.0071 130.187 38.758 125.948Z" fill="#F4F1F1"/>
<path d="M46.5453 128.353C43.2285 122.849 35.3578 115.128 31.8371 111.955C33.4617 115.48 36.0743 120.89 38.758 125.948C41.0071 130.187 43.3062 134.178 45.1155 136.604C45.6551 137.328 46.1511 137.912 46.5892 138.323C50.2493 141.751 53.9582 145.849 55.3552 147.469C53.8006 143.391 49.8621 133.857 46.5453 128.353Z" fill="#F4F1F1"/>
<path d="M120.878 26.565C128.249 34.8614 141.443 50.2904 150.68 62.6532C154.7 68.0337 157.97 72.8333 159.685 76.2115L162.098 75.0995C161.631 73.9094 158.864 70.0402 154.908 64.8269C152.584 61.7641 149.85 58.2374 146.931 54.5175C145.874 53.1704 144.792 51.798 143.698 50.4131C140.934 46.917 138.085 43.3415 135.321 39.8932C130.96 34.4503 126.813 29.3246 123.559 25.3294L120.878 26.565Z" fill="#F4F1F1"/>
<path d="M177.097 25.8301L170.511 16.4777L167.278 18.6295L135.321 39.8932C138.085 43.3415 140.934 46.917 143.698 50.4131L177.097 25.8301Z" fill="#F4F1F1"/>
<path d="M171.173 12.9761C177.507 12.6143 183.481 18.7588 185.676 21.8762C188.826 27.2354 189.992 31.2647 190.011 34.2418C190.029 37.1019 188.989 38.991 187.633 40.155L192.967 37.6966C194.469 37.0047 191.151 27.8779 189.304 23.4009C185.963 16.15 176.267 10.6285 173.563 11.1095C171.4 11.4943 168.551 13.1644 167.397 13.9513C168.161 13.4435 169.364 13.0794 171.173 12.9761Z" fill="#F4F1F1"/>
<path fill-rule="evenodd" clip-rule="evenodd" d="M46.5453 128.353C43.2285 122.849 35.3578 115.128 31.8371 111.955L120.431 46.7554L127.713 41.3966C132.002 43.4157 140.752 48.8135 141.438 54.2515C125.016 75.1578 90.3602 116.877 66.4083 138.468L55.3552 147.469C53.8006 143.391 49.8621 133.857 46.5453 128.353Z" fill="#F2C43D"/>
<path d="M149.185 71.0607C150.115 67.4355 144.408 58.3441 141.438 54.2515C125.016 75.1578 90.3602 116.877 66.4083 138.468L141.858 77.0271L149.185 71.0607Z" fill="#CE883E"/>
<path fill-rule="evenodd" clip-rule="evenodd" d="M141.438 54.2515C140.752 48.8135 132.002 43.4157 127.713 41.3966L120.431 46.7554C118.575 45.0785 114.918 41.1396 115.139 38.7997C115.361 36.4598 119.057 29.6683 120.878 26.565C128.249 34.8614 141.443 50.2904 150.68 62.6532C153.056 67.461 156.67 79.1196 152.115 87.2925C149.97 88.2809 144.383 80.8607 141.858 77.0271L149.185 71.0607C150.115 67.4355 144.408 58.3441 141.438 54.2515Z" fill="#F4F1F1"/>
<path d="M152.115 87.2925C154.26 86.304 158.055 79.4933 159.685 76.2115C157.97 72.8333 154.7 68.0337 150.68 62.6532C153.056 67.461 156.67 79.1196 152.115 87.2925Z" fill="#DFDBDB"/>
<path fill-rule="evenodd" clip-rule="evenodd" d="M179.007 29.9746C174.168 38.96 164.167 56.0901 157.813 62.5427L184.388 41.6505C183.155 37.3295 180.353 28.9449 179.007 29.9746Z" fill="#F4F1F1"/>
<path d="M146.931 54.5175C149.85 58.2374 152.584 61.7641 154.908 64.8269L157.813 62.5427C164.167 56.0901 174.168 38.96 179.007 29.9746L146.931 54.5175Z" fill="#DFDBDB"/>
<path fill-rule="evenodd" clip-rule="evenodd" d="M177.097 25.8301L170.511 16.4777C173.099 14.7562 180.448 19.9361 183.8 22.7412L177.097 25.8301ZM185.015 25.3779L179.007 29.9746C180.353 28.9449 183.155 37.3295 184.388 41.6505C188.205 38.6492 186.396 29.5515 185.015 25.3779ZM187.633 40.155C188.989 38.991 190.029 37.1019 190.011 34.2418C189.631 36.2911 188.896 38.3385 187.633 40.155Z" fill="#F4F1F1"/>
<path d="M183.8 22.7412L185.015 25.3779C186.396 29.5515 188.205 38.6492 184.388 41.6505L187.633 40.155C188.896 38.3385 189.631 36.2911 190.011 34.2418C189.992 31.2647 188.826 27.2354 185.676 21.8762C183.481 18.7588 177.507 12.6143 171.173 12.9761C169.364 13.0794 168.161 13.4435 167.397 13.9513C165.486 15.2215 166.32 17.391 167.278 18.6295L170.511 16.4777C173.099 14.7562 180.448 19.9361 183.8 22.7412Z" fill="#DFDBDB"/>
<path fill-rule="evenodd" clip-rule="evenodd" d="M143.698 50.4131L177.097 25.8301L183.8 22.7412L146.931 54.5175C145.874 53.1704 144.792 51.798 143.698 50.4131Z" fill="#F4F1F1"/>
<path d="M185.015 25.3779L183.8 22.7412L146.931 54.5175L179.007 29.9746L185.015 25.3779Z" fill="#DFDBDB"/>
<path d="M108.113 70.8089L114.548 67.8435C113.037 65.7423 110.897 61.6142 114.414 61.9112C118.811 62.2825 120.294 64.7957 117.908 69.4918L119.123 72.1285C120.466 70.5769 123.42 67.9105 124.485 69.6574C125.816 71.8409 127.639 75.796 122.009 78.3907L118.006 74.6414L113.519 78.3073C116.667 82.3175 123.87 89.201 127.495 84.6533C131.12 80.1056 130.949 73.3383 130.41 70.5232C128.641 67.8607 124.494 62.9054 122.054 64.3839C120.994 61.143 118.046 55.1224 114.736 56.9676C110.598 59.2742 104.316 62.5692 108.113 70.8089Z" fill="black"/>
<path d="M85.0297 77.8508C89.6524 83.1795 99.375 95.2952 101.283 101.129L107.182 98.4105L102.169 87.534L102.634 85.7214L112.705 93.4676L119.72 88.2365L102.358 76.6582L102.662 65.3291L94.8873 68.9123L96.4593 79.3764L91.7323 74.7619L85.0297 77.8508Z" fill="#1C0505"/>
<path d="M108.113 70.8089L114.548 67.8435C113.037 65.7423 110.897 61.6142 114.414 61.9112C118.811 62.2825 120.294 64.7957 117.908 69.4918L119.123 72.1285C120.466 70.5769 123.42 67.9105 124.485 69.6574C125.816 71.8409 127.639 75.796 122.009 78.3907L118.006 74.6414L113.519 78.3073C116.667 82.3175 123.87 89.201 127.495 84.6533C131.12 80.1056 130.949 73.3383 130.41 70.5232C128.641 67.8607 124.494 62.9054 122.054 64.3839C120.994 61.143 118.046 55.1224 114.736 56.9676C110.598 59.2742 104.316 62.5692 108.113 70.8089Z" stroke="black"/>
<path d="M85.0297 77.8508C89.6524 83.1795 99.375 95.2952 101.283 101.129L107.182 98.4105L102.169 87.534L102.634 85.7214L112.705 93.4676L119.72 88.2365L102.358 76.6582L102.662 65.3291L94.8873 68.9123L96.4593 79.3764L91.7323 74.7619L85.0297 77.8508Z" stroke="black"/>
</g>
<defs>
<filter id="filter0_d_280_10" x="6.5564" y="11.0808" width="190.79" height="153.405" filterUnits="userSpaceOnUse" color-interpolation-filters="sRGB">
<feFlood flood-opacity="0" result="BackgroundImageFix"/>
<feColorMatrix in="SourceAlpha" type="matrix" values="0 0 0 0 0 0 0 0 0 0 0 0 0 0 0 0 0 0 127 0" result="hardAlpha"/>
<feOffset dy="4"/>
<feGaussianBlur stdDeviation="2"/>
<feComposite in2="hardAlpha" operator="out"/>
<feColorMatrix type="matrix" values="0 0 0 0 0 0 0 0 0 0 0 0 0 0 0 0 0 0 0.25 0"/>
<feBlend mode="normal" in2="BackgroundImageFix" result="effect1_dropShadow_280_10"/>
<feBlend mode="normal" in="SourceGraphic" in2="effect1_dropShadow_280_10" result="shape"/>
</filter>
</defs>
</svg>
