<svg width="212" height="197" viewBox="0 0 212 197" fill="none" xmlns="http://www.w3.org/2000/svg">
<g filter="url(#filter0_d_119_1369)">
<ellipse cx="35.3846" cy="87.5408" rx="31.3846" ry="31.5974" fill="white"/>
<ellipse cx="41.269" cy="49.2087" rx="25.5" ry="25.3815" fill="white"/>
<ellipse cx="81.4809" cy="79.7692" rx="46.0962" ry="48.6911" fill="white"/>
<ellipse cx="75.596" cy="37.2953" rx="34.3269" ry="37.2953" fill="white"/>
<ellipse cx="142.288" cy="55.9428" rx="49.0385" ry="37.2953" fill="white"/>
<path fill-rule="evenodd" clip-rule="evenodd" d="M74.125 112.921C74.125 121.475 84.0856 124.89 97.6735 125.959C170.947 118.432 193.891 80.6887 196.204 62.758C187.21 54.7808 173.862 49.7266 158.962 49.7266C131.878 49.7266 74.125 92.3238 74.125 112.921Z" fill="white"/>
<path d="M158.962 124.317C186.045 124.317 208 107.62 208 87.0219C208 77.7565 203.557 69.2803 196.204 62.758C193.891 80.6887 170.947 118.432 97.6735 125.959C116.804 127.463 143.126 124.317 158.962 124.317Z" fill="#CACACA"/>
<path fill-rule="evenodd" clip-rule="evenodd" d="M29.3771 128.461C29.3771 128.461 12.3266 142.965 12.3265 148.074C12.3264 153.51 14.0033 156.527 16.4898 157.828C28.1469 155.353 29.9385 137.219 29.3771 128.461Z" fill="#00A3FF"/>
<path d="M29.3771 155.079C35.2458 150.957 32.2188 136.4 29.3771 128.461C29.9385 137.219 28.1469 155.353 16.4898 157.828C19.988 159.658 25.0888 158.09 29.3771 155.079Z" fill="#73CCFF"/>
<path fill-rule="evenodd" clip-rule="evenodd" d="M52.9689 158.851C52.9689 158.851 35.9184 173.354 35.9183 178.464C35.9182 183.899 37.5951 186.917 40.0816 188.217C51.7387 185.743 53.5303 167.608 52.9689 158.851Z" fill="#00A3FF"/>
<path d="M52.9689 185.468C58.8376 181.347 55.8106 166.789 52.9689 158.851C53.5303 167.608 51.7387 185.743 40.0816 188.217C43.5798 190.048 48.6806 188.48 52.9689 185.468Z" fill="#73CCFF"/>
<path fill-rule="evenodd" clip-rule="evenodd" d="M86.275 139.512C86.275 139.512 69.2246 154.015 69.2245 159.125C69.2244 164.56 70.9012 167.578 73.3878 168.879C85.0449 166.404 86.8364 148.269 86.275 139.512Z" fill="#00A3FF"/>
<path d="M86.275 166.13C92.1437 162.008 89.1168 147.45 86.275 139.512C86.8364 148.269 85.0449 166.404 73.3878 168.879C76.886 170.709 81.9868 169.141 86.275 166.13Z" fill="#73CCFF"/>
<path fill-rule="evenodd" clip-rule="evenodd" d="M119.581 156.088C119.581 156.088 102.531 170.592 102.531 175.701C102.53 181.137 104.207 184.154 106.694 185.455C118.351 182.98 120.142 164.846 119.581 156.088Z" fill="#00A3FF"/>
<path d="M119.581 182.706C125.45 178.584 122.423 164.027 119.581 156.088C120.142 164.846 118.351 182.98 106.694 185.455C110.192 187.285 115.293 185.717 119.581 182.706Z" fill="#73CCFF"/>
<path fill-rule="evenodd" clip-rule="evenodd" d="M158.438 136.749C158.438 136.749 141.388 151.253 141.388 156.362C141.388 161.798 143.064 164.815 145.551 166.116C157.208 163.641 159 145.507 158.438 136.749Z" fill="#00A3FF"/>
<path d="M158.438 163.367C164.307 159.245 161.28 144.688 158.438 136.749C159 145.507 157.208 163.641 145.551 166.116C149.049 167.946 154.15 166.378 158.438 163.367Z" fill="#73CCFF"/>
</g>
<defs>
<filter id="filter0_d_119_1369" x="0" y="0" width="212" height="197" filterUnits="userSpaceOnUse" color-interpolation-filters="sRGB">
<feFlood flood-opacity="0" result="BackgroundImageFix"/>
<feColorMatrix in="SourceAlpha" type="matrix" values="0 0 0 0 0 0 0 0 0 0 0 0 0 0 0 0 0 0 127 0" result="hardAlpha"/>
<feOffset dy="4"/>
<feGaussianBlur stdDeviation="2"/>
<feComposite in2="hardAlpha" operator="out"/>
<feColorMatrix type="matrix" values="0 0 0 0 0 0 0 0 0 0 0 0 0 0 0 0 0 0 0.25 0"/>
<feBlend mode="normal" in2="BackgroundImageFix" result="effect1_dropShadow_119_1369"/>
<feBlend mode="normal" in="SourceGraphic" in2="effect1_dropShadow_119_1369" result="shape"/>
</filter>
</defs>
</svg>
