<svg width="58" height="53" viewBox="0 0 58 53" fill="none" xmlns="http://www.w3.org/2000/svg">
<ellipse cx="29" cy="26.5" rx="29" ry="26.5" fill="white"/>
<path d="M29.3412 4.36426C43.2851 4.36426 54.5882 14.4737 54.5882 26.9451C54.5882 39.4165 43.2851 49.5259 29.3412 49.5259C15.3972 49.5259 4.09412 39.4165 4.09412 26.9451C4.09412 14.4737 15.3972 4.36426 29.3412 4.36426ZM29.3412 33.7194C28.6716 33.7194 28.0294 33.9573 27.5559 34.3807C27.0825 34.8042 26.8165 35.3786 26.8165 35.9774C26.8165 36.5763 27.0825 37.1507 27.5559 37.5742C28.0294 37.9976 28.6716 38.2355 29.3412 38.2355C30.0108 38.2355 30.6529 37.9976 31.1264 37.5742C31.5999 37.1507 31.8659 36.5763 31.8659 35.9774C31.8659 35.3786 31.5999 34.8042 31.1264 34.3807C30.6529 33.9573 30.0108 33.7194 29.3412 33.7194ZM29.3412 13.3966C28.7228 13.3967 28.1259 13.5997 27.6638 13.9672C27.2017 14.3348 26.9065 14.8412 26.8341 15.3905L26.8165 15.6547V29.2032C26.8172 29.7787 27.0636 30.3323 27.5053 30.7508C27.9471 31.1693 28.5508 31.4212 29.1932 31.4549C29.8356 31.4886 30.4682 31.3017 30.9616 30.9323C31.4551 30.5629 31.7722 30.0389 31.8482 29.4674L31.8659 29.2032V15.6547C31.8659 15.0558 31.5999 14.4814 31.1264 14.058C30.6529 13.6345 30.0108 13.3966 29.3412 13.3966Z" fill="#FFC900"/>
</svg>
